<?xml version="1.0" encoding="UTF-8"?>
<svg width="64px" height="10px" viewBox="0 0 64 10" version="1.1" xmlns="http://www.w3.org/2000/svg" xmlns:xlink="http://www.w3.org/1999/xlink">
    <!-- Generator: Sketch 51.3 (57544) - http://www.bohemiancoding.com/sketch -->
    <title>Title</title>
    <desc>Created with Sketch.</desc>
    <defs></defs>
    <g id="Page-1" stroke="none" stroke-width="1" fill="none" fill-rule="evenodd">
        <g id="Title">
            <path d="M4.83691406,9.79443359 L3.27539062,9.79443359 L0,0.634765625 L1.54882812,0.634765625 L4.01806641,8.01708984 L4.12597656,8.01708984 L6.58251953,0.634765625 L8.09326172,0.634765625 L4.83691406,9.79443359 Z M9.47522266,9.79443359 L9.47522266,2.88183594 L10.8336211,2.88183594 L10.8336211,9.79443359 L9.47522266,9.79443359 Z M10.1544219,1.66943359 C9.64660938,1.66943359 9.27209766,1.30761719 9.27209766,0.837890625 C9.27209766,0.361816406 9.64660938,0 10.1544219,0 C10.6622344,0 11.0367461,0.361816406 11.0367461,0.837890625 C11.0367461,1.30761719 10.6622344,1.66943359 10.1544219,1.66943359 Z M15.5988828,3.91015625 C14.5896055,3.91015625 13.8850156,4.62109375 13.8088438,5.70019531 L17.3000547,5.70019531 C17.2683164,4.61474609 16.6081602,3.91015625 15.5988828,3.91015625 Z M17.293707,7.92822266 L18.6076719,7.92822266 C18.2966367,9.16601562 17.1921445,9.92773438 15.6115781,9.92773438 C13.6311094,9.92773438 12.418707,8.56933594 12.418707,6.36035156 C12.418707,4.15136719 13.6565,2.74853516 15.6052305,2.74853516 C17.5285703,2.74853516 18.6901914,4.0625 18.6901914,6.23339844 L18.6901914,6.70947266 L13.8088438,6.70947266 L13.8088438,6.78564453 C13.8532773,7.99804688 14.5578672,8.76611328 15.6496641,8.76611328 C16.4748594,8.76611328 17.0398008,8.46777344 17.293707,7.92822266 Z M20.7323086,1.16162109 L22.0970547,1.16162109 L22.0970547,2.91357422 L23.5951016,2.91357422 L23.5951016,4.0625 L22.0970547,4.0625 L22.0970547,7.6171875 C22.0970547,8.34082031 22.3953945,8.65820312 23.0745938,8.65820312 C23.2840664,8.65820312 23.4046719,8.64550781 23.5951016,8.62646484 L23.5951016,9.76269531 C23.3729336,9.80078125 23.1190273,9.83251953 22.8524258,9.83251953 C21.3353359,9.83251953 20.7323086,9.29931641 20.7323086,7.96630859 L20.7323086,4.0625 L19.6341641,4.0625 L19.6341641,2.91357422 L20.7323086,2.91357422 L20.7323086,1.16162109 Z M25.1230586,9.79443359 L25.1230586,2.88183594 L26.4370234,2.88183594 L26.4370234,3.97998047 L26.5385859,3.97998047 C26.8750117,3.21191406 27.5605586,2.74853516 28.6015742,2.74853516 C30.1440547,2.74853516 30.9946406,3.67529297 30.9946406,5.31933594 L30.9946406,9.79443359 L29.6298945,9.79443359 L29.6298945,5.66210938 C29.6298945,4.55126953 29.1474727,3.99902344 28.1381953,3.99902344 C27.128918,3.99902344 26.4878047,4.671875 26.4878047,5.75097656 L26.4878047,9.79443359 L25.1230586,9.79443359 Z M35.0933984,8.75976562 C36.1217187,8.75976562 36.8834375,8.10595703 36.8834375,7.24902344 L36.8834375,6.67138672 L35.1949609,6.77929688 C34.2428125,6.84277344 33.8111719,7.16650391 33.8111719,7.77587891 C33.8111719,8.39794922 34.3507227,8.75976562 35.0933984,8.75976562 Z M34.7442773,9.90869141 C33.4112695,9.90869141 32.4400781,9.10253906 32.4400781,7.83935547 C32.4400781,6.59521484 33.3668359,5.87792969 35.0108789,5.77636719 L36.8834375,5.66845703 L36.8834375,5.07177734 C36.8834375,4.34179688 36.4010156,3.92919922 35.4679102,3.92919922 C34.7061914,3.92919922 34.1793359,4.20849609 34.0269922,4.69726562 L32.7066797,4.69726562 C32.8463281,3.51025391 33.9635156,2.74853516 35.5313867,2.74853516 C37.2642969,2.74853516 38.2418359,3.61181641 38.2418359,5.07177734 L38.2418359,9.79443359 L36.9278711,9.79443359 L36.9278711,8.82324219 L36.8199609,8.82324219 C36.4073633,9.51513672 35.6519922,9.90869141 34.7442773,9.90869141 Z M40.1062187,9.79443359 L40.1062187,2.88183594 L41.4201836,2.88183594 L41.4201836,3.99267578 L41.5217461,3.99267578 C41.8264336,3.21191406 42.5246758,2.74853516 43.4450859,2.74853516 C44.3908867,2.74853516 45.0446953,3.23730469 45.3493828,3.99267578 L45.457293,3.99267578 C45.8064141,3.23730469 46.5998711,2.74853516 47.5583672,2.74853516 C48.9548516,2.74853516 49.7673516,3.59277344 49.7673516,5.03369141 L49.7673516,9.79443359 L48.4026055,9.79443359 L48.4026055,5.38916016 C48.4026055,4.45605469 47.9582695,3.99902344 47.06325,3.99902344 C46.1809258,3.99902344 45.6032891,4.63378906 45.6032891,5.44628906 L45.6032891,9.79443359 L44.2639336,9.79443359 L44.2639336,5.25585938 C44.2639336,4.47509766 43.7434258,3.99902344 42.9309258,3.99902344 C42.0993828,3.99902344 41.4709648,4.67822266 41.4709648,5.56689453 L41.4709648,9.79443359 L40.1062187,9.79443359 Z" id="Document-Title" fill-opacity="0.85" fill="#000000"></path>
            <polyline id="Dropdown" stroke="#000000" stroke-width="1.375" opacity="0.249766791" stroke-linecap="round" stroke-linejoin="round" transform="translate(59.250000, 5.375000) rotate(180.000000) translate(-59.250000, -5.375000) " points="56 6.75 59.25 4 62.5 6.75"></polyline>
        </g>
    </g>
</svg>