<?xml version="1.0" encoding="UTF-8"?>
<svg width="64px" height="11px" viewBox="0 0 64 11" version="1.1" xmlns="http://www.w3.org/2000/svg" xmlns:xlink="http://www.w3.org/1999/xlink">
    <!-- Generator: Sketch 51.3 (57544) - http://www.bohemiancoding.com/sketch -->
    <title>Title</title>
    <desc>Created with Sketch.</desc>
    <defs></defs>
    <g id="Title" transform="translate(201.000000, 6.000000)">
        <path d="M5.28125,10 L3.71972656,10 L0.444335938,0.840332031 L1.99316406,0.840332031 L4.46240234,8.22265625 L4.5703125,8.22265625 L7.02685547,0.840332031 L8.53759766,0.840332031 L5.28125,10 Z M9.91955859,10 L9.91955859,3.08740234 L11.277957,3.08740234 L11.277957,10 L9.91955859,10 Z M10.5987578,1.875 C10.0909453,1.875 9.71643359,1.51318359 9.71643359,1.04345703 C9.71643359,0.567382812 10.0909453,0.205566406 10.5987578,0.205566406 C11.1065703,0.205566406 11.481082,0.567382812 11.481082,1.04345703 C11.481082,1.51318359 11.1065703,1.875 10.5987578,1.875 Z M16.0432188,4.11572266 C15.0339414,4.11572266 14.3293516,4.82666016 14.2531797,5.90576172 L17.7443906,5.90576172 C17.7126523,4.8203125 17.0524961,4.11572266 16.0432188,4.11572266 Z M17.738043,8.13378906 L19.0520078,8.13378906 C18.7409727,9.37158203 17.6364805,10.1333008 16.0559141,10.1333008 C14.0754453,10.1333008 12.863043,8.77490234 12.863043,6.56591797 C12.863043,4.35693359 14.1008359,2.95410156 16.0495664,2.95410156 C17.9729063,2.95410156 19.1345273,4.26806641 19.1345273,6.43896484 L19.1345273,6.91503906 L14.2531797,6.91503906 L14.2531797,6.99121094 C14.2976133,8.20361328 15.0022031,8.97167969 16.094,8.97167969 C16.9191953,8.97167969 17.4841367,8.67333984 17.738043,8.13378906 Z M21.1766445,1.3671875 L22.5413906,1.3671875 L22.5413906,3.11914062 L24.0394375,3.11914062 L24.0394375,4.26806641 L22.5413906,4.26806641 L22.5413906,7.82275391 C22.5413906,8.54638672 22.8397305,8.86376953 23.5189297,8.86376953 C23.7284023,8.86376953 23.8490078,8.85107422 24.0394375,8.83203125 L24.0394375,9.96826172 C23.8172695,10.0063477 23.5633633,10.0380859 23.2967617,10.0380859 C21.7796719,10.0380859 21.1766445,9.50488281 21.1766445,8.171875 L21.1766445,4.26806641 L20.0785,4.26806641 L20.0785,3.11914062 L21.1766445,3.11914062 L21.1766445,1.3671875 Z M25.5673945,10 L25.5673945,3.08740234 L26.8813594,3.08740234 L26.8813594,4.18554688 L26.9829219,4.18554688 C27.3193477,3.41748047 28.0048945,2.95410156 29.0459102,2.95410156 C30.5883906,2.95410156 31.4389766,3.88085938 31.4389766,5.52490234 L31.4389766,10 L30.0742305,10 L30.0742305,5.86767578 C30.0742305,4.75683594 29.5918086,4.20458984 28.5825312,4.20458984 C27.5732539,4.20458984 26.9321406,4.87744141 26.9321406,5.95654297 L26.9321406,10 L25.5673945,10 Z M35.5377344,8.96533203 C36.5660547,8.96533203 37.3277734,8.31152344 37.3277734,7.45458984 L37.3277734,6.87695312 L35.6392969,6.98486328 C34.6871484,7.04833984 34.2555078,7.37207031 34.2555078,7.98144531 C34.2555078,8.60351562 34.7950586,8.96533203 35.5377344,8.96533203 Z M35.1886133,10.1142578 C33.8556055,10.1142578 32.8844141,9.30810547 32.8844141,8.04492188 C32.8844141,6.80078125 33.8111719,6.08349609 35.4552148,5.98193359 L37.3277734,5.87402344 L37.3277734,5.27734375 C37.3277734,4.54736328 36.8453516,4.13476562 35.9122461,4.13476562 C35.1505273,4.13476562 34.6236719,4.4140625 34.4713281,4.90283203 L33.1510156,4.90283203 C33.2906641,3.71582031 34.4078516,2.95410156 35.9757227,2.95410156 C37.7086328,2.95410156 38.6861719,3.81738281 38.6861719,5.27734375 L38.6861719,10 L37.372207,10 L37.372207,9.02880859 L37.2642969,9.02880859 C36.8516992,9.72070312 36.0963281,10.1142578 35.1886133,10.1142578 Z M40.5505547,10 L40.5505547,3.08740234 L41.8645195,3.08740234 L41.8645195,4.19824219 L41.966082,4.19824219 C42.2707695,3.41748047 42.9690117,2.95410156 43.8894219,2.95410156 C44.8352227,2.95410156 45.4890312,3.44287109 45.7937187,4.19824219 L45.9016289,4.19824219 C46.25075,3.44287109 47.044207,2.95410156 48.0027031,2.95410156 C49.3991875,2.95410156 50.2116875,3.79833984 50.2116875,5.23925781 L50.2116875,10 L48.8469414,10 L48.8469414,5.59472656 C48.8469414,4.66162109 48.4026055,4.20458984 47.5075859,4.20458984 C46.6252617,4.20458984 46.047625,4.83935547 46.047625,5.65185547 L46.047625,10 L44.7082695,10 L44.7082695,5.46142578 C44.7082695,4.68066406 44.1877617,4.20458984 43.3752617,4.20458984 C42.5437187,4.20458984 41.9153008,4.88378906 41.9153008,5.77246094 L41.9153008,10 L40.5505547,10 Z" id="Document-Title" fill-opacity="0.85" fill="#000000"></path>
        <polyline id="Dropdown" stroke="#000000" stroke-width="1.375" opacity="0.249766791" stroke-linecap="round" stroke-linejoin="round" transform="translate(59.660004, 5.375000) rotate(180.000000) translate(-59.660004, -5.375000) " points="56.4100037 6.75 59.6600037 4 62.9100037 6.75"></polyline>
    </g>
</svg>