<?xml version="1.0" standalone="no"?>
<!DOCTYPE svg PUBLIC "-//W3C//DTD SVG 1.1//EN" "http://www.w3.org/Graphics/SVG/1.1/DTD/svg11.dtd" >
<svg xmlns="http://www.w3.org/2000/svg" xmlns:xlink="http://www.w3.org/1999/xlink" version="1.1">
<metadata>
Created by FontForge 20170731 at Sun Jun 10 16:58:27 2018
 By Aleksey,,,
Copyright (c) 2018 by Lucas Descroix. All rights reserved.
</metadata>
<defs>
<font id="Syne-Bold" horiz-adv-x="0" >
  <font-face 
    font-family="Syne"
    font-weight="700"
    font-stretch="expanded"
    units-per-em="1000"
    panose-1="0 0 8 5 0 0 0 0 0 0"
    ascent="800"
    descent="-200"
    x-height="497"
    cap-height="647"
    bbox="-525 -217 1414 907"
    underline-thickness="98"
    underline-position="-355"
    unicode-range="U+0020-FB01"
  />
<missing-glyph horiz-adv-x="456" 
d="M97 393h262v-262h-262v262z" />
    <glyph glyph-name="periodcentered" unicode="&#x2d;&#x2d;" horiz-adv-x="271" 
d="M211 330v-114h-151v114h151z" />
    <glyph glyph-name="fi" unicode="fi" horiz-adv-x="712" 
d="M359 592q-32 1 -51.5 -6t-30.5 -26t-11 -52v-34h387v-474h-130v375h-99h-158v-375h-130v375h-113v99h113v50q0 173 191 173h326v-105h-294z" />
    <glyph glyph-name="f_f" unicode="ff" horiz-adv-x="827" 
d="M742 592q-48 1 -70.5 -17t-22.5 -67v-20h164v-99h-164v-389h-130v389h-258v-389h-130v389h-108v99h108v22q0 173 192 173h103v-105h-72q-32 1 -51.5 -5.5t-30.5 -25.5t-11 -53v-6h258v36q0 173 191 173h104v-105h-72z" />
    <glyph glyph-name="f_f_i" unicode="ffi" horiz-adv-x="1091" 
d="M742 592q-48 1 -70.5 -17t-22.5 -67v-20h383v-488h-130v389h-89h-164v-389h-130v389h-258v-389h-130v389h-108v99h108v22q0 173 192 173h103v-105h-72q-32 1 -51.5 -5.5t-30.5 -25.5t-11 -53v-6h258v36q0 173 191 173h323v-105h-291z" />
    <glyph glyph-name=".notdef" horiz-adv-x="456" 
d="M97 393h262v-262h-262v262z" />
    <glyph glyph-name=".null" 
 />
    <glyph glyph-name="nonmarkingreturn" horiz-adv-x="333" 
 />
    <glyph glyph-name="space" unicode=" " horiz-adv-x="241" 
 />
    <glyph glyph-name="exclam" unicode="!" horiz-adv-x="265" 
d="M66 650h132v-448h-132v448zM208 114v-114h-151v114h151z" />
    <glyph glyph-name="quotedbl" unicode="&#x22;" horiz-adv-x="428" 
d="M61 422l-12 35q5 2 12 7.5t19 24t14 39.5l-55 11v114h153v-75q0 -67 -33 -104.5t-98 -51.5zM258 422l-11 35q4 2 11 7.5t19.5 24t14.5 39.5l-55 11v114h153v-75q0 -67 -33 -104.5t-99 -51.5z" />
    <glyph glyph-name="numbersign" unicode="#" horiz-adv-x="909" 
d="M842 396h-169v-145h169v-93h-169v-144h-123v144h-187v-144h-122v144h-174v93h174v145h-174v92h174v145h122v-145h187v145h123v-145h169v-92zM550 251v145h-187v-145h187z" />
    <glyph glyph-name="dollar" unicode="$" horiz-adv-x="567" 
d="M321 349q3 0 9 -2q28 -6 42.5 -9t39 -10t38 -13.5t30.5 -18t25.5 -24.5t15 -31.5t6.5 -40.5q0 -69 -61 -107.5t-164 -38.5h-21l-22 -125l-71 12l22 122q-40 8 -71.5 25t-49.5 35.5t-29.5 39.5t-15 38t-2.5 30h120q24 -77 136 -77q96 -1 96 55q0 13 -6 23t-15 16.5t-28 12
t-36 8.5t-47 8q-33 6 -56.5 11.5t-50 13.5t-44.5 18.5t-33.5 24.5t-23.5 34t-8 44q0 70 66 110.5t170 40.5q9 0 18 -1l23 127l70 -12l-21 -125q66 -17 101.5 -59t36.5 -100h-115q-9 37 -36.5 53t-78.5 16q-24 0 -43 -4t-31.5 -11t-19 -17.5t-6.5 -23.5q0 -29 31 -42t110 -26
z" />
    <glyph glyph-name="percent" unicode="%" horiz-adv-x="883" 
d="M605 686l54 -30l-382 -690l-52 32zM214 333q-86 0 -137 44t-51 121q0 78 51 122t137 44q57 0 99 -19.5t65 -57t23 -89.5q0 -77 -50.5 -121t-136.5 -44zM214 415q25 0 44.5 10t30 29t10.5 44q0 39 -23 61.5t-62 22.5t-62.5 -22.5t-23.5 -61.5q0 -25 10.5 -44t30 -29
t45.5 -10zM670 -12q-86 0 -136.5 44t-50.5 121q0 78 50.5 122t136.5 44t136.5 -44t50.5 -122q0 -77 -50.5 -121t-136.5 -44zM670 70q39 0 62 22.5t23 60.5t-23 61t-62 23t-62.5 -23t-23.5 -61t23.5 -60.5t62.5 -22.5z" />
    <glyph glyph-name="ampersand" unicode="&#x26;" horiz-adv-x="773" 
d="M749 368v-73h-140v-441h-123v230q-66 -97 -205 -97q-109 0 -177 51.5t-68 135.5q0 78 59.5 115.5t169.5 46.5q-104 8 -160 42.5t-56 105.5q0 79 75.5 127.5t203.5 48.5q120 0 193.5 -50.5t73.5 -144.5h-123q-1 41 -40 62.5t-104 21.5q-68 0 -105.5 -23t-37.5 -64
q0 -94 168 -94h396zM486 151v144h-133q-87 0 -133 -25.5t-46 -73.5q0 -24 9.5 -43t27.5 -31t44.5 -18t60.5 -6q121 0 170 53z" />
    <glyph glyph-name="quotesingle" unicode="'" horiz-adv-x="230" 
d="M149 443h-69l-41 124v86h152v-86z" />
    <glyph glyph-name="parenleft" unicode="(" horiz-adv-x="336" 
d="M283 -90l-69 -56q-7 7 -17.5 19t-38.5 54t-49 88.5t-38.5 120t-17.5 150.5q0 56 9 110t23 95.5t31.5 78.5t34.5 62.5t31 44.5t23 28l9 9l69 -55q-5 -5 -13.5 -15.5t-31 -46t-39 -75.5t-30.5 -104t-14 -132q0 -40 4.5 -78.5t12 -69.5t17 -60t20 -51.5t21 -42t20.5 -33
t17 -23t12 -14.5z" />
    <glyph glyph-name="parenright" unicode=")" horiz-adv-x="336" 
d="M53 -90q5 5 14 15t31 45.5t39 75.5t30.5 105t13.5 135q0 68 -13 131.5t-32 105.5t-37.5 74t-32.5 47l-13 15l69 55q4 -3 9.5 -9t22.5 -27.5t32 -45t33.5 -62t32 -79t22.5 -95t9 -110.5q0 -77 -16.5 -150t-40 -121.5t-47.5 -86.5t-40 -56l-17 -18z" />
    <glyph glyph-name="asterisk" unicode="*" horiz-adv-x="503" 
d="M463 541l-134 -40l89 -115l-81 -59l-87 126l-86 -126l-81 59l88 115l-130 39l31 96l132 -47l-4 143h100l-4 -144l136 48z" />
    <glyph glyph-name="plus" unicode="+" horiz-adv-x="560" 
d="M510 318v-96h-176v-141h-108v141h-176v96h176v141h108v-141h176z" />
    <glyph glyph-name="comma" unicode="," horiz-adv-x="231" 
d="M61 -116l-12 34q5 3 12 8t19 23.5t14 39.5l-55 11v115h153v-75q0 -68 -33 -105.5t-98 -50.5z" />
    <glyph glyph-name="hyphen" unicode="-" horiz-adv-x="494" 
d="M80 320h334v-98h-334v98z" />
    <glyph glyph-name="period" unicode="." horiz-adv-x="271" 
d="M211 114v-114h-151v114h151z" />
    <glyph glyph-name="slash" unicode="/" horiz-adv-x="481" 
d="M340 753l105 -38l-305 -835l-104 38z" />
    <glyph glyph-name="zero" unicode="0" horiz-adv-x="737" 
d="M370 -12q-144 0 -230.5 68t-86.5 191q0 124 86.5 192.5t230.5 68.5q94 0 164.5 -29.5t110 -89t39.5 -142.5q0 -82 -39.5 -141t-110 -88.5t-164.5 -29.5zM370 88q79 0 131 42.5t52 116.5q0 50 -24.5 87t-65.5 56t-93 19q-80 0 -132.5 -43.5t-52.5 -118t52 -117t133 -42.5z
" />
    <glyph glyph-name="one" unicode="1" horiz-adv-x="390" 
d="M25 497h271v-497h-130v386h-141v111z" />
    <glyph glyph-name="two" unicode="2" horiz-adv-x="631" 
d="M213 93l378 7v-100h-533v91v0v0q44 20 100 43.5t88 37.5t69.5 31t57.5 29.5t38.5 28t26 31t7.5 33.5q0 37 -34 58t-102 21q-63 0 -102 -24.5t-40 -66.5h-126q-3 43 15 79t52.5 62t85.5 40.5t112 14.5q123 0 198 -45.5t75 -122.5q0 -28 -12 -51t-30.5 -41t-51.5 -36
t-64 -31t-79 -31z" />
    <glyph glyph-name="three" unicode="3" horiz-adv-x="643" 
d="M390 186q105 -8 160.5 -44t55.5 -115q0 -56 -35 -99t-101 -67.5t-152 -24.5q-130 0 -208 58t-73 149h126q1 -29 22 -51t55.5 -33.5t77.5 -11.5q73 0 111.5 25t38.5 74q0 23 -11.5 42t-33.5 31.5t-54 19t-73 6.5h-85v72h85q161 0 161 94q0 27 -16.5 47t-48 30.5
t-74.5 10.5q-64 0 -105.5 -25t-42.5 -66h-126q-5 90 75 146t199 56q63 0 115 -13t87 -36t54.5 -55.5t19.5 -72.5q0 -73 -52.5 -106t-151.5 -41z" />
    <glyph glyph-name="four" unicode="4" horiz-adv-x="711" 
d="M671 87v-98h-115v-134h-130v134h-379v98l379 414h130v-414h115zM202 87h224v251z" />
    <glyph glyph-name="five" unicode="5" horiz-adv-x="685" 
d="M404 259q67 0 119 -22.5t83.5 -70t31.5 -113.5q0 -68 -35 -117t-98 -74t-148 -25q-123 0 -209 55t-90 148h124q5 -45 53.5 -70.5t116.5 -25.5q65 0 110.5 28t45.5 82q0 37 -22 63t-55.5 37.5t-75.5 11.5q-123 0 -165 -63l-112 21l29 376h463v-111h-342l-17 -206
q28 36 80.5 56t112.5 20z" />
    <glyph glyph-name="six" unicode="6" horiz-adv-x="689" 
d="M392 426q119 0 190.5 -60t70.5 -159q-1 -101 -81.5 -160.5t-219.5 -59.5q-151 0 -239 57t-86 158q0 58 35 114q7 11 64.5 94t111.5 160l54 77h164l-223 -275q71 54 159 54zM520 209q1 55 -46 86t-125 31q-85 0 -137 -33t-52 -85q-1 -22 8 -40.5t25.5 -32t39.5 -23
t51.5 -14.5t60.5 -5q79 0 126.5 30.5t48.5 85.5z" />
    <glyph glyph-name="seven" unicode="7" horiz-adv-x="643" 
d="M32 497h572v-111l-312 -536h-157l330 536h-433v111z" />
    <glyph glyph-name="eight" unicode="8" horiz-adv-x="675" 
d="M465 342q168 -32 168 -164q0 -84 -76 -137.5t-219.5 -53.5t-219.5 53.5t-76 137.5q0 132 168 164q-149 27 -149 142q0 52 29.5 91t93 62t153.5 23q136 0 206.5 -48t70.5 -128q0 -115 -149 -142zM337 552q-36 0 -63.5 -6t-44.5 -17.5t-25 -26.5t-8 -35q0 -40 35 -64
t106 -24q72 0 108.5 24.5t36.5 63.5q0 40 -36.5 62.5t-108.5 22.5zM337 97q82 0 123 25.5t41 68.5q0 45 -41 71t-123 26q-81 0 -120.5 -26t-39.5 -71q0 -43 39.5 -68.5t120.5 -25.5z" />
    <glyph glyph-name="nine" unicode="9" horiz-adv-x="697" 
d="M350 512q151 0 235.5 -56t83.5 -158q-1 -56 -40 -118q-6 -11 -62.5 -93.5t-109.5 -159.5l-53 -77h-165l228 284q-76 -60 -169 -60q-117 0 -190 60.5t-72 158.5q2 103 84 161t230 58zM170 291q-1 -56 46 -86.5t130 -30.5q85 0 137 33t53 85q1 55 -50.5 85t-135.5 30
q-83 0 -131.5 -29.5t-48.5 -86.5z" />
    <glyph glyph-name="colon" unicode=":" horiz-adv-x="299" 
d="M218 495v-114h-151v114h151zM218 114v-114h-151v114h151z" />
    <glyph glyph-name="semicolon" unicode=";" horiz-adv-x="280" 
d="M211 484v-115h-151v115h151zM89 -103l-12 34q5 2 12 7.5t19.5 24t13.5 39.5l-55 11v114h153v-75q0 -67 -33 -104.5t-98 -50.5z" />
    <glyph glyph-name="less" unicode="&#x3c;" horiz-adv-x="532" 
d="M438 440l-276 -150l276 -148l-50 -93l-327 186v109l327 186z" />
    <glyph glyph-name="equal" unicode="=" horiz-adv-x="586" 
d="M50 428h486v-98h-486v98zM50 225h486v-98h-486v98z" />
    <glyph glyph-name="greater" unicode="&#x3e;" horiz-adv-x="538" 
d="M143 530l328 -186v-109l-328 -186l-49 93l276 148l-276 150z" />
    <glyph glyph-name="question" unicode="?" horiz-adv-x="581" 
d="M289 660q124 0 187 -55t63 -143q0 -86 -55.5 -136t-146.5 -57v-68h-127v166h73q29 0 52 7t38.5 19t24 29t8.5 37q0 27 -13.5 46.5t-40 30t-63.5 10.5q-55 0 -86 -23.5t-32 -60.5h-129q-1 35 13.5 69t44 63.5t78.5 47.5t111 18zM196 0v114h150v-114h-150z" />
    <glyph glyph-name="at" unicode="@" horiz-adv-x="895" 
d="M795 590q17 -39 17 -85q0 -19 -2.5 -38.5t-8 -42.5t-9.5 -37t-12.5 -41t-10.5 -36q-8 -26 -40.5 -94t-48.5 -81q-3 -2 -14.5 -9.5t-16.5 -12.5q-1 -2 -3 -5t-3.5 -5t-5.5 -3q-1 -1 -3 -1q-3 0 -9.5 3.5t-7.5 4.5q-48 18 -48 63q0 32 2 92.5t2 91.5v1.5t0.5 1t1.5 3t2 5.5
t2.5 9l3.5 14q1 2 4 10q4 14 3 13q-19 -17 -39 -39v-53q-8 0 -34 9q-7 -9 -17.5 -24t-18 -25.5t-17 -23t-19 -24.5t-19.5 -22q-21 -23 -50.5 -47.5t-61.5 -50t-53 -45.5q-4 3 -5 25q0 70 10 117q9 44 54 181q10 33 18 63q1 3 0.5 5.5t-1 7.5t-0.5 8q0 6 4 6q3 0 8 -2t7 -2
q1 0 21.5 -3t27.5 -5q2 -1 96 -42q21 29 36 42q25 23 51 27.5t43.5 -9t25 -42.5t-4.5 -73l-9 -16q0 -24 -2.5 -51t-6 -56t-4.5 -49v1l74 130q1 6 7 26t7.5 25.5l6 22t6 23t4.5 19t4 20.5t2 18t1 19q0 32 -14 62q-2 6 -3.5 10t-1.5 5t-0.5 2.5t-1 1t-4 1t-8.5 4.5
q-9 4 -83 20h-5l-17 1q-24 0 -62 -5q-66 -7 -122 -25q-51 -16 -110 -56.5t-73 -68.5q-51 -107 -69 -182.5t-18 -175.5q0 -35 9 -61.5t20 -39t29.5 -29.5t25.5 -26q-5 6 5 6q14 -1 49 -15q11 -4 34 -4q4 0 11.5 -0.5t9 0t6 1t6.5 2.5t6 4t9 7.5t10 10t15 15t19 19.5
q35 33 48 51l32 43l56 -41q4 -1 -1 -6q-5 -6 -15.5 -20.5t-16.5 -22.5q-25 -35 -57 -63q-9 -9 -27 -26t-27.5 -24.5t-24.5 -17.5t-29.5 -14t-32.5 -4q-27 0 -61 11q-2 1 -9.5 3.5t-10 3t-9.5 3t-9.5 4t-8.5 4t-9.5 4t-8.5 4.5t-8 5.5t-6.5 5.5t-6.5 7q-95 115 -95 197
q0 109 22 198.5t73 196.5q13 28 52 64t86 65.5t84 41.5q75 23 138 31q46 5 72 5q24 0 41 -4q70 -15 104 -33q10 -5 18 -15t11 -15.5t9.5 -21.5t7.5 -16zM407 434l-1 -2q1 1 1 2zM367 235q22 23 86 120q-47 21 -61 27q-2 -8 -4 -15q-37 -102 -66 -174l-2 -4z" />
    <glyph glyph-name="A" unicode="A" horiz-adv-x="789" 
d="M627 0l-67 147h-333l-66 -147h-144l304 647h144l307 -647h-145zM272 246h243l-122 267z" />
    <glyph glyph-name="B" unicode="B" horiz-adv-x="780" 
d="M739 184q0 -89 -67.5 -135t-185.5 -49h-409v647h373q86 0 145.5 -19.5t89.5 -57t30 -93.5q0 -70 -43.5 -104.5t-127.5 -45.5q45 -3 78 -11t61 -23.5t42 -42.5t14 -66zM454 535h-244v-175h237q63 0 96 23.5t33 68.5q0 83 -122 83zM474 112q129 0 129 86q0 25 -11 42.5
t-32 26.5t-45 13t-55 4h-250v-172h264z" />
    <glyph glyph-name="C" unicode="C" horiz-adv-x="885" 
d="M832 233q-9 -78 -55 -133.5t-125.5 -84t-187.5 -28.5q-188 0 -299.5 86t-111.5 249t111.5 250.5t299.5 87.5q81 0 147 -17t112.5 -49t74.5 -79t34 -105h-132q-21 64 -80.5 99t-155.5 35q-126 0 -200 -57.5t-74 -164.5t73.5 -165t200.5 -58q96 0 155.5 35t80.5 99h132z
" />
    <glyph glyph-name="D" unicode="D" horiz-adv-x="879" 
d="M447 647q85 0 151 -17.5t108.5 -46.5t70 -70.5t38.5 -87.5t11 -99q0 -54 -12.5 -100.5t-41 -88.5t-71.5 -72t-108 -47.5t-146 -17.5h-370v647h370zM444 115q55 0 98.5 11.5t71 31t45 47t25 57t7.5 64.5q0 43 -12.5 78.5t-39.5 65t-76.5 45.5t-118.5 16h-234v-416h234z
" />
    <glyph glyph-name="E" unicode="E" horiz-adv-x="769" 
d="M210 111h499v-111h-632v647h631v-111h-498v-172h408v-83h-408v-170z" />
    <glyph glyph-name="F" unicode="F" horiz-adv-x="741" 
d="M708 535h-498v-172h408v-106h-408v-257h-133v647h631v-112z" />
    <glyph glyph-name="G" unicode="G" horiz-adv-x="918" 
d="M854 0h-118q0 62 18 178q-31 -92 -108.5 -141.5t-196.5 -49.5q-178 0 -287 88t-109 247q0 161 111.5 249.5t299.5 88.5q162 0 258.5 -66.5t105.5 -180.5h-128q-21 60 -79.5 95t-156.5 35q-130 0 -202 -59.5t-72 -161.5q0 -103 72.5 -162t206.5 -59q183 0 243 125l-170 -3
v85h309z" />
    <glyph glyph-name="H" unicode="H" horiz-adv-x="895" 
d="M685 647h133v-647h-133v269h-475v-269h-133v647h133v-267h475v267z" />
    <glyph glyph-name="I" unicode="I" horiz-adv-x="324" 
d="M95 647h133v-647h-133v647z" />
    <glyph glyph-name="J" unicode="J" horiz-adv-x="683" 
d="M473 647h133v-403q0 -108 -76.5 -181t-211.5 -73q-76 0 -139.5 24t-107 78t-45.5 129h126q10 -58 54.5 -88.5t111.5 -30.5q78 0 116.5 41t38.5 110v394z" />
    <glyph glyph-name="K" unicode="K" horiz-adv-x="814" 
d="M789 0h-192l-387 339v-339h-133v647h133v-306l335 306h198l-353 -304z" />
    <glyph glyph-name="L" unicode="L" horiz-adv-x="687" 
d="M210 111h430v-111h-482h-81v647h133v-536z" />
    <glyph glyph-name="M" unicode="M" horiz-adv-x="1099" 
d="M889 647h133v-647h-133v412l-265 -412h-149l-265 411v-411h-133v647h133l339 -532z" />
    <glyph glyph-name="N" unicode="N" horiz-adv-x="901" 
d="M691 647h133v-647h-133l-481 469v-469h-133v647h133l481 -471v471z" />
    <glyph glyph-name="O" unicode="O" horiz-adv-x="924" 
d="M462.5 -13q-193.5 0 -301.5 89t-108 247.5t108 247.5t301.5 89t301 -89t107.5 -247.5t-107.5 -247.5t-301 -89zM462 102q118 0 194 57t76 164t-76 163.5t-194 56.5q-57 0 -105.5 -14t-86.5 -40.5t-59.5 -69t-21.5 -96.5q0 -31 7.5 -59t21 -50t32.5 -40.5t42.5 -31.5
t50.5 -22t57 -13.5t62 -4.5z" />
    <glyph glyph-name="P" unicode="P" horiz-adv-x="784" 
d="M476 647q75 0 132 -22.5t92.5 -74t35.5 -126.5q0 -56 -20 -98.5t-56 -67t-82 -36.5t-102 -12h-268v-210h-133v647h401zM488 317q52 0 83.5 28.5t31.5 78.5q0 52 -31.5 79.5t-83.5 27.5h-280v-214h280z" />
    <glyph glyph-name="Q" unicode="Q" horiz-adv-x="924" 
d="M871 323q0 -144 -90 -231t-254 -102v-190h-130v190q-164 15 -254 102t-90 231q0 159 108 248t301.5 89t301 -89t107.5 -248zM462 102q118 0 194 57t76 164t-76 163.5t-194 56.5q-57 0 -105.5 -14t-86.5 -40.5t-59.5 -69t-21.5 -96.5q0 -31 7.5 -59t21 -50t32.5 -40.5
t42.5 -31.5t50.5 -22t57 -13.5t62 -4.5z" />
    <glyph glyph-name="R" unicode="R" horiz-adv-x="826" 
d="M601 282q79 -7 114 -34.5t35 -93.5v-154h-133v145q0 53 -39.5 73t-123.5 20h-244v-238h-133v647h439q116 0 182 -48.5t66 -147.5q0 -142 -163 -169zM210 344h306q51 0 82.5 26.5t32.5 72.5q0 43 -31 65.5t-84 22.5h-306v-187z" />
    <glyph glyph-name="S" unicode="S" horiz-adv-x="694" 
d="M41 218h135q6 -52 62 -85.5t137 -34.5q73 0 110.5 23.5t37.5 65.5q0 15 -5.5 26.5t-18 20.5t-27.5 15.5t-40.5 12t-49.5 10t-62 9.5q-50 8 -87.5 17t-73.5 24.5t-59 34.5t-37 47.5t-14 63.5q0 58 32.5 101t98.5 67t159 24q138 0 213.5 -59.5t74.5 -163.5h-130
q-3 56 -47 83.5t-117 27.5q-150 0 -150 -83q0 -45 43 -62t169 -39q48 -7 83 -15t70 -22.5t57 -33t35.5 -46.5t13.5 -65q0 -94 -70 -145t-213 -51q-57 0 -107 11.5t-86 30.5t-64 43t-44 50t-23.5 51t-5.5 46z" />
    <glyph glyph-name="T" unicode="T" horiz-adv-x="722" 
d="M702 647v-113h-274v-534h-134v534h-274v113h682z" />
    <glyph glyph-name="U" unicode="U" horiz-adv-x="881" 
d="M671 647h133v-375q0 -63 -19 -112.5t-52 -81.5t-79.5 -53t-99 -29.5t-112.5 -8.5q-64 0 -117 9t-99.5 29.5t-79 53t-51 81.5t-18.5 112v375h133v-361q0 -55 16.5 -92t49.5 -56.5t72 -27t94 -7.5q52 0 90.5 7.5t71.5 27t50 56.5t17 92v361z" />
    <glyph glyph-name="V" unicode="V" horiz-adv-x="775" 
d="M610 647h145l-283 -647h-166l-286 647h147l222 -531z" />
    <glyph glyph-name="W" unicode="W" horiz-adv-x="1300" 
d="M1136 647h144l-270 -647h-163l-195 506l-196 -506h-163l-273 647h147l209 -519l199 519h153l199 -519z" />
    <glyph glyph-name="X" unicode="X" horiz-adv-x="780" 
d="M741 0h-169l-183 237l-188 -237h-162l276 329l-266 318h162l181 -227l184 227h162l-272 -317z" />
    <glyph glyph-name="Y" unicode="Y" horiz-adv-x="740" 
d="M567 647h154l-284 -443v-204h-134v204l-284 443h154l199 -322z" />
    <glyph glyph-name="Z" unicode="Z" horiz-adv-x="821" 
d="M758 647v-111l-531 -425h531v-111h-695v111l531 425h-531v111h695z" />
    <glyph glyph-name="bracketleft" unicode="[" horiz-adv-x="408" 
d="M349 -82v-102h-260v984h260v-102h-159v-780h159z" />
    <glyph glyph-name="backslash" unicode="\" horiz-adv-x="481" 
d="M140 753l305 -835l-105 -38l-304 835z" />
    <glyph glyph-name="bracketright" unicode="]" horiz-adv-x="410" 
d="M60 -81h159v779h-159v102h260v-983h-260v102z" />
    <glyph glyph-name="asciicircum" unicode="^" horiz-adv-x="587" 
d="M226 617v-114h-151v114h151z" />
    <glyph glyph-name="underscore" unicode="_" horiz-adv-x="849" 
d="M71 -100h708v-100h-708v100z" />
    <glyph glyph-name="grave" unicode="`" horiz-adv-x="587" 
d="M291 717h151v-114h-151v114z" />
    <glyph glyph-name="a" unicode="a" horiz-adv-x="722" 
d="M535 497h130v-497h-121q-9 69 -9 128v31q-23 -74 -81.5 -122t-151.5 -48q-113 0 -189.5 72t-76.5 187q0 116 77.5 188t195.5 72q93 0 148.5 -42t77.5 -116v147zM344 89q88 0 139.5 43.5t51.5 115.5q0 76 -51 117.5t-140 41.5q-82 0 -128.5 -43t-46.5 -116
q0 -72 48 -115.5t127 -43.5z" />
    <glyph glyph-name="b" unicode="b" horiz-adv-x="745" 
d="M442 508q117 0 191.5 -72t74.5 -188q0 -115 -75.5 -187t-190.5 -72q-93 0 -151 48t-81 122v-31q0 -26 -2.5 -58t-4.5 -51l-2 -19h-121v697h130v-348q22 75 79 117t153 42zM401 89q79 0 126.5 43.5t47.5 115.5q0 73 -46 116.5t-128 43.5q-89 0 -140 -42t-51 -118
q0 -72 51.5 -115.5t139.5 -43.5z" />
    <glyph glyph-name="c" unicode="c" horiz-adv-x="686" 
d="M650 196q-8 -98 -85 -153t-209 -55q-143 0 -231.5 67.5t-88.5 191.5t88.5 192.5t231.5 68.5q131 0 207.5 -54.5t85.5 -151.5h-119q-11 32 -36.5 56t-60.5 36t-77 12q-80 0 -134 -41.5t-54 -117t53.5 -116.5t134.5 -41q67 0 112.5 28t62.5 78h119z" />
    <glyph glyph-name="d" unicode="d" horiz-adv-x="745" 
d="M535 697h130v-697h-121q-9 69 -9 128v31q-23 -74 -81.5 -122t-151.5 -48q-114 0 -190 72t-76 187q0 116 75 188t191 72q96 0 153.5 -42t79.5 -117v348zM344 89q88 0 139.5 43.5t51.5 115.5q0 76 -51.5 118t-139.5 42q-82 0 -128.5 -43.5t-46.5 -116.5q0 -72 48 -115.5
t127 -43.5z" />
    <glyph glyph-name="e" unicode="e" horiz-adv-x="678" 
d="M513 165h126q-14 -80 -86 -128.5t-194 -48.5q-146 0 -234.5 69t-88.5 190.5t87 191t232 69.5q98 0 163 -30.5t96.5 -93t26.5 -156.5h-474q8 -63 57 -102t132 -39q61 0 103 21.5t54 56.5zM349 410q-47 0 -84 -15t-60 -39t-31 -56h338q-5 51 -48 80.5t-115 29.5z" />
    <glyph glyph-name="f" unicode="f" horiz-adv-x="444" 
d="M359 592q-32 1 -51.5 -6t-30.5 -26t-11 -52v-20h158v-99h-158v-389h-130v389h-113v99h113v36q0 173 191 173h104v-105h-72z" />
    <glyph glyph-name="g" unicode="g" horiz-adv-x="671" 
d="M376 502h270v-99q-88 -2 -202 46q134 -65 134 -166q0 -97 -72.5 -152t-197.5 -55q-67 -2 -95.5 -11t-28.5 -33q0 -32 46 -32h163q106 0 159 -36t53 -122v-47h-130v24q0 44 -28 63t-82 19h-155q-158 0 -158 95q0 91 152 92q-79 21 -123.5 72.5t-44.5 128.5q0 101 73.5 160
t198.5 59q35 0 68 -6zM399 469q8 -3 15 -6q-8 4 -15 7v-1zM308 170q65 0 104.5 31.5t39.5 86.5q0 56 -39 88t-105 32t-105.5 -32t-39.5 -87.5t39 -87t106 -31.5z" />
    <glyph glyph-name="h" unicode="h" horiz-adv-x="701" 
d="M430 508q95 0 154.5 -48.5t59.5 -141.5v-318h-130v273q0 62 -33 92.5t-107 30.5q-61 0 -109.5 -30t-65.5 -72v-294h-130v697h130v-343q21 65 82 109.5t149 44.5z" />
    <glyph glyph-name="i" unicode="i" horiz-adv-x="268" 
d="M209 715v-114h-151v114h151zM69 497h130v-497h-130v497z" />
    <glyph glyph-name="j" unicode="j" horiz-adv-x="268" 
d="M209 715v-114h-151v114h151zM70 497h130v-697h-130v697z" />
    <glyph glyph-name="k" unicode="k" horiz-adv-x="649" 
d="M69 0v697h130v-697h-130zM368 278l273 -278l-165 -1l-274 280l239 218h177z" />
    <glyph glyph-name="l" unicode="l" horiz-adv-x="271" 
d="M70 697h130v-697h-130v697z" />
    <glyph glyph-name="m" unicode="m" horiz-adv-x="1126" 
d="M854 508q97 0 156 -51.5t59 -152.5v-304h-130v281q0 63 -31.5 92.5t-99.5 29.5q-29 0 -57 -7t-50 -19.5t-39.5 -28.5t-29.5 -34q1 -5 1 -10v-304h-130v281q0 63 -31.5 92.5t-99.5 29.5q-65 0 -116 -31.5t-69 -76.5v-295h-130v497h130v-143q22 65 82.5 109.5t148.5 44.5
q53 0 95 -15t72 -48t41 -82q25 61 86 103t142 42z" />
    <glyph glyph-name="n" unicode="n" horiz-adv-x="690" 
d="M418 508q47 0 85.5 -12t67.5 -36.5t45.5 -64.5t16.5 -91v-304h-130v281q0 63 -31.5 92.5t-99.5 29.5q-65 0 -116 -31.5t-69 -76.5v-295h-130v497h130v-143q22 65 82.5 109.5t148.5 44.5z" />
    <glyph glyph-name="o" unicode="o" horiz-adv-x="704" 
d="M353 -12q-144 0 -230.5 68t-86.5 191q0 124 86.5 192.5t230.5 68.5q143 0 229 -68.5t86 -192.5q0 -82 -40 -141t-110.5 -88.5t-164.5 -29.5zM353 88q80 0 131.5 42.5t51.5 116.5q0 50 -24.5 87t-65.5 56t-93 19q-80 0 -132.5 -43.5t-52.5 -118t52 -117t133 -42.5z" />
    <glyph glyph-name="p" unicode="p" horiz-adv-x="722" 
d="M420 508q113 0 189 -73t76 -187q0 -116 -76.5 -188t-188.5 -72q-93 0 -151.5 48t-81.5 122v-358h-130v697h124l6 -132v-15q22 74 79.5 116t153.5 42zM378 89q79 0 126.5 43.5t47.5 115.5q0 73 -46 116.5t-128 43.5q-80 0 -133 -40t-58 -109v-22q5 -68 56 -108t135 -40z
" />
    <glyph glyph-name="q" unicode="q" horiz-adv-x="745" 
d="M539 497h126v-697h-130v359q-23 -74 -81.5 -122.5t-151.5 -48.5q-114 0 -190 72t-76 188q0 114 76.5 187t189.5 73q96 0 153.5 -42t79.5 -117v25zM344 89q88 0 139.5 43.5t51.5 115.5q0 75 -51.5 117.5t-139.5 42.5q-55 0 -94.5 -20t-60 -56t-20.5 -84q0 -72 48 -115.5
t127 -43.5z" />
    <glyph glyph-name="r" unicode="r" horiz-adv-x="395" 
d="M187 348q9 26 22.5 51t36 51.5t57 42t75.5 15.5v-118q-34 0 -64 -9.5t-50 -22.5t-36.5 -30.5t-25 -30t-15.5 -26.5v-271h-130v497h130v-149z" />
    <glyph glyph-name="s" unicode="s" horiz-adv-x="564" 
d="M40 165h120q24 -76 136 -77q96 0 96 55q0 32 -29 44.5t-103 24.5q-40 7 -67 13.5t-57.5 18t-48.5 25.5t-30 36.5t-12 51.5q0 71 65.5 111t169.5 40q108 0 167.5 -46.5t60.5 -123.5h-115q-8 37 -35.5 53t-79.5 16q-48 0 -74 -14.5t-26 -40.5q0 -29 31 -42t110 -26
q3 -1 9 -2q28 -6 42.5 -9.5t39.5 -10.5t38 -13.5t30 -17.5t26 -24t15 -31.5t6 -40.5q0 -69 -61 -108t-164 -39q-61 0 -110 14t-77 34.5t-45.5 46t-23.5 46t-4 36.5z" />
    <glyph glyph-name="t" unicode="t" horiz-adv-x="433" 
d="M409 497v-99h-128v-398h-130v398h-128v99h128v136h130v-136h128z" />
    <glyph glyph-name="u" unicode="u" horiz-adv-x="690" 
d="M503 497h130v-497h-130v171q-7 -23 -17.5 -45t-29.5 -48t-42.5 -45t-58.5 -32t-76 -13q-43 0 -80.5 10.5t-70.5 33t-52 64.5t-19 100v301h130v-279q0 -69 33 -97t99 -28q41 0 74.5 14t55 37t33.5 41t21 37v275z" />
    <glyph glyph-name="v" unicode="v" horiz-adv-x="627" 
d="M469 497h142l-239 -497h-123l-234 497h143l153 -358z" />
    <glyph glyph-name="w" unicode="w" horiz-adv-x="987" 
d="M829 497h143l-219 -497h-122l-138 347l-143 -347h-122l-213 497h143l135 -352l126 352h149l121 -352z" />
    <glyph glyph-name="x" unicode="x" horiz-adv-x="657" 
d="M637 0h-159l-154 172l-145 -172h-159l232 251l-232 246h159l148 -161l138 161h158l-223 -240z" />
    <glyph glyph-name="y" unicode="y" horiz-adv-x="638" 
d="M484 497h138l-343 -697h-135l109 205l-238 492h138l165 -364z" />
    <glyph glyph-name="z" unicode="z" horiz-adv-x="622" 
d="M204 98h362v-98h-509v98l358 300h-358v99h505v-99z" />
    <glyph glyph-name="braceleft" unicode="{" horiz-adv-x="483" 
d="M394 800v-102h-156q0 -33 31.5 -119t31.5 -128q0 -55 -38.5 -90t-107.5 -50q69 -15 107.5 -50t38.5 -90q0 -42 -31.5 -128t-31.5 -119h156v-102h-272q-8 42 2 97t26.5 98t31.5 87.5t15 66.5q0 46 -36.5 71.5t-111.5 25.5v86q75 0 111.5 25.5t36.5 71.5q0 22 -15 66.5
t-31.5 87.5t-26.5 98t-2 97h272z" />
    <glyph glyph-name="bar" unicode="|" horiz-adv-x="323" 
d="M100 800h123v-960h-123v960z" />
    <glyph glyph-name="braceright" unicode="}" horiz-adv-x="483" 
d="M286 451q0 -46 36.5 -71.5t111.5 -25.5v-86q-75 0 -111.5 -25.5t-36.5 -71.5q0 -22 14.5 -66.5t31 -87.5t26.5 -98t3 -97h-272v102h156q0 33 -31.5 119t-31.5 128q0 55 38.5 90t106.5 50q-68 15 -106.5 50t-38.5 90q0 42 31.5 128t31.5 119h-156v102h272q7 -42 -3 -97
t-26.5 -98t-31 -87.5t-14.5 -66.5z" />
    <glyph glyph-name="asciitilde" unicode="~" horiz-adv-x="311" 
d="M214 330v-114h-151v114h151z" />
    <glyph glyph-name="exclamdown" unicode="&#xa1;" horiz-adv-x="265" 
d="M208 458h-151v114h151v-114zM66 -78v448h132v-448h-132z" />
    <glyph glyph-name="cent" unicode="&#xa2;" horiz-adv-x="686" 
d="M531 196h119q-8 -98 -85 -153t-209 -55q-10 0 -21 1l-15 -87l-69 13l14 81q-106 20 -167.5 84.5t-61.5 166.5q0 124 88.5 192.5t231.5 68.5l17 100l69 -12l-16 -92q100 -14 158 -66.5t65 -135.5h-119q-13 38 -45 63.5t-77 35.5l-55 -311h3q67 0 112.5 28t62.5 78z
M168 247q0 -56 31.5 -93.5t84.5 -53.5l53 306q-73 -5 -121 -46.5t-48 -112.5z" />
    <glyph glyph-name="sterling" unicode="&#xa3;" horiz-adv-x="665" 
d="M295 227q0 -19 -6 -36t-17 -28.5t-22 -20.5t-25 -16t-22 -10t-17 -5h417v-111h-523v111l12 3t27.5 11.5t35 20.5t27.5 30.5t12 42.5q0 22 -13 49h-141v62h110q-25 22 -42 40t-32.5 48.5t-15.5 62.5q0 84 75 131.5t198 47.5q84 0 150 -24.5t104 -70.5t38 -106h-138
q-1 39 -45 64t-105 25q-31 0 -57 -5t-46.5 -15t-31.5 -28t-11 -42q0 -18 4 -34.5t15.5 -36t17 -27t21.5 -30.5h210v-62h-172q8 -21 8 -41z" />
    <glyph glyph-name="currency" unicode="&#xa4;" horiz-adv-x="674" 
d="M599 308q0 -97 -81 -154l60 -66l-52 -47l-72 80q-53 -18 -116 -18q-64 0 -116 18l-72 -80l-52 47l59 65q-82 57 -82 155t83 155l-60 66l52 47l72 -81q53 18 116 18t115 -18l73 81l52 -47l-60 -66q81 -58 81 -155zM201 307.5q0 -47.5 37.5 -79t99.5 -31.5q60 0 97.5 31.5
t37.5 79t-37.5 80t-98 32.5t-98.5 -32.5t-38 -80z" />
    <glyph glyph-name="yen" unicode="&#xa5;" horiz-adv-x="740" 
d="M721 647l-269 -418h98v-62h-360v62h98l-269 418h154l199 -322l195 322h154zM190 57v62h360v-62h-113v-57h-134v57h-113z" />
    <glyph glyph-name="brokenbar" unicode="&#xa6;" horiz-adv-x="323" 
d="M223 800v-364h-123v364h123zM223 204v-364h-123v364h123z" />
    <glyph glyph-name="section" unicode="&#xa7;" horiz-adv-x="574" 
d="M397 234q68 -21 100 -51.5t32 -77.5q0 -65 -57 -103t-155 -38q-67 0 -121 19t-84 47t-45 57.5t-12 54.5h115q9 -35 45 -56.5t94 -21.5q97 -1 97 58q0 31 -26 43.5t-97 26.5q-37 6 -67 13t-58 16.5t-48.5 21t-35.5 26t-23 32.5t-8 40q0 43 37 70t112 31q-77 24 -109 52
t-32 70.5t26.5 75.5t77 51.5t117.5 18.5q106 0 168 -45.5t64 -123.5h-116q-13 68 -120 68q-43 0 -68 -15t-25 -42q0 -30 29 -44t101 -29q44 -8 75 -16t62 -20t50 -27t30.5 -36.5t11.5 -49.5q0 -41 -33.5 -66.5t-103.5 -29.5zM176 345q0 -32 34 -49t110 -34q26 3 44.5 12.5
t27.5 24t9 33.5q0 34 -29 49t-106 30q-43 -5 -66.5 -22t-23.5 -44z" />
    <glyph glyph-name="dieresis" unicode="&#xa8;" horiz-adv-x="541" 
d="M231 716v-114h-151v114h151zM448 716v-114h-151v114h151z" />
    <glyph glyph-name="copyright" unicode="&#xa9;" horiz-adv-x="959" 
d="M480 34q-188 0 -307.5 84.5t-119.5 213.5t119 210.5t308 81.5t307.5 -81.5t118.5 -210.5q0 -85 -54 -153t-151.5 -106.5t-220.5 -38.5zM480 115q69 0 130.5 16t107 44t72 69t26.5 88q0 63 -45 111.5t-121 74t-170 25.5t-170.5 -25.5t-121.5 -74t-45 -111.5
q0 -47 26.5 -88t72 -69t107.5 -44t131 -16zM700 310q0 -39 -23 -67t-71 -43.5t-119 -15.5q-109 0 -169 38t-60 106t60 106.5t169 38.5q70 0 118 -15t71 -43t24 -67h-97q-14 49 -116 49q-61 0 -93.5 -18t-32.5 -51q0 -67 126 -67q103 0 117 49h96z" />
    <glyph glyph-name="ordfeminine" unicode="&#xaa;" horiz-adv-x="673" 
d="M486 697h130v-393h-121q-9 69 -9 118v14q-24 -59 -80 -101t-137 -42q-103 0 -168 57.5t-65 145.5q0 95 65.5 153.5t174.5 58.5q81 0 134.5 -36.5t75.5 -96.5v122zM305 392q77 0 129 30.5t52 73.5q0 52 -51 82t-130 30q-46 0 -77 -14t-45 -38.5t-14 -59.5q0 -46 35.5 -75
t100.5 -29z" />
    <glyph glyph-name="guillemotleft" unicode="&#xab;" horiz-adv-x="584" 
d="M331 441l-148 -162l148 -163l-72 -68l-211 231l211 231zM420 281l77 -85l-71 -67l-138 152l139 152l70 -68z" />
    <glyph glyph-name="logicalnot" unicode="&#xac;" horiz-adv-x="723" 
d="M623 416v-256h-114v158h-424v98h538z" />
    <glyph glyph-name="uni00AD" unicode="&#xad;" horiz-adv-x="600" 
d="M80 320h334v-98h-334v98z" />
    <glyph glyph-name="registered" unicode="&#xae;" horiz-adv-x="959" 
d="M480 84q-188 0 -307.5 84.5t-119.5 213.5q0 85 53.5 151.5t151 103.5t222.5 37q189 0 307.5 -81.5t118.5 -210.5t-119.5 -213.5t-306.5 -84.5zM480 165q146 0 241 60t95 157t-94 154t-242 57q-149 0 -243 -57t-94 -154t95 -157t242 -60zM323 243v284h220q130 0 130 -92
q0 -37 -17.5 -56.5t-60.5 -22.5q29 -4 45 -12t21 -18.5t5 -27.5v-55h-87v50q0 18 -15.5 25t-59.5 7h-94v-82h-87zM410 393h135q41 0 41 32q0 27 -41 27h-135v-59z" />
    <glyph glyph-name="macron" unicode="&#xaf;" horiz-adv-x="304" 
d="M226 717v-114h-151v114h151z" />
    <glyph glyph-name="degree" unicode="&#xb0;" horiz-adv-x="448" 
d="M224 375q-79 0 -128 39t-49 103q0 42 22.5 74t62.5 49.5t92 17.5t92.5 -17.5t63 -49.5t22.5 -74q0 -64 -49.5 -103t-128.5 -39zM224.5 445q45.5 0 70.5 19.5t25 52.5q0 31 -25.5 50.5t-70.5 19.5t-70 -19.5t-25 -50.5q0 -33 25 -52.5t70.5 -19.5z" />
    <glyph glyph-name="plusminus" unicode="&#xb1;" horiz-adv-x="560" 
d="M334 341h176v-95h-176v-122h-108v122h-176v95h176v121h108v-121zM57 -10v72h446v-72h-446z" />
    <glyph glyph-name="uni00B2" unicode="&#xb2;" horiz-adv-x="330" 
d="M143 461l137 5v-66h-221v63q28 22 63 45t50 34t26.5 25t11.5 30q0 19 -12 31t-35 12q-25 0 -38 -17.5t-6 -40.5h-66q-12 51 22 89.5t88 38.5q34 0 61.5 -14.5t42.5 -40.5t15 -58q0 -47 -30 -73t-109 -63z" />
    <glyph glyph-name="uni00B3" unicode="&#xb3;" horiz-adv-x="314" 
d="M202 553q62 -14 62 -72q0 -37 -27.5 -63t-79.5 -26q-55 0 -83 32t-23 78h66q-1 -6 0 -11.5t3.5 -11t7 -9.5t12 -6.5t17.5 -2.5q19 0 28.5 9.5t9.5 22.5q0 17 -11 26.5t-32 9.5h-35v49h35q39 0 39 31q0 33 -37 33q-18 0 -28 -11.5t-9 -25.5h-62q-4 28 7 52t36 38.5
t58 14.5q48 0 76 -25t28 -65q0 -19 -6 -32.5t-19 -22t-33 -12.5z" />
    <glyph glyph-name="acute" unicode="&#xb4;" horiz-adv-x="304" 
d="M236 717v-114h-151v114h151z" />
    <glyph glyph-name="uni00B5" unicode="&#xb5;" horiz-adv-x="742" 
d="M633 194q0 -53 21.5 -70t74.5 -17v-114q-117 0 -171 43.5t-55 127.5q-6 -23 -14.5 -44.5t-24.5 -46.5t-36.5 -42.5t-51.5 -30t-68 -12.5q-83 0 -121 59v-247h-130v697h130v-273q0 -37 10 -63.5t29 -40.5t42.5 -20.5t53.5 -6.5q40 0 73.5 14t54.5 36.5t32.5 40.5t19.5 37
v276h131v-303z" />
    <glyph glyph-name="paragraph" unicode="&#xb6;" horiz-adv-x="735" 
d="M658 647v-647h-128v236h-75v-236h-128v236h-49q-73 0 -128 23t-87.5 69.5t-32.5 112.5q0 98 67 152t178 54h383zM530 344v188h-252q-52 0 -83.5 -22.5t-31.5 -72.5q0 -93 115 -93h252z" />
    <glyph glyph-name="cedilla" unicode="&#xb8;" horiz-adv-x="304" 
d="M226 -85v-115h-151v115h151z" />
    <glyph glyph-name="uni00B9" unicode="&#xb9;" horiz-adv-x="267" 
d="M50 700h167v-300h-75v232h-92v68z" />
    <glyph glyph-name="ordmasculine" unicode="&#xba;" horiz-adv-x="704" 
d="M353 285q-132 0 -207.5 56t-75.5 155q0 98 76 155t207 57t206 -57t75 -155q0 -99 -75 -155t-206 -56zM353 380q75 0 113.5 31.5t38.5 84t-38.5 85t-113.5 32.5t-114.5 -32.5t-39.5 -85t39 -84t115 -31.5z" />
    <glyph glyph-name="guillemotright" unicode="&#xbb;" horiz-adv-x="590" 
d="M319 510l211 -231l-211 -231l-73 68l149 163l-148 162zM151 433l139 -152l-139 -152l-71 67l77 85l-77 84z" />
    <glyph glyph-name="onequarter" unicode="&#xbc;" horiz-adv-x="928" 
d="M675 700l54 -30l-382 -690l-52 32zM375 342v-88h-350v88h129v218h-125v87h242v-305h104zM888 151v-79h-52v-72h-106v72h-209v82l214 239h101v-242h52zM733 147v136l-101 -136h101z" />
    <glyph glyph-name="onehalf" unicode="&#xbd;" horiz-adv-x="982" 
d="M675 700l54 -30l-382 -690l-52 32zM375 342v-88h-350v88h129v218h-125v87h242v-305h104zM718 85l221 3v-88h-343v85q240 104 240 181q0 46 -73 46q-35 0 -54 -13t-23 -29h-97q-3 57 44.5 95.5t133.5 38.5q77 0 122.5 -30.5t45.5 -85.5q0 -54 -39 -94t-110 -78z" />
    <glyph glyph-name="threequarters" unicode="&#xbe;" horiz-adv-x="905" 
d="M651 700l54 -30l-382 -690l-52 32zM392 363q0 -37 -21 -64.5t-61 -42.5t-94 -15q-85 0 -134 37t-45 97h86q1 -22 24.5 -35t67.5 -13q46 0 65 12t19 37q0 49 -98 49h-58v55h58q34 0 55 5.5t29 15.5t8 25q0 40 -81 40q-38 0 -61 -11.5t-24 -28.5h-86q-3 59 45.5 95
t124.5 36q81 0 127.5 -30.5t46.5 -77.5q0 -85 -131 -95q45 -3 73.5 -12t46.5 -28.5t18 -50.5zM865 151v-79h-52v-72h-106v72h-209v82l214 239h101v-242h52zM710 147v136l-101 -136h101z" />
    <glyph glyph-name="questiondown" unicode="&#xbf;" horiz-adv-x="581" 
d="M385 586v-114h-150v114h150zM539 124q1 -35 -14 -69t-44 -63.5t-78 -47.5t-111 -18q-124 0 -187 55t-63 143q0 86 55.5 136t146.5 57v68h127v-166h-73q-57 0 -90 -25.5t-33 -66.5t30.5 -64t86.5 -23q55 0 85.5 23.5t32.5 60.5h129z" />
    <glyph glyph-name="Agrave" unicode="&#xc0;" horiz-adv-x="789" 
d="M318 841h151v-114h-151v114zM627 0l-67 147h-333l-66 -147h-144l304 647h144l307 -647h-145zM272 246h243l-122 267z" />
    <glyph glyph-name="Aacute" unicode="&#xc1;" horiz-adv-x="789" 
d="M469 841v-114h-151v114h151zM627 0l-67 147h-333l-66 -147h-144l304 647h144l307 -647h-145zM272 246h243l-122 267z" />
    <glyph glyph-name="Acircumflex" unicode="&#xc2;" horiz-adv-x="789" 
d="M469 841v-114h-151v114h151zM627 0l-67 147h-333l-66 -147h-144l304 647h144l307 -647h-145zM272 246h243l-122 267z" />
    <glyph glyph-name="Atilde" unicode="&#xc3;" horiz-adv-x="789" 
d="M469 841v-114h-151v114h151zM627 0l-67 147h-333l-66 -147h-144l304 647h144l307 -647h-145zM272 246h243l-122 267z" />
    <glyph glyph-name="Adieresis" unicode="&#xc4;" horiz-adv-x="789" 
d="M212 654v-114h-151v114h151zM736 654v-114h-151v114h151zM627 0l-67 147h-333l-66 -147h-144l304 647h144l307 -647h-145zM272 246h243l-122 267z" />
    <glyph glyph-name="Aring" unicode="&#xc5;" horiz-adv-x="789" 
d="M469 841v-114h-151v114h151zM627 0l-67 147h-333l-66 -147h-144l304 647h144l307 -647h-145zM272 246h243l-122 267z" />
    <glyph glyph-name="AE" unicode="&#xc6;" horiz-adv-x="1159" 
d="M599 111h500v-111h-633v168h-209l-97 -168h-143l383 647h697v-111h-498v-172h408v-83h-408v-170zM312 262h154v267z" />
    <glyph glyph-name="Ccedilla" unicode="&#xc7;" horiz-adv-x="885" 
d="M832 233q-9 -78 -55 -133.5t-125.5 -84t-187.5 -28.5q-188 0 -299.5 86t-111.5 249t111.5 250.5t299.5 87.5q81 0 147 -17t112.5 -49t74.5 -79t34 -105h-132q-21 64 -80.5 99t-155.5 35q-126 0 -200 -57.5t-74 -164.5t73.5 -165t200.5 -58q96 0 155.5 35t80.5 99h132z
M539 -85v-115h-151v115h151z" />
    <glyph glyph-name="Egrave" unicode="&#xc8;" horiz-adv-x="769" 
d="M321 841h151v-114h-151v114zM210 111h499v-111h-632v647h631v-111h-498v-172h408v-83h-408v-170z" />
    <glyph glyph-name="Eacute" unicode="&#xc9;" horiz-adv-x="769" 
d="M472 841v-114h-151v114h151zM210 111h499v-111h-632v647h631v-111h-498v-172h408v-83h-408v-170z" />
    <glyph glyph-name="Ecircumflex" unicode="&#xca;" horiz-adv-x="769" 
d="M472 841v-114h-151v114h151zM210 111h499v-111h-632v647h631v-111h-498v-172h408v-83h-408v-170z" />
    <glyph glyph-name="Edieresis" unicode="&#xcb;" horiz-adv-x="769" 
d="M364 841v-115h-151v115h151zM580 841v-115h-150v115h150zM210 111h499v-111h-632v647h631v-111h-498v-172h408v-83h-408v-170z" />
    <glyph glyph-name="Igrave" unicode="&#xcc;" horiz-adv-x="324" 
d="M86 841h151v-114h-151v114zM95 647h133v-647h-133v647z" />
    <glyph glyph-name="Iacute" unicode="&#xcd;" horiz-adv-x="324" 
d="M237 841v-114h-151v114h151zM95 647h133v-647h-133v647z" />
    <glyph glyph-name="Icircumflex" unicode="&#xce;" horiz-adv-x="324" 
d="M237 841v-114h-151v114h151zM95 647h133v-647h-133v647z" />
    <glyph glyph-name="Idieresis" unicode="&#xcf;" horiz-adv-x="324" 
d="M129 841v-115h-151v115h151zM346 841v-115h-151v115h151zM95 647h133v-647h-133v647z" />
    <glyph glyph-name="Eth" unicode="&#xd0;" horiz-adv-x="879" 
d="M447 647q85 0 151 -17.5t108.5 -46.5t70 -70.5t38.5 -87.5t11 -99q0 -54 -12.5 -100.5t-41 -88.5t-71.5 -72t-108 -47.5t-146 -17.5h-370v296h-82v61h82v290h370zM444 115q46 0 84 8t64.5 22.5t46 33.5t30.5 43.5t16.5 49.5t5.5 54q0 43 -12.5 78.5t-39.5 65t-76.5 45.5
t-118.5 16h-234v-174h145v-61h-145v-181h234z" />
    <glyph glyph-name="Ntilde" unicode="&#xd1;" horiz-adv-x="901" 
d="M532 841v-114h-151v114h151zM691 647h133v-647h-133l-481 469v-469h-133v647h133l481 -471v471z" />
    <glyph glyph-name="Ograve" unicode="&#xd2;" horiz-adv-x="924" 
d="M387 844h151v-114h-151v114zM462.5 -13q-193.5 0 -301.5 89t-108 247.5t108 247.5t301.5 89t301 -89t107.5 -247.5t-107.5 -247.5t-301 -89zM462 102q118 0 194 57t76 164t-76 163.5t-194 56.5q-57 0 -105.5 -14t-86.5 -40.5t-59.5 -69t-21.5 -96.5q0 -43 14.5 -79.5
t39 -62.5t59 -44t75 -26.5t85.5 -8.5z" />
    <glyph glyph-name="Oacute" unicode="&#xd3;" horiz-adv-x="924" 
d="M538 844v-114h-151v114h151zM462.5 -13q-193.5 0 -301.5 89t-108 247.5t108 247.5t301.5 89t301 -89t107.5 -247.5t-107.5 -247.5t-301 -89zM462 102q118 0 194 57t76 164t-76 163.5t-194 56.5q-57 0 -105.5 -14t-86.5 -40.5t-59.5 -69t-21.5 -96.5q0 -43 14.5 -79.5
t39 -62.5t59 -44t75 -26.5t85.5 -8.5z" />
    <glyph glyph-name="Ocircumflex" unicode="&#xd4;" horiz-adv-x="924" 
d="M538 844v-114h-151v114h151zM462.5 -13q-193.5 0 -301.5 89t-108 247.5t108 247.5t301.5 89t301 -89t107.5 -247.5t-107.5 -247.5t-301 -89zM462 102q57 0 105.5 14t85.5 40.5t58 69.5t21 97q0 107 -76 163.5t-194 56.5q-57 0 -105.5 -14t-86.5 -40.5t-59.5 -69
t-21.5 -96.5q0 -72 38 -123t98.5 -74.5t136.5 -23.5z" />
    <glyph glyph-name="Otilde" unicode="&#xd5;" horiz-adv-x="924" 
d="M538 844v-114h-151v114h151zM462.5 -13q-193.5 0 -301.5 89t-108 247.5t108 247.5t301.5 89t301 -89t107.5 -247.5t-107.5 -247.5t-301 -89zM462 102q118 0 194 57t76 164t-76 163.5t-194 56.5q-57 0 -105.5 -14t-86.5 -40.5t-59.5 -69t-21.5 -96.5q0 -43 14.5 -79.5
t39 -62.5t59 -44t75 -26.5t85.5 -8.5z" />
    <glyph glyph-name="Odieresis" unicode="&#xd6;" horiz-adv-x="925" 
d="M723 599q148 -88 148 -276q0 -158 -107.5 -247t-301 -89t-301.5 89t-108 247q0 188 149 276h-75v115h150v-81q81 27 185 27q112 0 198 -31v85h151v-115h-88zM462 102q118 0 194 57t76 164t-76 163.5t-194 56.5q-57 0 -105.5 -14t-86.5 -40.5t-59.5 -69t-21.5 -96.5
q0 -31 7.5 -59t21 -50t32.5 -40.5t42.5 -31.5t50.5 -22t57 -13.5t62 -4.5z" />
    <glyph glyph-name="multiply" unicode="&#xd7;" horiz-adv-x="500" 
d="M441 387l-124 -123l124 -124l-68 -67l-123 124l-124 -124l-67 67l124 124l-124 123l67 67l124 -123l123 123z" />
    <glyph glyph-name="Oslash" unicode="&#xd8;" horiz-adv-x="924" 
d="M667 626q99 -38 151.5 -115.5t52.5 -187.5q0 -158 -107.5 -247t-301.5 -89q-76 0 -141 15l-32 -59l-52 32l24 44q-101 38 -154.5 116t-53.5 188q0 159 108 248t301 89q79 0 145 -15l26 48l54 -30zM189 323.5q0 -71.5 35.5 -120.5t96.5 -75l225 407q-40 8 -84 8
q-76 0 -136.5 -23.5t-98.5 -74t-38 -122zM462 102q118 0 194 57t76 164q0 70 -33.5 118.5t-92.5 74.5l-225 -406q39 -8 81 -8z" />
    <glyph glyph-name="Ugrave" unicode="&#xd9;" horiz-adv-x="881" 
d="M366 841h151v-114h-151v114zM671 647h133v-375q0 -63 -19 -112.5t-52 -81.5t-79.5 -53t-99 -29.5t-112.5 -8.5q-64 0 -117 9t-99.5 29.5t-79 53t-51 81.5t-18.5 112v375h133v-361q0 -55 16.5 -92t49.5 -56.5t72 -27t93 -7.5q53 0 91.5 7.5t71.5 27t50 56.5t17 92v361z
" />
    <glyph glyph-name="Uacute" unicode="&#xda;" horiz-adv-x="881" 
d="M517 841v-114h-151v114h151zM671 647h133v-375q0 -63 -19 -112.5t-52 -81.5t-79.5 -53t-99 -29.5t-112.5 -8.5q-64 0 -117 9t-99.5 29.5t-79 53t-51 81.5t-18.5 112v375h133v-361q0 -55 16.5 -92t49.5 -56.5t72 -27t94 -7.5q52 0 90.5 7.5t71.5 27t50 56.5t17 92v361z
" />
    <glyph glyph-name="Ucircumflex" unicode="&#xdb;" horiz-adv-x="881" 
d="M517 841v-114h-151v114h151zM671 647h133v-375q0 -63 -19.5 -112.5t-52 -81.5t-79.5 -53t-99 -29.5t-113 -8.5q-63 0 -116 9t-99.5 29.5t-79 53t-51 81.5t-18.5 112v375h133v-361q0 -55 16.5 -92t49.5 -56.5t72 -27t93 -7.5q53 0 91.5 7.5t71.5 27t50 56.5t17 92v361z
" />
    <glyph glyph-name="Udieresis" unicode="&#xdc;" horiz-adv-x="881" 
d="M407 647v-114h-151v114h151zM624 647v-114h-151v114h151zM671 647h133v-375q0 -63 -19 -112.5t-52 -81.5t-79.5 -53t-99 -29.5t-112.5 -8.5q-64 0 -117 9t-99.5 29.5t-79 53t-51 81.5t-18.5 112v375h133v-361q0 -55 16.5 -92t49.5 -56.5t72 -27t94 -7.5q52 0 90.5 7.5
t71.5 27t50 56.5t17 92v361z" />
    <glyph glyph-name="Yacute" unicode="&#xdd;" horiz-adv-x="740" 
d="M445 841v-114h-150v114h150zM567 647h154l-284 -443v-204h-134v204l-284 443h154l199 -322z" />
    <glyph glyph-name="Thorn" unicode="&#xde;" horiz-adv-x="759" 
d="M451 540q56 0 102 -12.5t82 -37.5t56 -67.5t20 -99.5q0 -45 -13 -81.5t-36.5 -61.5t-56.5 -41.5t-71 -24t-83 -7.5h-243v-107h-133v647h133v-107h243zM463 216q52 0 83.5 28.5t31.5 78.5q0 52 -31.5 79.5t-83.5 27.5h-255v-214h255z" />
    <glyph glyph-name="germandbls" unicode="&#xdf;" horiz-adv-x="713" 
d="M469 202q227 -19 227 -172q0 -99 -93.5 -151t-253.5 -52v100q122 0 168.5 23t46.5 78q0 52 -43.5 76.5t-156.5 24.5h-35v95l155 165h-285v-389h-130v524q0 173 192 173h113v-105h-92q-26 1 -44 -6.5t-28.5 -27t-10.5 -50.5v-21h437v-87z" />
    <glyph glyph-name="agrave" unicode="&#xe0;" horiz-adv-x="722" 
d="M269 717h150v-114h-150v114zM535 497h130v-497h-121q-9 69 -9 128v31q-23 -74 -81.5 -122t-151.5 -48q-113 0 -189.5 72t-76.5 187q0 116 77.5 188t195.5 72q93 0 148.5 -42t77.5 -116v147zM344 89q88 0 139.5 43.5t51.5 115.5q0 76 -51 117.5t-140 41.5
q-82 0 -128.5 -43t-46.5 -116q0 -72 48 -115.5t127 -43.5z" />
    <glyph glyph-name="aacute" unicode="&#xe1;" horiz-adv-x="722" 
d="M419 717v-114h-150v114h150zM535 497h130v-497h-121q-9 69 -9 128v31q-23 -74 -81.5 -122t-151.5 -48q-113 0 -189.5 72t-76.5 187q0 116 77.5 188t195.5 72q93 0 148.5 -42t77.5 -116v147zM344 89q88 0 139.5 43.5t51.5 115.5q0 76 -51 117.5t-140 41.5
q-82 0 -128.5 -43t-46.5 -116q0 -72 48 -115.5t127 -43.5z" />
    <glyph glyph-name="acircumflex" unicode="&#xe2;" horiz-adv-x="722" 
d="M419 717v-114h-150v114h150zM535 497h130v-497h-121q-9 69 -9 128v31q-23 -74 -81.5 -122t-151.5 -48q-74 0 -134.5 32t-96 91.5t-35.5 135.5q0 116 77.5 188t195.5 72q93 0 148.5 -42t77.5 -116v147zM344 89q88 0 139.5 43.5t51.5 115.5q0 76 -51 117.5t-140 41.5
q-33 0 -61 -7.5t-49 -21t-35.5 -33t-22 -44.5t-7.5 -53q0 -72 48 -115.5t127 -43.5z" />
    <glyph glyph-name="atilde" unicode="&#xe3;" horiz-adv-x="722" 
d="M419 717v-114h-150v114h150zM535 497h130v-497h-121q-9 69 -9 128v31q-23 -74 -81.5 -122t-151.5 -48q-113 0 -189.5 72t-76.5 187q0 116 77.5 188t195.5 72q93 0 148.5 -42t77.5 -116v147zM344 89q88 0 139.5 43.5t51.5 115.5q0 76 -51 117.5t-140 41.5
q-82 0 -128.5 -43t-46.5 -116q0 -72 48 -115.5t127 -43.5z" />
    <glyph glyph-name="adieresis" unicode="&#xe4;" horiz-adv-x="722" 
d="M311 716v-114h-151v114h151zM528 716v-114h-151v114h151zM535 497h130v-497h-121q-9 69 -9 128v31q-23 -74 -81.5 -122t-151.5 -48q-113 0 -189.5 72t-76.5 187q0 116 77.5 188t195.5 72q93 0 148.5 -42t77.5 -116v147zM344 89q88 0 139.5 43.5t51.5 115.5
q0 76 -51 117.5t-140 41.5q-82 0 -128.5 -43t-46.5 -116q0 -72 48 -115.5t127 -43.5z" />
    <glyph glyph-name="aring" unicode="&#xe5;" horiz-adv-x="722" 
d="M419 717v-114h-150v114h150zM535 497h130v-497h-121q-9 69 -9 128v31q-23 -74 -81.5 -122t-151.5 -48q-113 0 -189.5 72t-76.5 187q0 116 77.5 188t195.5 72q93 0 148.5 -42t77.5 -116v147zM344 89q88 0 139.5 43.5t51.5 115.5q0 76 -51 117.5t-140 41.5
q-82 0 -128.5 -43t-46.5 -116q0 -72 48 -115.5t127 -43.5z" />
    <glyph glyph-name="ae" unicode="&#xe6;" horiz-adv-x="1267" 
d="M944 506q147 0 219.5 -69.5t66.5 -210.5h-474q7 -63 56.5 -102t131.5 -39q61 0 103 21.5t55 56.5h125q-13 -80 -85 -128.5t-195 -48.5q-96 0 -169.5 31t-112.5 90v-107h-121q-9 69 -9 128v31q-23 -74 -81.5 -122t-151.5 -48q-113 0 -189.5 72t-76.5 187q0 116 77.5 188
t195.5 72q62 0 109 -20t75 -55t42 -83v147h130v-111q39 58 111 89t168 31zM762 298h339q-4 34 -24 58.5t-56 37.5t-84 13q-28 0 -53 -5t-45 -15t-35.5 -23.5t-26 -30.5t-15.5 -35zM344 89q88 0 139.5 43.5t51.5 115.5q0 76 -51 117.5t-140 41.5q-82 0 -128.5 -43t-46.5 -116
q0 -72 48 -115.5t127 -43.5z" />
    <glyph glyph-name="ccedilla" unicode="&#xe7;" horiz-adv-x="686" 
d="M650 196q-8 -98 -85 -153t-209 -55q-143 0 -231.5 67.5t-88.5 191.5t88.5 192.5t231.5 68.5q131 0 207.5 -54.5t85.5 -151.5h-119q-11 32 -36.5 56t-60.5 36t-77 12q-80 0 -134 -41.5t-54 -117t53.5 -116.5t134.5 -41q67 0 112.5 28t62.5 78h119zM430 -95v-115h-150v115
h150z" />
    <glyph glyph-name="egrave" unicode="&#xe8;" horiz-adv-x="678" 
d="M277 717h151v-114h-151v114zM513 165h126q-14 -80 -86 -128.5t-194 -48.5q-146 0 -234.5 69t-88.5 190.5t87 191t232 69.5q98 0 163 -30.5t96.5 -93t26.5 -156.5h-474q8 -63 57 -102t132 -39q61 0 103 21.5t54 56.5zM349 410q-47 0 -84 -15t-60 -39t-31 -56h338
q-5 51 -48 80.5t-115 29.5z" />
    <glyph glyph-name="eacute" unicode="&#xe9;" horiz-adv-x="678" 
d="M428 717v-114h-151v114h151zM513 165h126q-14 -80 -86 -128.5t-194 -48.5q-146 0 -234.5 69t-88.5 190.5t87 191t232 69.5q98 0 163 -30.5t96.5 -93t26.5 -156.5h-474q8 -63 57 -102t132 -39q61 0 103 21.5t54 56.5zM349 410q-47 0 -84 -15t-60 -39t-31 -56h338
q-5 51 -48 80.5t-115 29.5z" />
    <glyph glyph-name="ecircumflex" unicode="&#xea;" horiz-adv-x="678" 
d="M428 717v-114h-151v114h151zM513 165h126q-14 -80 -86 -128.5t-194 -48.5q-96 0 -168.5 30.5t-113.5 89.5t-41 139q0 122 87 191.5t232 69.5q147 0 220 -69.5t66 -210.5h-474q8 -63 57 -102t132 -39q61 0 103 21.5t54 56.5zM349 410q-35 0 -65.5 -8.5t-52 -23.5
t-36.5 -35t-21 -43h338q-5 51 -48 80.5t-115 29.5z" />
    <glyph glyph-name="edieresis" unicode="&#xeb;" horiz-adv-x="678" 
d="M319 716v-114h-151v114h151zM536 716v-114h-151v114h151zM513 165h126q-14 -80 -86 -128.5t-194 -48.5q-146 0 -234.5 69t-88.5 190.5t87 191t232 69.5q98 0 163 -30.5t96.5 -93t26.5 -156.5h-474q8 -63 57 -102t132 -39q61 0 103 21.5t54 56.5zM349 410
q-70 0 -116 -30.5t-59 -79.5h338q-5 51 -48 80.5t-115 29.5z" />
    <glyph glyph-name="igrave" unicode="&#xec;" horiz-adv-x="247" 
d="M48 715h151v-114h-151v114zM58 497h130v-497h-130v497z" />
    <glyph glyph-name="iacute" unicode="&#xed;" horiz-adv-x="247" 
d="M199 715v-114h-151v114h151zM58 497h130v-497h-130v497z" />
    <glyph glyph-name="icircumflex" unicode="&#xee;" horiz-adv-x="247" 
d="M199 715v-114h-151v114h151zM58 497h130v-497h-130v497z" />
    <glyph glyph-name="idieresis" unicode="&#xef;" horiz-adv-x="247" 
d="M115 716v-114h-139v114h139zM278 716v-114h-140v114h140zM58 497h130v-497h-130v497z" />
    <glyph glyph-name="eth" unicode="&#xf0;" horiz-adv-x="692" 
d="M498 575q82 -66 116.5 -148t34.5 -165q0 -120 -85.5 -197t-219.5 -77q-94 0 -164 32.5t-107 91t-37 136.5q0 115 73.5 183t186.5 68q82 0 139 -32.5t86 -90.5q-28 85 -113.5 144.5t-246.5 93.5l20 95q147 -29 249 -88l97 88l55 -59zM350 89q79 0 132 43t53 114
t-54.5 112.5t-133.5 41.5q-55 0 -95.5 -19t-61.5 -54t-21 -83q0 -72 49 -113.5t132 -41.5z" />
    <glyph glyph-name="ntilde" unicode="&#xf1;" horiz-adv-x="690" 
d="M453 717v-114h-151v114h151zM418 508q47 0 85.5 -12t67.5 -36.5t45.5 -64.5t16.5 -91v-304h-130v281q0 63 -31.5 92.5t-99.5 29.5q-65 0 -116 -31.5t-69 -76.5v-295h-130v497h130v-143q22 65 82.5 109.5t148.5 44.5z" />
    <glyph glyph-name="ograve" unicode="&#xf2;" horiz-adv-x="704" 
d="M278 717h151v-114h-151v114zM353 -12q-144 0 -230.5 68t-86.5 191q0 124 86.5 192.5t230.5 68.5q94 0 164.5 -29.5t110 -89t39.5 -142.5q0 -82 -39.5 -141t-110 -88.5t-164.5 -29.5zM353 88q80 0 131.5 42.5t51.5 116.5q0 50 -24.5 87t-65.5 56t-93 19
q-80 0 -132.5 -43.5t-52.5 -118t52 -117t133 -42.5z" />
    <glyph glyph-name="oacute" unicode="&#xf3;" horiz-adv-x="704" 
d="M429 717v-114h-151v114h151zM353 -12q-144 0 -230.5 68t-86.5 191q0 124 86.5 192.5t230.5 68.5q143 0 229 -68.5t86 -192.5q0 -82 -40 -141t-110.5 -88.5t-164.5 -29.5zM353 88q80 0 131.5 42.5t51.5 116.5q0 50 -24.5 87t-65.5 56t-93 19q-80 0 -132.5 -43.5
t-52.5 -118t52 -117t133 -42.5z" />
    <glyph glyph-name="ocircumflex" unicode="&#xf4;" horiz-adv-x="704" 
d="M429 717v-114h-151v114h151zM353 -12q-144 0 -230.5 68t-86.5 191q0 124 86.5 192.5t230.5 68.5q143 0 229 -68.5t86 -192.5t-85.5 -191.5t-229.5 -67.5zM353 88q80 0 131.5 42.5t51.5 117t-51.5 118t-131.5 43.5t-132.5 -43.5t-52.5 -118t52 -117t133 -42.5z" />
    <glyph glyph-name="otilde" unicode="&#xf5;" horiz-adv-x="704" 
d="M429 717v-114h-151v114h151zM353 -12q-144 0 -230.5 68t-86.5 191q0 124 86.5 192.5t230.5 68.5q143 0 229 -68.5t86 -192.5q0 -82 -40 -141t-110.5 -88.5t-164.5 -29.5zM353 88q80 0 131.5 42.5t51.5 116.5q0 50 -24.5 87t-65.5 56t-93 19q-80 0 -132.5 -43.5
t-52.5 -118t52 -117t133 -42.5z" />
    <glyph glyph-name="odieresis" unicode="&#xf6;" horiz-adv-x="704" 
d="M320 716v-114h-151v114h151zM537 716v-114h-151v114h151zM353 -12q-144 0 -230.5 68t-86.5 191q0 124 86.5 192.5t230.5 68.5q94 0 164.5 -29.5t110.5 -89t40 -142.5q0 -82 -40 -141t-110.5 -88.5t-164.5 -29.5zM353 88q80 0 131.5 42.5t51.5 116.5q0 50 -24.5 87
t-65.5 56t-93 19q-80 0 -132.5 -43.5t-52.5 -118t52 -117t133 -42.5z" />
    <glyph glyph-name="divide" unicode="&#xf7;" horiz-adv-x="530" 
d="M327 447v-102h-151v102h151zM50 316h430v-98h-430v98zM327 139v-102h-151v102h151z" />
    <glyph glyph-name="oslash" unicode="&#xf8;" horiz-adv-x="704" 
d="M521 476q46 -20 78.5 -52t50 -77t17.5 -100q0 -124 -85 -191.5t-229 -67.5q-61 0 -113 13l-27 -45l-52 32l20 33q-69 31 -107 88.5t-38 137.5q0 124 86.5 192.5t230.5 68.5q59 0 109 -12l27 47l54 -30zM168 247q0 -86 70 -129l168 285q-25 6 -53 6q-80 0 -132.5 -43.5
t-52.5 -118.5zM353 88q80 0 131.5 42.5t51.5 116.5q0 89 -72 133l-169 -285q28 -7 58 -7z" />
    <glyph glyph-name="ugrave" unicode="&#xf9;" horiz-adv-x="690" 
d="M279 717h151v-114h-151v114zM503 497h130v-497h-130v171q-7 -23 -17.5 -45t-29.5 -48t-42.5 -45t-58.5 -32t-76 -13q-43 0 -80.5 10.5t-70.5 33t-52 64.5t-19 100v301h130v-279q0 -69 33 -97t99 -28q41 0 74.5 14t55 37t33.5 41t21 37v275z" />
    <glyph glyph-name="uacute" unicode="&#xfa;" horiz-adv-x="690" 
d="M430 717v-114h-151v114h151zM503 497h130v-497h-130v171q-7 -23 -17.5 -45t-29.5 -48t-42.5 -45t-58.5 -32t-76 -13q-43 0 -80.5 10.5t-70.5 33t-52 64.5t-19 100v301h130v-279q0 -69 33 -97t99 -28q41 0 74.5 14t55 37t33.5 41t21 37v275z" />
    <glyph glyph-name="ucircumflex" unicode="&#xfb;" horiz-adv-x="690" 
d="M430 717v-114h-151v114h151zM503 497h130v-497h-130v171q-7 -23 -17.5 -45t-29.5 -48t-42.5 -45t-58.5 -32t-76 -13q-43 0 -80.5 10.5t-70.5 33t-52 64.5t-19 100v301h130v-279q0 -47 16.5 -75t44.5 -39t71 -11q24 0 45.5 5.5t38 13.5t31.5 20t25.5 23.5t19.5 24.5
t14 22.5t10 19.5v275z" />
    <glyph glyph-name="udieresis" unicode="&#xfc;" horiz-adv-x="690" 
d="M321 716v-114h-151v114h151zM538 716v-114h-151v114h151zM503 497h130v-497h-130v171q-7 -23 -17.5 -45t-29.5 -48t-42.5 -45t-58.5 -32t-76 -13q-43 0 -80.5 10.5t-70.5 33t-52 64.5t-19 100v301h130v-279q0 -69 33 -97t99 -28q41 0 74.5 14t55 37t33.5 41t21 37v275z
" />
    <glyph glyph-name="yacute" unicode="&#xfd;" horiz-adv-x="638" 
d="M396 717v-114h-151v114h151zM484 497h138l-343 -697h-135l109 205l-238 492h138l165 -364z" />
    <glyph glyph-name="thorn" unicode="&#xfe;" horiz-adv-x="722" 
d="M420 508q113 0 189 -73t76 -187q0 -116 -76.5 -188t-188.5 -72q-93 0 -151.5 48t-81.5 122v-358h-130v896h130v-346q22 74 79.5 116t153.5 42zM378 89q79 0 126.5 43.5t47.5 115.5q0 73 -46 116.5t-128 43.5q-80 0 -133 -40t-58 -109v-22q5 -68 56 -108t135 -40z" />
    <glyph glyph-name="ydieresis" unicode="&#xff;" horiz-adv-x="638" 
d="M287 716v-114h-151v114h151zM504 716v-114h-151v114h151zM484 497h138l-343 -697h-135l109 205l-238 492h138l165 -364z" />
    <glyph glyph-name="Amacron" unicode="&#x100;" horiz-adv-x="789" 
d="M469 841v-114h-151v114h151zM627 0l-67 147h-333l-66 -147h-144l304 647h144l307 -647h-145zM272 246h243l-122 267z" />
    <glyph glyph-name="amacron" unicode="&#x101;" horiz-adv-x="722" 
d="M419 717v-114h-150v114h150zM535 497h130v-497h-121q-9 69 -9 128v31q-23 -74 -81.5 -122t-151.5 -48q-113 0 -189.5 72t-76.5 187q0 116 77.5 188t195.5 72q93 0 148.5 -42t77.5 -116v147zM344 89q88 0 139.5 43.5t51.5 115.5q0 76 -51 117.5t-140 41.5
q-82 0 -128.5 -43t-46.5 -116q0 -72 48 -115.5t127 -43.5z" />
    <glyph glyph-name="Abreve" unicode="&#x102;" horiz-adv-x="789" 
d="M469 841v-114h-151v114h151zM627 0l-67 147h-333l-66 -147h-144l304 647h144l307 -647h-145zM272 246h243l-122 267z" />
    <glyph glyph-name="abreve" unicode="&#x103;" horiz-adv-x="722" 
d="M419 717v-114h-150v114h150zM535 497h130v-497h-121q-9 69 -9 128v31q-23 -74 -81.5 -122t-151.5 -48q-113 0 -189.5 72t-76.5 187q0 116 77.5 188t195.5 72q93 0 148.5 -42t77.5 -116v147zM344 89q88 0 139.5 43.5t51.5 115.5q0 76 -51 117.5t-140 41.5
q-82 0 -128.5 -43t-46.5 -116q0 -72 48 -115.5t127 -43.5z" />
    <glyph glyph-name="Aogonek" unicode="&#x104;" horiz-adv-x="789" 
d="M627 0l-67 147h-333l-66 -147h-144l304 647h144l307 -647h-145zM272 246h243l-122 267zM782 -79v-114h-150v114h150z" />
    <glyph glyph-name="aogonek" unicode="&#x105;" horiz-adv-x="722" 
d="M535 497h130v-497h-121q-9 69 -9 128v31q-23 -74 -81.5 -122t-151.5 -48q-113 0 -189.5 72t-76.5 187q0 116 77.5 188t195.5 72q93 0 148.5 -42t77.5 -116v147zM344 89q88 0 139.5 43.5t51.5 115.5q0 76 -51 117.5t-140 41.5q-82 0 -128.5 -43t-46.5 -116
q0 -72 48 -115.5t127 -43.5zM674 -86v-114h-151v114h151z" />
    <glyph glyph-name="Cacute" unicode="&#x106;" horiz-adv-x="885" 
d="M529 844v-114h-150v114h150zM832 233q-13 -118 -109 -182t-259 -64q-188 0 -299.5 86t-111.5 249t111.5 250.5t299.5 87.5q81 0 147 -17t112.5 -49t74.5 -79t34 -105h-132q-21 64 -80.5 99t-155.5 35q-126 0 -200 -57.5t-74 -164.5t73.5 -165t200.5 -58q96 0 155.5 35
t80.5 99h132z" />
    <glyph glyph-name="cacute" unicode="&#x107;" horiz-adv-x="686" 
d="M424 717v-114h-151v114h151zM650 196q-8 -98 -85 -153t-209 -55q-143 0 -231.5 67.5t-88.5 191.5t88.5 192.5t231.5 68.5q131 0 207.5 -54.5t85.5 -151.5h-119q-11 32 -36.5 56t-60.5 36t-77 12q-80 0 -134 -41.5t-54 -117t53.5 -116.5t134.5 -41q67 0 112.5 28t62.5 78
h119z" />
    <glyph glyph-name="Cdotaccent" unicode="&#x10a;" horiz-adv-x="885" 
d="M529 844v-114h-150v114h150zM832 233q-13 -118 -109 -182t-259 -64q-188 0 -299.5 86t-111.5 249t111.5 250.5t299.5 87.5q81 0 147 -17t112.5 -49t74.5 -79t34 -105h-132q-21 64 -80.5 99t-155.5 35q-126 0 -200 -57.5t-74 -164.5t73.5 -165t200.5 -58q96 0 155.5 35
t80.5 99h132z" />
    <glyph glyph-name="cdotaccent" unicode="&#x10b;" horiz-adv-x="686" 
d="M424 717v-114h-151v114h151zM650 196q-8 -98 -85 -153t-209 -55q-143 0 -231.5 67.5t-88.5 191.5t88.5 192.5t231.5 68.5q131 0 207.5 -54.5t85.5 -151.5h-119q-11 32 -36.5 56t-60.5 36t-77 12q-80 0 -134 -41.5t-54 -117t53.5 -116.5t134.5 -41q67 0 112.5 28t62.5 78
h119z" />
    <glyph glyph-name="Ccaron" unicode="&#x10c;" horiz-adv-x="885" 
d="M529 844v-114h-150v114h150zM832 233q-13 -118 -109 -182t-259 -64q-188 0 -299.5 86t-111.5 249t111.5 250.5t299.5 87.5q81 0 147 -17t112.5 -49t74.5 -79t34 -105h-132q-21 64 -80.5 99t-155.5 35q-126 0 -200 -57.5t-74 -164.5t73.5 -165t200.5 -58q96 0 155.5 35
t80.5 99h132z" />
    <glyph glyph-name="ccaron" unicode="&#x10d;" horiz-adv-x="686" 
d="M424 717v-114h-151v114h151zM650 196q-8 -98 -85 -153t-209 -55q-143 0 -231.5 67.5t-88.5 191.5t88.5 192.5t231.5 68.5q131 0 207.5 -54.5t85.5 -151.5h-119q-11 32 -36.5 56t-60.5 36t-77 12q-80 0 -134 -41.5t-54 -117t53.5 -116.5t134.5 -41q67 0 112.5 28t62.5 78
h119z" />
    <glyph glyph-name="Dcaron" unicode="&#x10e;" horiz-adv-x="879" 
d="M486 862v-114h-151v114h151zM447 647q85 0 151 -17.5t108.5 -46.5t70 -70.5t38.5 -87.5t11 -99q0 -54 -12.5 -100.5t-41 -88.5t-71.5 -72t-108 -47.5t-146 -17.5h-370v647h370zM444 115q55 0 98.5 11.5t71 31t45 47t25 57t7.5 64.5q0 43 -12.5 78.5t-39.5 65t-76.5 45.5
t-118.5 16h-234v-416h234z" />
    <glyph glyph-name="dcaron" unicode="&#x10f;" horiz-adv-x="745" 
d="M419 717v-114h-151v114h151zM535 697h130v-697h-121q-9 69 -9 128v31q-23 -74 -81.5 -122t-151.5 -48q-114 0 -190 72t-76 187q0 116 75 188t191 72q96 0 153.5 -42t79.5 -117v348zM344 89q88 0 139.5 43.5t51.5 115.5q0 76 -51.5 118t-139.5 42q-82 0 -128.5 -43.5
t-46.5 -116.5q0 -72 48 -115.5t127 -43.5z" />
    <glyph glyph-name="Dcroat" unicode="&#x110;" horiz-adv-x="879" 
d="M447 647q85 0 151 -17.5t108.5 -46.5t70 -70.5t38.5 -87.5t11 -99q0 -54 -12.5 -100.5t-41 -88.5t-71.5 -72t-108 -47.5t-146 -17.5h-370v296h-82v61h82v290h370zM444 115q46 0 84 8t64.5 22.5t46 33.5t30.5 43.5t16.5 49.5t5.5 54q0 43 -12.5 78.5t-39.5 65t-76.5 45.5
t-118.5 16h-234v-174h145v-61h-145v-181h234z" />
    <glyph glyph-name="dcroat" unicode="&#x111;" horiz-adv-x="745" 
d="M730 632v-62h-65v-570h-121q-9 69 -9 128v31q-23 -74 -81.5 -122t-151.5 -48q-114 0 -190 72t-76 187q0 116 75 188t191 72q96 0 153.5 -42t79.5 -117v221h-164v62h164v65h130v-65h65zM344 89q88 0 139.5 43.5t51.5 115.5q0 76 -51.5 118t-139.5 42q-82 0 -128.5 -43.5
t-46.5 -116.5q0 -72 48 -115.5t127 -43.5z" />
    <glyph glyph-name="Emacron" unicode="&#x112;" horiz-adv-x="769" 
d="M472 841v-114h-151v114h151zM210 111h499v-111h-632v647h631v-111h-498v-172h408v-83h-408v-170z" />
    <glyph glyph-name="emacron" unicode="&#x113;" horiz-adv-x="678" 
d="M428 717v-114h-151v114h151zM513 165h126q-14 -80 -86 -128.5t-194 -48.5q-146 0 -234.5 69t-88.5 190.5t87 191t232 69.5q98 0 163 -30.5t96.5 -93t26.5 -156.5h-474q8 -63 57 -102t132 -39q61 0 103 21.5t54 56.5zM349 410q-47 0 -84 -15t-60 -39t-31 -56h338
q-5 51 -48 80.5t-115 29.5z" />
    <glyph glyph-name="Edotaccent" unicode="&#x116;" horiz-adv-x="769" 
d="M472 841v-114h-151v114h151zM210 111h499v-111h-632v647h631v-111h-498v-172h408v-83h-408v-170z" />
    <glyph glyph-name="edotaccent" unicode="&#x117;" horiz-adv-x="678" 
d="M428 717v-114h-151v114h151zM513 165h126q-14 -80 -86 -128.5t-194 -48.5q-146 0 -234.5 69t-88.5 190.5t87 191t232 69.5q98 0 163 -30.5t96.5 -93t26.5 -156.5h-474q8 -63 57 -102t132 -39q61 0 103 21.5t54 56.5zM349 410q-47 0 -84 -15t-60 -39t-31 -56h338
q-5 51 -48 80.5t-115 29.5z" />
    <glyph glyph-name="Eogonek" unicode="&#x118;" horiz-adv-x="769" 
d="M210 111h499v-111h-632v647h631v-111h-498v-172h408v-83h-408v-170zM719 -86v-114h-151v114h151z" />
    <glyph glyph-name="eogonek" unicode="&#x119;" horiz-adv-x="678" 
d="M513 165h126q-14 -80 -86 -128.5t-194 -48.5q-146 0 -234.5 69t-88.5 190.5t87 191t232 69.5q98 0 163 -30.5t96.5 -93t26.5 -156.5h-474q8 -63 57 -102t132 -39q61 0 103 21.5t54 56.5zM349 410q-47 0 -84 -15t-60 -39t-31 -56h338q-5 51 -48 80.5t-115 29.5zM647 -86
v-114h-151v114h151z" />
    <glyph glyph-name="Ecaron" unicode="&#x11a;" horiz-adv-x="769" 
d="M472 841v-114h-151v114h151zM210 111h499v-111h-632v647h631v-111h-498v-172h408v-83h-408v-170z" />
    <glyph glyph-name="ecaron" unicode="&#x11b;" horiz-adv-x="678" 
d="M428 717v-114h-151v114h151zM513 165h126q-14 -80 -86 -128.5t-194 -48.5q-146 0 -234.5 69t-88.5 190.5t87 191t232 69.5q98 0 163 -30.5t96.5 -93t26.5 -156.5h-474q8 -63 57 -102t132 -39q61 0 103 21.5t54 56.5zM349 410q-47 0 -84 -15t-60 -39t-31 -56h338
q-5 51 -48 80.5t-115 29.5z" />
    <glyph glyph-name="Gbreve" unicode="&#x11e;" horiz-adv-x="917" 
d="M539 844v-114h-151v114h151zM854 0h-118q0 62 18 178q-31 -92 -108.5 -141.5t-196.5 -49.5q-178 0 -287 88t-109 247q0 161 111.5 249.5t299.5 88.5q162 0 258.5 -66.5t105.5 -180.5h-128q-21 60 -79.5 95t-156.5 35q-130 0 -202 -59.5t-72 -161.5q0 -103 72.5 -162
t206.5 -59q183 0 243 125l-170 -3v85h309z" />
    <glyph glyph-name="gbreve" unicode="&#x11f;" horiz-adv-x="671" 
d="M384 717v-114h-151v114h151zM376 502h270v-99q-88 -2 -202 46q134 -65 134 -166q0 -97 -72.5 -152t-197.5 -55q-67 -2 -95.5 -11t-28.5 -33q0 -32 46 -32h163q106 0 159 -36t53 -122v-47h-130v24q0 44 -28 63t-82 19h-155q-158 0 -158 95q0 91 152 92q-79 21 -123.5 72.5
t-44.5 128.5q0 101 73.5 160t198.5 59q35 0 68 -6zM399 469q8 -3 15 -6q-8 4 -15 7v-1zM308 170q65 0 104.5 31.5t39.5 86.5q0 56 -39 88t-105 32t-105.5 -32t-39.5 -87.5t39 -87t106 -31.5z" />
    <glyph glyph-name="Gdotaccent" unicode="&#x120;" horiz-adv-x="917" 
d="M539 844v-114h-151v114h151zM854 0h-118q0 62 18 178q-31 -92 -108.5 -141.5t-196.5 -49.5q-178 0 -287 88t-109 247q0 161 111.5 249.5t299.5 88.5q162 0 258.5 -66.5t105.5 -180.5h-128q-21 60 -79.5 95t-156.5 35q-130 0 -202 -59.5t-72 -161.5q0 -103 72.5 -162
t206.5 -59q183 0 243 125l-170 -3v85h309z" />
    <glyph glyph-name="gdotaccent" unicode="&#x121;" horiz-adv-x="671" 
d="M384 717v-114h-151v114h151zM376 502h270v-99q-88 -2 -202 46q134 -65 134 -166q0 -97 -72.5 -152t-197.5 -55q-67 -2 -95.5 -11t-28.5 -33q0 -32 46 -32h163q106 0 159 -36t53 -122v-47h-130v24q0 44 -28 63t-82 19h-155q-158 0 -158 95q0 91 152 92q-79 21 -123.5 72.5
t-44.5 128.5q0 101 73.5 160t198.5 59q35 0 68 -6zM399 469q8 -3 15 -6q-8 4 -15 7v-1zM308 170q65 0 104.5 31.5t39.5 86.5q0 56 -39 88t-105 32t-105.5 -32t-39.5 -87.5t39 -87t106 -31.5z" />
    <glyph glyph-name="uni0122" unicode="&#x122;" horiz-adv-x="917" 
d="M854 0h-118q0 62 18 178q-31 -92 -108.5 -141.5t-196.5 -49.5q-178 0 -287 88t-109 247q0 161 111.5 249.5t299.5 88.5q162 0 258.5 -66.5t105.5 -180.5h-128q-21 60 -79.5 95t-156.5 35q-130 0 -202 -59.5t-72 -161.5q0 -103 72.5 -162t206.5 -59q183 0 243 125l-170 -3
v85h309zM388 -200v115h151v-115h-151z" />
    <glyph glyph-name="uni0123" unicode="&#x123;" horiz-adv-x="671" 
d="M384 710v-115h-151v115h151zM376 502h270v-99q-88 -2 -202 46q134 -65 134 -166q0 -97 -72.5 -152t-197.5 -55q-67 -2 -95.5 -11t-28.5 -33q0 -32 46 -32h163q106 0 159 -36t53 -122v-47h-130v24q0 44 -28 63t-82 19h-155q-158 0 -158 95q0 91 152 92q-79 21 -123.5 72.5
t-44.5 128.5q0 101 73.5 160t198.5 59q35 0 68 -6zM399 469q8 -3 15 -6q-8 4 -15 7v-1zM308 170q65 0 104.5 31.5t39.5 86.5q0 56 -39 88t-105 32t-105.5 -32t-39.5 -87.5t39 -87t106 -31.5z" />
    <glyph glyph-name="Hbar" unicode="&#x126;" horiz-adv-x="895" 
d="M858 516v-75h-40v-441h-133v269h-475v-269h-133v441h-40v75h40v131h133v-131h475v131h133v-131h40zM685 380v61h-475v-61h475z" />
    <glyph glyph-name="hbar" unicode="&#x127;" horiz-adv-x="701" 
d="M430 508q95 0 154.5 -48.5t59.5 -141.5v-318h-130v273q0 62 -33 92.5t-107 30.5q-61 0 -109.5 -30t-65.5 -72v-294h-130v572h-69v61h69v64h130v-64h160v-61h-160v-218q21 65 82 109.5t149 44.5z" />
    <glyph glyph-name="Imacron" unicode="&#x12a;" horiz-adv-x="324" 
d="M237 841v-114h-151v114h151zM95 647h133v-647h-133v647z" />
    <glyph glyph-name="imacron" unicode="&#x12b;" horiz-adv-x="247" 
d="M199 715v-114h-151v114h151zM58 497h130v-497h-130v497z" />
    <glyph glyph-name="Iogonek" unicode="&#x12e;" horiz-adv-x="324" 
d="M95 647h133v-647h-133v647zM237 -86v-114h-151v114h151z" />
    <glyph glyph-name="iogonek" unicode="&#x12f;" horiz-adv-x="268" 
d="M209 715v-114h-151v114h151zM69 497h130v-497h-130v497zM268 -86v-114h-151v114h151z" />
    <glyph glyph-name="Idotaccent" unicode="&#x130;" horiz-adv-x="324" 
d="M237 841v-114h-151v114h151zM95 647h133v-647h-133v647z" />
    <glyph glyph-name="dotlessi" unicode="&#x131;" horiz-adv-x="247" 
d="M58 497h130v-497h-130v497z" />
    <glyph glyph-name="IJ" unicode="&#x132;" horiz-adv-x="753" 
d="M226 647v-359h-130v359h130zM543 647h133v-403q0 -108 -76.5 -181t-211.5 -73q-76 0 -139.5 24t-106.5 78t-46 129h126q10 -58 54.5 -88.5t111.5 -30.5q78 0 116.5 41t38.5 110v394z" />
    <glyph glyph-name="ij" unicode="&#x133;" horiz-adv-x="535" 
d="M209 715v-114h-151v114h151zM477 715v-114h-151v114h151zM69 497h130v-497h-130v497zM337 497h130v-697h-130v697z" />
    <glyph glyph-name="uni0136" unicode="&#x136;" horiz-adv-x="814" 
d="M390 343l399 -343h-192l-387 339v-339h-133v647h133v-306l335 306h198zM309 -200v115h151v-115h-151z" />
    <glyph glyph-name="uni0137" unicode="&#x137;" horiz-adv-x="649" 
d="M69 0v697h130v-697h-130zM368 278l273 -278l-165 -1l-274 280l239 218h177zM248 -200v115h151v-115h-151z" />
    <glyph glyph-name="Lacute" unicode="&#x139;" horiz-adv-x="687" 
d="M466 841v-114h-151v114h151zM210 111h430v-111h-482h-81v647h133v-536z" />
    <glyph glyph-name="lacute" unicode="&#x13a;" horiz-adv-x="271" 
d="M215 907v-114h-151v114h151zM70 697h130v-697h-130v697z" />
    <glyph glyph-name="uni013B" unicode="&#x13b;" horiz-adv-x="687" 
d="M210 111h430v-111h-482h-81v647h133v-536zM315 -200v115h151v-115h-151z" />
    <glyph glyph-name="uni013C" unicode="&#x13c;" horiz-adv-x="271" 
d="M70 697h130v-697h-130v697zM211 -85v-115h-150v115h150z" />
    <glyph glyph-name="Lcaron" unicode="&#x13d;" horiz-adv-x="687" 
d="M466 841v-114h-151v114h151zM210 111h430v-111h-482h-81v647h133v-536z" />
    <glyph glyph-name="lcaron" unicode="&#x13e;" horiz-adv-x="421" 
d="M421 697v-114h-150v114h150zM70 697h130v-697h-130v697z" />
    <glyph glyph-name="Ldot" unicode="&#x13f;" horiz-adv-x="687" 
d="M210 111h430v-111h-482h-81v647h133v-536zM503 422v-114h-151v114h151z" />
    <glyph glyph-name="ldot" unicode="&#x140;" horiz-adv-x="456" 
d="M70 697h130v-697h-130v697zM386 384v-115h-151v115h151z" />
    <glyph glyph-name="Lslash" unicode="&#x141;" horiz-adv-x="687" 
d="M210 111h430v-111h-482h-81v223l-73 -49l-35 52l108 75v346h133v-255l167 115l37 -53l-204 -140v-203z" />
    <glyph glyph-name="lslash" unicode="&#x142;" horiz-adv-x="291" 
d="M311 423l-101 -69v-354h-130v266l-65 -45l-35 53l100 69v354h130v-265l64 44z" />
    <glyph glyph-name="Nacute" unicode="&#x143;" horiz-adv-x="901" 
d="M532 841v-114h-151v114h151zM691 647h133v-647h-133l-481 469v-469h-133v647h133l481 -471v471z" />
    <glyph glyph-name="nacute" unicode="&#x144;" horiz-adv-x="690" 
d="M453 717v-114h-151v114h151zM418 508q47 0 85.5 -12t67.5 -36.5t45.5 -64.5t16.5 -91v-304h-130v281q0 63 -31.5 92.5t-99.5 29.5q-65 0 -116 -31.5t-69 -76.5v-295h-130v497h130v-143q22 65 82.5 109.5t148.5 44.5z" />
    <glyph glyph-name="uni0145" unicode="&#x145;" horiz-adv-x="901" 
d="M691 647h133v-647h-133l-481 469v-469h-133v647h133l481 -471v471zM384 -200v115h151v-115h-151z" />
    <glyph glyph-name="uni0146" unicode="&#x146;" horiz-adv-x="690" 
d="M418 508q47 0 85.5 -12t67.5 -36.5t45.5 -64.5t16.5 -91v-304h-130v281q0 63 -31.5 92.5t-99.5 29.5q-65 0 -116 -31.5t-69 -76.5v-295h-130v497h130v-143q22 65 82.5 109.5t148.5 44.5zM270 -200v115h150v-115h-150z" />
    <glyph glyph-name="Ncaron" unicode="&#x147;" horiz-adv-x="901" 
d="M532 841v-114h-151v114h151zM691 647h133v-647h-133l-481 469v-469h-133v647h133l481 -471v471z" />
    <glyph glyph-name="ncaron" unicode="&#x148;" horiz-adv-x="690" 
d="M453 717v-114h-151v114h151zM418 508q47 0 85.5 -12t67.5 -36.5t45.5 -64.5t16.5 -91v-304h-130v281q0 63 -31.5 92.5t-99.5 29.5q-65 0 -116 -31.5t-69 -76.5v-295h-130v497h130v-143q22 65 82.5 109.5t148.5 44.5z" />
    <glyph glyph-name="Eng" unicode="&#x14a;" horiz-adv-x="901" 
d="M691 647h133v-679q0 -42 -16.5 -74.5t-42 -51.5t-61 -31t-69 -16.5t-70.5 -4.5v108q27 0 48 4t39.5 14.5t28.5 31.5t10 52l-481 469v-469h-133v647h133l481 -471v471z" />
    <glyph glyph-name="eng" unicode="&#x14b;" horiz-adv-x="690" 
d="M418 508q97 0 156 -51.5t59 -152.5v-340q0 -87 -64 -131.5t-199 -44.5v107q71 0 102 25t31 80v281q0 63 -31.5 92.5t-99.5 29.5q-65 0 -116 -31.5t-69 -76.5v-295h-130v497h130v-143q22 65 82.5 109.5t148.5 44.5z" />
    <glyph glyph-name="Omacron" unicode="&#x14c;" horiz-adv-x="924" 
d="M538 844v-114h-151v114h151zM462.5 -13q-193.5 0 -301.5 89t-108 247.5t108 247.5t301.5 89t301 -89t107.5 -247.5t-107.5 -247.5t-301 -89zM462 102q118 0 194 57t76 164t-76 163.5t-194 56.5q-57 0 -105.5 -14t-86.5 -40.5t-59.5 -69t-21.5 -96.5q0 -43 14.5 -79.5
t39 -62.5t59 -44t75 -26.5t85.5 -8.5z" />
    <glyph glyph-name="omacron" unicode="&#x14d;" horiz-adv-x="704" 
d="M429 717v-114h-151v114h151zM353 -12q-144 0 -230.5 68t-86.5 191q0 124 86.5 192.5t230.5 68.5q143 0 229 -68.5t86 -192.5q0 -82 -40 -141t-110.5 -88.5t-164.5 -29.5zM353 88q80 0 131.5 42.5t51.5 116.5q0 50 -24.5 87t-65.5 56t-93 19q-80 0 -132.5 -43.5
t-52.5 -118t52 -117t133 -42.5z" />
    <glyph glyph-name="Ohungarumlaut" unicode="&#x150;" horiz-adv-x="924" 
d="M422 844v-114h-150v114h150zM639 844v-114h-151v114h151zM462.5 -13q-193.5 0 -301.5 89t-108 247.5t108 247.5t301.5 89t301 -89t107.5 -247.5t-107.5 -247.5t-301 -89zM462 102q118 0 194 57t76 164t-76 163.5t-194 56.5q-57 0 -105.5 -14t-86.5 -40.5t-59.5 -69
t-21.5 -96.5q0 -31 7.5 -59t21 -50t32.5 -40.5t42.5 -31.5t50.5 -22t57 -13.5t62 -4.5z" />
    <glyph glyph-name="ohungarumlaut" unicode="&#x151;" horiz-adv-x="704" 
d="M313 716v-114h-150v114h150zM530 716v-114h-151v114h151zM353 -12q-144 0 -230.5 68t-86.5 191q0 124 86.5 192.5t230.5 68.5q143 0 229 -68.5t86 -192.5q0 -82 -40 -141t-110.5 -88.5t-164.5 -29.5zM353 88q80 0 131.5 42.5t51.5 116.5q0 50 -24.5 87t-65.5 56t-93 19
q-80 0 -132.5 -43.5t-52.5 -118t52 -117t133 -42.5z" />
    <glyph glyph-name="OE" unicode="&#x152;" horiz-adv-x="1277" 
d="M1217 112v-112h-621q-61 -13 -134 -13q-193 0 -301 89t-108 247.5t108 247.5t301 89q73 0 134 -13h620v-112h-416q58 -68 69 -166h256v-93h-257q-11 -97 -68 -164h417zM189 323q0 -43 14.5 -80t39 -62.5t59 -43.5t75 -26.5t85.5 -8.5q118 0 194 57t76 164t-76 163.5
t-194 56.5q-76 0 -136.5 -23.5t-98.5 -74t-38 -122.5z" />
    <glyph glyph-name="oe" unicode="&#x153;" horiz-adv-x="1230" 
d="M907 508q147 0 220 -69.5t66 -210.5h-474q8 -63 57 -102t132 -39q40 0 73 10t54.5 27.5t29.5 40.5h126q-14 -80 -86 -128.5t-194 -48.5q-96 0 -169 31t-113 89q-38 -59 -109.5 -89.5t-166.5 -30.5q-144 0 -230.5 68t-86.5 191q0 124 86.5 192.5t230.5 68.5
q63 0 116 -13.5t93.5 -40.5t66.5 -66q39 58 110.5 89t167.5 31zM725 300h339q-2 25 -14.5 45.5t-33 34.5t-50 22t-65.5 8q-70 0 -116 -30.5t-60 -79.5zM353 88q80 0 131.5 42.5t51.5 117t-51.5 118t-131.5 43.5t-132.5 -43.5t-52.5 -118t52 -117t133 -42.5z" />
    <glyph glyph-name="Racute" unicode="&#x154;" horiz-adv-x="826" 
d="M483 841v-114h-150v114h150zM601 282q79 -7 114 -34.5t35 -93.5v-154h-133v145q0 53 -39.5 73t-123.5 20h-244v-238h-133v647h439q116 0 182 -48.5t66 -147.5q0 -142 -163 -169zM210 344h306q51 0 82.5 26.5t32.5 72.5q0 43 -31 65.5t-84 22.5h-306v-187z" />
    <glyph glyph-name="racute" unicode="&#x155;" horiz-adv-x="395" 
d="M309 717v-114h-151v114h151zM187 348q9 26 22.5 51t36 51.5t57 42t75.5 15.5v-118q-34 0 -64 -9.5t-50 -22.5t-36.5 -30.5t-25 -30t-15.5 -26.5v-271h-130v497h130v-149z" />
    <glyph glyph-name="uni0156" unicode="&#x156;" horiz-adv-x="826" 
d="M601 282q79 -7 114 -34.5t35 -93.5v-154h-133v145q0 53 -39.5 73t-123.5 20h-244v-238h-133v647h439q116 0 182 -48.5t66 -147.5q0 -142 -163 -169zM210 344h306q51 0 82.5 26.5t32.5 72.5q0 43 -31 65.5t-84 22.5h-306v-187zM330 -204v114h150v-114h-150z" />
    <glyph glyph-name="uni0157" unicode="&#x157;" horiz-adv-x="395" 
d="M187 348q9 26 22.5 51t36 51.5t57 42t75.5 15.5v-118q-34 0 -64 -9.5t-50 -22.5t-36.5 -30.5t-25 -30t-15.5 -26.5v-271h-130v497h130v-149zM47 -200v115h151v-115h-151z" />
    <glyph glyph-name="Rcaron" unicode="&#x158;" horiz-adv-x="826" 
d="M483 841v-114h-150v114h150zM601 282q79 -7 114 -34.5t35 -93.5v-154h-133v145q0 53 -39.5 73t-123.5 20h-244v-238h-133v647h439q116 0 182 -48.5t66 -147.5q0 -142 -163 -169zM210 344h306q51 0 82.5 26.5t32.5 72.5q0 43 -31 65.5t-84 22.5h-306v-187z" />
    <glyph glyph-name="rcaron" unicode="&#x159;" horiz-adv-x="395" 
d="M309 717v-114h-151v114h151zM187 348q9 26 22.5 51t36 51.5t57 42t75.5 15.5v-118q-34 0 -64 -9.5t-50 -22.5t-36.5 -30.5t-25 -30t-15.5 -26.5v-271h-130v497h130v-149z" />
    <glyph glyph-name="Sacute" unicode="&#x15a;" horiz-adv-x="694" 
d="M414 844v-114h-151v114h151zM41 218h135q6 -52 62 -85.5t137 -34.5q73 0 110.5 23.5t37.5 65.5q0 15 -5.5 26.5t-18 20.5t-27.5 15.5t-40.5 12t-49.5 10t-62 9.5q-50 8 -87.5 17t-73.5 24.5t-59 34.5t-37 47.5t-14 63.5q0 58 32.5 101t98.5 67t159 24q138 0 213.5 -59.5
t74.5 -163.5h-130q-3 56 -47 83.5t-117 27.5q-150 0 -150 -83q0 -45 43 -62t169 -39q48 -7 83 -15t70 -22.5t57 -33t35.5 -46.5t13.5 -65q0 -94 -70 -145t-213 -51q-57 0 -107 11.5t-86 30.5t-64 43t-44 50t-23.5 51t-5.5 46z" />
    <glyph glyph-name="sacute" unicode="&#x15b;" horiz-adv-x="564" 
d="M356 717v-114h-151v114h151zM40 165h120q24 -76 136 -77q96 0 96 55q0 32 -29 44.5t-103 24.5q-40 7 -67 13.5t-57.5 18t-48.5 25.5t-30 36.5t-12 51.5q0 71 65.5 111t169.5 40q108 0 167.5 -46.5t60.5 -123.5h-115q-8 37 -35.5 53t-79.5 16q-48 0 -74 -14.5t-26 -40.5
q0 -29 31 -42t110 -26q3 -1 9 -2q28 -6 42.5 -9.5t39.5 -10.5t38 -13.5t30 -17.5t26 -24t15 -31.5t6 -40.5q0 -69 -61 -108t-164 -39q-61 0 -110 14t-77 34.5t-45.5 46t-23.5 46t-4 36.5z" />
    <glyph glyph-name="Scedilla" unicode="&#x15e;" horiz-adv-x="694" 
d="M41 218h135q6 -52 62 -85.5t137 -34.5q73 0 110.5 23.5t37.5 65.5q0 15 -5.5 26.5t-18 20.5t-27.5 15.5t-40.5 12t-49.5 10t-62 9.5q-50 8 -87.5 17t-73.5 24.5t-59 34.5t-37 47.5t-14 63.5q0 58 32.5 101t98.5 67t159 24q138 0 213.5 -59.5t74.5 -163.5h-130
q-3 56 -47 83.5t-117 27.5q-150 0 -150 -83q0 -45 43 -62t169 -39q48 -7 83 -15t70 -22.5t57 -33t35.5 -46.5t13.5 -65q0 -94 -70 -145t-213 -51q-57 0 -107 11.5t-86 30.5t-64 43t-44 50t-23.5 51t-5.5 46zM420 -90v-114h-151v114h151z" />
    <glyph glyph-name="scedilla" unicode="&#x15f;" horiz-adv-x="564" 
d="M40 165h120q24 -76 136 -77q96 0 96 55q0 32 -29 44.5t-103 24.5q-40 7 -67 13.5t-57.5 18t-48.5 25.5t-30 36.5t-12 51.5q0 71 65.5 111t169.5 40q108 0 167.5 -46.5t60.5 -123.5h-115q-8 37 -35.5 53t-79.5 16q-48 0 -74 -14.5t-26 -40.5q0 -29 31 -42t110 -26
q3 -1 9 -2q28 -6 42.5 -9.5t39.5 -10.5t38 -13.5t30 -17.5t26 -24t15 -31.5t6 -40.5q0 -69 -61 -108t-164 -39q-61 0 -110 14t-77 34.5t-45.5 46t-23.5 46t-4 36.5zM379 -95v-115h-150v115h150z" />
    <glyph glyph-name="Scaron" unicode="&#x160;" horiz-adv-x="694" 
d="M414 844v-114h-151v114h151zM41 218h135q6 -52 62 -85.5t137 -34.5q73 0 110.5 23.5t37.5 65.5q0 15 -5.5 26.5t-18 20.5t-27.5 15.5t-40.5 12t-49.5 10t-62 9.5q-50 8 -87.5 17t-73.5 24.5t-59 34.5t-37 47.5t-14 63.5q0 58 32.5 101t98.5 67t159 24q138 0 213.5 -59.5
t74.5 -163.5h-130q-3 56 -47 83.5t-117 27.5q-150 0 -150 -83q0 -45 43 -62t169 -39q48 -7 83 -15t70 -22.5t57 -33t35.5 -46.5t13.5 -65q0 -94 -70 -145t-213 -51q-57 0 -107 11.5t-86 30.5t-64 43t-44 50t-23.5 51t-5.5 46z" />
    <glyph glyph-name="scaron" unicode="&#x161;" horiz-adv-x="564" 
d="M40 165h120q24 -76 136 -77q96 0 96 55q0 32 -29 44.5t-103 24.5q-40 7 -67 13.5t-57.5 18t-48.5 25.5t-30 36.5t-12 51.5q0 71 65.5 111t169.5 40q108 0 167.5 -46.5t60.5 -123.5h-115q-8 37 -35.5 53t-79.5 16q-48 0 -74 -14.5t-26 -40.5q0 -29 31 -42t110 -26
q3 -1 9 -2q28 -6 42.5 -9.5t39.5 -10.5t38 -13.5t30 -17.5t26 -24t15 -31.5t6 -40.5q0 -69 -61 -108t-164 -39q-61 0 -110 14t-77 34.5t-45.5 46t-23.5 46t-4 36.5zM388 -217h-151v114h151v-114z" />
    <glyph glyph-name="uni0162" unicode="&#x162;" horiz-adv-x="722" 
d="M702 647v-113h-274v-534h-134v534h-274v113h682zM286 -200v115h150v-115h-150z" />
    <glyph glyph-name="uni0163" unicode="&#x163;" horiz-adv-x="433" 
d="M281 497h128v-99h-128v-398h-130v398h-128v99h128v136h130v-136zM141 -200v115h151v-115h-151z" />
    <glyph glyph-name="Tcaron" unicode="&#x164;" horiz-adv-x="722" 
d="M436 841v-114h-150v114h150zM702 647v-113h-275v-534h-133v534h-274v113h682z" />
    <glyph glyph-name="tcaron" unicode="&#x165;" horiz-adv-x="433" 
d="M291 846v-114h-150v114h150zM409 497v-99h-128v-398h-130v398h-128v99h128v136h130v-136h128z" />
    <glyph glyph-name="Tbar" unicode="&#x166;" horiz-adv-x="722" 
d="M436 841v-114h-150v114h150zM702 647v-113h-275v-534h-133v534h-274v113h682z" />
    <glyph glyph-name="tbar" unicode="&#x167;" horiz-adv-x="433" 
d="M291 846v-114h-150v114h150zM409 497v-99h-128v-398h-130v398h-128v99h128v136h130v-136h128z" />
    <glyph glyph-name="Umacron" unicode="&#x16a;" horiz-adv-x="881" 
d="M517 841v-114h-151v114h151zM671 647h133v-375q0 -63 -19 -112.5t-52 -81.5t-79.5 -53t-99 -29.5t-112.5 -8.5q-64 0 -117 9t-99.5 29.5t-79 53t-51 81.5t-18.5 112v375h133v-361q0 -55 16.5 -92t49.5 -56.5t72 -27t94 -7.5q52 0 90.5 7.5t71.5 27t50 56.5t17 92v361z
" />
    <glyph glyph-name="umacron" unicode="&#x16b;" horiz-adv-x="690" 
d="M430 717v-114h-151v114h151zM503 497h130v-497h-130v171q-7 -23 -17.5 -45t-29.5 -48t-42.5 -45t-58.5 -32t-76 -13q-43 0 -80.5 10.5t-70.5 33t-52 64.5t-19 100v301h130v-279q0 -69 33 -97t99 -28q41 0 74.5 14t55 37t33.5 41t21 37v275z" />
    <glyph glyph-name="Uring" unicode="&#x16e;" horiz-adv-x="881" 
d="M517 841v-114h-151v114h151zM671 647h133v-375q0 -63 -19 -112.5t-52 -81.5t-79.5 -53t-99 -29.5t-112.5 -8.5q-64 0 -117 9t-99.5 29.5t-79 53t-51 81.5t-18.5 112v375h133v-361q0 -55 16.5 -92t49.5 -56.5t72 -27t94 -7.5q52 0 90.5 7.5t71.5 27t50 56.5t17 92v361z
" />
    <glyph glyph-name="uring" unicode="&#x16f;" horiz-adv-x="690" 
d="M430 717v-114h-151v114h151zM503 497h130v-497h-130v171q-7 -23 -17.5 -45t-29.5 -48t-42.5 -45t-58.5 -32t-76 -13q-43 0 -80.5 10.5t-70.5 33t-52 64.5t-19 100v301h130v-279q0 -69 33 -97t99 -28q41 0 74.5 14t55 37t33.5 41t21 37v275z" />
    <glyph glyph-name="Uhungarumlaut" unicode="&#x170;" horiz-adv-x="881" 
d="M407 647v-114h-151v114h151zM624 647v-114h-151v114h151zM671 647h133v-375q0 -63 -19 -112.5t-52 -81.5t-79.5 -53t-99 -29.5t-112.5 -8.5q-64 0 -117 9t-99.5 29.5t-79 53t-51 81.5t-18.5 112v375h133v-361q0 -55 16.5 -92t49.5 -56.5t72 -27t94 -7.5q52 0 90.5 7.5
t71.5 27t50 56.5t17 92v361z" />
    <glyph glyph-name="uhungarumlaut" unicode="&#x171;" horiz-adv-x="690" 
d="M314 716v-114h-150v114h150zM531 716v-114h-151v114h151zM503 497h130v-497h-130v171q-7 -23 -17.5 -45t-29.5 -48t-42.5 -45t-58.5 -32t-76 -13q-43 0 -80.5 10.5t-70.5 33t-52 64.5t-19 100v301h130v-279q0 -69 33 -97t99 -28q41 0 74.5 14t55 37t33.5 41t21 37v275z
" />
    <glyph glyph-name="Uogonek" unicode="&#x172;" horiz-adv-x="881" 
d="M671 647h133v-375q0 -63 -19 -112.5t-52 -81.5t-79.5 -53t-99 -29.5t-112.5 -8.5q-64 0 -117 9t-99.5 29.5t-79 53t-51 81.5t-18.5 112v375h133v-361q0 -55 16.5 -92t49.5 -56.5t72 -27t94 -7.5q52 0 90.5 7.5t71.5 27t50 56.5t17 92v361zM811 -90v-115h-151v115h151z
" />
    <glyph glyph-name="uogonek" unicode="&#x173;" horiz-adv-x="690" 
d="M503 497h130v-497h-130v171q-7 -23 -17.5 -45t-29.5 -48t-42.5 -45t-58.5 -32t-76 -13q-43 0 -80.5 10.5t-70.5 33t-52 64.5t-19 100v301h130v-279q0 -69 33 -97t99 -28q41 0 74.5 14t55 37t33.5 41t21 37v275zM646 -86v-114h-151v114h151z" />
    <glyph glyph-name="Wcircumflex" unicode="&#x174;" horiz-adv-x="1300" 
d="M730 857v-114h-151v114h151zM1136 647h144l-270 -647h-163l-195 506l-196 -506h-163l-273 647h147l209 -519l199 519h153l199 -519z" />
    <glyph glyph-name="wcircumflex" unicode="&#x175;" horiz-adv-x="987" 
d="M566 717v-114h-150v114h150zM829 497h143l-219 -497h-122l-138 347l-143 -347h-122l-213 497h143l135 -352l126 352h149l121 -352z" />
    <glyph glyph-name="Ycircumflex" unicode="&#x176;" horiz-adv-x="740" 
d="M445 841v-114h-150v114h150zM567 647h154l-284 -443v-204h-134v204l-284 443h154l199 -322z" />
    <glyph glyph-name="ycircumflex" unicode="&#x177;" horiz-adv-x="638" 
d="M396 717v-114h-151v114h151zM484 497h138l-343 -697h-135l109 205l-238 492h138l165 -364z" />
    <glyph glyph-name="Ydieresis" unicode="&#x178;" horiz-adv-x="740" 
d="M337 841v-115h-151v115h151zM554 841v-115h-151v115h151zM567 647h154l-284 -443v-204h-134v204l-284 443h154l199 -322z" />
    <glyph glyph-name="Zacute" unicode="&#x179;" horiz-adv-x="821" 
d="M486 857v-114h-151v114h151zM758 647v-111l-531 -425h531v-111h-695v111l531 425h-531v111h695z" />
    <glyph glyph-name="zacute" unicode="&#x17a;" horiz-adv-x="622" 
d="M384 717v-114h-151v114h151zM204 98h362v-98h-509v98l358 300h-358v99h505v-99z" />
    <glyph glyph-name="Zdotaccent" unicode="&#x17b;" horiz-adv-x="821" 
d="M486 857v-114h-151v114h151zM758 647v-111l-531 -425h531v-111h-695v111l531 425h-531v111h695z" />
    <glyph glyph-name="zdotaccent" unicode="&#x17c;" horiz-adv-x="622" 
d="M384 717v-114h-151v114h151zM204 98h362v-98h-509v98l358 300h-358v99h505v-99z" />
    <glyph glyph-name="Zcaron" unicode="&#x17d;" horiz-adv-x="821" 
d="M486 857v-114h-151v114h151zM758 647v-111l-531 -425h531v-111h-695v111l531 425h-531v111h695z" />
    <glyph glyph-name="zcaron" unicode="&#x17e;" horiz-adv-x="622" 
d="M384 717v-114h-151v114h151zM204 98h362v-98h-509v98l358 300h-358v99h505v-99z" />
    <glyph glyph-name="florin" unicode="&#x192;" horiz-adv-x="905" 
d="M641 660q108 0 167.5 -55.5t59.5 -145.5h-124q-1 41 -28 65.5t-75 24.5q-58 0 -91 -39t-33 -139v-11h129v-61h-129v-31q0 -58 -11.5 -104.5t-33 -78.5t-52 -53.5t-67.5 -31.5t-80 -10q-104 0 -170 56.5t-66 141.5h124q0 -26 15 -46t40 -30.5t57 -10.5q55 0 84.5 37
t29.5 130v31h-136v61h136v11q0 150 68.5 219.5t185.5 69.5z" />
    <glyph glyph-name="uni0218" unicode="&#x218;" horiz-adv-x="694" 
d="M41 218h135q6 -52 62 -85.5t137 -34.5q73 0 110.5 23.5t37.5 65.5q0 15 -5.5 26.5t-18 20.5t-27.5 15.5t-40.5 12t-49.5 10t-62 9.5q-50 8 -87.5 17t-73.5 24.5t-59 34.5t-37 47.5t-14 63.5q0 58 32.5 101t98.5 67t159 24q138 0 213.5 -59.5t74.5 -163.5h-130
q-3 56 -47 83.5t-117 27.5q-150 0 -150 -83q0 -45 43 -62t169 -39q48 -7 83 -15t70 -22.5t57 -33t35.5 -46.5t13.5 -65q0 -94 -70 -145t-213 -51q-57 0 -107 11.5t-86 30.5t-64 43t-44 50t-23.5 51t-5.5 46zM420 -90v-114h-151v114h151z" />
    <glyph glyph-name="uni0219" unicode="&#x219;" horiz-adv-x="564" 
d="M40 165h120q24 -76 136 -77q96 0 96 55q0 32 -29 44.5t-103 24.5q-40 7 -67 13.5t-57.5 18t-48.5 25.5t-30 36.5t-12 51.5q0 71 65.5 111t169.5 40q108 0 167.5 -46.5t60.5 -123.5h-115q-8 37 -35.5 53t-79.5 16q-48 0 -74 -14.5t-26 -40.5q0 -29 31 -42t110 -26
q3 -1 9 -2q28 -6 42.5 -9.5t39.5 -10.5t38 -13.5t30 -17.5t26 -24t15 -31.5t6 -40.5q0 -69 -61 -108t-164 -39q-61 0 -110 14t-77 34.5t-45.5 46t-23.5 46t-4 36.5zM379 -95v-115h-150v115h150z" />
    <glyph glyph-name="uni021A" unicode="&#x21a;" horiz-adv-x="722" 
d="M702 647v-113h-274v-534h-134v534h-274v113h682zM286 -200v115h150v-115h-150z" />
    <glyph glyph-name="uni021B" unicode="&#x21b;" horiz-adv-x="433" 
d="M281 497h128v-99h-128v-398h-130v398h-128v99h128v136h130v-136zM141 -200v115h151v-115h-151z" />
    <glyph glyph-name="circumflex" unicode="&#x2c6;" horiz-adv-x="304" 
d="M236 717v-114h-151v114h151z" />
    <glyph glyph-name="caron" unicode="&#x2c7;" horiz-adv-x="596" 
d="M236 640h-151v114h151v-114z" />
    <glyph glyph-name="breve" unicode="&#x2d8;" horiz-adv-x="596" 
d="M226 738v-114h-151v114h151z" />
    <glyph glyph-name="dotaccent" unicode="&#x2d9;" horiz-adv-x="304" 
d="M226 717v-114h-151v114h151z" />
    <glyph glyph-name="ring" unicode="&#x2da;" horiz-adv-x="596" 
d="M298 541q-52 0 -88.5 37t-36.5 89t36.5 88.5t88.5 36.5t88.5 -36.5t36.5 -88.5t-36.5 -89t-88.5 -37zM298 611q22 0 38 16.5t16 39.5t-16 39t-38 16t-38 -16t-16 -39t16 -39.5t38 -16.5z" />
    <glyph glyph-name="ogonek" unicode="&#x2db;" horiz-adv-x="304" 
d="M226 -86v-114h-151v114h151z" />
    <glyph glyph-name="tilde" unicode="&#x2dc;" horiz-adv-x="596" 
d="M226 717v-114h-151v114h151z" />
    <glyph glyph-name="hungarumlaut" unicode="&#x2dd;" horiz-adv-x="541" 
d="M231 716v-114h-151v114h151zM448 716v-114h-151v114h151z" />
    <glyph glyph-name="gravecomb" unicode="&#x300;" 
d="M-226 717h151v-114h-151v114z" />
    <glyph glyph-name="acutecomb" unicode="&#x301;" 
d="M-75 717v-114h-151v114h151z" />
    <glyph glyph-name="uni0302" unicode="&#x302;" 
d="M-75 717v-114h-151v114h151z" />
    <glyph glyph-name="tildecomb" unicode="&#x303;" 
d="M-75 717v-114h-151v114h151z" />
    <glyph glyph-name="uni0304" unicode="&#x304;" 
d="M-75 717v-114h-151v114h151z" />
    <glyph glyph-name="uni0306" unicode="&#x306;" 
d="M-75 717v-114h-151v114h151z" />
    <glyph glyph-name="uni0307" unicode="&#x307;" 
d="M-75 717v-114h-151v114h151z" />
    <glyph glyph-name="uni0308" unicode="&#x308;" 
d="M-287 716v-114h-150v114h150zM-70 716v-114h-150v114h150z" />
    <glyph glyph-name="uni030A" unicode="&#x30a;" 
d="M-75 717v-114h-151v114h151z" />
    <glyph glyph-name="uni030B" unicode="&#x30b;" 
d="M-299 716v-114h-150v114h150zM-82 716v-114h-151v114h151z" />
    <glyph glyph-name="uni030C" unicode="&#x30c;" 
d="M-75 717v-114h-151v114h151z" />
    <glyph glyph-name="uni0312" unicode="&#x312;" 
d="M-75 717v-114h-151v114h151z" />
    <glyph glyph-name="uni0326" unicode="&#x326;" 
d="M-85 -85v-115h-151v115h151z" />
    <glyph glyph-name="uni0327" unicode="&#x327;" 
d="M-75 -85v-115h-151v115h151z" />
    <glyph glyph-name="uni0328" unicode="&#x328;" 
d="M-75 -86v-114h-151v114h151z" />
    <glyph glyph-name="uni0335" unicode="&#x335;" 
d="M-434 422h359v-61h-359v61z" />
    <glyph glyph-name="uni0336" unicode="&#x336;" 
d="M-475 424h400v-60h-400v60z" />
    <glyph glyph-name="uni0337" unicode="&#x337;" 
d="M-112 564l37 -53l-410 -280l-35 53z" />
    <glyph glyph-name="uni0338" unicode="&#x338;" 
d="M-129 720l54 -30l-398 -719l-52 32z" />
    <glyph glyph-name="uni0394" unicode="&#x394;" horiz-adv-x="747" 
d="M374 700l333 -700h-667zM374 468l-162 -366h323z" />
    <glyph glyph-name="uni03A9" unicode="&#x3a9;" horiz-adv-x="814" 
d="M576 128l1 -33l191 7v-102h-296v152q189 64 189 201q0 87 -65 140t-189 53q-83 0 -141 -25t-85.5 -68t-27.5 -100q0 -143 195 -201v-152h-302v102l194 -7v33h2q-45 11 -82.5 29.5t-70 46.5t-51 69.5t-18.5 92.5q0 125 107 209.5t280 84.5t280 -84.5t107 -209.5
q0 -50 -19 -92t-51.5 -70.5t-69.5 -47.5t-78 -28z" />
    <glyph glyph-name="uni03BC" unicode="&#x3bc;" horiz-adv-x="759" 
d="M633 194q0 -53 21.5 -70t74.5 -17v-114q-117 0 -171 43.5t-55 127.5q-6 -23 -14.5 -44.5t-24.5 -46.5t-36.5 -42.5t-51.5 -30t-68 -12.5q-83 0 -121 59v-247h-130v697h130v-273q0 -37 10 -63.5t29 -40.5t42.5 -20.5t53.5 -6.5q40 0 73.5 14t54.5 36.5t32.5 40.5t19.5 37
v276h131v-303z" />
    <glyph glyph-name="pi" unicode="&#x3c0;" horiz-adv-x="783" 
d="M732 398h-121v-207q0 -63 24.5 -81t96.5 -18v-102q-130 0 -190.5 49t-60.5 146v213h-179v-398h-130v398h-122v99h682v-99z" />
    <glyph glyph-name="Wgrave" unicode="&#x1e80;" horiz-adv-x="1300" 
d="M579 857h151v-114h-151v114zM1136 647h144l-270 -647h-163l-195 506l-196 -506h-163l-273 647h147l209 -519l199 519h153l199 -519z" />
    <glyph glyph-name="wgrave" unicode="&#x1e81;" horiz-adv-x="987" 
d="M416 717h150v-114h-150v114zM829 497h143l-219 -497h-122l-138 347l-143 -347h-122l-213 497h143l135 -352l126 352h149l121 -352z" />
    <glyph glyph-name="Wacute" unicode="&#x1e82;" horiz-adv-x="1300" 
d="M730 857v-114h-151v114h151zM1136 647h144l-270 -647h-163l-195 506l-196 -506h-163l-273 647h147l209 -519l199 519h153l199 -519z" />
    <glyph glyph-name="wacute" unicode="&#x1e83;" horiz-adv-x="987" 
d="M566 717v-114h-150v114h150zM829 497h143l-219 -497h-122l-138 347l-143 -347h-122l-213 497h143l135 -352l126 352h149l121 -352z" />
    <glyph glyph-name="Wdieresis" unicode="&#x1e84;" horiz-adv-x="1300" 
d="M1018 678v-115h-150v115h150zM436 677v-114h-151v114h151zM1136 647h144l-270 -647h-163l-195 506l-196 -506h-163l-273 647h147l209 -519l199 519h153l199 -519z" />
    <glyph glyph-name="wdieresis" unicode="&#x1e85;" horiz-adv-x="987" 
d="M458 716v-114h-151v114h151zM675 716v-114h-151v114h151zM829 497h143l-219 -497h-122l-138 347l-143 -347h-122l-213 497h143l135 -352l126 352h149l121 -352z" />
    <glyph glyph-name="Ygrave" unicode="&#x1ef2;" horiz-adv-x="740" 
d="M295 841h150v-114h-150v114zM567 647h154l-284 -443v-204h-134v204l-284 443h154l199 -322z" />
    <glyph glyph-name="ygrave" unicode="&#x1ef3;" horiz-adv-x="638" 
d="M245 717h151v-114h-151v114zM484 497h138l-343 -697h-135l109 205l-238 492h138l165 -364z" />
    <glyph glyph-name="endash" unicode="&#x2013;" horiz-adv-x="604" 
d="M80 321h444v-100h-444v100z" />
    <glyph glyph-name="emdash" unicode="&#x2014;" horiz-adv-x="844" 
d="M60 322h724v-100h-724v100z" />
    <glyph glyph-name="quoteleft" unicode="&#x2018;" horiz-adv-x="231" 
d="M170 669l12 -34q-5 -3 -12 -8t-19.5 -23.5t-13.5 -40.5l55 -10v-115h-153v75q0 68 32.5 105.5t98.5 50.5z" />
    <glyph glyph-name="quoteright" unicode="&#x2019;" horiz-adv-x="231" 
d="M61 423l-12 34q5 2 12 7.5t19 24t14 39.5l-55 11v114h153v-75q0 -67 -33 -104.5t-98 -50.5z" />
    <glyph glyph-name="quotesinglbase" unicode="&#x201a;" horiz-adv-x="231" 
d="M61 -116l-12 34q5 3 12 8t19 23.5t14 39.5l-55 11v115h153v-75q0 -68 -33 -105.5t-98 -50.5z" />
    <glyph glyph-name="quotedblleft" unicode="&#x201c;" horiz-adv-x="429" 
d="M170 669l12 -34q-5 -3 -12 -8t-19.5 -23.5t-13.5 -40.5l55 -10v-115h-153v75q0 68 32.5 105.5t98.5 50.5zM368 669l12 -34q-5 -3 -12 -8t-19.5 -23.5t-13.5 -40.5l55 -10v-115h-153v75q0 68 32.5 105.5t98.5 50.5z" />
    <glyph glyph-name="quotedblright" unicode="&#x201d;" horiz-adv-x="428" 
d="M61 423l-12 34q5 2 12 7.5t19 24t14 39.5l-55 11v114h153v-75q0 -45 -15.5 -77t-44 -51t-71.5 -27zM258 423l-11 34q4 2 11 7.5t19.5 24t14.5 39.5l-55 11v114h153v-75q0 -45 -15.5 -77t-44 -51t-72.5 -27z" />
    <glyph glyph-name="quotedblbase" unicode="&#x201e;" horiz-adv-x="231" 
d="M61 -116l-12 34q5 3 12 8t19 23.5t14 39.5l-55 11v115h153v-75q0 -68 -33 -105.5t-98 -50.5z" />
    <glyph glyph-name="dagger" unicode="&#x2020;" horiz-adv-x="763" 
d="M667 500v-111h-221v-589h-130v589h-220v111h220v200h130v-200h221z" />
    <glyph glyph-name="daggerdbl" unicode="&#x2021;" horiz-adv-x="732" 
d="M651 389h-220v-273h220v-111h-220v-205h-130v205h-221v111h221v273h-221v111h221v200h130v-200h220v-111z" />
    <glyph glyph-name="bullet" unicode="&#x2022;" horiz-adv-x="456" 
d="M97 393h262v-262h-262v262z" />
    <glyph glyph-name="ellipsis" unicode="&#x2026;" horiz-adv-x="691" 
d="M211 114v-114h-151v114h151zM422 114v-114h-151v114h151zM631 114v-114h-151v114h151z" />
    <glyph glyph-name="perthousand" unicode="&#x2030;" horiz-adv-x="1025" 
d="M605 686l54 -30l-382 -690l-52 32zM214 333q-86 0 -137 44t-51 121q0 78 51 122t137 44t136.5 -44t50.5 -122q0 -77 -50.5 -121t-136.5 -44zM214 415q39 0 62 22.5t23 61t-23 61t-62 22.5t-62.5 -22.5t-23.5 -61.5q0 -25 10.5 -44t30 -29t45.5 -10zM812 248
q-57 0 -99.5 19.5t-65.5 57t-23 88.5q0 78 51 122t137 44t136.5 -44t50.5 -122q0 -38 -13.5 -69t-37.5 -52.5t-59 -32.5t-77 -11zM812 330q38 0 61.5 22.5t23.5 60.5q0 26 -10.5 45t-29.5 29t-45 10q-39 0 -62.5 -22.5t-23.5 -61t23.5 -61t62.5 -22.5zM618 -100
q-86 0 -137 44t-51 122q0 38 13.5 69.5t38 52.5t59.5 32t77 11q86 0 136.5 -44t50.5 -121.5t-50.5 -121.5t-136.5 -44zM618 -18q39 0 62 22.5t23 61t-23 61t-62 22.5t-62.5 -22.5t-23.5 -60.5q0 -26 11 -45t30 -29t45 -10z" />
    <glyph glyph-name="guilsinglleft" unicode="&#x2039;" horiz-adv-x="423" 
d="M195 279l148 -163l-72 -68l-211 231l211 231l72 -69z" />
    <glyph glyph-name="guilsinglright" unicode="&#x203a;" horiz-adv-x="423" 
d="M152 510l211 -231l-211 -231l-72 68l149 163l-149 162z" />
    <glyph glyph-name="fraction" unicode="&#x2044;" horiz-adv-x="84" 
d="M210 700l54 -30l-382 -690l-52 32z" />
    <glyph glyph-name="Euro" unicode="&#x20ac;" horiz-adv-x="964" 
d="M670 401l-54 -59h-596l60 59h67q25 125 127.5 192t252.5 67q195 0 293 -91l-92 -96q-61 70 -179 70q-97 0 -165 -36.5t-94 -105.5h380zM779 233h132q-13 -117 -108 -181.5t-254 -64.5q-156 0 -264.5 64t-136.5 182h-128l60 56h485l-54 -56h-217q28 -65 95 -98.5
t160 -33.5t151 34.5t79 97.5z" />
    <glyph glyph-name="trademark" unicode="&#x2122;" horiz-adv-x="1115" 
d="M206 397v155h-129v95h379v-95h-133v-155h-117zM920 647h118v-250h-116l-1 117l-79 -119h-118l-79 118l-1 -116h-116v250h117l137 -177zM88 233v94h950v-94h-950z" />
    <glyph glyph-name="uni2150" unicode="&#x2150;" horiz-adv-x="989" 
d="M675 700l54 -30l-382 -690l-52 32zM375 342v-88h-350v88h129v218h-125v87h242v-305h104zM628 393h338v-86l-158 -307h-123l162 302h-219v91z" />
    <glyph glyph-name="uni2151" unicode="&#x2151;" horiz-adv-x="986" 
d="M675 700l54 -30l-382 -690l-52 32zM375 342v-88h-350v88h129v218h-125v87h242v-305h104zM764 403q59 0 103.5 -18t67.5 -48.5t23 -69.5q0 -44 -28 -83q-9 -15 -40.5 -61t-58.5 -85l-27 -38h-122l117 136q-27 -15 -58 -15q-72 0 -114 37.5t-42 100.5q0 33 12 59.5t35 45
t56.5 29t75.5 10.5zM768 196q47 0 72.5 16t25.5 44q0 18 -11 31t-33.5 20.5t-53.5 7.5q-91 0 -91 -59q0 -60 91 -60z" />
    <glyph glyph-name="uni2152" unicode="&#x2152;" horiz-adv-x="1469" 
d="M675 700l54 -30l-382 -690l-52 32zM375 342v-88h-350v88h129v218h-125v87h242v-305h104zM1208.5 402q98.5 0 152 -56.5t53.5 -151.5t-53.5 -151t-152 -56t-152 56t-53.5 151t53.5 151.5t152 56.5zM877 393v-304h103v-89h-350v89h129v217h-125v87h243zM1209 87
q45 0 69.5 28.5t24.5 78.5t-24.5 78t-69.5 28q-47 0 -71.5 -28t-24.5 -78q0 -33 10.5 -57t32.5 -37t53 -13z" />
    <glyph glyph-name="uni2153" unicode="&#x2153;" horiz-adv-x="977" 
d="M675 700l54 -30l-382 -690l-52 32zM375 342v-88h-350v88h129v218h-125v87h242v-305h104zM802 201q34 -3 57.5 -8.5t43 -16t29 -27t9.5 -40.5q0 -56 -47.5 -89t-128.5 -33q-86 0 -134.5 37t-45.5 97h87q0 -22 23.5 -34.5t68.5 -12.5t64.5 11.5t19.5 36.5q0 49 -98 49h-58
v55h58q50 0 71 11.5t21 34.5q0 40 -81 40q-38 0 -61 -11.5t-24 -28.5h-86q-3 59 45.5 95t124.5 36q81 0 127.5 -30.5t46.5 -77.5q0 -85 -132 -94z" />
    <glyph glyph-name="uni2154" unicode="&#x2154;" horiz-adv-x="995" 
d="M692 700l54 -30l-382 -690l-52 32zM390 342v-88h-342v85q239 104 239 181q0 45 -72 45q-36 0 -55 -12.5t-22 -28.5h-97q-3 57 44.5 95t133.5 38q77 0 122 -30t45 -86q0 -53 -39 -93.5t-109 -77.5l-68 -31zM820 201q69 -6 104 -26t35 -66q0 -56 -47.5 -89t-129.5 -33
q-85 0 -133.5 37t-45.5 97h87q0 -22 23.5 -34.5t67.5 -12.5q46 0 65.5 11.5t19.5 36.5q0 49 -98 49h-58v55h58q50 0 71 11.5t21 34.5q0 40 -81 40q-38 0 -61.5 -11.5t-23.5 -28.5h-87q-3 59 46 95t124 36q81 0 127.5 -30.5t46.5 -77.5q0 -85 -131 -94z" />
    <glyph glyph-name="uni2155" unicode="&#x2155;" horiz-adv-x="1014" 
d="M675 700l54 -30l-382 -690l-52 32zM375 342v-88h-350v88h129v218h-125v87h242v-305h104zM823 252q64 0 104 -34.5t40 -94.5q0 -65 -46 -100.5t-130 -35.5q-81 0 -131 36t-53 98h91q2 -23 27.5 -36t68.5 -13q39 0 59.5 14.5t20.5 41.5q0 55 -78 55q-82 0 -94 -29l-80 21
l15 219h292v-85h-214l-7 -98q40 41 115 41z" />
    <glyph glyph-name="uni2156" unicode="&#x2156;" horiz-adv-x="1032" 
d="M692 700l54 -30l-382 -690l-52 32zM390 342v-88h-342v85q239 104 239 181q0 45 -72 45q-36 0 -55 -12.5t-22 -28.5h-97q-3 57 44.5 95t133.5 38q77 0 122 -30t45 -86q0 -53 -39 -93.5t-109 -77.5l-68 -31zM841 252q42 0 74.5 -15t51 -44.5t18.5 -69.5q0 -43 -20.5 -73.5
t-60 -46.5t-95.5 -16q-81 0 -131.5 36t-52.5 98h91q2 -23 27.5 -36t68.5 -13q39 0 59.5 14.5t20.5 41.5q0 55 -78 55q-82 0 -94 -29l-80 21l14 219h293v-85h-214l-8 -98q41 41 116 41z" />
    <glyph glyph-name="uni2157" unicode="&#x2157;" horiz-adv-x="991" 
d="M651 700l54 -30l-382 -690l-52 32zM392 363q0 -37 -21 -64.5t-61 -42.5t-94 -15q-85 0 -134 37t-45 97h86q1 -22 24.5 -35t67.5 -13q46 0 65 12t19 37q0 49 -98 49h-58v55h58q34 0 55 5.5t29 15.5t8 25q0 40 -81 40q-38 0 -61 -11.5t-24 -28.5h-86q-3 59 45.5 95
t124.5 36q81 0 127.5 -30.5t46.5 -77.5q0 -85 -131 -95q45 -3 73.5 -12t46.5 -28.5t18 -50.5zM800 252q42 0 74.5 -15t51 -44.5t18.5 -69.5q0 -64 -46 -100t-130 -36q-81 0 -131.5 36t-52.5 98h91q2 -23 27.5 -36t68.5 -13q39 0 59.5 14.5t20.5 41.5q0 55 -78 55
q-82 0 -94 -29l-80 21l14 219h293v-85h-214l-7 -98q40 41 115 41z" />
    <glyph glyph-name="uni2158" unicode="&#x2158;" horiz-adv-x="1029" 
d="M689 700l54 -30l-382 -690l-52 32zM361 254h-105v71h-209v83l213 239h101v-242h52v-80h-52v-71zM259 401v135l-102 -135h102zM838 252q64 0 104 -34.5t40 -94.5q0 -43 -20.5 -73.5t-60 -46.5t-95.5 -16q-81 0 -131.5 36t-52.5 98h91q2 -23 27.5 -36t68.5 -13
q39 0 59.5 14.5t20.5 41.5q0 55 -78 55q-82 0 -94 -29l-80 21l14 219h293v-85h-214l-8 -98q41 41 116 41z" />
    <glyph glyph-name="uni2159" unicode="&#x2159;" horiz-adv-x="946" 
d="M675 700l54 -30l-382 -690l-52 32zM375 342v-88h-350v88h129v218h-125v87h242v-305h104zM754 269q72 0 114 -38t42 -100q0 -67 -47 -105.5t-129 -38.5q-91 0 -144 38t-53 97q0 44 28 83q9 16 40.5 62.5t58.5 86.5l27 39h122l-118 -140q28 16 59 16zM729 74q45 0 67 16
t22 44q0 60 -91 60q-47 0 -72.5 -16.5t-25.5 -43.5t26 -43.5t74 -16.5z" />
    <glyph glyph-name="uni215A" unicode="&#x215a;" horiz-adv-x="947" 
d="M675 700l54 -30l-382 -690l-52 32zM419 376q0 -42 -20.5 -72.5t-60.5 -46.5t-96 -16q-80 0 -130.5 36t-53.5 98h91q3 -23 28.5 -36t67.5 -13q26 0 44 6.5t27.5 19t9.5 30.5q0 55 -78 55q-82 0 -94 -29l-80 20l14 219h293v-84h-214l-8 -98q40 41 115 41q65 0 105 -34.5
t40 -95.5zM754 269q72 0 114.5 -38t42.5 -100q0 -67 -47 -105.5t-129 -38.5q-46 0 -83 10t-62 28.5t-38.5 43t-13.5 53.5q0 44 28 83q5 10 20 33t32.5 48.5t34.5 50t28 40.5l11 16h122l-119 -140q28 16 59 16zM729 74q46 0 68 16t22 44q0 60 -91 60q-47 0 -73 -16.5
t-26 -43.5q0 -18 11.5 -31.5t34 -21t54.5 -7.5z" />
    <glyph glyph-name="oneeighth" unicode="&#x215b;" horiz-adv-x="990" 
d="M675 700l54 -30l-382 -690l-52 32zM375 342v-88h-350v88h129v218h-125v87h242v-305h104zM852 203q21 -4 38 -11.5t30 -19.5t20.5 -28t7.5 -36q0 -55 -46 -88t-133 -33t-133 33t-46 88q0 38 26.5 62.5t66.5 32.5q-37 8 -59.5 30t-22.5 57t19.5 60t57.5 38.5t91 13.5
q81 0 124.5 -29.5t43.5 -82.5q0 -35 -23 -57t-62 -30zM769 316q-79 0 -79 -41q0 -43 79 -43q82 0 82 43q0 41 -82 41zM769 72q93 0 93 48q0 49 -93 49q-91 0 -91 -49q0 -48 91 -48z" />
    <glyph glyph-name="threeeighths" unicode="&#x215c;" horiz-adv-x="967" 
d="M651 700l54 -30l-382 -690l-52 32zM392 363q0 -37 -21 -64.5t-61 -42.5t-94 -15q-85 0 -134 37t-45 97h86q1 -22 24.5 -35t67.5 -13q46 0 65 12t19 37q0 49 -98 49h-58v55h58q34 0 55 5.5t29 15.5t8 25q0 40 -81 40q-38 0 -61 -11.5t-24 -28.5h-86q-3 59 45.5 95
t124.5 36q81 0 127.5 -30.5t46.5 -77.5q0 -85 -131 -95q45 -3 73.5 -12t46.5 -28.5t18 -50.5zM829 203q28 -5 49 -17t34 -32t13 -46q0 -55 -46 -88t-133 -33t-133 33t-46 88q0 38 26 62.5t66 32.5q-36 8 -58.5 30t-22.5 57q0 26 11 47t32 35.5t53 22t72 7.5
q81 0 124.5 -29.5t43.5 -82.5q0 -23 -11.5 -41.5t-30 -29.5t-43.5 -16zM746 316q-79 0 -79 -41q0 -43 79 -43q82 0 82 43q0 41 -82 41zM746 72q93 0 93 48q0 49 -93 49q-91 0 -91 -49q0 -48 91 -48z" />
    <glyph glyph-name="fiveeighths" unicode="&#x215d;" horiz-adv-x="991" 
d="M675 700l54 -30l-382 -690l-52 32zM419 376q0 -42 -20.5 -72.5t-60.5 -46.5t-96 -16q-80 0 -130.5 36t-53.5 98h91q3 -23 28.5 -36t67.5 -13q26 0 44 6.5t27.5 19t9.5 30.5q0 55 -78 55q-82 0 -94 -29l-80 20l14 219h293v-84h-214l-8 -98q40 41 115 41q65 0 105 -34.5
t40 -95.5zM853 203q27 -5 48.5 -17t34.5 -32t13 -46q0 -55 -46 -88t-133 -33t-133 33t-46 88q0 38 26 62.5t66 32.5q-23 5 -41 16t-29 29.5t-11 41.5q0 35 19 60t57 38.5t92 13.5q81 0 124.5 -29.5t43.5 -82.5q0 -35 -23.5 -57t-61.5 -30zM770 316q-79 0 -79 -41
q0 -43 79 -43q82 0 82 43q0 41 -82 41zM770 72q93 0 93 48q0 49 -93 49q-91 0 -91 -49q0 -48 91 -48z" />
    <glyph glyph-name="seveneighths" unicode="&#x215e;" horiz-adv-x="880" 
d="M564 700l54 -30l-382 -690l-52 32zM203 254h-122l162 302h-220v91h338v-87zM742 203q42 -8 69 -32.5t27 -62.5q0 -55 -46 -88t-133 -33t-133 33t-46 88q0 38 26 62.5t66 32.5q-36 8 -58.5 30t-22.5 57q0 53 43.5 82.5t124.5 29.5t124.5 -29.5t43.5 -82.5q0 -35 -23 -57
t-62 -30zM659 316q-79 0 -79 -41q0 -43 79 -43q82 0 82 43q0 41 -82 41zM659 72q93 0 93 48q0 49 -93 49q-91 0 -91 -49q0 -48 91 -48z" />
    <glyph glyph-name="uni2189" unicode="&#x2189;" horiz-adv-x="995" 
d="M693 700l54 -30l-382 -690l-52 32zM447 448q0 -95 -53.5 -151t-152 -56t-152 56t-53.5 151q0 62 23 108.5t70 72.5t112 26q99 0 152.5 -56t53.5 -151zM241 341q46 0 70.5 28t24.5 79q0 50 -24.5 78t-70.5 28t-70.5 -28t-24.5 -78t24.5 -78.5t70.5 -28.5zM821 201
q33 -3 57 -8.5t43 -16t28.5 -27t9.5 -40.5q0 -56 -47 -89t-129 -33q-85 0 -134 37t-45 97h86q1 -22 24.5 -34.5t67.5 -12.5q46 0 65 11.5t19 36.5q0 49 -98 49h-58v55h58q50 0 71 11.5t21 34.5q0 40 -81 40q-38 0 -61 -11.5t-24 -28.5h-86q-3 59 45.5 95t124.5 36
q81 0 127.5 -30.5t46.5 -77.5q0 -85 -131 -94z" />
    <glyph glyph-name="arrowleft" unicode="&#x2190;" horiz-adv-x="873" 
d="M833 230h-521l-74 2l105 -116l-72 -68l-211 231l211 231l72 -69l-105 -115l74 2h521v-98z" />
    <glyph glyph-name="arrowup" unicode="&#x2191;" horiz-adv-x="703" 
d="M583 516l-69 -72l-115 105l2 -74v-521h-99v521l2 74l-115 -105l-69 72l231 211z" />
    <glyph glyph-name="arrowright" unicode="&#x2192;" horiz-adv-x="873" 
d="M602 510l211 -231l-211 -231l-72 68l105 116l-74 -2h-521v98h521l74 -2l-105 115z" />
    <glyph glyph-name="arrowdown" unicode="&#x2193;" horiz-adv-x="703" 
d="M513 218l70 -72l-232 -212l-231 212l69 72l115 -105l-2 74v521h98v-521l-1 -74z" />
    <glyph glyph-name="arrowboth" unicode="&#x2194;" horiz-adv-x="1074" 
d="M803 510l211 -231l-211 -231l-73 68l106 116l-59 -2h-480l-59 1l105 -115l-72 -68l-211 231l211 231l72 -69l-105 -115l59 2h480l59 -2l-105 115z" />
    <glyph glyph-name="arrowupdn" unicode="&#x2195;" horiz-adv-x="703" 
d="M399 36l114 105l70 -72l-232 -211l-231 211l69 72l115 -105l-2 59v448l2 59l-115 -105l-69 72l231 211l232 -211l-70 -72l-114 105l1 -59v-448z" />
    <glyph glyph-name="uni2196" unicode="&#x2196;" horiz-adv-x="796" 
d="M327 493l369 -369l-70 -69l-368 368l-51 54l-7 -156l-100 2l14 313l313 14l2 -99l-156 -7z" />
    <glyph glyph-name="uni2197" unicode="&#x2197;" horiz-adv-x="796" 
d="M696 321l-100 -2l-7 156l-51 -54l-368 -369l-70 70l369 369l53 51l-155 7l2 99l313 -14z" />
    <glyph glyph-name="uni2198" unicode="&#x2198;" horiz-adv-x="796" 
d="M596 324l100 -2l-14 -313l-313 -14l-3 100l156 7l-53 51l-369 368l70 70l368 -369l51 -53z" />
    <glyph glyph-name="uni2199" unicode="&#x2199;" horiz-adv-x="796" 
d="M327 153l-53 -51l156 -7l-3 -100l-313 14l-14 313l100 2l7 -155l51 53l368 369l70 -70z" />
    <glyph glyph-name="partialdiff" unicode="&#x2202;" horiz-adv-x="702" 
d="M181 709q111 -22 196 -61.5t135.5 -84.5t82.5 -99.5t43 -103t11 -98.5q0 -120 -85.5 -197t-219.5 -77q-142 0 -225 71t-83 189q0 115 73.5 183t186.5 68q82 0 139 -32.5t86 -90.5q-28 85 -113.5 144.5t-246.5 93.5zM350 89q79 0 132 43t53 114t-54.5 112.5t-133.5 41.5
q-55 0 -95.5 -19t-61.5 -54t-21 -83q0 -72 49 -113.5t132 -41.5z" />
    <glyph glyph-name="emptyset" unicode="&#x2205;" horiz-adv-x="796" 
d="M575 541q76 -34 118.5 -95.5t42.5 -142.5q0 -123 -92.5 -197t-245.5 -74q-58 0 -110 12l-64 -112l-61 35l57 99q-76 33 -118 94.5t-42 142.5q0 122 92.5 196.5t245.5 74.5q58 0 109 -11l64 110l60 -35zM186 303q0 -46 23 -83.5t65 -60.5l181 313q-27 6 -57 6
q-92 0 -152 -50t-60 -125zM398 128q61 0 109.5 23t75.5 62.5t27 89.5q0 46 -23.5 83.5t-64.5 61.5l-181 -314q27 -6 57 -6z" />
    <glyph glyph-name="product" unicode="&#x220f;" horiz-adv-x="857" 
d="M817 647v-112h-152v-535h-130v535h-213v-535h-130v535h-152v112h777z" />
    <glyph glyph-name="summation" unicode="&#x2211;" horiz-adv-x="727" 
d="M635 647v-111h-396l247 -222l-242 -203h391v-111h-551v110l225 205l-225 218v114h551z" />
    <glyph glyph-name="minus" unicode="&#x2212;" horiz-adv-x="490" 
d="M50 319h390v-98h-390v98z" />
    <glyph glyph-name="radical" unicode="&#x221a;" horiz-adv-x="807" 
d="M794 647v-111h-189l-233 -536h-123l-234 497h143l151 -354l209 504v0h276z" />
    <glyph glyph-name="infinity" unicode="&#x221e;" horiz-adv-x="1104" 
d="M816 508q100 0 167.5 -61t67.5 -152q0 -92 -68 -153.5t-174 -61.5q-45 0 -83 12t-69.5 35t-53.5 46t-48 57q-27 -34 -50.5 -57t-55.5 -46t-70.5 -34.5t-83.5 -11.5q-53 0 -98 16.5t-76.5 45t-49.5 68.5t-18 85q0 90 67.5 151t167.5 61q48 0 88 -12t73 -35.5t56 -47
t51 -58.5q27 35 48.5 58t53.5 47t71.5 36t86.5 12zM791 176q33 0 63 14.5t49.5 42t19.5 62.5q0 51 -37.5 84t-88.5 33q-58 0 -101.5 -30.5t-90.5 -89.5q45 -56 87 -86t99 -30zM313 177q62 0 106 29.5t88 85.5q-46 58 -91.5 89t-108.5 31q-51 0 -88.5 -33t-37.5 -83
q0 -35 19.5 -63t49.5 -42t63 -14z" />
    <glyph glyph-name="integral" unicode="&#x222b;" horiz-adv-x="504" 
d="M357 760h123v-114h-73q-42 0 -66 -20t-24 -70v-496q0 -86 -47 -128t-126 -42h-121v114h74q41 0 65.5 20t24.5 70v496q0 86 45.5 128t124.5 42z" />
    <glyph glyph-name="approxequal" unicode="&#x2248;" horiz-adv-x="623" 
d="M477 443h95q5 -64 -32 -107.5t-105 -43.5q-33 0 -66.5 11.5t-57 25.5t-52 25.5t-50.5 11.5q-29 0 -46 -15.5t-17 -36.5h-95q-3 42 12.5 76t51.5 54.5t87 20.5q32 0 65.5 -11.5t57 -25.5t52 -25.5t51.5 -11.5q49 0 49 52zM483 244h89q5 -62 -32 -106.5t-105 -44.5
q-33 0 -66.5 11.5t-57 25.5t-52 25.5t-50.5 11.5q-29 0 -46 -15.5t-17 -36.5h-95q-5 64 35 107.5t116 43.5q32 0 65.5 -11.5t57 -25t52 -25.5t51.5 -12q18 0 31 8t18.5 19.5t5.5 24.5z" />
    <glyph glyph-name="notequal" unicode="&#x2260;" horiz-adv-x="586" 
d="M536 330h-195l-29 -105h224v-98h-252l-34 -121l-64 17l29 104h-165v98h193l30 105h-223v98h250l36 126l64 -17l-31 -109h167v-98z" />
    <glyph glyph-name="lessequal" unicode="&#x2264;" horiz-adv-x="582" 
d="M488 210l-34 -98l-348 136v110l334 170l44 -90l-270 -129zM120 -10v72h355v-72h-355z" />
    <glyph glyph-name="greaterequal" unicode="&#x2265;" horiz-adv-x="543" 
d="M142 528l334 -170v-110l-348 -136l-34 98l274 99l-269 129zM107 -10v72h356v-72h-356z" />
    <glyph glyph-name="lozenge" unicode="&#x25ca;" horiz-adv-x="692" 
d="M345 680l297 -343l-296 -343l-296 343zM345 529l-164 -192l165 -192l165 192z" />
    <glyph glyph-name="uniF8FF" unicode="&#xf8ff;" horiz-adv-x="860" 
d="M430 660q174 0 287 -92t113 -243t-113 -243t-287 -92t-287 92t-113 243t113 243t287 92zM408 604q-89 -13 -134 -122q54 -9 134 -10v132zM452 604v-132q79 1 134 10q-45 109 -134 122zM235 489q32 71 86 107q-94 -22 -153 -80q28 -17 67 -27zM539 596q53 -36 85 -106
q39 11 66 27q-58 57 -151 79zM768 345q-5 85 -54 147q-31 -24 -75 -39q17 -52 20 -108h109zM145 490q-48 -62 -53 -145h109q3 56 20 107q-45 15 -76 38zM453 345h162q-3 52 -16 98q-61 -13 -146 -15v-83zM408 428q-87 1 -148 14q-12 -46 -15 -97h163v83zM92 305
q5 -81 50 -141q31 25 78 40q-16 50 -19 101h-109zM408 305h-163q3 -46 15 -91q61 13 148 15v76zM452 229q87 -2 148 -15q12 44 14 91h-162v-76zM717 162q46 61 51 143h-109q-3 -52 -20 -102q47 -15 78 -41zM407 185q-80 -1 -134 -10q21 -53 55 -87t79 -42v139zM452 46
q46 7 80 41.5t55 86.5q-55 9 -135 11v-139zM164 138q61 -62 160 -85q-56 38 -90 114q-41 -11 -70 -29zM536 53q98 23 159 84q-28 18 -70 29q-34 -75 -89 -113z" />
    <glyph glyph-name="i.loclTRK" horiz-adv-x="247" 
d="M199 715v-114h-151v114h151zM58 497h130v-497h-130v497z" />
    <glyph glyph-name="T_h" horiz-adv-x="1321" 
d="M1048 515q41 0 77 -9.5t68.5 -30.5t51.5 -60t19 -92v-323h-130v278q0 66 -34.5 95t-107.5 29q-30 0 -57.5 -8.5t-45.5 -21t-33.5 -29t-23.5 -29t-14 -25.5v-289h-130v534h-260v-534h-134v534h-274v113h798v-290q9 26 24 49.5t41.5 50t69 42.5t95.5 16z" />
    <glyph glyph-name="t_i" horiz-adv-x="692" 
d="M483 715h151v-114h-151v114zM623 497v-497h-130v398h-221v-398h-130v398h-119v99h119v136h130v-136h351z" />
    <glyph glyph-name="t_y" horiz-adv-x="1007" 
d="M853 497h139l-344 -697h-135l109 205l-190 393h-160v-398h-130v398h-119v99h119v136h130v-136h250l165 -364z" />
    <glyph glyph-name="zero.lf" horiz-adv-x="771" 
d="M389 660q81 0 145 -24.5t105.5 -69t63.5 -106t22 -137.5q0 -153 -87.5 -244.5t-248.5 -91.5t-248.5 91.5t-87.5 245t87.5 245t248.5 91.5zM389 98q86 0 141.5 59.5t55.5 165.5q0 105 -55.5 164.5t-141.5 59.5t-143 -59.5t-57 -164.5t57 -165t143 -60z" />
    <glyph glyph-name="one.lf" horiz-adv-x="387" 
d="M28 647h272v-647h-130v539h-142v108z" />
    <glyph glyph-name="two.lf" horiz-adv-x="664" 
d="M186 111h411v-111h-545v111q96 65 160.5 110.5t110 81t70.5 57t38.5 41t16.5 32t3 29.5q0 41 -34 64.5t-103 23.5q-65 0 -105 -25t-42 -66h-126q-5 87 70 144t200 57t200 -49t75 -141q0 -29 -10.5 -56.5t-31 -52.5t-44 -46.5t-58 -45t-63 -41t-69.5 -40.5z" />
    <glyph glyph-name="three.lf" horiz-adv-x="643" 
d="M390 336q105 -8 160.5 -43.5t55.5 -114.5q0 -85 -78.5 -138t-209.5 -53q-130 0 -208 57.5t-73 148.5h126q1 -28 22 -50t55.5 -33.5t77.5 -11.5q73 0 111.5 24.5t38.5 73.5q0 24 -11.5 42.5t-33.5 31t-54 19t-73 6.5h-85v73h85q161 0 161 94q0 41 -37 64t-102 23
q-64 0 -105.5 -25t-42.5 -66h-126q-5 91 75 146.5t199 55.5q42 0 79.5 -5.5t68 -16.5t54.5 -26.5t40 -35t25 -43t9 -49.5q0 -73 -52.5 -106.5t-151.5 -41.5z" />
    <glyph glyph-name="four.lf" horiz-adv-x="711" 
d="M671 232v-98h-115v-134h-130v134h-379v98l379 415h130v-415h115zM202 232h224v251z" />
    <glyph glyph-name="five.lf" horiz-adv-x="693" 
d="M403 409q99 0 166 -54t67 -152q0 -102 -76.5 -159t-204.5 -57q-123 0 -208.5 55t-89.5 148h124q3 -30 27.5 -52.5t61 -33t80.5 -10.5q64 0 110.5 28t46.5 82q0 37 -23 63t-57 37.5t-73 11.5q-124 0 -165 -63l-113 21l30 376h463v-111h-342l-18 -206q29 36 81.5 56
t112.5 20z" />
    <glyph glyph-name="six.lf" horiz-adv-x="698" 
d="M392 426q119 0 190.5 -60t70.5 -159q-1 -101 -81.5 -160.5t-219.5 -59.5q-151 0 -239 57t-86 158q0 58 35 114q7 11 64.5 95t111.5 161l54 78h164l-225 -280q72 56 161 56zM520 209q1 55 -46 86t-125 31q-85 0 -137 -33t-52 -85q-1 -22 8 -40.5t25.5 -32t39.5 -23
t51.5 -14.5t60.5 -5q79 0 126.5 30.5t48.5 85.5z" />
    <glyph glyph-name="seven.lf" horiz-adv-x="615" 
d="M20 647h572v-111l-313 -536h-156l329 536h-432v111z" />
    <glyph glyph-name="eight.lf" horiz-adv-x="664" 
d="M459 342q169 -32 169 -164q0 -84 -76 -137.5t-220 -53.5t-220 53.5t-76 137.5q0 132 169 164q-150 27 -150 142q0 52 30 91t93 62t154 23q135 0 206 -48t71 -128q0 -115 -150 -142zM332 552q-36 0 -63.5 -6t-44.5 -17.5t-25.5 -26.5t-8.5 -35q0 -40 35.5 -64t106.5 -24
t108 24.5t37 63.5q0 40 -36.5 62.5t-108.5 22.5zM332 97q81 0 122.5 25.5t41.5 68.5q0 45 -41 71t-123 26t-121.5 -26t-39.5 -71q0 -21 9.5 -38t28.5 -29.5t50.5 -19.5t72.5 -7z" />
    <glyph glyph-name="nine.lf" horiz-adv-x="704" 
d="M350 662q151 0 235.5 -56t83.5 -158q-1 -56 -40 -118q-6 -11 -62.5 -93.5t-109.5 -159.5l-53 -77h-165l228 284q-76 -60 -169 -60q-117 0 -190 60.5t-72 158.5q2 103 84 161t230 58zM170 441q-1 -56 46 -86.5t130 -30.5q56 0 99.5 15t66.5 41.5t24 61.5q1 55 -50.5 85
t-135.5 30q-83 0 -131.5 -29.5t-48.5 -86.5z" />
    <glyph glyph-name="zero.osf" horiz-adv-x="704" 
d="M353 -12q-144 0 -230.5 68t-86.5 191q0 124 86.5 192.5t230.5 68.5q143 0 229 -68.5t86 -192.5q0 -82 -40 -141t-110.5 -88.5t-164.5 -29.5zM353 88q80 0 131.5 42.5t51.5 116.5q0 50 -24.5 87t-65.5 56t-93 19q-80 0 -132.5 -43.5t-52.5 -118t52 -117t133 -42.5z" />
    <glyph glyph-name="one.osf" horiz-adv-x="387" 
d="M25 497h271v-497h-130v386h-141v111z" />
    <glyph glyph-name="two.osf" horiz-adv-x="657" 
d="M229 93l378 7v-100h-533v91v0v0q45 20 100.5 43.5t87.5 37.5t69.5 31t57.5 29.5t38.5 28t26 31t7.5 33.5q0 37 -33.5 58t-102.5 21q-63 0 -102 -24.5t-40 -66.5h-126q-3 43 15 79t52.5 62t85.5 40.5t112 14.5q123 0 198 -45.5t75 -122.5q0 -28 -12 -51t-30.5 -41t-51 -36
t-64 -31t-79.5 -31z" />
    <glyph glyph-name="three.osf" horiz-adv-x="643" 
d="M390 186q105 -8 160.5 -44t55.5 -115q0 -56 -35 -99t-101 -67.5t-152 -24.5q-130 0 -208 58t-73 149h126q1 -29 22 -51t55.5 -33.5t77.5 -11.5q73 0 111.5 25t38.5 74q0 23 -11.5 42t-33.5 31.5t-54 19t-73 6.5h-85v72h85q161 0 161 94q0 27 -16.5 47t-48 30.5
t-74.5 10.5q-64 0 -105.5 -25t-42.5 -66h-126q-5 90 75 146t199 56q63 0 115 -13t87 -36t54.5 -55.5t19.5 -72.5q0 -73 -52.5 -106t-151.5 -41z" />
    <glyph glyph-name="four.osf" horiz-adv-x="711" 
d="M671 87v-98h-115v-134h-130v134h-379v98l379 414h130v-414h115zM202 87h224v251z" />
    <glyph glyph-name="five.osf" horiz-adv-x="695" 
d="M404 259q50 0 92 -13t74 -38.5t50 -65t18 -89.5q0 -68 -35 -117t-98 -74t-148 -25q-123 0 -209 55t-90 148h124q5 -45 53.5 -70.5t116.5 -25.5q65 0 110.5 28t45.5 82q0 37 -22 63t-55.5 37.5t-75.5 11.5q-123 0 -165 -63l-113 21l30 376h463v-111h-342l-17 -206
q28 36 80.5 56t112.5 20z" />
    <glyph glyph-name="six.osf" horiz-adv-x="689" 
d="M392 426q119 0 190.5 -60t70.5 -159q-1 -101 -81.5 -160.5t-219.5 -59.5q-151 0 -239 57t-86 158q0 58 35 114q7 11 64.5 94t111.5 160l54 77h164l-223 -275q71 54 159 54zM520 209q1 55 -46 86t-125 31q-85 0 -137 -33t-52 -85q-1 -22 8 -40.5t25.5 -32t39.5 -23
t51.5 -14.5t60.5 -5q79 0 126.5 30.5t48.5 85.5z" />
    <glyph glyph-name="seven.osf" horiz-adv-x="643" 
d="M32 497h572v-111l-312 -536h-157l330 536h-433v111z" />
    <glyph glyph-name="eight.osf" horiz-adv-x="675" 
d="M465 342q168 -32 168 -164q0 -84 -76 -137.5t-219.5 -53.5t-219.5 53.5t-76 137.5q0 132 168 164q-149 27 -149 142q0 52 29.5 91t93 62t153.5 23q136 0 206.5 -48t70.5 -128q0 -115 -149 -142zM337 552q-36 0 -63.5 -6t-44.5 -17.5t-25 -26.5t-8 -35q0 -40 35 -64
t106 -24q72 0 108.5 24.5t36.5 63.5q0 40 -36.5 62.5t-108.5 22.5zM337 97q82 0 123 25.5t41 68.5q0 45 -41 71t-123 26q-81 0 -120.5 -26t-39.5 -71q0 -43 39.5 -68.5t120.5 -25.5z" />
    <glyph glyph-name="nine.osf" horiz-adv-x="697" 
d="M350 512q151 0 235.5 -56t83.5 -158q-1 -56 -40 -118q-6 -11 -62.5 -93.5t-109.5 -159.5l-53 -77h-165l228 284q-76 -60 -169 -60q-117 0 -190 60.5t-72 158.5q2 103 84 161t230 58zM170 291q-1 -56 46 -86.5t130 -30.5q85 0 137 33t53 85q1 55 -50.5 85t-135.5 30
q-83 0 -131.5 -29.5t-48.5 -86.5z" />
    <glyph glyph-name="zero.tf" horiz-adv-x="708" 
d="M354 660q77 0 137 -24.5t98.5 -69t58 -106t19.5 -137.5q0 -155 -80 -245.5t-233.5 -90.5t-233 90.5t-79.5 245.5q0 102 33.5 176.5t105 117.5t174.5 43zM354 98q81 0 127 58.5t46 166.5t-46 166t-127 58q-82 0 -129.5 -58.5t-47.5 -165.5t47.5 -166t129.5 -59z" />
    <glyph glyph-name="one.tf" horiz-adv-x="708" 
d="M431 111h190v-111h-532v111h212v428h-180v108h310v-536z" />
    <glyph glyph-name="two.tf" horiz-adv-x="708" 
d="M221 111h412v-111h-546v111q96 65 160.5 110.5t110.5 81t70.5 57t38 41t17 32t3.5 29.5q0 41 -34 64.5t-103 23.5q-66 0 -106 -25t-41 -66h-127q-5 87 70 144t200 57t200 -49t75 -141q0 -34 -16.5 -67.5t-40 -60t-63 -56t-73 -50t-82.5 -48.5z" />
    <glyph glyph-name="three.tf" horiz-adv-x="708" 
d="M423 336q104 -8 160 -43.5t56 -114.5q0 -85 -79 -138t-210 -53q-129 0 -207.5 57.5t-72.5 148.5h126q1 -42 45 -68.5t109 -26.5q73 0 112 24.5t39 73.5q0 32 -20.5 54t-59 33.5t-92.5 11.5h-86v73h86q161 0 161 94q0 41 -37 64t-103 23q-64 0 -105 -25t-42 -66h-126
q-5 91 74.5 146.5t198.5 55.5q43 0 80.5 -5.5t68 -16.5t54.5 -26.5t40 -35t24.5 -43t8.5 -49.5q0 -73 -52.5 -106.5t-150.5 -41.5z" />
    <glyph glyph-name="four.tf" horiz-adv-x="708" 
d="M666 232v-98h-115v-134h-130v134h-379v98l379 415h130v-415h115zM197 232h224v251z" />
    <glyph glyph-name="five.tf" horiz-adv-x="708" 
d="M413 409q64 0 116 -22.5t85 -70t33 -113.5q0 -102 -76.5 -159t-204.5 -57q-123 0 -208.5 55t-89.5 148h124q3 -30 26.5 -52t60.5 -33t82 -11q62 0 109 28t47 82q0 37 -24 63t-57.5 37.5t-71.5 11.5q-123 0 -164 -63l-113 21l29 376h463v-111h-341l-18 -206q29 36 81 56
t112 20z" />
    <glyph glyph-name="six.tf" horiz-adv-x="708" 
d="M396 426q113 0 183 -60.5t69 -158.5q-1 -100 -80 -160t-212 -60q-142 0 -228 57t-85 158q1 58 36 114l217 331h165l-211 -270q63 49 146 49zM515 209q1 55 -43.5 86t-117.5 31q-79 0 -128 -33t-50 -85q0 -55 48 -85t126 -30q74 0 119 30t46 86z" />
    <glyph glyph-name="seven.tf" horiz-adv-x="708" 
d="M68 647h572v-111l-313 -536h-156l329 536h-432v111z" />
    <glyph glyph-name="eight.tf" horiz-adv-x="708" 
d="M486 342q168 -32 168 -164q0 -84 -75.5 -137.5t-219.5 -53.5t-220 53.5t-76 137.5q0 132 169 164q-150 27 -150 142q0 80 71 128t206 48t205.5 -48t70.5 -128q0 -115 -149 -142zM359 552q-48 0 -80.5 -11t-47 -29.5t-14.5 -44.5q0 -40 35.5 -64t106.5 -24t108 24.5
t37 63.5q0 40 -36.5 62.5t-108.5 22.5zM359 97q81 0 122.5 25.5t41.5 68.5q0 45 -41 71t-123 26t-121.5 -26t-39.5 -71q0 -28 16.5 -49t53 -33t91.5 -12z" />
    <glyph glyph-name="nine.tf" horiz-adv-x="708" 
d="M343 660q143 0 228.5 -57t84.5 -159q-1 -57 -35 -113l-218 -331h-164l210 270q-63 -49 -146 -49q-110 0 -181.5 60.5t-69.5 158.5q1 100 80 160t211 60zM185 438q-1 -55 43 -86t118 -31q77 0 126.5 33t50.5 84q1 37 -22.5 63.5t-62.5 39.5t-88 13q-75 0 -119.5 -30
t-45.5 -86z" />
    <glyph glyph-name="zero.tosf" horiz-adv-x="708" 
d="M355 -12q-95 0 -164.5 29.5t-108 88t-38.5 141.5q0 125 83.5 193t227.5 68t226.5 -68t82.5 -193q0 -124 -82.5 -191.5t-226.5 -67.5zM355 89q80 0 129 41.5t49 117t-49 118t-129 42.5t-130 -42.5t-50 -118t49.5 -117t130.5 -41.5z" />
    <glyph glyph-name="one.tosf" horiz-adv-x="708" 
d="M431 108h183v-108h-511v108h198v281h-180v108h310v-389z" />
    <glyph glyph-name="two.tosf" horiz-adv-x="708" 
d="M247 93l378 7v-100h-533v91v0v0q45 20 100.5 43.5t87.5 37.5t69.5 31t57.5 29.5t38.5 28t26 31t7.5 33.5q0 37 -34 58t-102 21q-63 0 -102 -24.5t-40 -66.5h-126q-5 87 68 141.5t197 54.5q123 0 198 -45.5t75 -122.5q0 -28 -12 -51t-30.5 -41t-51 -36t-64 -31t-79.5 -31z
" />
    <glyph glyph-name="three.tosf" horiz-adv-x="708" 
d="M422 186q105 -8 161 -44t56 -115q0 -85 -79 -138t-210 -53q-129 0 -207.5 58t-73.5 149h127q0 -29 21 -51t55.5 -33.5t77.5 -11.5q73 0 112 25t39 74q0 31 -20.5 53.5t-59 34t-92.5 11.5h-86v72h86q161 0 161 94q0 41 -37 64.5t-103 23.5q-64 0 -105 -25t-42 -66h-126
q-5 90 74.5 146t198.5 56q128 0 202 -48.5t74 -128.5q0 -73 -52.5 -106t-151.5 -41z" />
    <glyph glyph-name="four.tosf" horiz-adv-x="708" 
d="M661 87v-98h-114v-134h-130v134h-380v98l380 414h130v-414h114zM193 87h224v251z" />
    <glyph glyph-name="five.tosf" horiz-adv-x="708" 
d="M412 256q100 0 166.5 -54t66.5 -152q0 -102 -76 -159t-204 -57q-126 0 -211 55t-89 148h124q5 -45 53 -70.5t117 -25.5q63 0 109.5 28t46.5 82q0 37 -23.5 63t-57 37.5t-71.5 11.5q-127 0 -168 -63l-113 21l30 376h467v-111h-346l-18 -207q29 36 82.5 56.5t114.5 20.5z
" />
    <glyph glyph-name="six.tosf" horiz-adv-x="708" 
d="M404 426q113 0 183 -60.5t69 -158.5q-1 -100 -80 -160t-211 -60q-143 0 -229 57t-84 158q0 58 35 114l217 331h165l-210 -270q63 49 145 49zM523 209q1 55 -43.5 86t-117.5 31q-79 0 -128 -33t-49 -85q-1 -55 47 -85t126 -30q74 0 119 30t46 86z" />
    <glyph glyph-name="seven.tosf" horiz-adv-x="708" 
d="M64 497h571v-111l-312 -536h-157l330 536h-432v111z" />
    <glyph glyph-name="eight.tosf" horiz-adv-x="708" 
d="M487 342q168 -32 168 -164q0 -84 -76 -137.5t-219.5 -53.5t-219.5 53.5t-76 137.5q0 132 168 164q-149 27 -149 142q0 80 70.5 128t206 48t206 -48t70.5 -128q0 -115 -149 -142zM360 552q-37 0 -64.5 -6t-44.5 -17.5t-25 -26.5t-8 -35q0 -40 35.5 -64t106.5 -24t108 24.5
t37 63.5q0 26 -15.5 44.5t-48.5 29.5t-81 11zM360 97q81 0 122.5 25.5t41.5 68.5q0 45 -41.5 71t-122.5 26q-55 0 -91.5 -12.5t-53 -33.5t-16.5 -51q0 -43 39.5 -68.5t121.5 -25.5z" />
    <glyph glyph-name="nine.tosf" horiz-adv-x="708" 
d="M343 508q143 0 228.5 -57t84.5 -158q-1 -57 -35 -113l-218 -332h-164l210 270q-63 -49 -146 -49q-110 0 -181.5 60.5t-69.5 159.5q1 100 80 159.5t211 59.5zM185 286q-1 -55 44.5 -86t119.5 -31q79 0 126 33t48 85q1 55 -45.5 85t-124.5 30q-75 0 -121.5 -30t-46.5 -86z
" />
    <glyph glyph-name="zero.dnom" horiz-adv-x="483" 
d="M241 402q66 0 113 -26.5t70 -72.5t23 -109q0 -95 -53.5 -151t-152 -56t-152 56t-53.5 151t53.5 151.5t151.5 56.5zM241 87q46 0 70.5 28.5t24.5 78.5t-24.5 78t-70.5 28t-70.5 -28t-24.5 -78q0 -33 10.5 -57t32.5 -37t52 -13z" />
    <glyph glyph-name="one.dnom" horiz-adv-x="431" 
d="M271 89h104v-89h-350v89h129v217h-125v87h242v-304z" />
    <glyph glyph-name="two.dnom" horiz-adv-x="433" 
d="M48 0v85q239 104 239 181q0 46 -72 46q-36 0 -55 -13t-22 -29h-97q-3 57 44.5 95.5t133.5 38.5q77 0 122 -30.5t45 -85.5q0 -54 -39 -94t-109 -78l-68 -31l220 3v-88h-342z" />
    <glyph glyph-name="three.dnom" horiz-adv-x="429" 
d="M254 201q33 -3 57 -8.5t43 -16t28.5 -27t9.5 -40.5q0 -56 -47 -89t-129 -33q-85 0 -134 37t-45 97h86q1 -22 24.5 -34.5t67.5 -12.5q46 0 65 11.5t19 36.5q0 49 -98 49h-58v55h58q34 0 55 5.5t29 15.5t8 25q0 40 -81 40q-38 0 -61 -11.5t-24 -28.5h-86q-3 59 45.5 95
t124.5 36q81 0 127.5 -30.5t46.5 -77.5q0 -85 -131 -94z" />
    <glyph glyph-name="four.dnom" horiz-adv-x="453" 
d="M413 151v-79h-52v-72h-105v72h-209v82l213 239h101v-242h52zM259 147v136l-102 -136h102z" />
    <glyph glyph-name="five.dnom" horiz-adv-x="465" 
d="M274 252q65 0 105 -34.5t40 -94.5q0 -43 -20.5 -73.5t-60.5 -46.5t-96 -16q-80 0 -130.5 36t-53.5 98h91q2 -15 14 -26t33 -17t49 -6q39 0 60 14.5t21 41.5q0 55 -78 55q-82 0 -94 -29l-80 21l14 219h293v-85h-214l-8 -98q40 41 115 41z" />
    <glyph glyph-name="six.dnom" horiz-adv-x="436" 
d="M243 269q72 0 114 -38t42 -100q0 -67 -46.5 -105.5t-128.5 -38.5q-91 0 -144 38t-53 97q0 44 28 83q8 16 39.5 62.5t58.5 86.5l27 39h122l-118 -140q28 16 59 16zM218 74q46 0 68 16t22 44q0 60 -91 60q-48 0 -73.5 -16.5t-25.5 -43.5t26 -43.5t74 -16.5z" />
    <glyph glyph-name="seven.dnom" horiz-adv-x="384" 
d="M23 393h338v-86l-158 -307h-122l162 302h-220v91z" />
    <glyph glyph-name="eight.dnom" horiz-adv-x="442" 
d="M303 203q43 -8 70 -32.5t27 -62.5q0 -55 -46.5 -88t-133 -33t-132.5 33t-46 88q0 38 26 62.5t66 32.5q-36 8 -58.5 30t-22.5 57q0 53 43.5 82.5t123.5 29.5q81 0 124.5 -29.5t43.5 -82.5q0 -35 -23 -57t-62 -30zM220 316q-79 0 -79 -41q0 -43 79 -43q83 0 83 43
q0 41 -83 41zM220 72q94 0 94 48q0 49 -94 49q-90 0 -90 -49q0 -48 90 -48z" />
    <glyph glyph-name="nine.dnom" horiz-adv-x="437" 
d="M216 403q88 0 140.5 -38t52.5 -98q0 -44 -28 -83q-9 -15 -40.5 -61t-58.5 -85l-27 -38h-122l118 136q-28 -15 -58 -15q-72 0 -114.5 37.5t-42.5 100.5q0 66 47.5 105t132.5 39zM219 196q47 0 73 16t26 44q0 27 -26 43t-73 16q-91 0 -91 -59q0 -60 91 -60z" />
    <glyph glyph-name="zero.numr" horiz-adv-x="483" 
d="M241.5 655q65.5 0 112.5 -26t70 -72.5t23 -108.5q0 -95 -53.5 -151t-152 -56t-152 56t-53.5 151q0 62 23 108.5t70 72.5t112.5 26zM241 341q46 0 70.5 28t24.5 79q0 50 -24.5 78t-70.5 28t-70.5 -28t-24.5 -78t24.5 -78.5t70.5 -28.5z" />
    <glyph glyph-name="one.numr" horiz-adv-x="431" 
d="M271 342h104v-88h-350v88h129v218h-125v87h242v-305z" />
    <glyph glyph-name="two.numr" horiz-adv-x="433" 
d="M48 254v85q239 104 239 181q0 45 -72 45q-36 0 -55 -12.5t-22 -28.5h-97q-3 57 44.5 95t133.5 38q77 0 122 -30t45 -86q0 -53 -39 -93.5t-109 -77.5l-68 -31l220 3v-88h-342z" />
    <glyph glyph-name="three.numr" horiz-adv-x="428" 
d="M254 454q68 -5 103 -25.5t35 -65.5q0 -56 -47 -89t-129 -33q-85 0 -134 37t-45 97h86q1 -22 24.5 -35t67.5 -13q46 0 65 12t19 37q0 49 -98 49h-58v55h58q34 0 55 5.5t29 15.5t8 25q0 40 -81 40q-38 0 -61 -11.5t-24 -28.5h-86q-3 59 45.5 95t124.5 36q81 0 127.5 -30.5
t46.5 -77.5q0 -85 -131 -95z" />
    <glyph glyph-name="four.numr" horiz-adv-x="453" 
d="M413 405v-80h-52v-71h-105v71h-209v83l213 239h101v-242h52zM259 401v135l-102 -135h102z" />
    <glyph glyph-name="five.numr" horiz-adv-x="465" 
d="M274 506q65 0 105 -34.5t40 -95.5q0 -64 -46 -99.5t-131 -35.5q-80 0 -130.5 36t-53.5 98h91q1 -11 8.5 -20.5t19.5 -15.5t29.5 -9.5t38.5 -3.5q26 0 44 6.5t27.5 19t9.5 30.5q0 55 -78 55q-82 0 -94 -29l-80 20l14 219h293v-84h-214l-8 -98q40 41 115 41z" />
    <glyph glyph-name="six.numr" horiz-adv-x="436" 
d="M243 522q72 0 114 -37.5t42 -99.5q0 -67 -46.5 -105.5t-128.5 -38.5q-91 0 -144 37.5t-53 97.5q0 44 28 83q8 15 39.5 62t58.5 86l27 40h122l-118 -140q28 15 59 15zM218 328q46 0 68 16t22 43q0 61 -91 61q-32 0 -54.5 -8t-33.5 -21.5t-11 -31.5q0 -27 26 -43t74 -16z
" />
    <glyph glyph-name="seven.numr" horiz-adv-x="384" 
d="M23 647h338v-87l-158 -306h-122l162 302h-220v91z" />
    <glyph glyph-name="eight.numr" horiz-adv-x="442" 
d="M303 456q43 -7 70 -31.5t27 -62.5q0 -56 -46.5 -88.5t-133 -32.5t-132.5 32.5t-46 88.5q0 38 26 62.5t66 31.5q-24 6 -41.5 17t-28.5 29t-11 42q0 52 43.5 82t123.5 30q81 0 124.5 -30t43.5 -82q0 -35 -23 -57t-62 -31zM221 570q-80 0 -80 -42q0 -43 80 -43q82 0 82 43
q0 42 -82 42zM220 326q94 0 94 48q0 49 -94 49q-90 0 -90 -49q0 -48 90 -48z" />
    <glyph glyph-name="nine.numr" horiz-adv-x="437" 
d="M216 656q88 0 140.5 -38t52.5 -97q0 -44 -28 -83q-9 -15 -40.5 -61t-58.5 -85l-27 -38h-122l118 136q-28 -15 -58 -15q-72 0 -114.5 37.5t-42.5 99.5q0 67 47.5 105.5t132.5 38.5zM219 449q47 0 73 16.5t26 44.5q0 27 -26 43t-73 16q-91 0 -91 -59q0 -61 91 -61z" />
    <glyph glyph-name="exclamdown.case" horiz-adv-x="265" 
d="M208 502h-151v114h151v-114zM66 -34v448h132v-448h-132z" />
    <glyph glyph-name="questiondown.case" horiz-adv-x="581" 
d="M385 630v-114h-150v114h150zM539 168q1 -35 -14 -69t-44 -63.5t-78 -47.5t-111 -18q-124 0 -187 55t-63 143q0 86 55.5 136t146.5 57v68h127v-166h-73q-57 0 -90 -25.5t-33 -66.5t30.5 -64t86.5 -23q55 0 85.5 23.5t32.5 60.5h129z" />
    <glyph glyph-name="parenleft.case" horiz-adv-x="336" 
d="M283 -53l-69 -56q-7 7 -17.5 19t-38.5 54t-49 88.5t-38.5 120t-17.5 150.5q0 56 9 110t23 95.5t31.5 78.5t34.5 62.5t31 44.5t23 28l9 9l69 -55q-5 -5 -13.5 -15.5t-31 -46t-39 -75.5t-30.5 -104t-14 -132q0 -51 7 -99.5t18.5 -84.5t25 -68.5t27 -54.5t25 -38t18.5 -24z
" />
    <glyph glyph-name="parenright.case" horiz-adv-x="336" 
d="M53 -53q5 5 14 15t31 45.5t39 75.5t30.5 105t13.5 135q0 108 -32 201t-64 133l-32 39l69 55q4 -3 9.5 -9t22.5 -27.5t32 -45.5t33.5 -62t32 -78.5t22.5 -95t9 -110.5t-9 -110.5t-23 -96t-31 -79t-34.5 -63.5t-31.5 -45t-23 -28l-9 -10z" />
    <glyph glyph-name="exclam_question" horiz-adv-x="779" 
d="M714 385q-24 -83 -90.5 -115.5t-155.5 -13.5l-15 -69l-121 37l43 161l69 -21q55 -15 93 1t48 56q11 39 -12 69.5t-74 44.5q-59 15 -93.5 1t-45.5 -50l-122 38q10 46 47 81.5t99 50t144 -10.5q118 -36 163.5 -106t22.5 -154zM42 606l123 45l128 -427l-123 -45zM389 114
v-114h-151v114h151z" />
    <glyph glyph-name="ampersand.case" horiz-adv-x="788" 
d="M769 370v-75h-137v-441h-123v146h-432v647h380v-111h-250v-166h562zM509 111v184h-302v-184h302z" />
    <glyph glyph-name="ampersand.ss01" horiz-adv-x="802" 
d="M781 0h-135l-50 50q-97 -63 -248 -63q-136 0 -215.5 55.5t-79.5 146.5q0 34 12 62.5t32.5 48.5t48.5 35t59.5 23.5t66.5 11.5l-180 178v99h547v-99h-393l346 -354q24 40 29 94h113q-9 -102 -65 -173zM365 96q93 0 153 31l-190 188q-45 -2 -79 -14.5t-53 -37t-19 -56.5
q0 -36 23 -61t64.5 -37.5t100.5 -12.5z" />
    <glyph glyph-name="caroncomb.alt" 
d="M-85 717v-114h-151v114h151z" />
    </font>
</defs>
</svg>
