<?xml version="1.0" standalone="no"?>
<!DOCTYPE svg PUBLIC "-//W3C//DTD SVG 1.1//EN" "http://www.w3.org/Graphics/SVG/1.1/DTD/svg11.dtd" >
<svg xmlns="http://www.w3.org/2000/svg" xmlns:xlink="http://www.w3.org/1999/xlink" version="1.1">
<metadata>
Created by FontForge 20170731 at Sun Jun 10 17:02:01 2018
 By Aleksey,,,
Copyright (c) 2018 by Lucas Descroix. All rights reserved.
</metadata>
<defs>
<font id="Syne-Italic" horiz-adv-x="0" >
  <font-face 
    font-family="Syne"
    font-weight="400"
    font-style="italic"
    font-stretch="normal"
    units-per-em="1000"
    panose-1="0 0 5 0 0 0 0 0 0 0"
    ascent="800"
    descent="-200"
    x-height="512"
    cap-height="650"
    bbox="-585 -493 1265 920"
    underline-thickness="75"
    underline-position="-298"
    slope="-9"
    unicode-range="U+0020-FB02"
  />
<missing-glyph horiz-adv-x="459" 
d="M338 372q38 14 53 10.5t14 -30.5q-1 -12 -3.5 -20t-14.5 -17.5t-23 -16t-42 -22.5q15 0 23 -10.5t5.5 -25.5t-11.5 -30t-21 -27t-24 -22t-22 -19.5t-13 -15.5l-37 24q-40 -20 -64 -20q-7 0 -16 2q-11 3 -18.5 16t-7.5 28q0 12 5 26q-3 -1 -7 -1q-12 0 -41 12
q-30 13 -20 52t50 65q4 3 8 5q-16 15 -8 43.5t34 46.5q2 1 11 7.5t13.5 9.5t15 9t16.5 7t17 4t17 -1l-7 -42q27 9 37 11q8 2 14 2q21 0 44 -17v-1q24 -12 24 -35q0 -4 -1 -7zM93 280l7 -3q-3 1 -7 3z" />
    <glyph glyph-name="periodcentered" unicode="&#x2d;&#x2d;" horiz-adv-x="223" 
d="M99 239q0 2 -5.5 7.5t-16 18.5t-20.5 30l63 57l10 -7q41 -40 41 -106h-72z" />
    <glyph glyph-name="fi" unicode="fi" horiz-adv-x="585" 
d="M572 685q7 -12 13 -29l-15 -28v-50q-49 0 -75.5 25t-29.5 55q-16 3 -33 3q-11 0 -24.5 -2t-22 -4t-22.5 -5t-18 -4q-13 -2 -20.5 -5.5t-15 -9t-13.5 -8.5q-41 -21 -45 -16q-3 4 2 20q-5 -11 -8 -23.5t-5 -21t-4 -22.5t-3 -19.5t-2.5 -22.5t-1.5 -21q113 0 191 -5
q7 0 35 2.5t40 2.5q14 0 25 -3q8 -3 11 -22q2 -9 2 -21q0 -17 -4 -35.5t-11.5 -41t-8.5 -26.5q-12 -43 -33 -107.5t-30 -92.5q-2 -8 -10 -30.5t-11 -31.5q1 -1 11 -2.5t16.5 -1.5t16.5 4t19 13l38 -64q-44 -44 -95 -45t-65 46q-2 15 -1 29.5t6 34.5t9.5 33.5t9 26.5t5.5 13
q12 43 32.5 106t29.5 93q4 14 17 54q-41 -4 -50 -4q-80 5 -205 5h-1q-16 -87 -50 -298q-5 -29 -15 -71.5t-12 -54.5q-1 -9 -3.5 -23t-4 -24t-3.5 -22t-4 -21q-20 -77 -36 -97q-19 -22 -30.5 -22t-50.5 12q-17 5 -30.5 11.5t-28 16t-37.5 26.5q-5 4 -10.5 17.5t-9.5 28.5
t-4 24h54v4v1q1 -2 2 -3q22 -16 37.5 -23.5t43.5 -16.5q22 -8 30 -8q7 11 17 51q1 4 15 83q4 23 13.5 64.5t12.5 60.5q34 210 48 284h-55l-7 70h74q0 5 3 30.5t4.5 35.5t4.5 29.5t7 33.5t10 27q4 10 5.5 13.5t7 8t9 6t18.5 9t28 13.5q7 4 20.5 11.5t23.5 13t19 6.5
q59 13 98 13q45 0 79 -17q45 -21 61 -45zM60 -116h-1h1z" />
    <glyph glyph-name="c_t" unicode="ct" horiz-adv-x="657" 
d="M657 729q25 -7 28 -47.5t-20 -57.5l-93 -43q-8 -22 -12 -31q-17 -42 -46 -102h47h46h42l11 -30q-4 0 -13 5l-1 -34h-12.5t-13.5 -0.5t-13 -0.5h-46h-76q-60 -122 -80 -207q-15 -63 -19 -115q18 2 46.5 22.5t42.5 32.5q6 5 17 15t15 14q6 6 12 13q2 1 3 0q-1 -4 -1 -8
q0 -9 4.5 -16t10.5 -7l39 23q0 -33 -31 -63q-5 -5 -32 -30q-38 -34 -73 -55t-56 -21q-13 0 -19.5 4t-19.5 17q-12 13 -12 49q0 24 8 74t13 69q22 94 74 206l-14 43h35q38 78 50 104q-76 -22 -149 -19q-18 1 -42.5 4.5t-32.5 3.5h-8t-5 0.5t-2 0t-1 -1t-1 -3.5t-2 -5h-1v-3
q12 3 16 3t11 -3q25 -12 37 -27l3 -38q0 -1 4 -26q4 -5 7 -9l-5 -1q3 -22 3 -35q0 -23 -7 -31q-4 -3 -7.5 -4.5t-6 -1t-5.5 2.5t-5 4.5t-4 5.5t-3.5 6t-2.5 4.5t-1 2.5q-3 4 -12 15v-4v4q-11 12 -14 16q-20 23 -21 26l-86 -46q-75 -100 -75 -203q0 -33 10 -71q11 -41 12 -44
v1q2 -2 5 -6q2 0 12 1.5t19 3t21.5 5t27 9.5t29.5 14q4 2 18 13t27 20t19 9v-80q6 0 -20 -19q-13 -10 -17 -12q-35 -20 -98 -34.5t-76 -2.5l-2 21l-1 1.5t-2.5 4t-3.5 5.5t-4.5 8t-3.5 10q-1 0 -14 52q-12 44 -12 91q0 64 22.5 130t63.5 121q35 47 90 71q-2 10 -2 20
q0 16 4 28q12 32 28.5 46.5t41.5 14.5q11 0 36 -4t40 -4q78 -3 157 23q4 1 12.5 3.5t13.5 4.5q35 90 96 90q11 0 28 -5z" />
    <glyph glyph-name="f_f" unicode="ff" horiz-adv-x="626" 
d="M680 744q3 0 8 -2t8 -3.5t7 -3t6 -1.5v-90q-12 0 -20.5 5t-13.5 5l-11.5 1.5t-25 3t-31 3t-30.5 1.5q-2 0 -12 -1q-8 -19 -22.5 -48t-23.5 -48.5t-14 -34.5q-7 -23 -14 -47q90 6 97 7l4 -75q-20 -1 -63 -4t-58 -4q-33 -123 -42 -180q-11 -66 -14 -87q-2 -16 -9.5 -115
t-21.5 -150q-28 -93 -87 -93q-19 0 -36 7.5t-45 26.5q-32 22 -43.5 39t-11.5 47h54q0 10 2.5 10t10.5 -7q3 -3 5 -4.5l6 -4.5t7 -6q4 -2 13 -8.5t14 -10t11.5 -6.5t12.5 -3q23 0 35 38q13 45 20 134.5t9 107.5q11 80 14 99q9 54 40 163q-32 -1 -68 -1q-38 0 -160 3
q-24 -213 -34 -275q-2 -11 -7.5 -50.5t-11 -66t-13.5 -50.5q-19 -55 -50 -111.5t-47 -63.5q-16 -6 -25 -6q-45 0 -88.5 43t-43.5 89h54q0 -6 32.5 -29t45.5 -23h1q2 0 3 -1q13 6 35 54t32 78q8 23 12.5 45t10 59t7.5 47q11 69 32 262h-46l-1 75h56q0 2 2 19t2.5 21.5
t2.5 20.5t3 22.5t3.5 20t5 21.5t5.5 19.5t7 20.5t8 17q10 19 22.5 26.5t33.5 7.5q16 0 40.5 -6.5t50 -17t45.5 -23.5l3 -1t6.5 -3t8.5 -5l10 -6t10 -7.5t8.5 -9t6 -10t2.5 -10.5h-54l-29 -24q-13 8 -47.5 20.5t-60.5 12.5q-9 0 -10.5 4.5t2.5 20.5q-14 -35 -19 -59t-14 -93
q110 -4 151 -4q44 0 82 2q4 0 6 1q12 54 20 77q12 39 41.5 100t34.5 71q6 15 15 19.5t32 4.5q17 0 40 -2t42.5 -4.5t20.5 -2.5z" />
    <glyph glyph-name="f_f_i" unicode="ffi" horiz-adv-x="875" 
d="M593 684l-60 -90q-28 -55 -45 -125q47 1 142 5q18 0 75 3.5t87 3.5q2 0 3.5 -0.5l3 -1t2 -1.5t2.5 -3l3 -3q13 -13 -15 -81h1h-1q-13 -32 -17 -42q-7 -22 -28 -72.5t-27 -74.5q-8 -32 -12 -103q0 -2 -2 -23.5t-3 -33.5q10 5 27 20t34 32l19 19l35 -69q-3 -2 -25.5 -24
t-39 -35.5t-40 -23.5t-39.5 -4q-7 3 -13 14t-9 26t-3 32q0 1 5 76q5 84 14 119q10 39 32.5 95t23.5 59l23 16q-10 1 -28.5 3.5t-30 3.5t-27 2t-28.5 1q-105 -4 -158 -5q-9 -63 -18 -190t-18 -186q-1 -8 -4 -37t-6 -47t-10.5 -42.5t-17.5 -41.5q-22 -35 -39.5 -49t-41.5 -14
q-4 0 -9 0.5t-10.5 2t-9.5 2.5t-12 4.5t-11.5 4.5t-13 5.5t-13.5 5.5q-15 7 -25 15t-33 30l36 53q15 -15 41 -26q44 -18 58 -18q22 0 35 21q6 9 10.5 20.5t7 22.5t5 25.5t4 25t3.5 26t3 24.5q7 51 16 174.5t18 187.5q-53 -1 -100 -1q-58 0 -110 1q-12 -186 -36 -293
q-5 -23 -14 -56t-11 -44q-1 -7 -5 -27t-7 -34.5t-8 -33.5t-11.5 -35t-15.5 -29q-16 -24 -23 -28q-4 -2 -20 -11q-30 -16 -51 -16q-37 0 -69 27t-54 76l49 38q10 -24 31.5 -42.5t42.5 -18.5q15 0 26 5q26 14 24 11q9 13 15.5 31.5t9.5 32.5t7 38t6 35q5 21 14 54.5t12 46.5
q23 105 34 275q-31 1 -62 4l3 69q31 -2 64 -3q5 83 11 120q10 62 26 79.5t65 17.5q44 0 67 -7q6 -2 61 -28q5 -3 9.5 -5t9.5 -5.5t8.5 -5.5t8.5 -6.5t7.5 -6.5t8.5 -7t7.5 -6.5t8.5 -8t8 -7.5q9 22 19 41q32 63 69.5 91t88.5 28q29 0 67 -9q89 -22 114 -55q15 -21 19 -41.5
t-9 -41t-44 -36.5l-46 83zM319 467q52 0 112 1q9 49 23 90l-26 -34q-8 7 -15.5 14t-10.5 10t-6.5 6t-7 5t-8 4.5t-13.5 6.5q-41 19 -55 24l-50 3q-13 0 -23 16q-5 7 -7 0.5t-8 -38.5q-6 -37 -10 -107q50 -1 105 -1z" />
    <glyph glyph-name="f_m" unicode="fm" horiz-adv-x="1282" 
d="M1208 212l38 -64l-4.5 -6.5t-11 -15.5t-13 -19t-12.5 -18t-8 -10q-52 -47 -88 -70q-46 -30 -63 -30q-20 0 -32.5 19t-14.5 48q-2 15 -2 32q0 27 1.5 48.5t3 32.5t5 34.5t5.5 36.5q7 44 7 95q0 22 -1 50q-1 30 -13 42q-19 -24 -39 -67q-101 -220 -149 -315q-9 -66 -20 -71
q-5 -3 -10 -1.5t-7.5 3t-5 5l-2.5 3.5q-23 19 -23 46q0 7 2 15q-14 -6 -15 -4t8 12q2 3 3.5 5.5t4.5 6.5t5 7.5t4.5 8t4.5 8.5t3 9t2 9q13 102 13 185q0 63 -8 122q-1 8 -10 18q-26 -31 -37 -47q-25 -35 -64.5 -91t-68.5 -97.5t-53 -76.5q-9 -15 -22.5 -34t-20 -28.5
t-12 -20t-7.5 -19.5q1 -3 -1 -6q-9 -15 -23.5 -13.5t-27.5 17t-13 32.5q1 33 20 58q1 6 3 14.5t3.5 16.5t3.5 15q10 42 26 123t25 120q9 35 16 60q-96 -2 -124 -4q-16 -1 -31 -1q-18 0 -52 2t-52 2q-27 0 -62 -3q-13 -153 -16 -209q-1 -13 -2.5 -61t-3 -73.5t-7.5 -64.5
t-16 -69q-21 -60 -22 -62q-16 -34 -48 -88.5t-37 -56.5q-25 -10 -34 -10q-20 0 -42 11t-36 24t-28 26.5t-17 15.5l27 77q15 -9 29.5 -26.5t28.5 -27.5t38 -10q5 0 14 4l13.5 23.5t28 49t15.5 27.5q4 9 19 52q7 21 11.5 44.5t7 50.5t3.5 47t2 52.5t2 48.5q3 64 15 199
q-48 -5 -60 -6l-5 59q4 1 71 8q1 23 3 44q0 5 1 28.5t2 44t4.5 42.5t9.5 31q8 14 19 18t35 4q7 0 17 -0.5t12 -0.5q9 0 18.5 -0.5t16.5 -1.5t17 -3.5t15 -3.5t16.5 -5.5t14.5 -6t17 -7t17 -6.5q4 -2 15.5 -4.5t21 -7t19.5 -14.5l-38 -64q5 -5 -1 -5q-11 1 -37 11
q-2 1 -13.5 6t-13.5 5.5t-12 4t-14 4.5t-12.5 3.5t-14.5 3t-14.5 1t-16.5 0.5q-3 0 -13 0.5t-17 0.5h-14q-1 -9 -1.5 -21t-0.5 -22.5t-0.5 -22.5t-0.5 -19q-1 -14 -3 -32q32 3 57 3q18 0 52.5 -2t51.5 -2q14 0 27 1q57 4 156 4q23 0 30 -2q10 -3 14 -5.5t4 -8t-2.5 -10.5
t-7.5 -18t-9 -26q-11 -34 -20 -71q-7 -28 -13.5 -59t-14 -68.5l-11.5 -57.5q26 39 56 81t64.5 91t52.5 75q27 38 58 75q1 1 10 13.5t15.5 18t12.5 4.5q10 -2 20 -20t18 -45t12 -56q8 -62 8 -134q0 -34 -2 -69q26 55 81 175q9 18 22 48q28 62 35 72.5t19 8.5q31 -9 54 -48.5
t25 -89.5q1 -30 1 -54q0 -67 -7 -108q-15 -84 -15 -139q0 -4 1 -8q11 3 28 14q45 29 80 62l12 16t23.5 32.5t12.5 17.5z" />
    <glyph glyph-name="f_n" unicode="fn" horiz-adv-x="876" 
d="M788 175l51 -28q-26 -81 -130 -146q-5 -3 -16 -8t-19 -9t-9 -5l-1 42l-41 13q26 34 53 44q4 13 8 28q4 14 9.5 37.5t6.5 26.5q4 15 12.5 45.5t12.5 47.5t8 41t4 43q0 58 -37 106q-3 3 -5 9q-2 -3 -5 -7q-8 -14 -19 -27.5t-18 -21.5t-17.5 -19t-14.5 -14
q-17 -19 -35.5 -43t-27.5 -35.5t-32 -45t-26 -38.5q-2 -6 -22 -108l-2 -13.5t-4 -22.5t-6 -25.5t-8.5 -28.5t-10.5 -25t-13 -21t-15 -10q-26 -8 -51.5 32t-25.5 82q0 53 40 99q41 48 72 91q7 28 16 58q-3 33 -3 89l24 -27q9 27 25 74q-19 -4 -92 -8q-92 -5 -144 -5
q-17 0 -37 2l-40 4t-35 3l-22 -85q-7 -35 -21 -131.5t-25.5 -165.5t-38 -148.5t-62.5 -121.5q-7 -10 -35 0t-42 24q-17 18 -26 43l7 -2v90l44 -57q0 1 3.5 -2t7 -6.5l3.5 -3.5l-3 -29q21 26 39 67t29.5 80t24.5 111t20 117t21 140q1 7 4 32.5t6 42.5q-18 -1 -30 -1v60
q14 0 40 2q34 165 112 202q13 6 18 7t20 1q49 0 103 -14l114 -47l-24 -81q-56 28 -104 41q-43 11 -89 11q-45 0 -47 -1l-31 -116q11 -1 44 -4.5t52 -3.5q51 0 141 5q18 0 35 2t27 3l20 2t15.5 1t11.5 -0.5t10.5 -3.5t10 -7t11.5 -10q20 -21 10 -53q-2 -7 -5 -15l2 2
q20 26 45.5 47t29.5 27l11 26q16 26 36 27q3 0 16 -4q5 -2 11 -8.5t10.5 -13t9 -13.5t5.5 -8q22 -28 35 -71.5t13 -89.5q0 -21 -2.5 -44t-7.5 -45t-9.5 -39t-10.5 -39t-9 -32q-3 -15 -5 -23q34 29 41 50zM521 469v-1v1zM688 466h2v-1q0 1 -2 1zM408 48q7 13 16 65l-2 -2
q-26 -31 -26 -40q0 -17 12 -23z" />
    <glyph glyph-name="f_o" unicode="fo" horiz-adv-x="718" 
d="M693 430q13 -33 13 -64q0 -16 -3 -37t-5.5 -32t-8.5 -36.5t-6 -27.5q-18 -76 -48 -139q-21 -44 -40.5 -64t-47.5 -27.5t-81 -7.5q-4 0 -17 -1t-20 -1q-25 0 -38 9.5t-20 32.5q-8 30 -8 67q0 25 5 54.5t16 64t19 56t23 59t18 46.5q18 46 22 56q-86 6 -111 6h-83.5h-66.5
q-8 -40 -21 -131t-22 -136q-33 -167 -38 -210q-12 -113 -65 -159q-17 -15 -24 -18.5t-21 -3.5q-35 0 -73 25t-52 51l51 28q1 -4 15.5 -12t32 -15t26.5 -7h6h3.5h0.5q21 18 31 45t16 76q5 52 39 218q5 27 10.5 61.5t9.5 62.5t9 64t10 61q-5 1 -10 1l-8 -4l-39 58q8 8 15 9.5
t32 1.5q9 0 21 -1q24 153 40 178q3 4 6 7.5t8 5.5t8 3t11.5 2t13.5 1t18.5 0.5t22.5 0.5q40 1 47 1q63 0 104 -27l-29 -75q-19 12 -75 12q-6 0 -46 -1q-12 0 -26 -2t-18.5 -2.5t-9.5 0.5q-9 -30 -20 -104h60.5h79.5q31 0 91 -2t89 -2q14 0 36 1t31 1q17 0 30 -4t24 -13
t19.5 -23.5t17.5 -36.5zM630 253q22 83 22 113q0 8 -10 31q-1 4 -4 12.5t-4.5 12t-5.5 8t-10.5 6t-15.5 1.5q-8 0 -30.5 -1t-36.5 -1h-17l8 -9q-11 -8 -13.5 -11.5t-1.5 -7.5t-2.5 -20.5t-14.5 -41.5q-77 -170 -77 -243q0 -20 6 -43q2 9 2 18q0 4 0.5 5t3.5 1q7 0 19.5 1
t17.5 1q66 0 85.5 8t34.5 40q27 56 44 120z" />
    <glyph glyph-name="f_r" unicode="fr" horiz-adv-x="737" 
d="M606 436q48 59 149 48l-5 -89q-2 0 -11.5 1.5t-17 2t-19 0.5t-20.5 -1.5t-19 -6.5t-16 -12q-30 -37 -57 -83t-52 -94.5t-37 -67.5q-19 -31 -59.5 -74t-50.5 -57q-3 -3 -3.5 -1.5t-0.5 5.5t-1 9q-20 -50 -34 -50q-9 0 -14 11.5t-5 29.5q0 21 14 49l6 44q12 47 31.5 152
t30.5 148q4 17 8 30q-16 -1 -46 -2q-11 -1 -54.5 0t-52.5 1q-20 0 -34 -1q-13 -1 -29 -2q-2 -11 -6 -36t-6 -40q-4 -24 -13 -68t-12 -63q-3 -24 -7.5 -75t-8.5 -77q-2 -20 -13 -81q-12 -74 -47 -144q-15 -31 -46 -48t-54 -6q-10 6 -20.5 13t-21.5 17.5t-19 18.5t-21 21.5
t-21 21.5l39 64q2 -3 18 -19.5t22.5 -22t20.5 -16t27 -17.5q-8 4 11 12q17 6 17 1q32 65 42 123q10 50 13 74q3 26 7.5 77t8.5 75q2 21 7 45t10 49t8 41q2 14 8 53q-46 -5 -77 -5l-1 77q32 0 92 7q7 32 15 61q3 8 8.5 37t12 51t13.5 29q31 32 131 32q35 0 53 -5
q9 -2 18.5 -6t16 -7.5t18 -9.5t17.5 -9l-24 -81q-6 4 -12 7l-9 4.5l-7 3.5l-5 2.5t-4 1.5t-3.5 1.5t-3 1t-3.5 1t-5.5 1.5t-7.5 2q-7 2 -39 2l-23.5 -1.5t-46.5 -2.5l-23 -1q-2 -2 -5 -16.5t-7 -35t-8 -31.5q-4 -13 -7 -26q4 1 7 1q17 1 38 1q10 0 52.5 -1t52.5 0q33 2 51 2
q30 0 45.5 -3t23 -11t7.5 -24q-1 -18 -11 -24q-8 -20 -23 -71q-10 -33 -18 -71.5t-16 -87t-13 -73.5q28 32 42 54q17 26 64.5 113.5t79.5 126.5z" />
    <glyph glyph-name="f_u" unicode="fu" horiz-adv-x="820" 
d="M774 401q-9 -24 -16 -41q-11 -33 -42 -111.5t-45 -118.5q18 15 32.5 35t38.5 60l46 -45q-19 -34 -31 -53t-34.5 -46t-43.5 -42q-22 -16 -40 -26q-1 -4 -1 -8q0 1 1 8q-27 -15 -42.5 -14.5t-11.5 21.5q14 87 59 207q-118 -154 -214 -197q-51 -23 -106 -23q-11 0 -22 1
q-8 1 -11 20q-4 27 16 69v1q3 7 9 18t9.5 19t5.5 13q39 123 101 254q5 12 14 26.5t11 21.5q-8 2 -20 2q-52 -3 -68 -5q-136 -14 -201 -18q-10 -68 -48 -280q-5 -26 -11.5 -55.5t-14.5 -62.5t-12 -52q-4 -16 -8 -48t-10 -58.5t-17 -47.5q-10 -20 -33 -20q-26 0 -54.5 13
t-47.5 32.5t-19 38.5q3 5 13 7.5t20.5 3t25.5 0t25 -1.5t21.5 -2t13.5 -1q4 15 7.5 46t9.5 57q4 19 18.5 79.5t19.5 87.5q8 42 25 128t24 133q-25 -1 -52 -1l10 60q25 0 50 1q2 21 4 44q1 16 2.5 44.5t3 45.5t4 36t8.5 29.5t16 13.5q48 14 84 14q35 0 66.5 -11t76.5 -38
l-28 -77q-59 36 -115 36q-33 0 -69 -11q2 1 3.5 -0.5t2.5 -5t2 -8t1 -10v-11.5t-0.5 -12.5t-1 -11.5l-1 -10t-1 -8t-0.5 -5q-3 -22 -5 -41q35 3 70 7q21 3 59 5t66 5q21 3 73 6h8q41 2 48.5 -1.5t8.5 -25.5q1 -20 -0.5 -38t-5 -30.5t-7.5 -24t-7.5 -17.5t-7.5 -12t-4 -7
q-22 -45 -38.5 -85t-25 -63t-33.5 -96q-2 -4 -4 -9q19 4 31 9q76 34 156 124.5t122 167.5q29 55 37 73q5 29 11 43q15 38 39 16t25 -61q0 -13 -4 -24q0 -33 -20 -50zM6 -120l-6 -13q3 7 6 13z" />
    <glyph glyph-name="f_y" unicode="fy" horiz-adv-x="834" 
d="M774 501h54l-15 -209q-3 -21 -12.5 -52t-11.5 -41t-4.5 -30.5t-5.5 -36t-6.5 -34t-9.5 -35.5t-13 -31q-17 -29 -49 -60q-4 -15 -15 -14q-24 -21 -32 -31q-4 -5 -13 -15q-30 -36 -47.5 -56t-47.5 -49t-59 -47t-60 -27q-15 -5 -33 -6.5t-40.5 -2.5t-30.5 -1q-74 -6 -78 -6
q-13 0 -26 2l7 79q7 -1 19 -1q3 0 74 6q13 1 34 1.5t35.5 1.5t23.5 3q21 6 42 18.5t36 24t36 33t30 32t30 36.5t27 32q15 19 35 38v2q-1 45 -4 83q-2 18 -4 46t-3 45t-4.5 41t-7.5 41t-11.5 36.5t-17.5 36.5l-12.5 22.5t-13.5 24t-15 24t-18 25.5q4 -9 -8.5 -14.5t-35.5 -6
t-38 0t-27 1.5q-42 2 -94 2q-39 0 -111 -2q-3 -37 -6 -93q0 -13 -1.5 -61t-4.5 -81.5t-10 -66.5q-1 -3 -2 -10q-71 -329 -167 -329q-9 0 -18 2.5t-20.5 9.5t-16.5 10t-19 13.5l-14 10.5q-21 15 -28.5 22t-23.5 27l43 56q5 -7 40 -32q3 -2 14.5 -13t22.5 -18.5t20 -7.5
q13 0 26.5 13t24.5 39t20 50t18 59.5t13.5 54.5t10.5 48l3 15q7 28 9.5 58t4 76t1.5 61q3 49 5 84q-34 -4 -51 -4v70q15 0 57 4q2 24 4 49v1v3q1 3 7 82q1 7 2 17.5t1 14.5l-1 10q0 11 5 20t12 10q32 4 60 4q72 0 126 -22q9 -4 21 -11t25 -14t25 -12l-19 -84q-9 3 -20.5 10
t-25.5 14.5t-27 12.5q-37 16 -105 16q-12 0 -26 -1q-5 -63 -6 -71l1 3q0 -3 -1 -13q-2 -19 -3 -36q66 2 105 2q53 0 98 -3h18t29.5 -0.5t32 -1t30 -3t19.5 -5.5q39 -20 81 -90q15 -24 24.5 -52t15 -60t7.5 -56t4.5 -61t3.5 -54q2 -21 4 -44q1 2 1 3q9 16 14.5 33.5t8 30.5
t5.5 36.5t6 39.5q5 25 14 54t10 35z" />
    <glyph glyph-name="s_h" unicode="sh" horiz-adv-x="821" 
d="M746 410q48 -96 48 -146q0 -32 -12.5 -65.5t-42.5 -93.5q-8 -17 -16.5 -39t-12.5 -32.5t-13.5 -18t-23.5 -7.5q-15 0 -44 6q-28 5 -36 26l45 31q-8 22 1 21q13 -3 24 -4q13 16 31 53q32 63 41 85.5t9 37.5t-8.5 36.5t-34.5 74.5l-2 2t-2.5 3t-3.5 4.5l-4 5t-5 5.5t-5.5 6
t-5.5 6.5t-6 7.5l-12 -24q-80 -138 -130 -212q-12 -18 -34 -49t-33.5 -49t-18.5 -32q-15 -64 -51 -81q-28 -13 -39 14q-16 39 32 119l2 93q6 19 10 38.5t8 40t7 38t6.5 40t5.5 37.5t5 40t5 38q7 51 27 112q-90 -21 -174 -22q20 -32 34 -48l14 -13q39 -41 39 -83
q0 -44 -15.5 -64.5t-37 -9t-37.5 51.5l-3 3q1 -1 -1 -1q-4 0 -11 6l-4.5 0.5t-10 1.5t-11.5 1.5t-10 0.5q-7 0 -16 -1q0 -11 1 -20l34 -142q-5 -77 -18 -123q-18 -60 -48 -93t-69 -33q-66 0 -124 95l43 42l81 -57q23 0 41 18t28 51q13 47 13 100q0 32 -13 68.5t-17 61.5
q-2 14 -2 36q0 61 18 68q24 9 48 9q18 0 33 -4q-31 41 -51 77h-2h2q-20 34 -20 47l18 33q2 0 7 -0.5t7 -0.5h1q22 2 50 2q103 0 213 30l1 4q2 5 7.5 25.5t11 37t16 39.5t22 38.5t28.5 26.5t37 11q13 0 36 -9q17 -7 29 -33.5t12 -54.5q0 -21 -8 -47t-17 -36
q-26 -28 -46.5 -39t-75.5 -28q-11 -3 -22 -7q-31 -88 -38 -139q-2 -14 -6.5 -46t-6.5 -49t-6.5 -45.5t-8.5 -48.5l-9 -45t-11 -47q-1 -3 -1 -11q40 41 53 61q56 83 128 207l3.5 6.5t8.5 15.5t11 20t11 19.5t9 15t6 7.5q2 2 4.5 1t3.5 -3t1.5 -4.5l0.5 -2.5q9 -13 34.5 -39
t40.5 -57zM610 768q-37 0 -62 -84q58 18 77 39zM326 420v1v-1z" />
    <glyph glyph-name="s_t" unicode="st" horiz-adv-x="620" 
d="M592 449q9 0 18.5 -13t9.5 -33l-28 -14h-47h-76q-6 -15 -10 -26q-7 -21 -25.5 -66t-29.5 -74.5t-21 -67.5t-10 -66q30 20 42 31t10.5 13.5t1 8t13.5 14.5q31 26 54 44l31 -30q12 0 15.5 -5t-0.5 -11.5t-7.5 -11t-5.5 -5.5q-31 -25 -52 -42q-5 -14 -33.5 -40t-53.5 -43
q-9 -6 -21.5 -8t-13.5 -2q-8 -4 -12 -1.5t-9 12.5q-13 32 -13 75q0 36 11 82t23 78t31 79.5t24 62.5q-17 -1 -32 -1v60h53q23 68 36 99l7 63l-67 -10l-139 5h-14h-13t-10 -0.5t-10.5 -2t-8.5 -4.5t-10 -7q-10 -8 -11 -7q0 1 1 5q-2 -7 -2 -12q0 -20 30 -48h18
q34 0 60.5 -20.5t35 -48t-0.5 -48.5l-64 -26q-1 0 -3 2.5t-7 7t-9 9.5l-11 11.5t-22 22.5q-2 2 -8 7q-32 -4 -44 -22q-13 -19 -13 -47q0 -30 17 -90.5t19.5 -75t2.5 -31.5q0 -32 -9.5 -65t-26 -60.5t-37.5 -44.5q-14 -11 -31 -11q-33 0 -65 26.5t-32 54.5l32 17
q6 -4 12.5 -9t9.5 -7.5t9 -3.5t14 0q19 0 17 -4q53 41 53 107q0 8 -2 18q-1 11 -11 43t-18 68t-8 68q0 12 2 25.5t4.5 25.5t7 22.5t8.5 17.5q18 27 35 40q-19 33 -19 69q0 22 5 38q8 23 26 38q28 23 42.5 27.5t58.5 3.5l139 -5q56 2 76 8v1q1 0 14.5 4.5t28 8.5t32.5 3.5
t31 -8.5q26 -16 20 -38t-42 -34h-1h1l-1 -1q-7 -1 -16.5 -22t-20.5 -52t-12 -33q-13 -29 -26 -68h56h47zM565 625zM267 387z" />
    <glyph glyph-name="z_y" unicode="zy" horiz-adv-x="976" 
d="M177 18q-7 3 -25.5 14.5t-28.5 16.5l-105 -86q-15 0 -24.5 13t-9.5 33q0 42 38.5 79t82.5 37h9q15 15 29.5 28.5t36.5 32t26 22.5q90 79 147 152q-11 2 -23 5q-31 6 -69 35q-25 18 -45 35.5t-28 25.5t-16.5 14.5t-15.5 8t-19 1.5l-24 -97h-54v72q1 29 11 51t27.5 34
t39.5 12q24 0 55 -16q16 -8 34 -23.5t37 -33.5t31 -27q22 -17 46 -22q30 -6 53 -7l40 70q9 12 30.5 21.5t35.5 9.5q20 0 32 -25q5 -9 5 -25q0 -28 -13 -53q-33 -67 -112 -70q-6 -9 -26 -36q-78 -109 -143 -166q-10 -8 -22.5 -19t-24 -20.5t-19.5 -17.5q18 -11 26 -16
q79 -41 126 -41q40 0 52 25l20 38h54q0 -10 -3.5 -22t-7.5 -19.5t-9 -17.5t-6 -11q-32 -65 -100 -65q-57 0 -151 50zM959 433q1 -32 1 -56q0 -103 -26 -176q-23 -63 -52 -93v-1l-2 -3t-5 -8.5t-7 -12t-8.5 -14t-8.5 -14.5t-8.5 -13l-7.5 -10q-14 -18 -32 -35.5t-32.5 -30
t-37.5 -29t-34.5 -24t-37 -24.5t-32.5 -22q-82 -55 -127 -77.5t-100.5 -33.5t-145.5 -11q-74 0 -134 28l23 66q46 -22 111 -22q84 0 130.5 8t91 29t120.5 73q104 69 117 79v1h1q31 23 54 45v62q13 41 13 88q0 51 -14 102q-12 45 -45.5 88.5t-56.5 43.5h-4q-5 -2 -10.5 -7
t-9.5 -10.5t-9.5 -13.5t-10.5 -13q-7 -8 -22 -37l-11 -18v1l-54 20q0 11 3.5 22t10.5 21t12.5 16.5t12.5 14t8 7.5q1 2 15.5 21t26.5 30.5t24 14.5q10 3 18 3q41 0 88 -57t66 -128q16 -58 16 -121q0 -32 -5 -62l4 6l47 79q23 64 23 152q0 23 -1 52q0 7 -7 30.5t-7 44.5h54
q0 -7 6.5 -29t7.5 -42z" />
    <glyph glyph-name=".notdef" horiz-adv-x="459" 
d="M338 372q38 14 53 10.5t14 -30.5q-1 -12 -3.5 -20t-14.5 -17.5t-23 -16t-42 -22.5q15 0 23 -10.5t5.5 -25.5t-11.5 -30t-21 -27t-24 -22t-22 -19.5t-13 -15.5l-37 24q-40 -20 -64 -20q-7 0 -16 2q-11 3 -18.5 16t-7.5 28q0 12 5 26q-3 -1 -7 -1q-12 0 -41 12
q-30 13 -20 52t50 65q4 3 8 5q-16 15 -8 43.5t34 46.5q2 1 11 7.5t13.5 9.5t15 9t16.5 7t17 4t17 -1l-7 -42q27 9 37 11q8 2 14 2q21 0 44 -17v-1q24 -12 24 -35q0 -4 -1 -7zM93 280l7 -3q-3 1 -7 3z" />
    <glyph glyph-name=".null" 
 />
    <glyph glyph-name="nonmarkingreturn" horiz-adv-x="333" 
 />
    <glyph glyph-name="space" unicode=" " horiz-adv-x="250" 
 />
    <glyph glyph-name="exclam" unicode="!" horiz-adv-x="198" 
d="M119 200h-54q0 12 1.5 23t3 17l3.5 14t3 11q3 12 4.5 43t4.5 49q6 34 19.5 93t20 102.5t6.5 87.5h54q0 -50 -7 -98t-21 -108.5t-19 -89.5q-2 -11 -3.5 -44.5t-5.5 -52.5q-10 -39 -10 -47zM78 0h-66q0 64 40 99l7 4l57 -52q-8 -16 -18 -27.5t-15 -16.5t-5 -7z" />
    <glyph glyph-name="quotedbl" unicode="&#x22;" horiz-adv-x="353" 
d="M186 578q1 -1 2.5 -5t4 -10t4.5 -13q7 -19 -14.5 -58.5t-55.5 -72.5l-38 64q17 17 27.5 32t15 23.5l4.5 8.5q-1 2 -1 5q-18 57 -20 60l-6 9l45 50q4 -7 9.5 -20.5t9 -25t8 -27.5t5.5 -20zM347 550q7 -19 -14.5 -58.5t-55.5 -72.5l-38 64q11 11 19.5 21t13 17t7.5 13
t4.5 9.5t2.5 3.5q-1 2 -1 5q-18 57 -20 60l-6 9l45 50q4 -7 9.5 -20.5t9 -25t8 -27.5t5.5 -20q1 -1 2.5 -5t4 -10t4.5 -13z" />
    <glyph glyph-name="numbersign" unicode="#" horiz-adv-x="605" 
d="M427 417q-7 -38 -12 -72q-5 -37 -7 -86h12q3 0 22 2.5t30 2.5q16 0 28 -6l-22 -65q-3 -1 -6 -1q-9 0 -27.5 -2.5t-24.5 -2.5h-14q0 -65 -2 -95q0 -2 -0.5 -18.5t-1 -25t-2.5 -22t-5 -23.5l-52 21q4 14 7 72q2 28 2 92h-93q-1 -10 -2.5 -29.5t-3 -36t-4.5 -30.5
q-2 -8 -2 -17q0 -10 2.5 -34.5t2.5 -36.5h-54q0 7 -2.5 31.5t-2.5 39.5q0 19 3 32q2 9 9 81h-88v72h99q17 99 22 149v2q-36 2 -58 2q-32 0 -55 -3l-8 71q28 4 63 4q23 0 61 -2v4q0 28 -2 83.5t-2 83.5h54q0 -26 2 -82t2 -85v-7h25q22 0 40 2q9 1 23 2q4 22 8 42
q2 14 6.5 34.5t7.5 33.5t5 29.5t2 29.5h54q0 -22 -3.5 -45.5t-10.5 -54t-8 -40.5q-2 -8 -4 -22q56 6 93 6v-72q-38 0 -106 -8zM271 259h83q2 55 8 97l8 54h-5q-21 -2 -45 -2h-28q0 -2 -1 -6q-5 -53 -20 -143z" />
    <glyph glyph-name="dollar" unicode="$" horiz-adv-x="327" 
d="M322 517q6 -44 -22 -47h-2l-23 29h1q-9 1 -14 9t-16 7q-3 0 -10 -0.5t-9 -1t-6 -1t-4.5 -2.5t-3 -3.5t-4 -6t-3.5 -8.5t-6 -12.5t-7 -16.5q-10 -23 -5 -59q3 -24 17 -81t18 -85q8 -55 -3 -91l-3.5 -11t-5 -15.5t-5.5 -15.5t-7.5 -17t-8.5 -14t-10.5 -13t-11.5 -8
q-13 -5 -25 -6q-8 -1 -18 0q-1 -52 -6 -100.5t-11 -54.5l-39 51q-4 -4 -5.5 2.5t-1 23t2 31t3.5 36.5t3 28q-13 8 -24 17.5t-20 20.5t-15 24t-7 26l53 4l75 -29q2 0 3.5 0.5l3 1l1.5 0.5q5 2 7.5 5t3.5 6.5t5 15t9 23.5q8 22 3 54q-3 19 -17 76.5t-18 89.5q-9 67 7 102
q2 5 6 18.5t8.5 23t13 21t22.5 19.5t33 11q5 6 6 2q7 21 7 89h54v-18.5v-23.5t-1 -20.5t-3 -24t-5 -20.5q36 -28 40 -61zM216 562l-1 -8q1 1 1 3v5z" />
    <glyph glyph-name="percent" unicode="%" horiz-adv-x="759" 
d="M550 538q-9 -16 -21.5 -38t-12.5 -23q-140 -236 -215 -368q-41 -72 -64 -120q-33 -66 -50 -36q-4 6 -6 18l7 50q28 56 66 124q79 138 215 369q1 2 3 5.5t5 9t6 9.5l-14 2q-14 2 -32 7.5t-49 16.5t-41 14q0 -80 -29 -126q-21 -35 -54.5 -56t-67.5 -21q-43 0 -68 31.5
t-25 83.5v5q0 50 15 78q4 9 9 15.5t10.5 12.5l5.5 6q1 1 5 6t5.5 6.5t5 6t5 6t5 5.5t6 6t5.5 5t6 5l6 4t7 4q21 11 48 11q31 0 76 -13t89.5 -29t65.5 -19q18 -3 40 -3h8q50 70 84 70q10 0 23 -7q8 -4 14 -17t6 -27l-1 -12q0 -11 -2.5 -20.5t-6.5 -15.5t-8.5 -10.5t-9.5 -7.5
t-9 -4.5l-8 -3t-5 -1.5q-23 -10 -53 -14zM272 489q7 12 10.5 20t6 20.5t3.5 26.5t1 38q-27 6 -46 6q-17 0 -22 -2q-18 -10 -40 -37l-19 -21q-7 -12 -8 -19t-1 -31q0 -12 2 -20t7 -13t12 -7.5t18 -2.5q21 0 43 12.5t33 29.5zM598 272q81 -9 81 -109q0 -14 -1 -36
q-1 -20 -5 -35t-16 -35t-33 -43q0 -1 -5.5 -6.5t-7 -7.5t-6 -6.5t-7.5 -7t-7.5 -6t-8.5 -5.5t-8 -3q-14 -6 -27 -6q-114 0 -130 136q-11 89 67 150q11 8 21.5 13t22.5 8l12 3q13 4 26 4q8 0 19 -1t13 -1v-6zM624 128q1 19 1 35q0 24 -7.5 30.5t-35.5 6.5v7q-10 1 -16 1h-8
q-8 -3 -17.5 -5.5t-15 -4t-8.5 -3.5q-29 -23 -41 -44t-5 -49q8 -35 23.5 -49.5t52.5 -14.5q6 0 9 1q11 4 29 24q26 29 32 39.5t7 25.5z" />
    <glyph glyph-name="ampersand" unicode="&#x26;" horiz-adv-x="824" 
d="M529 337h2l60 -28q-29 -22 -94.5 -96.5t-99.5 -98.5q-87 -61 -138 -87q-4 -2 -14.5 -7.5t-14.5 -7t-12.5 -5.5t-12.5 -5.5t-11 -3.5t-12.5 -3t-10.5 -1q-31 0 -73 31q-24 17 -38 33t-23 42q-7 20 -7 51q0 9 1 22q3 65 32.5 115t80.5 96q-18 20 -28 32t-21.5 28t-16 31.5
t-4.5 33.5q0 33 9 54q34 77 83 108.5t135 31.5q34 0 50.5 -6.5t38.5 -28.5q9 -10 16 -30.5t7 -40.5q0 -28 -10 -51t-28.5 -43.5t-52.5 -46.5q-64 -49 -88 -69q14 -12 22 -12h2v-80h-2q-28 0 -73 47q-95 -89 -99 -173v-18q0 -13 4 -25l42 -37q21 -15 41 -15q4 0 7.5 0.5t8 2
t8 2.5t9.5 4t8.5 4.5t11 5.5t11.5 6q57 28 131 81zM195 427q60 48 80 68q4 3 12.5 10.5t15 13.5t15.5 14.5t15.5 16.5t12.5 16.5t9.5 16.5t3.5 14.5t-8 14.5q-11 11 -50 11q-70 0 -108 -21t-60 -71q-5 -11 -5 -22zM868 382h2l-14 -79h-2q-17 3 -54 1t-56 2q-8 1 -17.5 2.5
t-17.5 3t-16.5 3t-17.5 3t-17 3.5q-20 4 -44 11t-45 13t-37 9q-19 3 -35.5 2.5t-32 -5t-29 -13t-27.5 -21.5q-24 -22 -27 -37h-2l-49 8h-2q9 48 46 83q45 42 84 56t89 5q83 -15 83 -19q-2 -2 3 -3q17 -6 123 -25h1h2q15 -3 52 -1t57 -2z" />
    <glyph glyph-name="quotesingle" unicode="'" horiz-adv-x="173" 
d="M146 472h-54q1 33 17 68q4 12 4 44q0 15 2 36.5t3 29.5t-2 19l49 40q2 -5 3.5 -14t1.5 -22.5v-25.5v-31.5v-31.5q0 -48 -5 -67q-14 -52 -17 -53q-2 0 -2 8z" />
    <glyph glyph-name="parenleft" unicode="(" horiz-adv-x="305" 
d="M234 -89v-60q-44 0 -75 65q-7 16 -17 36t-17.5 34.5t-16.5 32t-15 30.5q-12 26 -19 52t-13.5 65t-8.5 50q-14 67 -14 129q0 115 47 214q6 13 14 25.5t17.5 24.5t18.5 22.5t20.5 22t20 19.5t20.5 20l19 19q93 91 147 91v-60q-23 0 -97 -74q-6 -6 -25.5 -24t-28 -27
t-22.5 -24.5t-23.5 -30t-17.5 -30.5q-40 -85 -40 -188q0 -57 12 -116q4 -21 9 -51.5t9.5 -52.5t11.5 -41q12 -31 39 -80t34 -63q5 -10 9.5 -17.5t6.5 -9.5l4 -4q-4 1 -9 1z" />
    <glyph glyph-name="parenright" unicode=")" horiz-adv-x="305" 
d="M-10 -124v60q-20 0 30 57q35 38 40 46q15 21 28.5 49.5t22 53t21.5 59.5t24 59q4 8 12 23t12.5 26.5t5.5 18.5q2 24 2 54q0 28 -3 84.5t-3 85.5q0 8 -1.5 20t-5 25.5t-7.5 28t-8 28.5t-8.5 26.5t-8.5 22t-6.5 15t-4.5 5.5v60q28 0 52 -29.5t38 -70t22 -76.5t8 -55
q0 -28 3 -84.5t3 -85.5q0 -32 -3 -59q-1 -13 -6.5 -28t-15.5 -34t-13 -25q-9 -21 -21.5 -55.5t-22 -60.5t-25 -58t-33.5 -57q-91 -129 -128 -129z" />
    <glyph glyph-name="asterisk" unicode="*" horiz-adv-x="443" 
d="M316 544q77 -78 120 -89l-14 -70q-50 14 -139 103q-2 -14 -5 -40.5t-5 -38.5l-7 -43l-20 2l-33 9l7 43q0 1 7 60q-16 -11 -30 -20l-86 -45l-36 53q13 12 48 32t58 29q16 11 36 24q-72 59 -81 59v72q4 0 9.5 -1.5t12 -5l13 -7t14.5 -9t13.5 -10t14 -11t13 -10t12 -10
t10.5 -8.5q14 89 24 153l54 -12l-23 -138l16 10q13 13 38 31.5t47.5 32t29.5 13.5v-72l-18.5 -13.5t-38.5 -28.5t-22 -17q-18 -12 -39 -27zM278 358l-53 11l21 -1z" />
    <glyph glyph-name="plus" unicode="+" horiz-adv-x="511" 
d="M427 288q10 0 20 -2l-13 -60h-7q-4 0 -12.5 -0.5t-14.5 -0.5q-14 0 -28 5q-25 9 -62 9q-10 0 -40 -1q-5 -18 -8 -34q-10 -47 -16 -97q0 -5 -1 -12.5t-1.5 -13t-0.5 -9.5h-54q0 4 4 43q7 69 16 105q2 8 5 18q-4 0 -8 1q-14 2 -32 5.5t-29 5t-25 3.5t-28 3t-31 1v62
q22 0 42.5 -1.5t33 -3.5t36.5 -6.5t39 -6.5q8 -2 20 -2q16 53 24 87q2 11 14 48.5t12 50.5h54q0 -18 -5.5 -41t-13 -46t-9.5 -30q-7 -31 -18 -67h20q43 0 80 -13q2 -1 10 -1q4 0 13.5 0.5t13.5 0.5z" />
    <glyph glyph-name="comma" unicode="," horiz-adv-x="203" 
d="M107 -20q7 -19 -15 -58.5t-55 -72.5l-38 64q17 17 27.5 32t14.5 23.5t5 8.5q-1 2 -2 5q-6 19 -11 39q-5 16 -12 26q-1 3 -2 4l45 50q4 -7 9.5 -20.5t9 -25t8 -27.5t5.5 -20q0 -1 1.5 -5t4.5 -10t5 -13z" />
    <glyph glyph-name="hyphen" unicode="-" horiz-adv-x="405" 
d="M315 317l11 -64q-56 -12 -136 -12q-17 0 -50.5 0.5t-50.5 0.5v66h32.5t36.5 -0.5t32 -0.5q77 0 125 10z" />
    <glyph glyph-name="period" unicode="." horiz-adv-x="198" 
d="M78 0h-66q0 64 40 99l7 4l57 -52q-8 -16 -18 -27.5t-15 -16.5t-5 -7z" />
    <glyph glyph-name="slash" unicode="/" horiz-adv-x="418" 
d="M120 -86l-48 32q4 8 7.5 34.5t5.5 34.5q22 91 34 128q7 22 17.5 44t20 42t14.5 33q7 19 11.5 58t8.5 59q5 20 15.5 50t12.5 37q23 83 41 101q10 12 30.5 32.5t19.5 15.5q5 19 5 46q0 8 -0.5 26t-0.5 28h54q0 -8 0.5 -26.5t0.5 -27.5q0 -39 -6 -64q-4 -15 -16 -30
t-29.5 -31.5t-18.5 -16.5q-11 -13 -29 -73q-4 -15 -13.5 -43.5t-12.5 -40.5q-3 -14 -6 -37.5t-6.5 -46.5t-10.5 -41q-8 -23 -26.5 -61.5t-24.5 -55.5q-13 -39 -33 -122l-5 -35.5t-12 -48.5z" />
    <glyph glyph-name="zero" unicode="0" horiz-adv-x="525" 
d="M485 333q15 -39 15 -85q0 -23 -4 -53q-6 -56 -28 -85q-26 -35 -65 -64t-78 -43q-5 -2 -11 -2q-4 0 -11 1t-10 1q-64 0 -128 29.5t-101 77.5q-27 35 -37 87q-3 12 -3 28q0 14 9 81q1 6 1.5 16t1 18t1.5 17t4 16q9 27 25.5 47.5t39 35t43 23.5t49.5 19q18 6 36 11
q11 2 31 2q31 0 57 -4t45 -11t30 -17.5t11 -22.5l5 -24l25 8q3 -14 11.5 -40.5t13.5 -35.5q1 -1 10 -12t12 -19zM443 204q3 27 3 44q0 27 -12 56q3 -7 2 -7q-3 0 -19 26q-10 16 -26 76q-4 2 -19.5 8.5t-28 11t-34 8.5t-44.5 4h-15h-3q-22 -6 -32 -9q-59 -20 -87.5 -37.5
t-35.5 -38.5q-3 -6 -3 -11.5t-0.5 -15.5t-1.5 -23q-9 -63 -9 -71q0 -5 2 -12q5 -26 27 -54q23 -30 79 -53t107 -23q5 0 12 -1t9 -1l-2.5 -1t-4.5 -2q35 13 68.5 35.5t49.5 44.5q4 5 6 8t4 6.5t3 6t2 6.5t1.5 8t1.5 11z" />
    <glyph glyph-name="one" unicode="1" horiz-adv-x="303" 
d="M191 510q24 1 40 -26.5t9 -65.5q-1 -4 -2 -9.5t-1 -6.5q-2 -9 -4.5 -17.5t-3.5 -14t-2 -6.5q-8 -37 -18 -97q-17 -96 -26 -169q-4 -34 -11.5 -64.5t-7.5 -49.5h-54q0 29 9 70.5t10 53.5q10 79 26 172q12 68 20 101q1 7 4.5 19.5t4.5 18.5q1 3 1 8q-5 -3 -28 -19.5
t-45.5 -28t-40.5 -11.5v80q19 0 61 30.5t59 31.5zM186 433v-1v1z" />
    <glyph glyph-name="two" unicode="2" horiz-adv-x="505" 
d="M396 76l53 10q0 -28 -30.5 -61t-63.5 -43q-13 -4 -24 -4q-14 0 -39 5q-39 8 -80 27t-73 19q-27 0 -48 -14q-8 -15 -30.5 -22t-38.5 -7q-8 0 -13.5 9t-5.5 21q0 1 1 7.5t2.5 13.5t2.5 12.5t1 6.5q14 26 45.5 57.5t62.5 50.5q80 48 149.5 122t69.5 114q0 2 -1 6
q-1 5 -5.5 9.5t-12 7.5t-18 5t-23.5 2q-25 0 -55.5 -11t-37.5 -22l-24 -41l-37 -24q-8 0 -13 10t-4 24q5 35 33 77q11 15 26 27.5t33 21t38.5 13.5t40.5 5q47 0 76.5 -24t35.5 -67q2 -8 2 -59q0 -33 -43 -86.5t-94 -97.5t-95 -73l144 -41q17 -4 28 -4q7 0 9 1t31 20
q24 15 25 -3z" />
    <glyph glyph-name="three" unicode="3" horiz-adv-x="415" 
d="M353 500q11 -3 11 -24.5t-31 -49.5l4 -2l-7 -1q-4 -3 -4 -4q-15 -16 -38.5 -45t-32.5 -39q-24 -26 -57 -73q19 6 33 6q45 0 74 -24q12 -10 24 -41.5t17 -53.5q4 -19 4 -41q0 -75 -51.5 -148.5t-115.5 -102.5q-43 -20 -81 -20q-55 0 -98 39l-9 9q-7 10 -7 23h54q0 9 -2 17
t-3 10.5t-2 5.5l6 -6q20 -18 61 -18q32 0 58 12q54 25 95 75.5t41 103.5q0 10 -3 22q-9 41 -23 53q-1 1 -7 2t-15.5 2t-16.5 1q-44 0 -73 -15l-26 6q-2 -2 -4 -5q-4 -4 -11.5 -7t-13.5 -5l-6 -2q-9 -8 -19.5 -16t-10.5 -9q-10 -9 -14 -9.5t-13 7.5q-15 12 -9.5 39.5
t30.5 47.5l11 10l-1 -1q111 118 143 159q15 19 31 37h-165v76h207q5 0 19.5 1.5t22.5 1.5q13 0 24 -4z" />
    <glyph glyph-name="four" unicode="4" horiz-adv-x="563" 
d="M501 15q-38 -13 -141 -13q-15 -84 -15 -147h-54q0 54 15 147q-12 0 -46.5 1t-47.5 1q-85 0 -115 -4q-8 -1 -17 -1.5t-12 -1.5h-1q-4 -2 -8.5 -4t-15 -5t-18 -3.5t-15 2t-9 9.5t3 22t17.5 37q14 24 38 54q14 17 41.5 47t42.5 56q27 47 93 137q11 14 37.5 53t41.5 56
q26 32 28 32l6 8q7 11 23.5 17.5t31.5 -5t15 -43.5q0 -14 -2 -28.5t-4.5 -28.5t-2.5 -18q-2 -17 -5 -51t-5.5 -55t-6.5 -50.5t-8 -53.5q-5 -23 -6.5 -44t-4.5 -37q0 -1 -3 -34q88 1 112 9zM103 65q55 4 109 4q13 0 50 -1t54 -1q5 43 6 46q3 21 4 34t2 23.5t5 28.5
q6 30 10 60.5t8.5 78t5.5 62.5q1 4 1 9l-1 -2q-18 -21 -45 -60.5t-32 -45.5q-54 -75 -89 -129q-16 -25 -46 -58.5t-42 -48.5z" />
    <glyph glyph-name="five" unicode="5" horiz-adv-x="431" 
d="M364 137q1 -13 1 -28q0 -85 -56 -163.5t-128 -93.5q-58 -12 -103 -12q-13 0 -20 1t-13 4.5t-14 10.5q-12 10 -11 12q1 0 0.5 1t-3 3t-9.5 6l31 66q1 0 23 -24h2.5h5.5h8q42 0 92 10q36 8 69 36t52.5 66.5t19.5 76.5q0 8 -1 17q-1 10 -18 48q-9 20 -19 28q1 -1 0.5 -1.5
t-3.5 0.5h-10q-41 0 -101 -23q-8 -3 -19.5 -7t-19 -6.5t-9.5 -3.5v-1v-1l-1 1l-5 -5t-4.5 -5t-1.5 -1l-42 10v17l-8 3q3 8 9 18q3 44 14.5 121.5t13.5 89.5q10 84 31 89q42 8 90 8q26 0 66 -2q18 -2 73 -2v-70q-56 0 -77 2q-37 2 -62 2q-45 0 -78 -7l10 -30
q-3 -28 -11 -78.5t-11 -74.5l7.5 2.5t8.5 2.5t7 2q73 29 120 29q16 0 24.5 -3t21.5 -13q15 -11 36 -59q18 -41 22 -69z" />
    <glyph glyph-name="six" unicode="6" horiz-adv-x="480" 
d="M459 580q-81 0 -157 -39.5t-130 -113.5q3 1 11 1.5t13 1.5q9 3 21 9t19.5 9.5t24 6t36.5 -2.5q11 -2 33.5 -16.5t30.5 -18.5q1 0 4 -1t6 -2.5t7.5 -4t9 -6t9.5 -7.5t10 -10.5t9 -13.5q10 -16 17.5 -47.5t7.5 -59.5q0 -15 -4 -30.5t-10.5 -29.5t-7.5 -17q-1 -5 -4.5 -20
t-8 -27.5t-9.5 -20.5q-1 -1 -10 -15t-12 -19t-12.5 -18.5t-15 -20t-15 -17t-16.5 -16.5t-16.5 -12t-17.5 -9q-11 -3 -28 -3h-18q-12 -1 -26 -1q-10 0 -19 3q-120 40 -155 110q-6 11 -6 42q0 18 2.5 45t6 52t7.5 46.5t7 31.5q52 160 163.5 250.5t242.5 90.5v-80zM186 350
q-13 -12 -26 -12v72q-35 -52 -55 -116q-7 -21 -13.5 -71t-6.5 -79q0 -4 -1 -6q8 -15 41.5 -34.5t82.5 -35.5l-1 1h3q15 0 27 1h17h7l4 -1q21 7 37 25.5t50 69.5q5 7 7 13.5t4 16t5 18.5q3 11 7 21t6.5 15.5t4 10t1.5 6.5q0 30 -12 57q0 -1 -4 2t-14 9.5t-20 11.5l-23.5 17.5
t-41.5 18.5q-11 0 -23.5 -3.5t-19.5 -7.5t-19 -11.5t-14 -8.5q-8 -4 -10 0zM236 70h1h-1z" />
    <glyph glyph-name="seven" unicode="7" horiz-adv-x="397" 
d="M389 505q8 -8 6 -28t-11 -27q-14 -10 -22 -14q6 -7 6 -11.5t-3.5 -7t-12.5 -10.5t-16 -17q-39 -52 -61 -90t-48 -96q-73 -163 -97 -231q-1 -3 -9.5 -32t-17 -55.5t-11.5 -29.5l-37 57q-4 -3 8 36.5t16 51.5q28 78 99 236q50 112 104 186q-27 -3 -60 -3q-28 0 -83.5 3
t-82.5 3v80q28 0 83.5 -3t82.5 -3q37 0 65 4q62 8 64 10q-3 -2 -4 -7q11 12 20 11.5t22 -13.5z" />
    <glyph glyph-name="eight" unicode="8" horiz-adv-x="372" 
d="M261 301q4 -5 8 -11t7.5 -13.5t6 -14t5 -16.5t4.5 -16.5t4.5 -17.5t4.5 -17q9 -37 9 -66q0 -96 -105 -130q-44 -15 -73 -15q-22 0 -44 9q-62 25 -62 119q0 10 1 28t1 19q2 43 12 75t31 53.5t38.5 33t46.5 25.5q-53 69 -53 132q0 62 31 105q3 4 11 15l12 16.5t12.5 15
t15 14.5t16.5 10t21 7q9 2 16 2q22 0 42.5 -10.5t29.5 -10.5v-7q26 -12 45 -68q7 -20 7 -47q0 -77 -58 -149q-26 -31 -57 -54q11 -12 14 -16zM157 478q0 -47 46 -108q38 22 57 48q48 66 48 102q0 10 -4 21q-1 5 -16 13q5 3 11 3v6q-12 2 -31.5 11t-29.5 9q-4 0 -6 -1
q-17 -3 -25 -10t-29 -36t-21 -58zM189 75q40 13 53.5 24.5t13.5 29.5q0 16 -7.5 45.5t-36.5 93.5q-5 10 -12 22q-9 -5 -30.5 -14.5t-29 -13.5t-21.5 -14.5t-20 -21.5t-11 -28.5t-6 -41.5q0 -5 -1 -20.5t-1 -23.5q0 -24 4.5 -30.5t24.5 -14.5q7 -3 23 -3q24 0 57 11z" />
    <glyph glyph-name="nine" unicode="9" horiz-adv-x="499" 
d="M406 469q49 -50 49 -172v-29.5v-26.5q0 -55 -26.5 -114t-69 -108.5t-87.5 -88t-89 -66.5q-7 -4 -18.5 -12.5t-20 -14t-18.5 -11.5t-19 -8q-51 -16 -109 -16v80q54 0 93 12q11 3 22 9.5t24 16t18 12.5q80 50 141 113q-7 -5 -13 -8t-13.5 -5t-11.5 -3t-15 -1.5t-14.5 -0.5
h-18.5h-20q-2 0 -17 -1t-16 0q-40 8 -64.5 28t-49.5 65q-8 14 -8 67q0 89 38 190q7 19 17.5 34.5t21 28t12.5 14.5l1 2.5t2.5 5.5t4 7l5 8t5.5 7l5 5q25 14 49 19t65 5t65 -3.5t43 -12.5t37 -27zM401 241v27.5v28.5q0 46 -7 71t-26 44q-20 20 -107 20q-56 0 -80 -10
q1 0 -4 -5q-7 -6 -9 -9q-7 -12 -18 -25t-17.5 -21.5t-8.5 -13.5q-35 -92 -35 -162q0 -34 5 -41q8 -13 14 -20t13.5 -11.5t15.5 -6t20 -1.5q5 0 16 0.5t17 0.5q10 0 22.5 -0.5t18.5 -0.5t14 0.5t13 2t11 4.5t12 8l31 -59q89 99 89 179z" />
    <glyph glyph-name="colon" unicode=":" horiz-adv-x="266" 
d="M78 389h-66q0 64 40 99l7 4l57 -52q-4 -7 -8.5 -13.5t-8 -11.5t-7 -9t-6 -6.5l-4.5 -4.5t-3 -3.5t-1 -2.5zM78 0h-66q0 64 40 99l7 4l57 -52q-8 -16 -18 -27.5t-15 -16.5t-5 -7z" />
    <glyph glyph-name="semicolon" unicode=";" horiz-adv-x="266" 
d="M116 439q-4 -7 -8.5 -13.5t-8 -11.5t-7 -9t-6 -6.5l-4.5 -4.5t-3 -3.5t-1 -2.5h-66q0 64 40 99l7 4zM96 48q0 -1 1.5 -5t4.5 -10t5 -13q7 -19 -15 -58.5t-55 -72.5l-38 64q17 17 27.5 32t14.5 23.5t5 8.5q-1 2 -2 5q-18 57 -19 60l-6 9l45 50q4 -7 9.5 -20.5t9 -25
t8 -27.5t5.5 -20z" />
    <glyph glyph-name="less" unicode="&#x3c;" horiz-adv-x="524" 
d="M381 128q2 -2 15 -9.5t22 -15.5l28 -39q-3 -12 -6.5 -19.5t-7.5 -11t-8.5 -5t-9 -0.5t-8.5 2.5t-8.5 5t-7 5.5t-5 4.5l-2.5 2.5l-5.5 3t-14.5 9t-19 15l-68 57l-117 91q-5 3 -21 13t-32 22t-30 26q-11 12 -9 33t16 34q32 29 58 41q99 44 283 136l24 -64
q-190 -96 -285 -138q-13 -6 -23 -12q50 -33 51 -34l119 -92l58 -62q0 14 -3 18q7 -8 16 -16zM120 298v-2q5 1 8 9q-4 -3 -8 -7z" />
    <glyph glyph-name="equal" unicode="=" horiz-adv-x="568" 
d="M402 419q13 -2 52.5 -10t62.5 -11l-7 -71q-22 3 -62 11t-55 10q-18 3 -45 3q-17 0 -51 -2t-51 -2h-109l-49 15q-2 6 -5 17q-10 31 -6 36t35 5q16 -1 25 -1h109q15 0 50 2t52 2q30 0 54 -4zM474 243q26 -26 12.5 -51t-56.5 -25h-38t-44.5 -0.5t-37.5 -0.5h-87h-86.5h-86.5
l20 72h76.5h76.5h86h82q17 3 37 6q0 2 4.5 8t15.5 5.5t26 -14.5zM404 239h31h-5h-26z" />
    <glyph glyph-name="greater" unicode="&#x3e;" horiz-adv-x="482" 
d="M437 304q5 -33 -13 -35q-3 0 -5 1q-1 2 1 2q-27 -15 -29 -17q-9 -5 -19.5 -11.5t-19.5 -12.5l-15 -10q-7 -4 -56 -29q-13 -6 -41 -20.5t-41 -21.5q-14 -7 -33 -13.5t-29 -9.5t-35.5 -9.5t-27.5 -7.5q5 2 6 1q0 -4 -20 -14l-24 64l1.5 1.5l4 4l5.5 5.5t6.5 5t6.5 3
q8 2 30.5 7.5t33 8.5t26 8t25.5 10q18 9 47 24t34 18q9 5 21 10.5t19.5 9.5t12.5 7q13 8 35 22q-89 79 -119 103q-13 11 -29 24t-23 18t-16 13t-11.5 12t-6 10.5t-4 12.5t-0.5 14h54q0 11 55 -35q11 -9 15 -13q13 -10 132 -115q0 -1 12 -6.5t22 -15t12 -23.5zM393 335
q6 3 3 6q-5 4 -11 -9l-1 -2q2 1 3.5 2t3 1.5t2.5 1.5z" />
    <glyph glyph-name="question" unicode="?" horiz-adv-x="376" 
d="M357 676q14 -4 34 -27.5t10 -40.5q-5 -8 -11.5 -21t-9.5 -18q-18 -32 -51 -75q-15 -19 -51.5 -60.5t-51.5 -63.5q-34 -49 -48 -84q-14 -33 -14 -44q0 -18 -9 -18l-41 18q0 33 17 75q23 54 54 98q25 37 62 79t42 49q32 42 43 58q-4 1 -25 1q-75 0 -141 -55
q-15 -13 -31 -29q-7 -8 -8.5 -7.5t-1.5 12.5q1 8 1 14h-50q0 23 58 72q88 73 173 73q30 0 50 -6zM70 64q9 16 18 30t16 24.5l9 13.5l72 -42q-6 -10 -14.5 -23t-15.5 -24.5t-12 -20.5q-7 -10 -13 -20q-9 -16 -11 -16t-2 10h-13l-47 47q4 7 10 16z" />
    <glyph glyph-name="at" unicode="@" horiz-adv-x="662" 
d="M605 590q13 -39 13 -85q0 -19 -2 -38.5t-6 -42.5t-7 -37t-9.5 -41t-9 -36.5t-10.5 -34.5t-18.5 -54t-22 -54t-17.5 -32q-2 -2 -11 -9.5t-13 -12.5l-2.5 -5t-3 -5t-3.5 -3q-1 -1 -3 -1t-7 3.5t-6 4.5q-37 18 -37 63q0 32 1.5 95t1.5 95l0.5 0.5t0.5 1.5t0.5 3t1.5 5t2.5 9
t2.5 15q1 2 4 10l2 10h-1q-15 -17 -29 -40v-53q-7 0 -27 9q-6 -9 -14 -23l-14 -24.5t-13 -23t-14.5 -24t-14.5 -21.5q-21 -29 -66 -75.5t-62 -67.5q-3 3 -4 26q0 69 8 116q7 45 41 182q9 32 15 62q0 2 -0.5 10t-0.5 11q0 7 3 7q1 0 3.5 -1t4.5 -2t3 -2q1 0 17 -3t22 -5
q2 -1 72 -41q18 28 29 41q37 43 68 23q35 -23 24 -101l-3 -19l-7 -15q0 -4 -2 -144l47 114q3 13 9.5 40t9 39.5t6.5 32t5.5 34.5t1.5 29q0 26 -11 55q-3 10 -4 16q0 2 -2 3q-3 1 -8 5q-7 5 -65 20h-4l-13 1q-18 0 -48 -5q-50 -7 -94 -25q-26 -11 -56.5 -31.5t-54.5 -44.5
t-30 -42q-40 -109 -55 -187t-15 -177q0 -35 7 -60.5t15.5 -36.5t22.5 -26.5t20 -25.5q-5 7 9 3q11 -3 33 -12q9 -4 26 -4q3 0 8.5 -0.5t6.5 0t4 0.5t4.5 2t4 4t6 7t7.5 10t11.5 14t15.5 18q39 44 43 51l24 43l48 -38q2 1 2 0t-3 -6t-7.5 -13.5t-9 -16t-7.5 -13.5
q-16 -29 -49 -66q-7 -9 -21 -26t-21.5 -24.5t-19 -17.5t-22.5 -14t-25 -4q-21 0 -48 11q-1 1 -7 3.5t-7.5 3t-7 3t-7.5 4t-7 4t-7.5 4t-6 4.5t-6 5.5l-5.5 5.5t-5 7q-73 115 -73 197q0 109 17 198.5t56 196.5q10 28 40 64t66.5 65.5t65.5 41.5q58 23 107 31q35 5 55 5
q19 0 32 -4q54 -15 80 -33q5 -3 9.5 -8.5t7.5 -10.5t6 -12.5t4.5 -12.5t4 -13t4.5 -11zM305 439l-1 -2q1 1 1 2zM276 267q16 22 58 94q-30 17 -41 23q-2 -5 -3 -11q-29 -113 -31 -125z" />
    <glyph glyph-name="A" unicode="A" horiz-adv-x="592" 
d="M523 66q12 -23 16.5 -34.5t4 -24t-10.5 -21.5q-23 -21 -41 -21t-29.5 14.5t-11.5 36.5q0 15 7 24q-16 32 -45 110q-9 24 -24 60v-6q-6 0 -18.5 -2t-18.5 -2q-13 -1 -28 -1q-11 0 -33.5 1t-32.5 1q-14 0 -25 -2q-8 -1 -21.5 -4t-27.5 -5.5t-27 -2.5q-8 0 -16 0.5t-17 1
t-14 0.5q-6 -17 -12 -32q-41 -107 -53.5 -138t-20.5 -38l-44 54q2 2 58 147q18 49 47 147.5t59.5 176.5t74.5 143l15 -12l65 19q5 -19 12 -38t20.5 -49t17.5 -41q12 -29 27 -82.5t23 -74.5q12 -31 37.5 -95t38.5 -97q30 -78 48 -113zM345 263q3 1 6.5 1.5t8 1t6.5 0.5
q-17 45 -29 76q-10 25 -24.5 77.5t-24.5 77.5q-4 10 -10.5 24.5l-13 29t-11.5 26.5q-16 -28 -30.5 -58t-27.5 -67t-20.5 -60t-22 -70.5t-20.5 -64.5q17 4 25 4q50 0 67 2q16 2 34 2q12 0 34 -1t32 -1h21z" />
    <glyph glyph-name="B" unicode="B" horiz-adv-x="624" 
d="M503 342q43 -24 67.5 -64.5t24.5 -94.5q0 -17 -2 -32q-5 -38 -35 -77t-54 -47q-59 -21 -105 -29.5t-131 -8.5q-20 0 -42 0.5t-37 0.5v66q16 0 37.5 -0.5t41.5 -0.5q77 0 119 7.5t87 23.5q9 4 23 19t24.5 32t12.5 26q1 10 1 20q0 42 -25.5 70.5t-70.5 40.5q-7 2 -16 2
q-26 -7 -64 -11q-28 -3 -61 -3q-21 0 -56.5 -3.5t-54.5 -3.5v60q20 0 55.5 3.5t55.5 3.5q31 0 54 3l16 2v18q6 0 21.5 1t24.5 1q8 0 15 -1q39 22 50 71l-4 34q-7 56 -37 84q-7 7 -54 18q-39 10 -54.5 12t-57.5 2q-21 0 -75 -7q-6 -1 -23 -2q0 -24 2 -88.5t2 -99.5
q0 -25 -1 -75.5t-1 -75.5q0 -38 1 -68q1 -13 6 -66.5t5 -83.5h-60q0 25 -5 76t-6 69q-1 33 -1 73q0 26 1 76.5t1 74.5q0 34 -2 97t-2 86q-65 -8 -65 -20h-60q0 30 17.5 50.5t46.5 29.5t53.5 13t52.5 5t30 1q59 8 83 8q59 0 126 -9q47 -6 81 -38q44 -41 55 -132q0 -1 1 -4
t1.5 -7.5t1.5 -11t1 -12.5v-13.5t-2 -13.5q-11 -49 -34 -77z" />
    <glyph glyph-name="C" unicode="C" horiz-adv-x="565" 
d="M460 117l60 10q0 -16 -23 -60q-42 -78 -159 -78q-36 0 -55 2h-12t-21.5 1t-20.5 4.5t-16 8.5q-10 11 -23 34.5t-19 32.5q-57 75 -78.5 137.5t-21.5 137.5q0 78 26 144q19 51 102 110t130 59q23 0 87 -23q3 -1 13 -4.5t15.5 -5.5t15 -6.5t16 -8.5t13.5 -10t12 -13l-48 -48
l-58 21q-4 1 -30.5 14.5t-35.5 13.5q-39 0 -102 -48t-74 -79q-22 -57 -22 -116q0 -66 19 -120.5t73 -124.5q15 -20 21.5 -33t12.5 -20q0 1 -1 2q-5 11 -4 12.5t13 -0.5q13 -2 23 -3q16 -1 50 -1q39 0 68 10t38 26q5 9 11 21l4 9z" />
    <glyph glyph-name="D" unicode="D" horiz-adv-x="655" 
d="M359 651q58 0 108 -28.5t81.5 -73.5t49.5 -97.5t18 -102.5q0 -42 -7 -74q-19 -80 -65.5 -149t-97.5 -89q-44 -18 -77 -24.5t-83 -9.5q-17 0 -63 -0.5t-70 -2.5l-7 -2q-5 2 -9 11.5t-4 53.5q0 12 1 54t1 50q-1 16 -1 34q0 30 2.5 91t2.5 91q0 36 -4.5 101.5t-4.5 90.5
h-14.5h-4.5l-36 54q25 19 131 19q41 0 84 -2q21 -1 32.5 2t36.5 3zM550 293q6 25 6 56q0 91 -59 161.5t-138 70.5l-27 -3t-45 -2q-42 2 -81 2q-1 0 -16 -1q0 -23 2.5 -59t4.5 -70.5t2 -64.5q0 -32 -2.5 -93t-2.5 -89q0 -17 1 -32q0 -6 -0.5 -23.5t-1 -40t-0.5 -33.5
q88 1 90 1q88 6 141 28q40 16 75.5 73t50.5 119z" />
    <glyph glyph-name="E" unicode="E" horiz-adv-x="574" 
d="M456 78l60 -50q0 -15 -17.5 -18.5t-70.5 -3.5h-10q-14 0 -100.5 -2.5t-124.5 -2.5q-94 0 -119 15q-4 2 -6 4t-2.5 4.5t0 7t1.5 9.5t3 15.5t4 21.5q8 57 14 163q2 21 2 42q0 58 -12 165q-3 27 -5 76.5t-4 68.5l20 2v51q163 0 285 11q10 1 20 1q13 0 34.5 -2t36 -2t27.5 5
v-80q-16 -5 -32 -5t-36 2t-30 2q-7 0 -14 -1q-107 -9 -239 -11q5 -97 6 -109q5 -44 8 -71q11 1 23 1q26 0 78 -3.5t75 -3.5q18 0 31 1q10 1 18.5 2.5t18.5 3.5q13 4 17.5 2.5t1.5 -14.5l30 -56q-11 -11 -80 -17q-16 -2 -37 -2q-25 0 -77 3.5t-76 3.5q-10 0 -19 -1
q1 -12 1 -23q0 -24 -2 -46q-6 -96 -13 -154q29 -2 48 -2q37 0 123.5 2.5t101.5 2.5z" />
    <glyph glyph-name="F" unicode="F" horiz-adv-x="529" 
d="M504 572q-151 0 -364 -6q-3 -36 -2 -48q1 -26 7.5 -76t7.5 -63q13 1 30 2t28 1.5t13 0.5q23 1 95.5 2t105.5 3l4 -80q-20 -1 -48.5 -2t-52.5 -1t-53 -0.5t-48 -1.5q-3 0 -13.5 -0.5t-27.5 -1.5t-30 -2v-1v-2q-10 -200 4 -293l-69 -12q-16 102 -5 301q2 42 -7.5 119.5
t-10.5 102.5q-1 19 1.5 51t2.5 45h20l-1 34q244 8 413 8v-80z" />
    <glyph glyph-name="G" unicode="G" horiz-adv-x="637" 
d="M638 273q-43 0 -81 -1l-32 -41q-8 -55 -31.5 -118.5t-48.5 -85.5q-34 -30 -83 -34q-41 -4 -105 -4q-30 0 -50 3.5t-31 11t-17 18.5q-7 15 -30 54.5t-35 68.5t-15 56q0 8 -11 47q-5 19 -5 47q0 10 2 44q1 18 6.5 36t15.5 40t14 33q36 104 80 148q27 27 75.5 44.5
t87.5 17.5q93 0 174 -80l-50 -56q-57 56 -124 56q-16 0 -38 -5t-43.5 -14t-31.5 -20q-36 -35 -64 -118q-7 -17 -15 -36.5t-12.5 -31t-4.5 -18.5q-2 -33 -2 -40q0 -16 2 -25q8 -27 9 -38q3 -22 11.5 -46t16 -38.5t23 -40.5t20.5 -36q1 0 5.5 -0.5t14.5 -1t22 -0.5q62 0 98 3
q30 3 44 16q18 15 38.5 78.5t20.5 96.5l15 5q-13 0 -25 -1q-79 -5 -89 -14l-59 36q26 20 56 27t88 11q112 6 194 6v-60zM518 222z" />
    <glyph glyph-name="H" unicode="H" horiz-adv-x="717" 
d="M617 333q0 -71 5 -278q0 -5 3 -23.5t3 -31.5h-70q0 5 -2.5 22.5t-3.5 30.5q-4 180 -5 235q-19 1 -58.5 4t-50.5 3q-51 0 -145.5 -5.5t-137.5 -6.5v-12q0 -50 -7 -138.5t-7 -134.5h-70q0 50 7 138.5t7 134.5q0 40 -4 117t-4 89q-1 19 -1 40q0 23 1.5 68t1.5 66h70
q0 -23 -1.5 -67.5t-1.5 -66.5q0 -20 1 -37q1 -23 3 -66.5t3 -60.5q42 1 137.5 6.5t147.5 5.5q13 0 52.5 -3t56.5 -4q0 39 1 66q1 31 3.5 73t5 81.5t2.5 70.5h70q0 -42 -5 -119t-6 -108q-1 -42 -1 -89z" />
    <glyph glyph-name="I" unicode="I" horiz-adv-x="255" 
d="M176 0h-70q0 188 -9 398q-1 18 -1 38q0 37 3.5 109t3.5 105h70q0 -36 -3.5 -108t-3.5 -106q0 -18 1 -35q9 -211 9 -401z" />
    <glyph glyph-name="J" unicode="J" horiz-adv-x="323" 
d="M-40 -152l65 -29q7 17 9.5 23.5t5.5 9.5t6 4t10.5 8.5t18.5 21.5q58 72 77 180q6 29 6 73q0 22 -3 69.5t-3 68.5q1 46 -6 287v86h70v-84q7 -239 6 -287q0 -20 3 -67.5t3 -72.5q0 -52 -7 -87q-23 -131 -91 -216q-54 -68 -116 -76q-50 -7 -61 30q-6 24 7 58z" />
    <glyph glyph-name="K" unicode="K" horiz-adv-x="551" 
d="M357 199q11 -11 40.5 -36.5t44.5 -41.5q1 -1 17 -17.5t30 -30.5l14 -14v-80q-17 0 -42 20.5t-69 65.5q-9 9 -24.5 22.5t-32 28.5t-29.5 29q-12 13 -22.5 23t-27 24t-22.5 19q-3 3 -22 16.5t-32.5 27.5t-24.5 32q-8 -189 -8 -288h-70q0 64 2 130.5t6 157.5t6 129
q1 39 -6 117.5t-7 116.5h70q0 -32 7 -112t6 -125q-1 -24 -2 -52q14 18 35 38t43.5 39.5t27.5 24.5q22 21 43 44.5t47 55t40 48.5q14 15 36 33t25 22l50 -57q-12 -11 -32 -27.5t-26 -23.5q-13 -15 -32 -38t-33 -39.5t-32.5 -37t-36.5 -38.5q-7 -6 -42.5 -38t-50.5 -47
q7 -8 28.5 -24t30.5 -25q59 -51 77 -72zM157 318l-1 -21l21 12z" />
    <glyph glyph-name="L" unicode="L" horiz-adv-x="540" 
d="M342 63q23 0 71 1.5t72 1.5v-66q-23 0 -71 -1.5t-72 -1.5q-22 0 -64.5 3t-63.5 3q-10 0 -57 -5.5t-62 -4.5q-11 1 -11 19q0 15 0.5 43t0.5 42q0 41 -1 60q-2 23 -2 68.5t-2 67.5l-7 77t-6 103q0 4 0.5 16t0.5 18q-3 73 8 123q1 7 4 15l1 3h60q0 -32 -6 -37l-1 3
q-3 -17 -4 -39t-1.5 -44t-0.5 -29q-1 -14 -1 -29q0 -24 2.5 -53t5.5 -64t5 -58q2 -25 2 -70t1 -65q2 -22 2 -66v-35q56 7 69 7q23 0 65.5 -3t62.5 -3z" />
    <glyph glyph-name="M" unicode="M" horiz-adv-x="888" 
d="M809 428q6 -56 6 -114q0 -90 -8 -204q-1 -15 -1.5 -38.5t-1.5 -32.5t-4 -21.5t-8.5 -16.5t-16 -7.5t-27.5 -3.5v31q-13 0 -15.5 7.5t0.5 30.5q3 31 4 55q8 186 8 200q0 53 -5 105q-9 73 -12 130q0 12 -1 31q-8 -13 -19 -35.5t-13 -25.5q-20 -34 -46 -96t-27 -63
q-4 -11 -56 -141q-34 -84 -65 -131q4 -6 7 -12l-26 -43q-6 -22 -17.5 -31t-23.5 -6t-22 9t-13 12t-2 26.5t-1 30.5l-1 5q-10 18 -34.5 62t-38.5 74q-37 80 -102 183q-13 20 -31 61t-26 54q-6 12 -24 42q-1 -37 -3.5 -122t-3.5 -130q-1 -41 -1 -84q0 -67 2 -139q1 -60 1 -80
h-70q0 19 -1 78q-2 73 -2 141q0 43 1 85t4.5 159.5t3.5 180.5h64l31 15q7 -16 30 -55t30 -53q9 -17 26 -54t28 -56q11 -21 45 -84t57 -99q8 -13 20 -29t26.5 -34.5t25.5 -34.5q18 31 41 89q49 124 56 139q8 18 23.5 55.5t28 65t25.5 50.5q2 2 12 21.5t19 36t22.5 34.5
t25.5 25l84 -61v-17v-1q1 -30 1 -44q3 -54 11 -125z" />
    <glyph glyph-name="N" unicode="N" horiz-adv-x="766" 
d="M706 -8l9 -3t22 -7.5t16 -5.5l-22 -76l-48 16q-21 8 -48 36t-59.5 70.5t-35.5 45.5q-19 22 -63.5 67.5t-66.5 71.5q-19 23 -37 48.5t-44 65.5t-34 52q-89 133 -115 165q-4 6 -11 14.5t-13.5 17t-12.5 15.5l-1 2q-2 -16 -2 -26q0 -52 3 -158t3 -159q0 -40 3 -121.5
t3 -122.5h-70q0 40 -3 121t-3 123q0 52 -3 157.5t-3 159.5q0 17 2.5 39.5t2.5 27.5l110 25q11 -15 14 -19q5 -6 17 -21.5t20 -24.5q24 -31 117 -171q8 -11 33 -49.5t42 -62.5t36 -46q17 -20 61 -65t68 -74q5 -5 11 -13q-2 48 -6 179v43q0 33 1.5 99t1.5 98q0 13 -2.5 57.5
t-0.5 65.5l69 -4q0 -13 1 -33.5t2 -44.5t1 -41q0 -33 -1.5 -99t-1.5 -98v-41q4 -143 7 -197q0 -6 3 -33.5t3 -45.5q16 -16 25 -20zM145 617v11v-11zM128 606l4 -5q-1 2 -4 5z" />
    <glyph glyph-name="O" unicode="O" horiz-adv-x="649" 
d="M596 476q16 -88 10 -170q-3 -49 -21.5 -108.5t-55 -116t-80.5 -74.5q-18 -7 -65 -11.5t-85 -4.5q-59 0 -136 57q-11 8 -19.5 18t-13.5 18t-10.5 22.5t-7 20.5t-5.5 24t-5 22q-10 40 -27 145q0 1 -3 8t-5 15t0 15q8 38 29 86.5t51 95.5t71 80.5t81 37.5q11 1 19 1
q46 0 107.5 -19t96.5 -48q2 -2 6 -5q14 -12 20 -17t13 -12t9.5 -11.5t2.5 -8.5q5 1 8.5 -2t6 -8t4 -11t2.5 -13t1 -12.5t0.5 -9.5zM536 312q5 71 -9 150l-50 67q-24 20 -74.5 34t-84.5 14h-11q-43 -4 -94 -72t-73 -145q1 -13 4 -29q17 -100 26 -140q12 -48 16 -58.5
t18 -20.5q57 -41 95 -41q30 0 72 3.5t52 7.5q39 15 73.5 85.5t39.5 144.5z" />
    <glyph glyph-name="P" unicode="P" horiz-adv-x="580" 
d="M499 568q10 -14 18.5 -36t13.5 -50t5 -57q0 -58 -39.5 -111.5t-88.5 -68.5q-41 -13 -181 -13l-9 70q140 0 169 9q28 9 53.5 45t25.5 69q0 65 -23 94q-25 33 -67.5 49.5t-115.5 16.5q-7 0 -21.5 -4.5t-22.5 -4.5q-33 1 -73 -8q-3 -16 -2 -31q4 -49 7.5 -138.5t5.5 -124.5
q1 -31 1 -74v-37v-37q0 -73 7 -119l-70 -12q-7 52 -7 131v37v37q0 41 -1 69q-2 36 -5.5 125t-7.5 137l5 109l135 8q9 0 25 4.5t24 4.5q93 0 147 -20t92 -69z" />
    <glyph glyph-name="Q" unicode="Q" horiz-adv-x="673" 
d="M166 56q-49 48 -72 121q-27 85 -27 130q0 93 24 159q24 67 64 116.5t81 62.5q9 3 31 6t48 5t47 2q26 0 39 -4q12 -3 22.5 -8t28.5 -17l18 -12q15 -9 32 -25.5t29 -22.5l-22 -49l34 29q36 -74 36 -97q0 -4 2.5 -14t5 -21.5t2.5 -18.5q3 -58 3 -99q0 -85 -77 -208
q-28 -45 -79 -70.5t-112 -25.5q-97 0 -158 61zM137 307q0 -31 24 -106q16 -50 54 -88t109 -38q43 0 79 16.5t53 42.5q66 106 66 165q0 39 -3 94q0 2 -2.5 11.5t-5 23t-2.5 24.5q0 2 -23 48l4 3q-12 8 -32 26t-24 20q-5 3 -13.5 8.5t-13.5 8.5t-11.5 6.5t-12.5 4.5
q-3 1 -21 1q-16 0 -38.5 -1.5t-41.5 -3.5t-24 -3q-27 -10 -55.5 -46t-46.5 -85q-19 -55 -19 -132zM1265 -243l-21 -11q-36 -17 -121 -23h-31q-8 0 -68 -0.5t-83.5 0t-65 4t-68.5 10.5q-5 2 -12 4t-11.5 4t-11 3.5t-12.5 3.5q-115 22 -179 46h1q-24 8 -72.5 22t-73.5 24l-1 1
q-4 1 -28.5 10t-39.5 16l-1 1q-36 17 -77 27q-18 11 -24 11q-26 0 -45.5 -15t-19.5 -27l2 -5q0 -6 17 -30l-57 -47q-22 31 -28 54q-4 13 -4 28q0 48 42 80t103 32q9 0 25 -2q15 -3 31 -10t37.5 -18.5t27.5 -14.5q10 -4 33 -12.5t33 -12.5h-1q27 -10 74.5 -24t69.5 -22h1
q56 -21 167 -43q7 -1 51 -15q25 -6 62.5 -9.5t63.5 -3.5t76.5 0.5t65.5 0.5h29q76 5 96 17q2 0 8.5 4t13 7t13.5 4z" />
    <glyph glyph-name="R" unicode="R" horiz-adv-x="633" 
d="M687 -26l22 -66q-25 -9 -56 -9q-48 0 -82 22q-13 9 -30 28.5t-36 45.5t-20 27q-108 135 -140 190q-1 3 -4 5.5t-5.5 3.5t-5.5 3t-4 3l13 20l-10 -5q-10 -4 -20 -10t-15.5 -9t-14.5 -9q-18 -13 -25.5 -13t-7.5 20h-59v-15q0 -31 -1.5 -82.5t-1.5 -81.5q0 -55 -31 -55
l-39 21l3 198q0 40 -2 120.5t-2 121.5q0 47 2 86q0 9 1 19q-14 -2 -30 -5q-48 -13 -70 -5.5t-22 45.5l80 38q63 12 105 14q35 2 71 2q72 0 153 -9q3 0 9.5 -0.5t12 -1t13 -2.5t13.5 -5q54 -25 86 -87q10 -19 10 -50q0 -41 -20 -90t-45 -70q-35 -29 -95 -58q2 -2 4.5 -6
t4.5 -6.5t3 -3.5q23 -28 83.5 -107.5t63.5 -83.5q4 -6 13.5 -20t18 -26t18 -23.5t14.5 -14.5q13 -9 43 -9q21 0 34 5zM299 315q7 3 30 13.5t32.5 15t26 13t28.5 16t22 16.5q9 8 18.5 25t15 37t5.5 36q0 9 -2 13q-18 35 -54 52l-26 2q-77 8 -145 8q-31 0 -61 -1
q-4 -21 -4 -30q-2 -38 -2 -83q0 -22 0.5 -48.5t1 -48t1 -50t0.5 -48.5q5 6 11.5 11t19 12t20.5 10.5t30 13.5t32 15z" />
    <glyph glyph-name="S" unicode="S" horiz-adv-x="545" 
d="M55 116l19 76q4 -1 9 -7.5t10 -13.5t7 -8q8 -7 31.5 -29t41.5 -35t37 -20q35 -12 106 -12q59 0 93 28q15 12 25.5 32.5t10.5 36.5v4q0 11 -1.5 18t-7.5 19t-21.5 27t-41.5 35q-21 16 -58 32t-67.5 28.5t-67 43t-64.5 75.5q-22 37 -22 72q0 46 19 73.5t61 43.5
q68 25 131 25q81 0 159 -51l-32 -67q-59 38 -127 38q-56 0 -110 -20q-30 -12 -35.5 -17.5t-5.5 -24.5q0 -8 14 -31t31 -39.5t34 -25.5t38.5 -19t41.5 -17.5t46 -22t50 -33.5q20 -15 36 -32t26.5 -32.5t17.5 -30t10 -28t4.5 -23.5t1.5 -20q0 -34 -17 -73t-41 -58
q-32 -26 -59.5 -36t-71.5 -10q-78 0 -126 17q-22 8 -43.5 23.5t-50 41.5t-35.5 32z" />
    <glyph glyph-name="T" unicode="T" horiz-adv-x="550" 
d="M517 653v-80q-102 0 -189 -5q-1 -25 -6 -76t-6 -77q-5 -170 -5 -415h-70q0 247 5 418q1 28 6 78t6 68h-4q-25 -2 -69.5 -7t-81.5 -8t-70 -3v80q31 0 66.5 3t79.5 7.5t69 6.5q120 10 269 10z" />
    <glyph glyph-name="U" unicode="U" horiz-adv-x="599" 
d="M455 645l70 10q16 -123 16 -361v-26.5v-28.5q0 -83 -26 -137q-19 -40 -38 -55q-64 -51 -116 -53q-18 -1 -33 -1q-163 0 -219 106q-29 55 -29 148v55q1 30 1 64q0 44 -1.5 141.5t-1.5 141.5h70q0 -43 1.5 -140.5t1.5 -142.5q0 -36 -1 -66v-53q0 -71 21 -111
q38 -73 157 -73q14 0 30 1q38 2 76 46q12 14 18 27q12 24 15.5 43.5t3.5 58.5v27.5v27.5q0 233 -16 351z" />
    <glyph glyph-name="V" unicode="V" horiz-adv-x="566" 
d="M498 646h70q0 -6 -2 -12t-5 -13.5t-3 -8.5q-21 -56 -68 -154.5t-56 -119.5q-8 -19 -17.5 -58t-13.5 -51q-33 -102 -63 -194q1 -4 3 -7l-6 -3l-4 -11l-10 3l-43 -24q-7 13 -15.5 39t-12.5 37q-6 13 -15 31.5t-17.5 37t-14.5 34.5q-5 13 -10.5 37.5t-8.5 33.5
q-54 178 -79 306q-14 71 -14 97h70q0 -17 12 -82q24 -121 78 -297q4 -12 9 -35t9 -33q5 -13 28 -61q18 57 37 116q2 7 13 49.5t21 66.5q15 34 60 129t62 141l6 18v-12z" />
    <glyph glyph-name="W" unicode="W" horiz-adv-x="920" 
d="M814 659l67 -22q-2 -9 -27 -97q-14 -49 -33.5 -122.5t-38 -140.5t-34.5 -122q-26 -90 -47 -139q-15 -36 -29.5 -45.5t-36.5 5.5q-15 12 -31.5 52t-46.5 128q-57 172 -72 225q-3 -8 -34 -94t-51 -132q-8 -17 -57 -118q-8 -16 -17 -35q-2 -4 -2 -6l-68 -10q-7 16 -4 36
q-4 47 -36 155q-64 218 -85 318q-6 28 -38 151l67 20q33 -122 40 -155q18 -86 85 -318q16 -57 20 -71q20 41 31 65q21 48 58 152t62 159q-16 77 -23 153l69 8q3 -26 6.5 -51.5t7 -47.5t9.5 -49t10.5 -45t12.5 -47t12.5 -44.5t15 -47.5t15 -46t16.5 -50t17 -50q18 -56 30 -89
q12 33 27 85q21 72 57 205t49 179q25 92 27 98z" />
    <glyph glyph-name="X" unicode="X" horiz-adv-x="616" 
d="M546 91q2 -3 13.5 -17t19.5 -26.5t15 -26.5l-62 -36q-4 8 -10.5 17t-16.5 22t-15 20q-46 63 -128 165q-1 1 -45 61q-36 -46 -55 -72q-38 -50 -92 -140q-2 -4 -13 -24.5t-20 -34t-20 -23.5l-49 57q8 7 14.5 17t15.5 26.5t12 22.5q59 97 96 147q20 28 62 82q-16 18 -27 35
q-16 23 -32 51.5t-35.5 65.5t-29.5 54q-6 12 -28.5 42t-32.5 51l62 37q5 -11 27 -40.5t33 -50.5q10 -16 28.5 -52t34 -63t31.5 -51q6 -8 15 -19q67 88 105 152q12 20 43.5 57t37.5 56l67 -26q-7 -21 -20 -41.5t-25 -34t-25 -28.5t-18 -24q-43 -73 -116 -168q4 -5 7 -10
q1 -1 18.5 -25t27.5 -37q81 -99 130 -168z" />
    <glyph glyph-name="Y" unicode="Y" horiz-adv-x="546" 
d="M501 658l50 -55q-21 -22 -41 -76.5t-31 -74.5q-13 -26 -39 -65t-31 -47q-7 -13 -18 -31.5t-20.5 -35t-17.5 -29.5q-1 -14 -3.5 -32.5t-1.5 -24.5q0 -21 5 -86t5 -102h-70q0 26 -2 58t-4.5 67t-3.5 60q-1 15 2 31.5t3 22.5l43 6l-21 16h-25l-25.5 40.5t-31.5 50.5
q-10 16 -30 46.5t-36.5 57.5t-30.5 52q-6 13 -14 31t-13 30t-13 26t-18 24l50 56q17 -17 30 -40.5t24.5 -51.5t15.5 -37q12 -22 27 -46.5t35.5 -55.5t32.5 -50q30 -49 38 -62q26 45 28 50q10 15 34.5 52t33.5 56q9 16 21.5 51.5t27.5 66t35 51.5z" />
    <glyph glyph-name="Z" unicode="Z" horiz-adv-x="639" 
d="M1262 -205q4 -23 -2 -41l1 -1q-11 -42 -51.5 -67.5t-94.5 -25.5q-145 0 -353 108q-7 3 -23.5 11.5t-26 13.5t-23.5 12.5t-26 16t-23 17.5q-15 13 -35 26t-53.5 33.5t-50.5 30.5q-6 4 -26 16.5t-27.5 17.5t-25 15t-27.5 15t-25.5 12.5t-29.5 12t-29 8.5q-35 9 -71 9
q-44 0 -73 -5t-58 -24q-64 -40 -81 -40l-10 49l-32 -22q0 13 -0.5 22.5t5.5 21.5t10.5 20.5t13 19.5t15 17.5t16 15.5t15.5 13.5t13.5 10.5t10.5 8q24 21 49 45.5t43.5 44t45.5 51t40.5 48t43 53t39.5 50.5q17 21 64 64t65 68q-60 -1 -89 4q-92 16 -134 16q-35 0 -44 -4
q-25 -10 -34.5 -25.5t-6.5 -43.5q1 -5 1.5 -11.5t1 -11t1.5 -6.5q1 -8 0 -8l-2 3l-8 7l-31 -46q-2 3 -7.5 7t-9 6.5t-6.5 7.5t-4 11q0 1 -3 40q-3 51 17.5 80t66.5 52q23 12 67 12q65 0 145 -16q23 -4 88 -4q5 0 17 5t20 4h1h3q16 17 36 28q6 3 14.5 9.5t14.5 9.5t14 3
l12 -18q1 0 1 -0.5t1 -0.5l24 -10q2 -6 2.5 -10t0.5 -6v-2q2 -14 2.5 -25.5t-2.5 -19t-5.5 -13t-9 -9t-10 -5.5t-13 -2.5t-12.5 -0.5h-13q-6 0 -28 -5q-4 -9 -8 -15q-17 -33 -44 -62t-58.5 -58t-47.5 -49q-11 -13 -48.5 -60t-54 -66t-47.5 -54.5t-58 -62t-57 -51.5
q1 0 -6 -5q51 17 113 17q44 0 85 -9q35 -7 75.5 -24.5t68 -34t71.5 -43.5q15 -10 39 -24.5t39.5 -24t34 -22t33.5 -24.5q31 -26 107 -63q56 -27 82.5 -39t74.5 -31.5t87.5 -27.5t77.5 -8q29 0 57 17t26 34q-1 4 0 6v1q-12 26 -13 31l66 19q12 -34 13 -40zM611 677h-1v-1z
" />
    <glyph glyph-name="bracketleft" unicode="[" horiz-adv-x="366" 
d="M268 787q12 0 51.5 0.5t52.5 0.5l-10 -72q-10 0 -28.5 -0.5t-36.5 -0.5h-29q-21 0 -38 1h-7q0 -20 -1 -33q-2 -20 -10 -72.5t-8 -62.5q3 -34 -14 -93.5t-19 -74.5q-1 -10 -2.5 -22t-2.5 -22.5t-2.5 -21.5t-3 -23t-3.5 -22q-1 -7 -4.5 -15t-7 -14.5t-7 -11.5t-6 -8.5
l-2.5 -3.5q-3 -15 -3.5 -48t-2.5 -49q-1 -10 -6 -55t-8 -64t-9.5 -53t-15.5 -61q10 3 18 4q74 7 79 8q48 10 58 10v-72q-6 0 -47 -9q-10 -2 -84 -9q-7 -1 -22 -4.5t-21 -3.5q-19 0 -30.5 15.5t-11.5 37.5q0 17 7 38t12.5 43t9.5 47.5t6.5 42t6 48.5t5.5 46q1 9 1.5 45
t4.5 58q4 17 10.5 30t11.5 18t5 4q4 19 8 56t6 52t4.5 33.5t4 31.5t4 27.5t5 29.5t6.5 31q23 103 26 145q1 15 1 42l-1 25q5 28 27 33q7 1 12 1q6 0 15 -1t12 -2h34zM223 727q4 5 2 9q-1 3 -2 0v-3v-6z" />
    <glyph glyph-name="backslash" unicode="\" horiz-adv-x="430" 
d="M393 -86q-5 9 -8.5 26t-5.5 34.5t-3 23.5q-20 83 -33 122q-6 17 -24.5 55.5t-26.5 61.5q-9 24 -14.5 68t-8.5 57q-3 12 -12.5 40.5t-13.5 43.5q-18 60 -29 73q-1 0 -18.5 16.5t-29.5 31.5t-16 30q-6 25 -6 64q0 9 0.5 27.5t0.5 26.5h54q0 -10 -0.5 -28t-0.5 -26
q0 -28 5 -46q-1 5 19.5 -15.5t30.5 -32.5q18 -18 41 -101l8 -24l10.5 -31.5t9.5 -31.5q4 -20 8.5 -59t11.5 -58q5 -13 23.5 -52t28.5 -67q12 -37 34 -128q2 -8 5.5 -34.5t7.5 -34.5z" />
    <glyph glyph-name="bracketright" unicode="]" horiz-adv-x="303" 
d="M280 767q13 -6 13.5 -28t-6.5 -71q-10 -97 -43 -205q-18 -62 -25.5 -148.5t-15.5 -174.5t-28 -155q-3 -8 -10.5 -60.5t-11.5 -60.5q-5 -10 -10.5 -13t-17.5 -3q-11 0 -56.5 1.5t-60.5 1.5v72q15 0 56.5 -1.5t44.5 -1.5q11 76 14 86q19 62 26 147t15 173.5t29 156.5
q31 106 41 193l24 26q-27 12 -108 12v72q89 0 130 -19z" />
    <glyph glyph-name="asciicircum" unicode="^" horiz-adv-x="587" 
d="M413 623q20 -56 20 -146h-50q0 83 -20 141q-4 10 -3 32q-3 -3 -7 -8t-6.5 -9.5t-6 -11t-5.5 -9.5q-5 -9 -23.5 -28.5t-22.5 -24.5q-20 -24 -28 -37.5t-16 -37.5l-48 22q7 22 13.5 37t15 27.5t11.5 16.5t14 17t20.5 23t15 16.5t8.5 10.5q1 2 9 15t17 25.5t15 16.5l3.5 3.5
l7 7t10 6.5t13.5 3q17 0 29 -17.5t12 -40.5v-19q0 7 -1 17q0 -5 -0.5 -15t0 -18t3.5 -15z" />
    <glyph glyph-name="underscore" unicode="_" horiz-adv-x="842" 
d="M654 -109v-72q-167 0 -291 -20q-17 -2 -36 -2q-21 0 -58 4t-46 4q-83 5 -161 5v72q80 0 165 -5q9 -1 45 -4.5t55 -3.5q16 0 28 2q129 20 299 20z" />
    <glyph glyph-name="grave" unicode="`" horiz-adv-x="587" 
d="M341 602l-38 -56q-27 27 -53.5 64.5t-44 74.5t-17.5 59h54q0 -11 36.5 -63t62.5 -79z" />
    <glyph glyph-name="a" unicode="a" horiz-adv-x="507" 
d="M470 147q0 -13 -8 -21q-4 -4 -8 -10.5t-8 -13.5t-8 -12q-2 -4 -14 -20.5t-17 -23.5t-15 -19.5t-18.5 -21.5t-17.5 -16q-5 -4 -9.5 -6.5t-8 -3.5l-7 -2t-5.5 -1h-2q-21 -11 -28 5q-9 17 -9 68q0 26 3 56.5t8.5 64t10 58t11.5 58.5t9 44q3 15 8 50l-8 -14l-6 -27h-3
q-2 0 -5 2q-10 -18 -25.5 -44t-19.5 -33q-10 -18 -39 -74t-48 -85q-11 -16 -31 -41.5t-26 -35.5q-38 -53 -51 -49q-15 5 -31.5 65.5t-16.5 83.5q0 92 5 127q6 41 21.5 90.5t44 99.5t60.5 66q11 5 23 5q18 0 44 -12.5t39 -21.5t42 -30q19 37 19 50h2q24 1 54 2q17 1 22.5 0.5
t5.5 -4.5v-31q-6 -37 -8 -45q-5 -20 -10.5 -58.5t-8.5 -50.5q-2 -13 -8 -42.5t-10.5 -51.5t-9 -49.5t-8 -53.5t-4.5 -48q12 12 53 68l7 11l14 22t8 12h3l23 -36h20zM223 304q6 10 21 35.5t23 40.5q-19 18 -30 27.5t-27.5 19t-28.5 9.5q-3 0 -3.5 10.5t1.5 15.5
q-34 -20 -59 -89.5t-34 -129.5q-5 -31 -5 -115h-1q4 -13 10 -41q11 16 27.5 36.5t20.5 27.5q22 32 49.5 85.5t35.5 67.5zM92 55h1h-1z" />
    <glyph glyph-name="b" unicode="b" horiz-adv-x="507" 
d="M487 451q12 -23 12 -58q0 -24 -15 -96q-7 -32 -23.5 -73.5t-41.5 -86t-54.5 -81.5t-65 -60.5t-69.5 -23.5q-11 0 -22.5 2t-23 6t-20.5 8t-21.5 9.5t-19.5 8.5q-3 1 -15.5 3.5t-18.5 6.5h-2l-1 17h1l-5 5v0q-1 1 -2 1l-7 10q0 2 1.5 5t3 8t2.5 8q7 23 12.5 69.5t9.5 66.5
q16 74 31 157t27 143l25 123q-15 0 -37.5 -1t-39 -1.5t-24.5 -0.5h-2v81h2q3 0 40.5 1t56.5 1l52 -20h1l6 -60l-1 -11q-6 -34 -25 -128q-12 -60 -25.5 -134t-24.5 -126q9 19 20 38q82 146 128 207q6 7 11.5 15t9.5 13.5t7.5 10.5t5.5 8t4.5 5.5t4 3.5t3.5 1.5t4 0t5 -1.5
q6 -2 25 -9t28 -11.5t23.5 -13t25 -20t18.5 -26.5zM431 314q14 66 14 79v10q-2 3 -6 10q-5 10 -55 29q-2 1 -3.5 1.5t-3.5 1t-4 1.5q-81 -111 -141 -218q-26 -45 -36 -71q-24 -58 -55 -69q0 -3 -1 -6q2 -1 3 -2h1q5 -2 18.5 -8t22.5 -9.5t21.5 -6.5t23.5 -3q33 0 67.5 28.5
t61 70t46 85t26.5 77.5z" />
    <glyph glyph-name="c" unicode="c" horiz-adv-x="382" 
d="M341 442q5 -13 5 -26q0 -14 -6 -32t-6 -23h-54q0 30 9 51q-8 10 -32 25q-15 11 -39 11q-26 0 -51.5 -18t-40.5 -48q-39 -77 -39 -159q0 -5 0.5 -15t0.5 -16q1 -7 4 -18.5t7.5 -27t7.5 -30.5l4 -47q11 11 32 -2q12 -6 32 -6q32 0 59 25q13 12 25 23t18 16t8 7h3l41 -47
q-8 -12 -17.5 -21.5t-23.5 -22t-17 -15.5q-49 -46 -96 -46q-32 0 -67 22q-35 23 -44 40q-4 6 -6 18t-3 23.5t-1 13.5q-17 66 -20 82q-2 36 -2 44q0 110 46 196q27 51 64 80t76 29q35 0 71 -25q34 -24 52 -61z" />
    <glyph glyph-name="d" unicode="d" horiz-adv-x="523" 
d="M450 186l35 -46q-12 -13 -46 -53t-61 -71t-30 -31q-21 -2 -32 18.5t-11 60.5q0 14 7 78q6 53 12 96q-5 -9 -11 -19t-10.5 -17t-8 -13t-3.5 -7q-7 -13 -25 -51t-29 -60.5t-30.5 -52t-38.5 -47.5h-1h-2q-17 0 -40 42q-41 75 -60 113q-30 54 -30 128q0 67 27 125
q6 14 14.5 26.5t20.5 28t16 20.5q35 49 60 67q5 5 18 5q23 0 80 -25.5t65 -25.5h2v-81h-2q-12 0 -41 13t-59 25.5t-44 13.5q-16 -12 -41 -48q-9 -12 -19 -24.5t-14.5 -18.5t-6.5 -10q-21 -47 -21 -91q0 -43 17 -78q2 -4 57 -109q16 22 28.5 46.5t29 60.5t24.5 51
q39 78 46 71q1 -1 1 -5h38q21 135 58 277q5 20 20 67h-81l-1.5 -1t-3 -1t-4 -0.5t-4.5 0.5t-4 3t-3 5.5t-1 9.5q2 2 -3 11.5t-9 19t3.5 19.5t29.5 14q14 3 30.5 3t36 -1.5t29.5 -1.5h1h2l9 -20h-1q33 -8 34 -37t-20 -88q-4 -14 -7 -22q-18 -59 -29 -122t-23 -149.5
t-24 -152.5q-4 -17 -5 -35q54 65 86 97h3z" />
    <glyph glyph-name="e" unicode="e" horiz-adv-x="405" 
d="M340 354q-43 -50 -93.5 -87t-120.5 -75q-4 -2 -20 -9q0 -33 9 -52q-1 -4 16.5 -22t37.5 -33l8 -6q2 0 8 -1t12.5 -2t15 -1.5t15.5 -0.5h18l63 72l42 -51l-74 -86h1q-14 -16 -50 -16q-24 0 -47 5.5t-34 12.5q-18 13 -39.5 36.5t-33.5 42.5l-2 1q-16 30 -20 80
q-25 -8 -32 -8h-2v80h2q5 0 36 12q6 52 21.5 105t36 95.5t41.5 61.5q12 10 44 19q16 3 31 3q48 0 121 -88q26 -30 18 -51q-3 -8 -8.5 -15t-12.5 -14zM185 465q-23 -22 -42.5 -77t-29.5 -118q34 15 49 23t41 24.5t48.5 37.5t46.5 50q0 1 1 2q-15 17 -33.5 30t-35.5 13
q-18 0 -23 -2q-11 -3 -16.5 3.5t-5.5 13.5z" />
    <glyph glyph-name="f" unicode="f" horiz-adv-x="360" 
d="M464 664h2v-80h-2q-84 0 -198 48q-4 1 -11 4q-3 -22 -12 -49.5t-10 -27.5q-5 -22 -12 -52q126 2 177 2h2v-70h-2q-47 0 -196 -3q-10 -43 -16 -72q-10 -56 -21.5 -144t-15.5 -110q-12 -85 -34 -166q-1 -6 -6 -31.5t-10 -42t-14.5 -37.5t-25.5 -32t-37 -11q-27 0 -82 26
q-22 11 -53 37l33 61h3q15 -13 40 -25q39 -19 59 -19q8 0 13 3.5t8.5 12t5.5 17.5t6 27.5t8 34.5q21 82 33 157q3 22 15 111t22 145q5 26 12 57h-68h-2v71h2h85q14 52 19 72q2 9 11.5 39.5t10.5 45.5q2 20 2 23q0 10 -5 15q-10 5 -9 18q3 22 43 7q34 -12 53 -20
q99 -42 177 -42z" />
    <glyph glyph-name="g" unicode="g" horiz-adv-x="498" 
d="M473 502q0 -11 1 -27t3 -30t3 -33.5t1 -36.5q0 -18 -1 -32q-24 -258 -79 -361q-2 -4 -10 -19.5t-11.5 -22t-13 -21.5t-16 -23t-19 -21.5t-24 -21.5t-28 -18.5t-34 -17t-40 -12t-47.5 -8.5q-9 -1 -23 -3.5t-24.5 -4t-24.5 -3t-25 -1.5t-23 2q-54 6 -89.5 44.5t-35.5 92.5
h55q0 -20 22.5 -36.5t54.5 -20.5q7 -1 16 -1t18.5 1l19 2t18 2.5t18.5 3t16 2.5q39 5 68.5 14.5t47.5 19.5t34.5 28t23.5 29t20 33q3 6 5 9q23 40 39.5 105.5t23 114.5t13.5 120q1 12 1 25q0 17 -2 40q-8 -24 -29 -54q-93 -132 -143 -186q-5 -5 -39 -38.5t-49 -53.5
q-61 -80 -93 -80q-9 0 -15 6q-16 16 -16 75q0 49 8 99q6 35 9.5 56.5t12 61t19 66.5t25 58.5t34.5 54t44 35.5q7 4 16 4q27 0 103 -39q2 -1 18.5 -8.5t27 -14t16.5 -14.5q4 10 4 40v4v9q0 27 23.5 40t47.5 3.5t24 -37.5zM213 231q56 59 139 177q19 27 21 32l-39 -46
q6 -8 -7 -4t-40 18q-59 30 -78 30h1l3 3q-44 -27 -67 -85.5t-43 -184.5q-5 -34 -7 -69q14 14 26 30q18 24 35 42.5t34 34.5t22 22z" />
    <glyph glyph-name="h" unicode="h" horiz-adv-x="525" 
d="M442 477q26 -28 41 -76t15 -103q0 -109 -43 -179q-5 -8 -16.5 -32.5t-23.5 -47t-21 -31.5q-18 -19 -27 -25t-26 -6q-25 0 -50 22.5t-44 62.5l46 35h3q7 -16 21 -27.5t24 -11.5q9 0 13 5q8 13 17.5 29.5t19.5 36t16 30.5q22 38 29 67t7 72q0 84 -41 126q-1 0 -4 4.5
t-7 8.5t-10 8.5t-15 7t-20 2.5q-3 0 -31.5 -41.5t-66.5 -100.5t-64 -104q-14 -24 -37 -65q-4 -7 -8 -15l-7 -35q-6 -33 -9 -53q-13 -96 -45 -96q-22 0 -41 49q-12 28 -1.5 57t52.5 112q1 4 9.5 48t12.5 66q8 37 15 68.5t11.5 52t12 53.5t14.5 65q4 18 10.5 56t10.5 56
q-12 1 -23 1q-13 0 -38.5 -1.5t-38.5 -1.5h-2v80h2q12 0 37.5 1.5t39.5 1.5q22 0 43 -3q14 -1 23.5 -14.5t12.5 -32t-1 -39.5q-4 -22 -11.5 -63t-11.5 -60q-9 -41 -16 -73.5t-14.5 -63t-11.5 -51.5q74 119 116.5 173.5t61.5 51.5q13 -2 25 -6.5t20.5 -9.5t16.5 -11.5t12 -11
t9.5 -11t6.5 -7.5z" />
    <glyph glyph-name="i" unicode="i" horiz-adv-x="230" 
d="M236 718h2v-98h-2q-13 0 -21.5 -3t-22 -11.5t-21.5 -12.5h-3l-28 87h1q8 4 22 12t22.5 13t22.5 9t28 4zM179 514q7 -9 6 -22.5t-12 -50.5h1v-1h-1q-2 -7 -7.5 -25.5t-8.5 -30.5q-26 -90 -59 -240q-3 -11 -8 -30.5t-7 -28.5q53 25 62 31l27 -68q-16 -11 -33 -19.5
t-33 -15.5t-20 -9l-18 -11q-36 -14 -40 39q-1 7 -1 15q0 20 4 41.5t10.5 46t6.5 27.5q36 159 60 244q2 5 3 11q-31 -11 -58 -11v81q31 0 77 19q7 3 14.5 6t10.5 4.5t7 3t6 0.5t5 -2t6 -4z" />
    <glyph glyph-name="j" unicode="j" horiz-adv-x="226" 
d="M248 686h1l-17 -93h-3q-9 2 -25 15t-24 13h-2v98h2q7 0 16.5 -3.5t18 -8t16 -9.5t12.5 -8.5zM180 518q37 -11 41 -108q2 -37 -2 -46q-2 -3 -3 2q-2 9 -3 36l-2 -19q-5 -32 -31 -150q-10 -44 -20.5 -88.5t-17.5 -79.5q-3 -12 -7.5 -34.5l-7 -35t-8 -32t-10.5 -32
t-14 -29.5t-19 -28.5t-25.5 -25.5t-33.5 -24t-42.5 -20t-53.5 -18h-2l-14 78h1q24 6 43.5 13.5t34.5 14t27 16.5t20.5 17.5t16 21t11.5 22.5t9 27.5t7.5 29.5t8.5 35q3 14 4 22q9 39 19.5 83t19.5 84q26 121 31 147q3 15 5 23v16q0 1 -1 2q0 3 2 2q-10 3 -32 -9t-43.5 -25.5
t-29.5 -13.5h-2v81h2q2 0 22.5 14.5t48.5 25.5t50 5z" />
    <glyph glyph-name="k" unicode="k" horiz-adv-x="533" 
d="M493 56h1l-28 -68h-3q-29 19 -56.5 48t-62.5 73t-48 59q-2 2 -13 20l-6 -3l-6.5 -4t-11 -6t-12.5 -5.5t-13.5 -4t-12.5 1.5t-11 7t-7 15.5t-3 25.5q0 13 3 23q-28 -38 -61 -90q-26 -40 -52 -96q0 -54 -15 -71q-26 -28 -46 -6q-21 24 -6 68l4 12q4 8 13 28q6 31 10.5 54.5
t8 39.5t8 34.5t8 31t10.5 39t12 48.5q9 32 14.5 55t12 48.5t12.5 51.5q12 46 31 130q-12 -5 -36.5 -16t-37.5 -16h-2l-17 77h2q16 6 41 17t33 14q19 7 27 13q19 13 30 13t21 -10q7 -4 7 -32q0 -9 -1.5 -17t-3.5 -14.5t-4 -11t-3.5 -7.5t-1.5 -4q-12 -79 -32 -156l-19 -76
t-20 -79.5t-15 -58.5q63 92 151 188q40 44 67.5 61t59.5 16q15 -1 24 -16t11 -29.5t1 -23.5h3q3 -14 3 -36q0 -9 -1 -24.5l-1 -15.5q-1 -27 -15.5 -54.5t-39.5 -52t-59 -43.5l-1 -1q10 -12 42 -52.5t57.5 -66.5t55.5 -45zM326 384q-59 -65 -97 -112l4 2h-1q2 2 5 4.5t4 3.5
t3.5 2.5t3.5 2l3 1.5t3.5 1t4 0.5t5.5 0.5q13 0 27 -11q13 7 21 12q85 49 87 83q0 5 0.5 10.5t0.5 9.5t0.5 8.5t0.5 8.5q0 9 -2 17h1q-13 6 -29.5 -3.5t-44.5 -40.5z" />
    <glyph glyph-name="l" unicode="l" horiz-adv-x="268" 
d="M213 164l18 -76h-2q-8 -3 -25.5 -19.5t-35.5 -33.5t-45.5 -31.5t-55.5 -14.5q-12 0 -25 2q-14 2 -19.5 17t-5.5 47q0 15 1 24q4 34 14.5 91t12.5 76q4 26 8 49.5t9.5 48t8.5 39.5t11 42t10.5 37t12.5 43.5t13 42.5q10 33 16 53q-36 -20 -57 -20h-2v81h2q16 0 52 22l29 18
q40 17 51 32q-11 -18 -7 -63q3 -32 -31 -146q-3 -8 -11.5 -36.5t-10.5 -36t-9 -30.5t-9 -31.5t-7 -28t-7.5 -31t-6 -29t-6 -33.5t-5.5 -34q-3 -26 -13.5 -81.5t-13.5 -82.5v-1q25 1 42 12.5t26 25.5t27.5 30.5t43.5 25.5h2z" />
    <glyph glyph-name="m" unicode="m" horiz-adv-x="885" 
d="M801 125l35 -58q-56 -55 -132 -81q-10 -3 -23.5 -8.5t-18 -7t-11.5 -1.5t-11.5 3.5t-11.5 11.5q-8 11 -8 31q0 21 8 33q2 5 9 38.5t13 48.5q54 138 69 226q3 14 -5 44h2q-73 23 -70 49q-16 -23 -18 -27q-11 -18 -50 -94q-18 -34 -29 -59.5t-24 -59t-21 -52.5
q-4 -11 -14 -34q-4 -18 -10 -38q-5 -17 -21 -55l-2 -6l-5 -12l-1 1q-9 -20 -17.5 -32.5t-16.5 -17.5t-12.5 8.5t-4.5 47.5q0 1 3 23q3 16 11 40q7 24 18 52q7 41 11 68.5t6.5 54.5t3.5 51t1 55q0 5 0.5 17t0.5 20q0 15 -2 24.5t-4 13t-7 9.5t-8 11q-3 -12 -10 -23t-12 -15
q-16 -25 -46 -81.5t-48 -84.5q-12 -17 -30 -44q-25 -39 -33.5 -49.5t-15.5 -12.5q-39 -50 -63 -85q-7 -9 -14.5 -19.5t-11.5 -16.5t-7 -11l-2 -4q-3 -11 -7 -20q-7 -13 -14 -18.5t-12 -3.5t-9 6.5t-7 13t-5 15t-3 13.5h-2q1 1 1 4v3q1 5 4 11q0 1 3.5 19.5t6.5 28.5
q33 120 90 285q9 26 11 32q2 5 8.5 24.5t10.5 32.5q-12 -3 -27 -10t-23 -12t-25.5 -16t-19.5 -13l-68 -47l-25 70l3 3l61 43q3 2 23.5 15.5t30.5 19t27.5 14.5t33 12.5t31.5 3.5q14 0 32 -5q13 -4 25 -7l16 -4t7.5 -2t1 -3t-4.5 -4.5t-8 -8t-11 -12.5t-12 -20t-12 -28
q-6 -21 -10.5 -39t-6 -24.5t-2.5 -14.5q0 -5 -0.5 -5.5t-3.5 0.5l-2 2q-7 -28 -18 -50q-26 -74 -44 -132q10 14 13 18q28 36 44 44l30 53q20 30 50.5 88t45.5 82q17 26 35.5 45t27.5 19q37 1 57 -34t20 -99q0 -9 -0.5 -21.5t-0.5 -15.5v-41q10 20 21 43q46 88 52 99
q6 10 29 44q27 42 49 4q4 3 13.5 3.5t23 -4t27 -14t26 -30.5t19.5 -50q6 -26 6 -61q-11 -103 -71 -248q-8 -19 -14 -50q72 25 109 62h3z" />
    <glyph glyph-name="n" unicode="n" horiz-adv-x="508" 
d="M479 199q0 -20 -30.5 -74.5t-42.5 -57.5q-1 -9 -4.5 -16.5t-7 -12.5t-14 -12t-17.5 -10.5t-26 -13.5t-31 -16q-21 -11 -35 11t-1 46q3 7 7 13.5t6 9.5t3.5 6l2.5 5q8 33 27 89q12 35 34.5 85.5t31.5 83.5t9 76q0 5 -20 22l-2 2q-6 -8 -46 -56q-71 -79 -102.5 -120
t-68.5 -106q-11 -21 -31.5 -54.5t-28.5 -46.5q-3 -7 -6.5 -12.5t-5 -8.5t-1.5 -5q-2 -8 -2 -15q-2 -18 -15.5 -25.5t-26 -0.5t-12.5 26v5v1v19q1 6 3 12q4 25 22 83q33 104 98 270q8 20 17 47h-1q-7 -5 -34.5 -33t-54 -50.5t-37.5 -22.5h-2v60h2q1 0 22.5 21.5t45 44.5
t28.5 26q6 4 17 12q25 16 34.5 21.5t19 4.5t19.5 -11q7 -6 9.5 -15t2 -17.5t-2.5 -17t-5 -14t-5 -8.5h1q-15 -54 -24 -77q-27 -67 -46 -116q60 101 131 177q2 3 8.5 11t14 17.5t17.5 20.5t18 19.5t16 14.5t13 6h2l20 -15q1 -1 9 -8t12 -11t11 -13t11 -17.5t7 -20.5t3 -26
q0 -30 -3.5 -57.5t-9.5 -48.5t-14.5 -44t-16 -40t-17.5 -40t-17 -42q-5 -17 -15 -50q1 -1 2 -4q14 44 53 98q22 31 22 16h50z" />
    <glyph glyph-name="o" unicode="o" horiz-adv-x="381" 
d="M339 512q23 0 23 -37q0 -10 -2 -26l-3 -24q-2 -32 -14 -133q-14 -113 -23 -148q21 26 19 14q-4 -26 -52 -97q-32 -47 -59 -71q-4 -4 -7.5 -6t-6 -3.5t-6.5 -2t-5.5 -0.5h-8.5h-11q-65 0 -67 1q-6 2 -34 13t-41 19q-37 23 -33 82q4 55 27 128q6 17 14.5 48t15.5 52.5
t17.5 48.5t25 51t33.5 44q-16 7 -6 13q5 3 26 11q59 22 157 22h2l-2 -20l20 21h1zM196 59q9 15 21.5 29t22 24t12.5 14q26 40 38 169q1 13 6 59.5t7 70.5v5q-85 0 -128 -17l2 -1h1q-13 -14 -24.5 -31t-18.5 -30.5t-15 -36t-11.5 -34.5t-11 -39.5t-11.5 -38.5
q-20 -71 -24 -109q-2 -22 8 -29q1 0 8 -1t19 -2t25 -1h4.5t12 -0.5t16 -0.5h18h17.5h6z" />
    <glyph glyph-name="p" unicode="p" horiz-adv-x="403" 
d="M382 531q12 -4 16 -17.5t4 -52.5q0 -94 -34 -208q-9 -30 -26 -67.5t-35.5 -70t-37 -58t-31.5 -33.5q-21 -13 -47 -20.5t-62 -10.5q-26 -146 -26 -225h-54q0 88 23 223h-21h-16h-15h-2v81h2h15.5h15.5h35q4 23 6 41q19 138 43 210q4 14 9 29l-32 -15q-6 -5 -23.5 -22.5
t-34 -28.5t-30.5 -11h-2v81h2q5 0 11 2.5t12 7t11.5 9t12 9.5t10.5 8q42 30 99 62q17 44 34 83q15 35 27 59t16.5 32t4.5 10h3l48 -22h2q-3 -11 -11.5 -30.5t-16.5 -35.5l-15.5 -31t-8.5 -16l-4 -8q2 1 16.5 8.5t22 11t20 9t23.5 8t21 2.5q9 0 20 -3zM209 92q12 8 29 32
t32.5 53t28 56.5t17.5 43.5q29 98 31 169l-132 -61q-10 -31 -29 -87q-23 -71 -40 -196l-4 -26q49 5 67 16z" />
    <glyph glyph-name="q" unicode="q" horiz-adv-x="457" 
d="M384 438q25 26 41 9q18 -20 -1 -61q-1 -2 -1 -4v0q-3 -5 -5 -11l-4 -12t-4 -10q-7 -19 -21.5 -54.5t-20.5 -51.5q-24 -61 -44 -170t-27 -139q-14 -50 -24 -74q27 -2 43 -2h2v-61h-2q-18 0 -51.5 2.5t-50.5 2.5h-43h-47q-2 17 -4.5 33.5t-4 20.5t1.5 8t6.5 2.5t18 -2.5
t29.5 -1h33l-2 2q9 17 18 23q12 24 24 67q8 28 14.5 60.5t13.5 72t11 60.5q-47 -62 -115 -106q-103 -67 -135 -57q-23 8 -23 71q0 45 7 102q28 220 155 333q25 22 40.5 30.5t30.5 8.5q14 0 29 -7.5t51 -31.5q21 -14 46 -24h2l2 -22l-21 -53h-3q-67 40 -82.5 48.5t-23.5 8.5
q-13 0 -35 -19q-61 -54 -94.5 -119t-43.5 -167q-5 -56 -5 -75q64 34 74 41q18 12 33 24.5t28.5 25.5t24.5 24t22 26t19 26t19 29t17.5 29.5t19 33t20.5 35.5q3 5 8.5 16.5t10.5 22t11.5 21t11.5 15.5z" />
    <glyph glyph-name="r" unicode="r" horiz-adv-x="403" 
d="M431 488l-14 -77l-51 2q-13 -5 -32 -30.5t-65 -97.5q-24 -37 -69.5 -95.5t-62.5 -85.5l-54 -69q-3 -12 -4 -18h-1q0 -20 -9 -37t-21 -17h-1l-54 20h-1v1q-1 3 -1 7q-1 9 3 20t10.5 20.5t13 18t12 15t5.5 9.5q5 21 15.5 59.5t14.5 54.5q6 28 20 69t16.5 49t10 36.5
t12.5 43.5q-54 -48 -64 -53h-2l-23 73h1q15 7 84 69q32 28 56 40q4 2 7.5 3.5t6.5 1.5h5t4.5 -1.5t4 -3t4 -4.5t4 -5l4.5 -6t5 -7q22 -32 3 -41q-7 -4 -11 -1q-16 -32 -29 -67q-6 -16 -30 -100q-6 -19 -16 -49.5t-11 -34.5q12 17 46.5 61.5t49.5 67.5q1 2 10.5 16.5
t16.5 25.5t19 28.5t21.5 30.5t20.5 26.5t20.5 22t16.5 10.5q22 8 38 8q15 0 43 -9h2z" />
    <glyph glyph-name="s" unicode="s" horiz-adv-x="327" 
d="M339 432q0 -13 -3 -23.5t-9 -15.5t-14 -5h-2l-21 30h1q-9 3 -13 11t-15 8q-4 0 -10 1q-16 0 -20.5 -3.5t-15.5 -22.5q-7 -13 -12 -22q-12 -22 -9 -59q1 -24 9.5 -82t10.5 -86q3 -55 -11 -90q-1 0 -5 -11t-6 -15t-7 -14.5t-9 -16.5t-9.5 -13.5t-11.5 -12t-12 -6.5
q-14 -4 -25 -4q-47 0 -87 36t-42 80h53l73 -35h4h4q4 2 6 3.5t4 5t3.5 7.5t6 13.5t8.5 18.5q11 21 8 54q-1 19 -9.5 77.5t-10.5 90.5q-3 68 15 101q3 5 9 19t11.5 23.5t16 21t27.5 17t39 5.5q26 0 52.5 -28.5t27.5 -57.5z" />
    <glyph glyph-name="t" unicode="t" horiz-adv-x="322" 
d="M318 451h2v-61h-2q-38 0 -150 1q-1 -3 -18 -41q-26 -58 -47 -142.5t-21 -134.5v-1q10 4 64 37q21 12 22 7h50q0 -30 -56.5 -78.5t-91.5 -48.5q-30 0 -39 45q-3 16 -3 39q0 65 22.5 162t44.5 147q2 3 5 10h-46h-2v61h2q30 0 71 -1q11 27 25.5 62.5t23.5 57t9 22.5h59
q0 -28 -48 -143h124z" />
    <glyph glyph-name="u" unicode="u" horiz-adv-x="573" 
d="M548 227h2q-28 -131 -155 -218q-34 -20 -59.5 -28.5t-31.5 0.5q-9 6 -12.5 24.5t-2 39t4 37t3.5 19.5q7 29 12 54q-68 -87 -126 -120l-120 -45q-6 0 -9 0.5t-7 2.5l-6 3t-8.5 5.5t-10.5 7.5h-1v26v7q4 12 8.5 28.5t8 27.5t7.5 23.5t6 23.5q15 60 55 146t52 122q1 3 4 9
q-89 -84 -95 -67l-38 -9h-2q0 11 1.5 18t4.5 13t12 14.5t18 16.5t30 25.5t40 35.5l1 1q9 7 17.5 15t15.5 13.5t15 11.5t13.5 10.5t11.5 9t10 8.5h3l36 -41q0 -2 -75.5 -184t-77.5 -188q-5 -24 -13 -49q15 4 32 11.5t27.5 13t12.5 6.5q104 66 216 255q10 17 18 31
q26 52 38 73q2 5 3 7h1q-1 9 -0.5 19t3 18.5t10 14t20 5.5t21 -17.5t6.5 -38.5t-39 -92q-12 -23 -22 -39q-1 -3 -4 -8.5t-4 -8.5q-55 -127 -76 -222q6 -12 6 -33q7 3 7 7h1q38 26 63.5 51.5t42 54t22.5 60.5h3z" />
    <glyph glyph-name="v" unicode="v" horiz-adv-x="493" 
d="M449 452q28 -65 28 -115q0 -52 -36 -127q-52 -106 -112 -149h-1v-1h1q-1 0 -15.5 -10t-24 -16t-26.5 -16.5t-29.5 -16.5t-26.5 -11t-24 -5q-35 0 -35 42q0 14 5.5 24.5t10.5 12.5q17 25 18 27q5 12 10.5 26t10.5 29.5t8 22.5q22 55 22 109q0 59 -28 111q-2 3 -7.5 13.5
t-7.5 13.5t-7.5 10t-10 9t-13 4t-18.5 2q-25 0 -31 -4h-1q-22 -5 -28 -6q-9 -12 -13 -23.5t-5.5 -29t-1.5 -54.5h-54v10q-1 27 0 44t5.5 44.5t17 47.5t31.5 33q11 8 39 13q20 6 41 6q22 0 37.5 -4.5t27.5 -17.5t19 -24t21 -36q1 -3 2 -4.5t2.5 -3.5t2.5 -4q34 -63 34 -150
q0 -75 -25 -138q-1 -4 -17 -47q5 2 53 35h1q31 22 51.5 48t41.5 69q31 64 31 92q0 27 -24 81q-5 10 -7.5 22t-6.5 18q-1 -10 -10 -6q-7 4 -14 13l36 58q-4 3 0 3q10 -2 25 -19q5 -6 10 -16t10 -22.5t6 -16.5h-1h2z" />
    <glyph glyph-name="w" unicode="w" horiz-adv-x="717" 
d="M708 447q4 -13 4 -37q0 -50 -23.5 -127.5t-41.5 -111.5q-15 -26 -42 -59q-22 -26 -40 -45.5t-34.5 -33t-31.5 -23.5l-42 -26q-31 -19 -47 -10t-10 42q5 27 22.5 61t18.5 37q28 89 28 158q0 28 -3 56q-2 26 -23 61q-4 -140 -71 -228q-54 -71 -76 -90q-7 -6 -14 -11
t-11.5 -8.5t-5.5 -4.5q-5 -11 -21 -27t-32 -28q-33 -23 -45 2q-14 25 12 61l2 4h-1q4 3 9.5 15.5t11 29.5t9.5 24q26 53 31 85q4 31 4 51q0 116 -59 166q-19 17 -46 17q-21 0 -40 -13t-30.5 -35t-11.5 -47h-54q0 69 41.5 122.5t94.5 53.5q40 0 82 -36q36 -31 56.5 -92
t20.5 -136q0 -38 -5 -65q-1 -8 -6 -47q7 8 14.5 18.5t14.5 22t11 16.5q31 43 45.5 85t15.5 105q0 6 0.5 18t0.5 17v10q-14 22 -14 46q0 45 18 49t41 -35q13 -8 26 -28q54 -79 60 -140q3 -31 3 -64q0 -84 -29 -177q32 25 67 68q29 34 37 47q19 33 39 98.5t20 101.5l1 -21
q1 18 -3 31q-14 39 -61 70h-1l28 68h2q18 -12 34 -29.5t29 -38.5t21 -43z" />
    <glyph glyph-name="x" unicode="x" horiz-adv-x="578" 
d="M576 463h2v-81h-2q-14 0 -23.5 8t-12.5 18t-8.5 18t-13.5 8h-3q-1 0 -2.5 -1t-3 -1.5t-2.5 -1.5q-139 -120 -182 -174q19 -54 35 -96q3 -7 9 -24t9.5 -26t11 -22t15.5 -23q3 -2 12 -2q18 0 33 23t15 49q2 3 -1 14l47 28h3q6 -13 6 -42q0 -56 -32.5 -104.5t-70.5 -48.5
q-31 0 -57 37q-11 13 -19.5 31.5t-18 45t-12.5 34.5q-13 31 -26 67q-44 -69 -64 -92q-26 -34 -45 -51l-15.5 -15.5t-14 -13.5l-11 -10t-10.5 -8q-19 -16 -38 -16q-39 0 -60.5 29t-21.5 82q0 14 1 30t2.5 29t1.5 19h54q0 -12 -2.5 -39t-2.5 -39q0 -22 4 -26t24 -4
q7 0 8.5 0.5t3.5 5.5h1q4 3 8 6.5t7.5 6.5l7 6t6 5.5l5.5 5.5t5 4q20 17 48 55q13 15 25 32.5t26.5 40.5t20.5 33q-8 23 -23 69.5t-22 68.5q-2 7 -4.5 16t-4.5 15t-5 11q-6 -2 -14.5 -9.5t-17 -17t-16 -18.5t-13 -16.5l-5.5 -7.5q-5 -5 -13 -14q-22 -23 -24 -16q-1 3 -1 7
h-51q0 6 1.5 12.5t4.5 12.5t6 11.5t7 10.5t8 9.5t7.5 8l6 6t4.5 4l2 1.5q1 1 9 11.5t16 20t20 22t22.5 21.5t22.5 15.5t21 6.5q14 0 24 -12q6 -4 11 -11.5t9.5 -18t7.5 -19t6.5 -20t4.5 -16.5q12 -34 36 -108q38 44 113 111q5 6 18 18.5t20 20t18 16t21 12.5q16 8 27 8
q19 0 34 -13t21.5 -26t2.5 -13z" />
    <glyph glyph-name="y" unicode="y" horiz-adv-x="457" 
d="M463 516q0 -55 -13.5 -136.5t-30.5 -140.5q-15 -49 -52 -120t-76 -130q1 -29 -2 -39q-2 -18 -15.5 -24t-27.5 3q-7 -8 -15.5 -17.5t-15 -16.5t-10.5 -13q-7 -9 -20.5 -31t-20.5 -30q-37 -44 -96 -94q-38 -33 -107 -53.5t-144 -20.5h-20q-56 4 -91 41q-29 24 -31.5 65.5
t24.5 47.5h2l40 -53q-1 -2 8.5 -6.5t23 -8.5t24.5 -5h20q38 0 82.5 7.5t81 20.5t51.5 26h2v1h-1q65 55 89 84q11 13 21 30.5t19 29.5q14 16 35 39.5t26 30.5q6 8 12 17l5 20q13 49 13 103q0 167 -83 276q-14 19 -33 32t-31 13q-39 0 -39 -100h-55q0 72 30 121.5t74 49.5
q46 0 97 -67q44 -56 69.5 -144.5t25.5 -180.5l-1 -9q46 83 60 127q22 79 22 246h2l29 -10l41 19h2z" />
    <glyph glyph-name="z" unicode="z" horiz-adv-x="515" 
d="M552 -356l38 -53q-15 -18 -33 -31.5t-28 -14.5q-12 -1 -32 -1q-127 0 -184 84q-66 98 -74 275q-1 9 1 36.5t2 35.5v7h-1q-4 9 -14 33t-16 37h4l-13 26q-1 -1 -4 -1q-16 0 -42 -12q-42 -41 -58 -54q-43 -35 -54 -43q-17 -17 -29 -17h-1l-30 37q1 19 16 43t39 44h1
q49 40 92 62q20 19 33 30h2v1h-1q15 12 36.5 29t36.5 29t26 23q54 55 93 103q-99 44 -156 93q-33 28 -56 41l-4 1q-5 -4 -11 -14h-2h2q-28 -41 -28 -55q0 -7 7.5 -27t7.5 -46h-54q0 6 -7.5 26t-7.5 47q0 46 37 100q2 4 7.5 13.5t9 14t9.5 11t12.5 9.5t14.5 3q6 0 20 -5
q24 -11 78 -57q17 -15 72.5 -46t96.5 -46q21 31 39 61l9.5 17.5t16 27t17 23.5t20 20.5t17.5 5.5q16 -3 22.5 -23t6.5 -60q0 -36 -32 -92.5t-58 -64.5q-12 -4 -18 -4q-10 0 -24 3q-51 -68 -119 -137q-25 -25 -63 -55q3 -3 5 -7q6 -7 15 -42q5 -10 14.5 -34t15.5 -36t6 -43
q0 -14 -1.5 -37.5t-1.5 -27.5q6 -150 65 -237q14 -20 54.5 -34t84.5 -14q20 0 26 1q5 1 14 8t12 10h3z" />
    <glyph glyph-name="braceleft" unicode="{" horiz-adv-x="491" 
d="M439 789q2 -1 6.5 -3.5t8.5 -4.5l4 -2v-72q-6 0 -13.5 3t-17 8t-10.5 6q-5 2 -15 2q-20 0 -48 -13.5t-41 -28.5q-11 -13 -14.5 -26.5t-7.5 -59.5q-1 -6 -4 -40t-5 -51.5t-7.5 -51t-12.5 -54.5t-18.5 -45.5t-26.5 -40.5q2 -1 4 -3q28 -22 30 -49q0 -8 3.5 -38t3.5 -47
q0 -18 -3 -32q-4 -24 -15.5 -72.5t-17 -82.5t-3.5 -67q0 5 36 -15q3 -2 5 -3q9 -4 14.5 -6t8 -2.5t9 0t10.5 0.5q29 0 53 20l35 -55q-44 -37 -88 -37h-7.5h-7t-6 0.5t-6 0.5t-5.5 1t-7 2t-7.5 3t-9.5 4t-10 5q-40 20 -54.5 35.5t-16.5 42.5q-2 41 3.5 80.5t18 90t15.5 68.5
q2 9 2 19q0 7 -1 16t-1.5 16.5t-2 18.5t-1.5 19q-1 0 -10 8q-34 26 -40 28q-34 -13 -58 -13q-17 0 -32 8q-17 8 -20 23q-6 12 -6 21t4 14.5t11.5 9.5t16 6t18.5 3t17 1h13h6q14 1 24 0q10 4 20 9l5 -8q14 9 25 27.5t17.5 34.5t11.5 47t7 45.5t5 50.5t4 43q0 2 1.5 17t2 21.5
t3.5 21t6 24t8.5 21t13.5 19.5q16 19 38.5 34.5t46.5 24.5t45 9q18 0 37 -9z" />
    <glyph glyph-name="bar" unicode="|" horiz-adv-x="318" 
d="M284 786l0.5 -12.5t1.5 -31t1 -34.5q0 -33 -4 -49q-17 -70 -55.5 -192.5t-47.5 -155.5q-3 -12 -6.5 -28t-5.5 -28t-4.5 -29t-4.5 -28q-11 -61 -35 -176q-13 -63 -26 -135v-26q0 1 -2.5 -11.5t-5 -24.5l-2.5 -12h-54q0 20 10 60q0 -2 -1 0q-1 10 2 27q14 76 27 137
q24 117 34 174q2 11 6 37t8 46t8 37q12 40 49.5 160.5t53.5 184.5q2 10 2 32q0 20 -1.5 48.5t-1.5 29.5h54z" />
    <glyph glyph-name="braceright" unicode="}" horiz-adv-x="467" 
d="M391 367q34 0 51 -16t14 -45q-8 -64 -81 -64q-33 0 -66 11q-7 2 -14 5q-11 -11 -20 -24h-6q-2 -26 -2 -73t-2 -78t-8 -71t-22 -76t-42 -69q-29 -36 -60 -49t-99 -20q-28 -2 -43.5 8.5t-15.5 33.5l54 30q39 4 61.5 8.5t36 12.5t24.5 21q30 38 44 80.5t15 75t1.5 92.5
t5.5 104q1 15 9 26t19 13q-29 41 -42 98q-5 19 -5 46q0 39 13 108.5t14 82.5l5 50q-1 0 -24 26q-7 1 -15 1q-7 0 -21 -0.5t-19 -0.5v72q4 0 18 0.5t22 0.5q22 0 35 -4q11 -4 20 -20q3 -3 10 -11t10 -11t7.5 -9.5t6.5 -11.5t3.5 -12t1.5 -15t-2.5 -28.5t-3.5 -32.5
q-2 -22 -14.5 -88t-12.5 -97q0 -17 3 -30q11 -49 39 -76q35 21 57 23q28 3 40 3zM250 232h3h-3z" />
    <glyph glyph-name="asciitilde" unicode="~" horiz-adv-x="489" 
d="M410 482h54q0 -50 -40 -91t-88 -41q-9 0 -20 2q-13 3 -29 14t-28.5 22.5t-25.5 23.5t-19 16q-10 5 -23 5q-29 0 -46 -33q-4 -8 -8.5 -9.5t-7 1.5t-2.5 8l-44 -10q0 14 14 42q36 73 94 73q22 0 49 -14q15 -8 30.5 -24t29 -28.5t27.5 -15.5q1 0 4 -5.5t5 -5.5q24 0 49 24.5
t25 45.5z" />
    <glyph glyph-name="exclamdown" unicode="&#xa1;" horiz-adv-x="198" 
d="M126 541h66q0 -64 -40 -99l-7 -4l-57 52q9 16 18.5 27.5t14.5 16.5t5 7zM85 341h54q0 -12 -1 -23t-2.5 -17t-4 -14t-3.5 -11q-3 -10 -3.5 -25t-1.5 -33.5t-4 -33.5q-6 -34 -19.5 -93t-20 -102.5t-6.5 -87.5h-54q0 50 7 98t21 108.5t19 89.5q2 11 3.5 44.5t6.5 52.5
q9 39 9 47z" />
    <glyph glyph-name="cent" unicode="&#xa2;" horiz-adv-x="382" 
d="M334 361h-54q0 30 9 51q-8 10 -32 25q-3 3 -7 4l-10.5 -28t-11 -30t-7.5 -25t-5 -27q-12 -190 -15 -220q-3 -20 -7 -48q22 6 40 23q13 12 25 23t18 16t8 7h3l41 -47q-8 -12 -17.5 -21.5t-23.5 -22t-17 -15.5q-24 -22 -46 -33t-44 -13q-1 -8 -2 -15q-1 -8 -2 -24.5
t-2 -23.5t-3.5 -21t-7.5 -30l-52 20q8 26 13 86q1 9 2 19q-9 5 -19 11q-35 23 -44 40q-4 6 -6 18t-3 23.5t-1 13.5q-17 66 -20 82q-2 36 -2 44q0 110 46 196q27 50 63 79t75 30q1 12 1 27q0 13 -1.5 41t-1.5 42h54q0 -12 1.5 -40t1.5 -43q0 -21 -2 -40q10 -5 20 -12
q34 -24 52 -61q5 -13 5 -26q0 -14 -6 -32t-6 -23zM111 69q10 10 28 0q6 32 8 51q3 28 15 215q3 43 28 107q-41 -15 -64 -60q-39 -77 -39 -159q0 -5 0.5 -15t0.5 -16q1 -7 4 -18.5t7.5 -27t7.5 -30.5z" />
    <glyph glyph-name="sterling" unicode="&#xa3;" horiz-adv-x="751" 
d="M646 132l38 -51l-15 -15q-27 -28 -40 -40.5t-36 -30t-43 -24.5t-49.5 -12.5t-65.5 -5.5q-61 0 -118 23q-28 11 -67.5 38t-59.5 36q-5 -9 -7.5 -12.5t-8.5 -9t-13 -8.5t-18 -6q-5 -1 -18 -4t-23 -4.5t-20 -1.5q-40 0 -69.5 20.5t-29.5 52.5q0 26 18 38t54 16q13 2 64 2
q11 0 26.5 -3t23.5 -3q27 44 73 161q-123 -1 -124 -1v52q26 0 75 0.5t68 0.5q3 8 3 10q3 32 11.5 73t35 103.5t63.5 103.5q18 21 36 28.5t47 7.5q57 0 100.5 -23t67 -65t23.5 -97h-54q0 53 -36.5 83t-100.5 30q-33 0 -43 -12q-25 -28 -42 -55t-27 -61t-15 -57t-12 -69
q25 0 48 -1q25 -1 88 -5t97 -4q51 0 91 7l9 -51q-46 -8 -100 -8q-28 0 -60.5 2t-67 4t-59.5 3q-27 1 -63 1q-37 -102 -72 -173q18 -9 54 -37t54 -35q44 -18 98 -18q85 0 131 32q21 15 80 75zM62 70l20 -4q15 0 26 5q-34 0 -46 -1z" />
    <glyph glyph-name="currency" unicode="&#xa4;" horiz-adv-x="596" 
d="M451 438q88 65 116 60l-12 -71q-7 1 -80 -50q14 -60 7 -101q-4 -22 -12 -40.5t-9 -24.5l-53 9q3 17 11.5 38t9.5 27q4 21 -3.5 55t-18.5 51q-14 20 -59 28q-51 9 -87 -5q-11 -4 -18.5 -9t-15.5 -11.5t-19 -11.5q-40 -20 -40 -21q-6 -14 -9 -28q-10 -56 24.5 -106
t89.5 -60q25 -4 49 1q47 10 50 13q10 8 38 33l34 -51l-6 -6t-7 -6t-6 -5q41 -44 76 -93l-46 -44q-26 36 -83 100q-6 -2 -42 -10q-37 -8 -70 -3q-60 11 -103 61q-17 -12 -53 -30.5t-42 -24.5l-35 50q19 18 96 58q-29 64 -17 132q4 24 12.5 44.5t27.5 35.5q-39 60 -58 90
l49 40q23 -39 63 -99q36 24 45 27q54 21 115 10q60 -11 91 -52z" />
    <glyph glyph-name="yen" unicode="&#xa5;" horiz-adv-x="546" 
d="M479 452q-13 -26 -39 -65t-31 -47q-5 -9 -10.5 -18.5t-12.5 -21.5t-10 -18h24.5t28 0.5t24.5 0.5v-62q-13 0 -40 -0.5t-41 -0.5h-21q-4 -30 -3 -33v-15h24.5t40.5 0.5t40 0.5v-62q-13 0 -40 -0.5t-41 -0.5h-20q6 -73 6 -111h-70q0 34 -7 119h-7h-9q-9 -2 -25.5 -9
t-29.5 -9q-16 -2 -35 -2q-7 0 -20.5 0.5t-19.5 0.5v62q7 0 20.5 -0.5t19.5 -0.5q16 0 27 1q7 2 25 9t29 9q9 1 18 1h4v4q-1 9 4 44h-8h-9q-9 -2 -25.5 -9t-29.5 -9q-16 -2 -35 -2q-7 0 -20.5 0.5t-19.5 0.5v62q7 0 20.5 -0.5t19.5 -0.5q16 0 27 1q7 2 25 9t29 9q3 0 6 1
q-27 41 -39 61q-10 16 -30 46.5t-36.5 57.5t-30.5 52q-6 13 -14 31t-13 30t-13 26t-18 24l50 56q17 -17 30 -40.5t24.5 -51.5t15.5 -37q12 -22 27 -46.5t35.5 -55.5t32.5 -50q30 -49 38 -62q26 45 28 50q10 15 34.5 52t33.5 56q9 16 21.5 51.5t27.5 66t35 51.5l50 -55
q-21 -22 -41 -76.5t-31 -74.5z" />
    <glyph glyph-name="brokenbar" unicode="&#xa6;" horiz-adv-x="275" 
d="M181 354h-54q0 38 8 76.5t19.5 79.5t16.5 63q11 57 11 107q0 9 -0.5 35.5t-0.5 45.5h54q0 -19 0.5 -45t0.5 -36q0 -58 -12 -121q-6 -28 -17.5 -69t-18.5 -73.5t-7 -62.5zM93 -175l-56 20q11 50 21 87q11 44 30.5 142.5t19.5 126.5h54q0 -37 -20 -138t-32 -148
q-10 -41 -20 -85z" />
    <glyph glyph-name="section" unicode="&#xa7;" horiz-adv-x="576" 
d="M316 452q87 -39 135 -85.5t48 -94.5q0 -30 -16 -54q-2 -3 -6 -8.5t-6 -8.5t-5.5 -8.5t-6.5 -8.5t-6.5 -7.5t-7 -8t-8 -7t-9 -6t-9.5 -4.5q-25 -12 -68 -13l14 -12q44 -43 44 -97q0 -17 -5 -31q-11 -40 -32.5 -73t-49.5 -53t-57 -24q-22 -2 -38 -2q-37 0 -63.5 14
t-49.5 46q-22 31 -22 49h54v5q0 4 0.5 4t3.5 -4l8 -12q21 -30 69 -30q14 0 32 2q30 3 56 31t37 67q3 7 3 11q0 19 -27 45q-9 9 -22 15.5t-27 10.5t-30.5 8.5t-33.5 10t-34 13.5t-34.5 21.5t-32.5 31.5q-29 34 -29 84q0 54 38 101.5t91 61.5q-2 1 -4 3q-48 43 -48 101
q0 15 3 29q12 62 55.5 97t106.5 35q30 0 61 -9q42 -12 75 -44t33 -63h-54q0 1 -14 9.5t-31 17.5t-23 11q-23 6 -47 6q-43 0 -72.5 -20t-36.5 -54q-2 -9 -2 -15q0 -12 6 -21.5t24 -25.5q11 -11 70 -37zM438 258q7 10 7 14q0 18 -43 51.5t-108 62.5q-34 15 -49 23v-45
q-38 0 -72 -31t-34 -64q0 -19 16 -37q19 -23 50 -34.5t69 -22t64 -27.5v62q46 0 59 6t19 12.5t22 29.5z" />
    <glyph glyph-name="dieresis" unicode="&#xa8;" horiz-adv-x="533" 
d="M122 602h-66q0 64 40 99l7 4l57 -52q-5 -10 -11 -18.5t-11 -13.5t-8.5 -9t-5.5 -6.5t-2 -3.5zM299 602h-66q0 64 40 99l7 4l57 -52q-5 -10 -11 -18.5t-11 -13.5t-8.5 -9t-5.5 -6.5t-2 -3.5z" />
    <glyph glyph-name="copyright" unicode="&#xa9;" horiz-adv-x="638" 
d="M562 393h40q0 -50 -5.5 -90.5t-19.5 -82t-42 -75.5t-69 -58q-13 -8 -14 -9q-45 -28 -61 -33q-20 -7 -36 -7q-20 0 -71 13q-97 24 -153 80.5t-63 137.5q-2 24 -2 47q0 136 78 242q34 48 53 57q54 30 131 30q79 0 124.5 -22.5t98.5 -86.5q14 -17 24.5 -39t16.5 -45.5
t6 -45.5h-40q0 40 -38 85q-40 48 -80.5 66t-111.5 18q-74 0 -112 -21q-21 -11 -40 -37q-38 -52 -54 -98t-16 -103q0 -19 2 -41q4 -54 52.5 -94.5t132.5 -61.5q43 -11 62 -11h8q17 3 59 30h9q13 8 15 9q66 39 91 92t25 154zM376 258l37 -13q-9 -25 -22.5 -37.5t-37.5 -16.5
q-66 -12 -91 -3q-15 5 -25.5 16t-18 25.5t-16.5 39.5q-7 19 -4.5 52.5t13.5 63.5q24 66 72 102t93 20q11 -4 26 -14q12 -9 21.5 -26.5t22.5 -55.5l2 -4t1.5 -4.5t1.5 -3.5l-56 -29q-3 8 -5 14l12 -4q-14 40 -33 52q-7 6 -17 9q-30 11 -59 -8.5t-45 -61.5q-14 -39 -2 -70
q13 -38 40 -47q21 -8 68 0l2.5 0.5t5.5 1l6 1t5 1t3 0.5z" />
    <glyph glyph-name="ordfeminine" unicode="&#xaa;" horiz-adv-x="478" 
d="M421 477l30 -46q-27 -31 -38 -39q-4 -3 -14 -10t-15.5 -11t-15 -9.5t-15.5 -8.5t-12.5 -4.5t-11.5 -0.5q-14 4 -20.5 27.5t-6.5 49.5q0 5 1 13q-35 -27 -58 -44t-42 -29.5t-30 -18t-18 -5.5q-24 0 -38 54q-5 18 -5 43q0 16 2.5 31.5t7.5 31.5t9.5 28.5t13 28.5t13.5 25.5
t15.5 25.5t14 21t14.5 20t12 16q2 3 7 10l7.5 10.5t6.5 9t7 8t7 6t8 4.5t8 1q17 0 84 -23q12 -4 14 -4v-15h36q0 -45 -22 -135h-16q-13 -52 -16 -75q-3 -14 -3 -38q0 -4 1 -6q45 29 47 30q18 13 31 28zM274 497h9q23 17 31 24q3 13 9 34q11 47 15 69q-3 1 -7 2h5
q-56 19 -71 19q-4 0 -19 -20q-2 -2 -15.5 -21t-17 -24t-15 -22t-15.5 -24.5t-11.5 -23t-10.5 -25.5t-6 -22.5t-3 -24.5t4 -26v-1q26 15 118 86z" />
    <glyph glyph-name="guillemotleft" unicode="&#xab;" horiz-adv-x="494" 
d="M206 259q14 -17 23.5 -42.5t17.5 -38.5t25 -13v-72q-24 0 -44 16.5t-30 36t-20 41.5t-14 26q-13 17 -47 48q-2 3 -13 12.5t-15.5 14t-11.5 13.5t-9.5 17.5t-2.5 18.5q0 16 8.5 29t18 19.5t29.5 18t30 18.5q12 8 26.5 15.5t16 9t26.5 22.5t45 35t29 14v-72
q1 0 -32.5 -27.5t-35.5 -29.5q-8 -6 -17.5 -11.5t-16.5 -9t-10 -5.5q-8 -5 -45 -33q8 -8 17 -16q30 -28 52 -55zM439 410q-17 -19 -47 -47q-8 -7 -28 -23.5t-27 -22.5q49 -69 67 -88l-38 -50q-9 8 -20 22t-19 25t-20 29t-18 26l-1 -1q-17 14 -13 40q0 7 3 14q8 18 22 34
t34 31.5t21 16.5q35 32 44 42l34 25v-72z" />
    <glyph glyph-name="logicalnot" unicode="&#xac;" horiz-adv-x="503" 
d="M461 436q20 -18 -11 -75q-25 -48 -25 -110h-54q0 66 21 120q-5 0 -12 1l-14 2t-12 1q-9 1 -27.5 4.5t-22.5 4.5q-22 3 -60 3h-16.5h-16.5h-138v72h138h16.5h16.5q41 0 68 -4q2 0 20 -3.5t28 -4.5q4 -1 15.5 -1h23.5t24.5 -1t22.5 -3t15 -6z" />
    <glyph glyph-name="registered" unicode="&#xae;" horiz-adv-x="650" 
d="M539 538q36 -36 58 -95t22 -115q0 -81 -39 -133q-39 -54 -87 -54q-38 0 -78 32t-71 86q-10 17 -14 38q-9 3 -17 10q-4 4 -6 11v-9q0 -11 0.5 -36t0.5 -38h-54q0 12 -0.5 37t-0.5 37q0 36 3 61q2 20 3 32h-6v62q9 0 30 1t32 1q46 0 70 -8.5t41 -35.5q7 -12 7 -30
q0 -22 -14.5 -48.5t-32.5 -40.5q3 -4 5 -9q20 -35 49 -58t53 -23q26 0 44 24q28 38 28 91q0 44 -17 86.5t-48 74.5q-4 4 -49 24q-58 27 -109 27q-45 0 -79 -20q-4 -2 -10 -6q-24 -13 -37 -21.5t-31 -22t-28 -27t-14 -27.5q-10 -45 -10 -71q0 -18 4 -34q15 -58 70.5 -108.5
t112.5 -55.5l-5 -72q-73 7 -141.5 72t-89.5 146q-6 23 -6 52q0 36 13 88q10 44 41 75.5t103 73.5q52 30 107 30q59 0 132 -33q47 -22 65 -41zM322 362q7 2 16 -3q7 7 17 7h4q12 10 18 22q-13 14 -56 15q-4 -5 -4 -3v4q-5 -11 -8 -40q-1 -10 -1 -20q4 16 14 18z" />
    <glyph glyph-name="macron" unicode="&#xaf;" horiz-adv-x="596" 
d="M391 673l-10 -63q-52 -4 -77 -3.5t-72 3.5t-77 3v62q37 -5 73.5 -5.5t89.5 1.5t73 2z" />
    <glyph glyph-name="degree" unicode="&#xb0;" horiz-adv-x="463" 
d="M396 642q9 -8 15 -19.5t8 -24t-1 -23.5q-26 -81 -64 -112t-86 -31q-42 0 -74 20t-49 57q-10 22 -10 55q0 44 19 88t46 61q9 6 17.5 10t17.5 5.5t13.5 2.5t15.5 1h14q38 2 67 -8.5t45 -31t16 -50.5h-10zM320 519q29 24 46 78l7 45h-21q0 4 -10.5 8.5t-27.5 7.5t-34 2
q-5 0 -14.5 -0.5t-13 -0.5t-8.5 -1t-8 -2t-7 -3q-17 -12 -28.5 -36.5t-11.5 -52.5q0 -14 6 -26q6 -14 27 -24t46 -10q34 0 52 15z" />
    <glyph glyph-name="plusminus" unicode="&#xb1;" horiz-adv-x="538" 
d="M400 359q16 -1 44 -8t39 -7v-62q-17 0 -45.5 7.5t-39.5 7.5q-48 1 -109 1h-10q-1 -3 -2.5 -6t-2 -5t-1.5 -3.5t-1 -2.5l-2.5 -25t-2.5 -29.5t-2 -23.5q-1 -10 -4.5 -23t-3.5 -17h-54q0 11 2 21t4 18t2 10q1 11 3.5 39t4.5 39q0 4 1 8q-12 0 -47 -0.5t-59 -0.5h-47v62h56
t64.5 0.5t55.5 0.5q22 77 22 130h54q0 -57 -21 -130q56 0 102 -1zM443 22q5 3 10 9q-5 -6 -10 -9v-2h-2q-3 -2 -6 -3t-8 -1.5t-9 -1t-12.5 -1.5t-16.5 -2q-36 -4 -93 -4q-27 0 -74.5 6.5t-66.5 7.5q-30 2 -124 2v62q95 0 127 -2q20 -1 66.5 -7.5t71.5 -6.5q54 0 86 4
q6 0 16 2q19 4 19 1q0 -2 -3 -5q11 11 29 11v-60z" />
    <glyph glyph-name="acute" unicode="&#xb4;" horiz-adv-x="587" 
d="M344 743h54q0 -27 -32 -65.5t-73.5 -66t-67.5 -27.5v70q4 0 23.5 13t40.5 29t38 30t17 17z" />
    <glyph glyph-name="uni00B5" unicode="&#xb5;" horiz-adv-x="598" 
d="M522 244h54q0 -37 -34 -95t-83 -106q-112 -112 -145 -73q-9 11 -10 34q-2 9 -1 23t2 21.5t3 19t3 16.5q5 36 10 66q-25 -24 -90 -85q-66 -61 -94 -79t-52 -6q-11 5 -15 19q-8 -19 -14 -36q-3 -10 -17 -45l-26 -65t-12 -33h-54q0 15 12.5 49.5t28.5 73.5t18 43
q17 50 50 134.5t45 119.5q7 19 17.5 55t16.5 52q3 9 9 25.5t9 25t7.5 22.5t7 23.5t5 21.5t3.5 22.5t1 20.5h54q0 -16 -2.5 -34t-5 -31t-8.5 -33t-9 -29t-10.5 -30.5t-9.5 -27.5q-6 -17 -17 -53.5t-17 -53.5q-13 -35 -30 -81q-3 -68 -4 -82q42 34 76 65q111 102 150 147
q13 52 30 97q32 84 92 155l4 8t9.5 14.5t13 11.5t18 1t22.5 -18q15 -18 -4 -73.5t-52 -111.5q-40 -67 -86 -123q-14 -60 -26 -152q-1 -7 -4 -25q2 2 10 6t21 13.5t29 25.5q37 37 69 84.5t32 65.5z" />
    <glyph glyph-name="paragraph" unicode="&#xb6;" horiz-adv-x="742" 
d="M518 407q0 -13 6 -132q4 -83 4 -210v-62.5v-62.5h-54v62.5v62.5q0 125 -4 207q0 8 -1 20v0q-3 83 -5 111q-1 13 -3.5 27t-5 29t-2.5 32v55q0 24 -1 41l-1 1q0 1 -0.5 2.5t-1 4l-1 5t-0.5 6.5q-27 -9 -95 -22q-46 -10 -73 -17.5t-52 -19t-36.5 -28t-18.5 -40t-7 -58.5
q0 -13 1 -28q1 -10 19 -35.5t39.5 -48.5t31.5 -25q33 -9 52 -9q33 0 144 15l12 2q-1 -8 -2.5 -26t-2 -32.5l-0.5 -14.5q-8 -1 -35 -5t-40 -5.5t-35.5 -3.5t-40.5 -2q-24 0 -65 11q-21 5 -51.5 37.5t-54 72.5t-25.5 64q-1 17 -1 33q0 57 13 96t42.5 65.5t70.5 43t104 28.5
q86 18 110 27q11 4 16 4q15 0 24.5 -14t9.5 -34q0 -14 -1 -20q4 -17 5 -26q1 -18 1 -45v-53q0 -16 5 -41t6 -45zM639 18q14 -18 9.5 -41.5t-26.5 -23.5q-16 0 -31 21q-3 3 -3 4q1 1 8 -6q-14 14 -14 104q0 21 0.5 50.5l0.5 29.5q0 86 0.5 256.5t0.5 256.5h54
q0 -86 -0.5 -256.5t-0.5 -256.5q0 -1 -0.5 -30t-0.5 -50q0 -40 3 -58zM472 614zM467 296l2 -4h-4q1 3 2 4zM634 23z" />
    <glyph glyph-name="cedilla" unicode="&#xb8;" horiz-adv-x="596" 
d="M332 -45q42 0 60.5 -19.5t18.5 -57.5q0 -19 -5 -38q-6 -21 -28 -35t-54.5 -21t-73.5 -7q-22 0 -36 6l-2 2q-10 4 -15 7t-11.5 9.5t-10.5 16.5l50 20l12 -3q-3 2 0 1h3h10q-1 0 25 4t52.5 8l26.5 4q3 12 3 26q0 7 -8.5 12t-16.5 5q-15 0 -26 -2q-24 -7 -40 21t-3 58
q5 12 13 28q10 23 14 39l53 -20q-14 -53 -18 -62l-1 -3q4 1 8 1z" />
    <glyph glyph-name="ordmasculine" unicode="&#xba;" horiz-adv-x="389" 
d="M375 617q5 -13 5 -38q0 -39 -23 -92t-55 -94.5t-59 -50.5q-15 -6 -27 -6q-19 0 -41 7q-41 14 -60 62q-7 16 -7 54q0 74 25 144t53 86q39 23 62 23q10 0 33 -6q19 -5 38 -5v-11l3 -2t4 -3q21 -16 31 -30t18 -38zM229 408q35 12 72.5 71t37.5 100q0 8 -2 16h-15
q-5 14 -29 38q-15 2 -38 8q-4 1 -7 1q-19 0 -41 -13q-24 -14 -41.5 -65.5t-17.5 -104.5q0 -19 4 -28q0 -2 3.5 -4.5t8 -5.5t11 -6t12.5 -5q11 -4 29 -4q10 0 13 2z" />
    <glyph glyph-name="guillemotright" unicode="&#xbb;" horiz-adv-x="509" 
d="M430 314l3 -3.5t7 -8t8.5 -11.5t7 -14t4 -14.5t-1.5 -14.5q-4 -10 -33 -38.5t-54 -49.5t-40 -33q-9 -7 -19.5 -14.5t-18.5 -13.5t-16.5 -12.5t-16 -12.5t-13.5 -12l-37 61q85 58 87 60q18 14 52.5 46.5t39.5 37.5q-1 3 -4 6q-38 56 -84 131q0 1 -9.5 14t-18 25t-16 30
t-7.5 32h54q0 -1 9.5 -14.5t20.5 -29.5t13 -19q41 -67 83 -128zM254 283q0 -4 -2 -9t-6.5 -10.5t-10 -10.5t-13 -12.5t-14.5 -13.5t-17 -15t-18 -16q-6 -6 -13.5 -14.5t-9.5 -10.5q-23 -24 -34.5 -22t-11.5 33l8 39q5 6 13 15t11 12q21 20 45 49q-13 16 -29.5 41.5
t-29.5 48.5t-15 32l52 17q1 -5 47.5 -70t47.5 -83z" />
    <glyph glyph-name="onequarter" unicode="&#xbc;" horiz-adv-x="766" 
d="M631 754q-23 -32 -43 -68t-45 -84t-36 -68q-29 -52 -85.5 -143t-63.5 -103q-15 -26 -29 -55t-28.5 -64.5t-22.5 -53t-22.5 -51.5t-21.5 -49q-10 -21 -28 -48.5t-30.5 -49.5t-16.5 -41l-55 22q7 36 21.5 65.5t32 54.5t23.5 36q10 23 24.5 57t18.5 43q11 23 26.5 61t29 67
t27.5 52q17 28 71 114.5t77 128.5q14 26 40 76.5t46 86t40 64.5zM118 415q4 77 45 184q-46 -31 -62 -42v80q15 0 29.5 7t32.5 21.5t26 18.5q6 4 14.5 9.5t14.5 9.5t12 6q17 7 23.5 2.5t4.5 -22.5q0 -12 -4.5 -24t-11 -25t-7.5 -14q-59 -145 -63 -215zM705 24q-6 -1 -16.5 -2
t-19 -2t-16.5 -2q-9 -33 -9 -44h-54q0 18 5 39q-19 -1 -38 -1h-25q-62 -1 -77 7.5t-12 51.5q1 27 85 122t115 108q27 11 43.5 -12.5t7.5 -60.5q0 -3 -1 -6v-8q-10 -63 -10 -65q-3 -10 -6 -33t-7 -36q1 0 12 1t17 2zM693 214zM693 214q-1 -4 -1 -10l-1 -1v1zM557 72
q28 0 60 2q0 3 1 5q2 9 4 26.5l4 35t4 27.5q3 13 6 33q-52 -49 -124 -119q17 -10 45 -10z" />
    <glyph glyph-name="onehalf" unicode="&#xbd;" horiz-adv-x="771" 
d="M631 754q-23 -32 -43 -68t-45 -84t-36 -68q-29 -52 -85.5 -143t-63.5 -103q-15 -26 -29 -55t-28.5 -64.5t-22.5 -53t-22.5 -51.5t-21.5 -49q-10 -21 -28 -48.5t-30.5 -49.5t-16.5 -41l-55 22q7 36 21.5 65.5t32 54.5t23.5 36q10 23 24.5 57t18.5 43q11 23 26.5 61t29 67
t27.5 52q17 28 71 114.5t77 128.5q14 26 40 76.5t46 86t40 64.5zM118 415q4 77 45 184q-46 -31 -62 -42v80q15 0 29.5 7t32.5 21.5t26 18.5q6 4 14.5 9.5t14.5 9.5t12 6q17 7 23.5 2.5t4.5 -22.5q0 -12 -4.5 -24t-11 -25t-7.5 -14q-59 -145 -63 -215zM664 111l53 -10
q-4 -36 -15 -61t-29.5 -38.5t-42.5 -13.5q-17 0 -44.5 10t-45.5 10q-29 0 -36 -4l-10 -4l3 8l-40 23q0 16 21.5 50t38.5 42q76 61 95 109q-8 1 -18 1q-12 0 -24.5 -2t-18.5 -4t-10.5 -2t-6 3.5t-1.5 13.5h-34q0 31 27.5 51t67.5 20q35 0 55.5 -18.5t20.5 -50.5q0 -12 -3 -23
q-5 -19 -21.5 -47t-38.5 -58t-47 -57q13 1 35.5 5t34.5 4q17 0 24 9t10 34z" />
    <glyph glyph-name="threequarters" unicode="&#xbe;" horiz-adv-x="771" 
d="M636 754q-22 -32 -42.5 -68t-45.5 -84t-35 -68q-29 -52 -86 -143t-64 -103q-15 -26 -28.5 -55t-28.5 -64.5t-23 -53t-22.5 -51.5t-21.5 -49q-9 -19 -39 -66.5t-35 -72.5l-56 22q7 36 22 65.5t32 54.5t23 36q11 23 25 57t19 43q10 23 26 61t29 67t27 52q17 28 71 114.5
t78 128.5q13 24 31.5 60t31.5 60.5t30 54t33 52.5zM269 533q-10 -64 -42.5 -101t-77.5 -37q-27 0 -48 25q-1 1 -2.5 1.5t-3.5 2t-5 4t-6.5 7.5t-6.5 12l48 35q-5 10 -0.5 8t17.5 -18l4 2l3 1q55 0 67 71l1 2v0v2h-1q-18 0 -46 -12l-9 -3l-18 23q-1 0 0 1l-13 32q13 9 20 11
q23 10 36 14q10 15 0 15h-73v80h73q13 0 31 2t23 2q24 0 24 -28q0 -17 -22 -40q-12 -13 -28 -27h2q24 0 39.5 -19.5t15.5 -52.5q0 -9 -2 -15zM710 24q-5 -1 -12.5 -2t-13.5 -1.5t-13 -1.5t-13 -1q-9 -33 -9 -44h-54q0 18 6 39q-20 -1 -38 -1h-25q-62 -1 -77 7.5t-13 51.5
q2 27 85.5 122t115.5 108q26 11 43 -12.5t8 -60.5q-1 -3 -1 -6q0 -1 -1 -8q-9 -63 -10 -65q-2 -10 -5.5 -33t-6.5 -36q1 0 12 1t16 2zM698 214zM698 214q0 -4 -1 -10v-1v1zM563 72q27 0 59 2q1 3 1 5q3 11 6.5 44t6.5 45q3 13 5 33q-52 -49 -123 -119q17 -10 45 -10z" />
    <glyph glyph-name="questiondown" unicode="&#xbf;" horiz-adv-x="416" 
d="M372 543q-4 -7 -9 -16l-4 -5q-9 -16 -18 -30t-16 -24.5l-9 -13.5l-72 42q6 10 21 33t22 35l12 20q9 16 11 16q3 0 3 -10h13zM263 39q16 13 31 29q8 8 9 7.5t1 -12.5v-14h50q0 -23 -59 -72q-88 -73 -172 -73q-30 0 -51 6q-14 4 -34 27.5t-10 40.5q5 8 11.5 21t9.5 18
q19 32 52 75q15 19 51 60.5t52 63.5q33 49 48 84q14 33 14 44q0 18 9 18l41 -18q0 -32 -18 -75q-22 -54 -53 -98q-26 -37 -63 -79t-42 -49q-32 -42 -42 -58q4 -1 25 -1q75 0 140 55z" />
    <glyph glyph-name="Agrave" unicode="&#xc0;" horiz-adv-x="592" 
d="M111 798l49 43q26 -25 58 -48.5t51 -31.5q5 -1 29 -8.5t36 -13.5l-31 -54q-9 5 -30 11t-29 9q-20 8 -46.5 25t-49 35t-37.5 33zM523 66q12 -23 16.5 -34.5t4 -24t-10.5 -21.5q-23 -21 -41 -21t-29.5 14.5t-11.5 36.5q0 15 7 24q-16 32 -45 110q-9 24 -24 60v-6
q-6 0 -18.5 -2t-18.5 -2q-13 -1 -28 -1q-11 0 -33.5 1t-32.5 1q-14 0 -25 -2q-5 0 -31.5 -6t-44.5 -6q-8 0 -16 0.5t-17 1t-14 0.5q-6 -17 -12 -32q-41 -107 -53.5 -138t-20.5 -38l-44 54q2 2 58 147q18 49 47 147.5t59.5 176.5t74.5 143l15 -12l65 19q5 -19 12 -38
t20.5 -49t17.5 -41q10 -23 18.5 -51.5t16 -57.5t15.5 -48q12 -31 37.5 -95t38.5 -97q30 -78 48 -113zM345 263q3 1 6.5 1.5t8 1t6.5 0.5q-17 45 -29 76q-10 25 -24.5 77.5t-24.5 77.5q-4 9 -16 36.5t-19 43.5q-16 -28 -30.5 -58t-27.5 -67t-20.5 -60t-22 -70.5t-20.5 -64.5
q17 4 25 4q50 0 67 2q16 2 34 2q12 0 34 -1t32 -1h21z" />
    <glyph glyph-name="Aacute" unicode="&#xc1;" horiz-adv-x="592" 
d="M396 770q7 0 -7 -7q-9 -5 -23 -10q-6 -2 -38 -18t-59 -24.5t-54 -8.5v60q17 0 36.5 7t47 20.5t41.5 19.5q2 0 12 6t21 10.5t23 4.5v-60zM523 66q12 -23 16.5 -34.5t4 -24t-10.5 -21.5q-23 -21 -41 -21t-29.5 14.5t-11.5 36.5q0 15 7 24q-16 32 -45 110q-9 24 -24 60v-6
q-6 0 -18.5 -2t-18.5 -2q-13 -1 -28 -1q-11 0 -33.5 1t-32.5 1q-14 0 -25 -2q-8 -1 -21.5 -4t-27.5 -5.5t-27 -2.5q-8 0 -16 0.5t-17 1t-14 0.5q-6 -17 -12 -32q-41 -107 -53.5 -138t-20.5 -38l-44 54q2 2 58 147q18 49 47 147.5t59.5 176.5t74.5 143l15 -12l65 19
q2 -10 5.5 -21t7.5 -20.5t8.5 -21t9 -21t10 -22t9.5 -22.5q12 -29 27 -82.5t23 -74.5q12 -31 37.5 -95t38.5 -97q30 -78 48 -113zM345 263q3 1 6.5 1.5t8 1t6.5 0.5q-17 45 -29 76q-10 25 -24.5 77.5t-24.5 77.5q-4 9 -16 36.5t-19 43.5q-16 -28 -30.5 -58t-27.5 -67
t-20.5 -60t-22 -70.5t-20.5 -64.5q17 4 25 4q50 0 67 2q16 2 34 2q12 0 34 -1t32 -1h21z" />
    <glyph glyph-name="Acircumflex" unicode="&#xc2;" horiz-adv-x="592" 
d="M261 759q-45 -46 -69.5 -57t-43.5 1l24 44q-5 3 -7 5.5t0.5 6.5t6 7t12.5 10q5 3 7.5 5t7 6t8 7t8.5 7.5t9 9.5q4 3 8.5 7.5t6.5 7t3 2.5q18 24 35 5l7.5 -9t18 -21.5l21 -25t18.5 -21.5l7 -9v-52q-25 0 -88 64zM523 66q12 -23 16.5 -34.5t4 -24t-10.5 -21.5
q-23 -21 -41 -21t-29.5 14.5t-11.5 36.5q0 15 7 24q-16 33 -45 110q-9 24 -24 60v-6q-6 0 -18.5 -2t-18.5 -2q-13 -1 -28 -1q-11 0 -33.5 1t-32.5 1q-14 0 -25 -2q-5 0 -31.5 -6t-44.5 -6q-10 0 -26.5 1t-20.5 1q-6 -17 -12 -32q-41 -106 -53.5 -137.5t-20.5 -38.5l-44 54
q2 2 58 147q17 46 38.5 116t37.5 121.5t43.5 115t61.5 114.5l15 -12l65 19q5 -19 12 -38t20.5 -49t17.5 -41q12 -29 27 -82.5t23 -74.5q10 -26 23.5 -59.5t27.5 -69t25 -63.5q30 -78 48 -113zM345 264q3 0 6.5 0.5t8 1t6.5 0.5q-17 45 -29 76q-10 25 -24.5 77.5t-24.5 77.5
q-4 9 -16 36.5t-19 43.5q-16 -28 -30.5 -58t-27.5 -67t-20.5 -60t-22 -70.5t-20.5 -64.5q17 4 25 4q50 0 67 2q16 2 34 2q12 0 34 -1t32 -1q12 0 21 1z" />
    <glyph glyph-name="Atilde" unicode="&#xc3;" horiz-adv-x="592" 
d="M443 780q0 -18 -5 -26t-21 -17q-45 -26 -67 -33q-29 -9 -57 -9q-13 0 -26 2q-27 5 -60 27t-50 22t-31 -14q-4 -4 -8 -9q-1 -2 -1.5 -1.5t0.5 2.5v11h-54q0 23 24 47q36 36 70 36q26 0 66.5 -24t52.5 -26q7 -1 17 -1q22 0 40 6q23 7 58 27zM523 66q12 -23 16.5 -34.5
t4 -24t-10.5 -21.5q-23 -21 -41 -21t-29.5 14.5t-11.5 36.5q0 15 7 24q-16 32 -45 110q-9 24 -24 60v-6q-6 0 -18.5 -2t-18.5 -2q-13 -1 -28 -1q-11 0 -33.5 1t-32.5 1q-14 0 -25 -2q-8 -1 -21.5 -4t-27.5 -5.5t-27 -2.5q-10 0 -26.5 1t-20.5 1q-6 -17 -12 -32
q-41 -107 -53.5 -138t-20.5 -38l-44 54q2 2 57 147q19 49 48 147.5t59.5 176.5t74.5 143l15 -12l65 19q5 -19 12 -38t20.5 -49t17.5 -41q10 -23 18 -51.5t16 -57.5t16 -48q12 -31 37.5 -95t38.5 -97q30 -78 48 -113zM345 263q3 1 6.5 1.5t8 1t6.5 0.5q-17 45 -29 76
q-10 25 -24.5 77.5t-24.5 77.5q-4 10 -10.5 24.5l-13 29t-11.5 26.5q-16 -28 -30.5 -58t-27.5 -67t-20.5 -60t-22 -70.5t-20.5 -64.5q17 4 25 4q50 0 67 2q16 2 34 2q12 0 34 -1t32 -1h21z" />
    <glyph glyph-name="Adieresis" unicode="&#xc4;" horiz-adv-x="592" 
d="M222 756l-57 -47q-6 0 -15 -0.5t-10 -0.5v96h4t10 0.5t11 0.5q57 0 57 -49zM350 723l-39 -6v79q1 0 23 4t30 0q33 -8 33 -37l-16 -35q1 4 3 10l-10 -25q0 -17 -8 -7q-14 16 -16 17zM378 712q-1 1 -4 1l7 15q-4 -12 -3 -16zM523 66q12 -23 16.5 -34.5t4 -24t-10.5 -21.5
q-23 -21 -41 -21t-29.5 14.5t-11.5 36.5q0 15 7 24q-16 32 -45 110q-9 24 -24 60v-6q-6 0 -18.5 -2t-18.5 -2q-13 -1 -28 -1q-11 0 -33.5 1t-32.5 1q-14 0 -25 -2q-8 -1 -21.5 -4t-27.5 -5.5t-27 -2.5q-8 0 -16 0.5t-17 1t-14 0.5q-6 -17 -12 -32q-41 -107 -53.5 -138
t-20.5 -38l-44 54q2 2 58 147q18 49 47 147.5t59.5 176.5t74.5 143l15 -12l65 19q4 -15 10 -32t11.5 -29.5t14.5 -33.5t14 -33q12 -29 27 -82.5t23 -74.5q12 -31 37.5 -95t38.5 -97q30 -78 48 -113zM345 263q3 1 6.5 1.5t8 1t6.5 0.5q-17 45 -29 76q-10 25 -24.5 77.5
t-24.5 77.5q-4 10 -10.5 24.5l-13 29t-11.5 26.5q-16 -28 -30.5 -58t-27.5 -67t-20.5 -60t-22 -70.5t-20.5 -64.5q17 4 25 4q50 0 67 2q16 2 34 2q12 0 34 -1t32 -1h21z" />
    <glyph glyph-name="Aring" unicode="&#xc5;" horiz-adv-x="592" 
d="M268 695q-47 9 -76.5 35t-29.5 72q0 56 35 87t90 31q17 0 31.5 -5.5t25.5 -15t23 -24.5q26 -32 26 -68q0 -33 -16.5 -61t-42 -43.5t-54.5 -15.5l-6 41zM287 860q-31 0 -51 -17t-20 -41q0 -18 17.5 -30.5t44.5 -17.5l-1 -6q13 2 27.5 11.5t24.5 22.5t10 25q0 6 -18 36
q-10 17 -34 17zM523 66q12 -23 16.5 -34.5t4 -24t-10.5 -21.5q-23 -21 -41 -21q-11 0 -20.5 6.5t-15 18.5t-5.5 26q0 15 7 24q-16 32 -45 110q-9 24 -24 60v-6q-6 0 -18.5 -2t-18.5 -2q-13 -1 -28 -1q-11 0 -33.5 1t-32.5 1q-14 0 -25 -2q-5 0 -31.5 -6t-44.5 -6
q-10 0 -26.5 1t-20.5 1q-6 -17 -12 -32q-41 -107 -53.5 -138t-20.5 -38l-44 54q2 2 58 147q18 49 47 147.5t59.5 176.5t74.5 143l15 -12l65 19q5 -19 12 -38t20.5 -49t17.5 -41q12 -29 27 -82.5t23 -74.5q12 -31 37.5 -95t38.5 -97q30 -78 48 -113zM345 263q3 1 6.5 1.5t8 1
t6.5 0.5q-17 45 -29 76q-10 25 -24.5 77.5t-24.5 77.5q-4 9 -16 36.5t-19 43.5q-16 -28 -30.5 -58t-27.5 -67t-20.5 -60t-22 -70.5t-20.5 -64.5q17 4 25 4q50 0 67 2q16 2 34 2q12 0 34 -1t32 -1h21z" />
    <glyph glyph-name="AE" unicode="&#xc6;" horiz-adv-x="773" 
d="M436 574q-21 -4 -70 -9l5 15l-2.5 -5t-6.5 -13.5t-8 -15.5h46q0 -66 1 -161q46 0 141 -1.5t143 -1.5v-74q-48 0 -143 1.5t-141 1.5q1 -75 1 -133q0 -16 -1.5 -34t-4.5 -39t-4 -32q11 1 25 1h24.5h14.5q96 0 160 17q14 3 32 3q12 0 34.5 -2t30.5 -2v-78q-11 0 -33 2t-32 2
t-15 -1q-74 -19 -177 -19q-2 0 -29 -0.5t-42 -0.5q-23 0 -32.5 3t-19.5 13q-21 21 -15 38q1 2 2 1t1 -3q0 18 2 39t5 42t4 34q-19 0 -60 11q-23 6 -61 6q-14 0 -44.5 -1.5t-45.5 -1.5v5q-29 -42 -49.5 -94t-26.5 -87l-69 13q8 49 35.5 113.5t53.5 102.5q6 8 18 21.5t13 17.5
q84 157 191 305q1 0 12.5 26.5t20.5 35.5q6 6 13 8.5t11.5 2.5t9.5 -0.5l5 -0.5q48 4 65 7q54 10 145 10q19 0 85.5 -2.5t78.5 -0.5v-80q-24 0 -79.5 1.5t-84.5 1.5q-85 0 -133 -8zM290 240q11 -3 23.5 -10t18.5 -8q0 49 -1 141t-1 143q-91 -127 -162 -258q28 1 43 1
q46 0 79 -9z" />
    <glyph glyph-name="Ccedilla" unicode="&#xc7;" horiz-adv-x="565" 
d="M460 117l60 10q0 -16 -23 -60q-42 -78 -159 -78h-20q-6 -23 -10 -32l-1 -3q4 1 8 1q42 0 60.5 -19.5t18.5 -57.5q0 -19 -5 -38q-9 -31 -51 -47t-105 -16q-22 0 -35 6q-1 1 -3 2q-10 4 -15 7t-11.5 9.5t-10.5 16.5l50 20l12 -3q-3 2 0 1h3h10q-1 0 25 4t52.5 8l26.5 4
q3 12 3 26q0 3 -2.5 6.5t-6 5.5t-8 3.5t-8.5 1.5q-15 0 -25 -2q-25 -7 -41 21t-3 58q5 10 9 20q-32 2 -42 13t-23 34.5t-19 32.5q-57 75 -78.5 137.5t-21.5 137.5q0 78 26 144q19 51 102 110t130 59q23 0 87 -23q3 -1 13 -4.5t15.5 -5.5t15 -6.5t16 -8.5t13.5 -10t12 -13
l-48 -48l-58 21q-4 1 -30.5 14.5t-35.5 13.5q-39 0 -102 -48t-74 -79q-22 -57 -22 -116q0 -66 19 -120.5t73 -124.5q15 -20 21.5 -33t12.5 -20q0 1 -1 2q-5 11 -4 12.5t13 -0.5q13 -2 23 -3q16 -1 50 -1q39 0 68 10t38 26q5 9 11 21l4 9z" />
    <glyph glyph-name="Egrave" unicode="&#xc8;" horiz-adv-x="574" 
d="M138 814l49 42q26 -25 58.5 -48.5t51.5 -30.5q5 -2 28.5 -9t36.5 -13l-31 -54q-8 3 -18 6.5t-22 7t-19 6.5q-30 11 -69 39.5t-65 53.5zM456 78l60 -50q0 -15 -17.5 -18.5t-70.5 -3.5h-10q-14 0 -100.5 -2.5t-124.5 -2.5q-94 0 -119 15q-4 2 -6 4t-2.5 4.5t0 7t1.5 9.5
t3 15.5t4 21.5q8 57 14 163q2 21 2 42q0 58 -12 165q-3 27 -5 76.5t-4 68.5l20 2v51q163 0 285 11q10 1 20 1q13 0 34.5 -2t36 -2t27.5 5v-80q-16 -5 -32 -5t-36 2t-30 2q-7 0 -14 -1q-107 -9 -239 -11q5 -97 6 -109q5 -44 8 -71q11 1 23 1q26 0 78 -3.5t75 -3.5q18 0 31 1
q10 1 18.5 2.5t18.5 3.5q13 4 17.5 2.5t1.5 -14.5l30 -56q-11 -11 -80 -17q-16 -2 -37 -2q-25 0 -77 3.5t-76 3.5q-10 0 -19 -1q1 -12 1 -23q0 -24 -2 -46q-6 -96 -13 -154q29 -2 48 -2q37 0 123.5 2.5t101.5 2.5z" />
    <glyph glyph-name="Eacute" unicode="&#xc9;" horiz-adv-x="574" 
d="M423 785q7 0 -7 -7l-22 -10q-8 -3 -20 -8.5t-22.5 -11t-24.5 -11.5t-26.5 -10t-28 -7t-29.5 -3v60q17 0 36 7t47 20.5t42 19.5q2 1 8.5 5t13 7.5t16 6t17.5 2.5v-60zM456 78l60 -50q0 -15 -17.5 -18.5t-70.5 -3.5h-10q-14 0 -100.5 -2.5t-124.5 -2.5q-94 0 -119 15
q-4 2 -6 4t-2.5 4.5t0 7t1.5 9.5t3 15.5t4 21.5q8 57 14 163q2 21 2 42q0 58 -12 165q-3 27 -5 76.5t-4 68.5l20 2v51q163 0 285 11q10 1 20 1q13 0 34.5 -2t36 -2t27.5 5v-80q-16 -5 -32 -5t-36 2t-30 2q-7 0 -14 -1q-107 -9 -239 -11q5 -97 6 -109q5 -44 8 -71q11 1 23 1
q26 0 78 -3.5t75 -3.5q18 0 31 1q10 1 18.5 2.5t18.5 3.5q13 4 17.5 2.5t1.5 -14.5l30 -56q-11 -11 -80 -17q-16 -2 -37 -2q-25 0 -77 3.5t-76 3.5q-10 0 -19 -1q1 -12 1 -23q0 -24 -2 -46q-6 -96 -13 -154q29 -2 48 -2q37 0 123.5 2.5t101.5 2.5z" />
    <glyph glyph-name="Ecircumflex" unicode="&#xca;" horiz-adv-x="574" 
d="M289 774q-45 -45 -69.5 -56.5t-43.5 0.5l24 44q-6 3 -8 6t1 6.5t6.5 7t12.5 9.5q4 3 6 5t5.5 5t6.5 5.5t7 5.5t7.5 6.5l7.5 7.5t8.5 8t6.5 6.5t3 3.5q17 23 35 4l18 -21.5t36 -42.5l18 -22v-52q-25 0 -88 64zM456 78l60 -50q0 -15 -17.5 -18.5t-70.5 -3.5h-10
q-14 0 -100.5 -2.5t-124.5 -2.5q-94 0 -119 15q-4 2 -6 4t-2.5 4t0 7t1.5 10t3 15.5t4 21.5q8 57 14 163q2 21 2 42q0 58 -12 165q-3 27 -5 76.5t-4 68.5l20 2v51q163 0 285 11q10 1 20 1q13 0 34.5 -2t36 -2t27.5 5v-80q-16 -5 -32 -5t-36 2t-30 2q-8 0 -14 -1
q-107 -9 -239 -11q5 -97 6 -109q5 -44 8 -71q11 1 23 1q26 0 78 -3.5t75 -3.5q18 0 31 1q10 1 18.5 2.5t18.5 3.5q10 3 13.5 3t6.5 -3t-1 -12l30 -56q-11 -11 -80 -17q-16 -2 -37 -2q-25 0 -77 3.5t-76 3.5q-10 0 -19 -1q1 -11 1 -23q0 -24 -2 -46q-5 -96 -13 -154
q29 -2 48 -2q37 0 123.5 2.5t101.5 2.5z" />
    <glyph glyph-name="Edieresis" unicode="&#xcb;" horiz-adv-x="574" 
d="M250 771l-57 -47q-6 0 -15 -0.5t-11 -0.5v96l4 0.5t10.5 0.5h11.5q57 0 57 -49zM378 739l-39 -6v79q1 0 23 3.5t30 0.5q33 -8 33 -38l-16 -35q1 5 3 10l-10 -25q0 -17 -8 -7q-14 17 -16 18zM406 727q-1 1 -4 1l7 15q-4 -12 -3 -16zM456 78l60 -50q0 -16 -18.5 -19
t-79.5 -3q-14 0 -100.5 -2.5t-124.5 -2.5q-94 0 -119 15q-4 2 -6 4t-2.5 4.5t0 7t1.5 9.5t3 15.5t4 21.5q8 57 14 163q2 21 2 42q0 58 -12 165q-2 17 -3.5 37t-2 36t-1 36t-2.5 36l20 2v51q163 0 285 11q10 1 20 1q11 0 27 -1.5t26.5 -2t22.5 0t22 4.5v-80q-16 -5 -32 -5
t-36 2t-30 2q-7 0 -14 -1q-107 -9 -239 -11q5 -97 6 -109q5 -44 8 -71q11 1 23 1q26 0 78 -3.5t75 -3.5q18 0 31 1q10 1 18.5 2.5t18.5 3.5q13 4 17.5 2.5t1.5 -14.5l30 -56q-11 -11 -80 -17q-16 -2 -37 -2q-25 0 -77 3.5t-76 3.5q-10 0 -19 -1q1 -12 1 -23q0 -24 -2 -46
q-6 -96 -13 -154q29 -2 48 -2q37 0 123.5 2.5t101.5 2.5z" />
    <glyph glyph-name="Igrave" unicode="&#xcc;" horiz-adv-x="255" 
d="M-1 819l49 42q26 -25 58 -48.5t51 -30.5q5 -2 29 -9t36 -13l-31 -54q-7 3 -17.5 6.5t-22 7t-19.5 6.5q-30 11 -69 39.5t-64 53.5zM176 0h-70q0 188 -9 398q-1 18 -1 38q0 37 3.5 109t3.5 105h70q0 -36 -3.5 -108t-3.5 -106q0 -18 1 -35q9 -211 9 -401z" />
    <glyph glyph-name="Iacute" unicode="&#xcd;" horiz-adv-x="255" 
d="M284 850v-60q7 0 -7 -7l-23 -10q-9 -3 -30 -13.5t-37 -17.5t-39.5 -13.5t-44.5 -6.5v60q11 0 23 3t24.5 8.5t24 11t27 12.5t26.5 12q2 1 8.5 5t13 7.5t16 6t18.5 2.5zM176 0h-70q0 188 -9 398q-1 18 -1 38q0 37 3.5 109t3.5 105h70q0 -36 -3.5 -108t-3.5 -106
q0 -18 1 -35q9 -211 9 -401z" />
    <glyph glyph-name="Icircumflex" unicode="&#xce;" horiz-adv-x="255" 
d="M165 853l18 -21.5t36 -42.5l18 -22v-52q-25 0 -88 64q-45 -45 -69.5 -56.5t-43.5 0.5l25 44q-6 3 -8 6t0.5 6.5t6 7t12.5 9.5l7.5 6t7 6t8 7t8.5 7.5t9 8.5l6.5 6.5l5.5 5.5t4 3.5t2 2.5q18 23 35 4zM166 436q0 -18 1 -35q9 -211 9 -401h-70q0 188 -9 398q-1 18 -1 38
q0 37 3.5 109t3.5 105h70q0 -36 -3.5 -108t-3.5 -106z" />
    <glyph glyph-name="Idieresis" unicode="&#xcf;" horiz-adv-x="255" 
d="M53 825q57 0 57 -49l-57 -47q-6 0 -15 -0.5t-10 -0.5v96l4 0.5t10 0.5h11zM269 748q1 5 3 10l-10 -25q0 -17 -8 -7q-14 17 -16 18l-38 -6v79q1 0 22.5 3.5t29.5 0.5q33 -8 33 -38zM269 748q-4 -12 -3 -16q-1 1 -4 1zM166 436q0 -18 1 -35q9 -211 9 -402h-70q0 189 -9 399
q-1 18 -1 38q0 37 3.5 109t3.5 105h70q0 -36 -3.5 -108t-3.5 -106z" />
    <glyph glyph-name="Eth" unicode="&#xd0;" horiz-adv-x="655" 
d="M359 651q47 0 88.5 -18.5t72 -50t52.5 -71t33 -81t11 -81.5q0 -42 -7 -74q-19 -80 -65.5 -149t-97.5 -89q-44 -18 -77 -24.5t-83 -9.5q-17 0 -63 -0.5t-70 -2.5l-7 -2q-5 2 -9 11.5t-4 53.5q0 12 1 54t1 50q-1 16 -1 34q0 29 3 103q-12 -5 -24 -7q-16 -2 -35 -2
q-7 0 -20.5 0.5t-20.5 0.5v62q7 0 20.5 -0.5t20.5 -0.5q16 0 26 1q4 1 35 12v13q0 36 -4.5 101.5t-4.5 90.5h-14.5h-4.5l-36 54q25 19 131 19q41 0 84 -2q21 -1 32.5 2t36.5 3zM550 293q6 25 6 56q0 91 -59 161.5t-138 70.5l-27 -3t-45 -2q-42 2 -81 2q-1 0 -16 -1
q0 -23 2.5 -59t4.5 -70.5t2 -64.5v-7q2 -1 19.5 -3.5t26.5 -3.5h30q13 0 40 0.5t41 0.5v-62q-13 0 -40 -0.5t-41 -0.5h-32q-7 1 -45 6q-4 -89 -4 -112q0 -17 1 -32q0 -6 -0.5 -23.5t-1 -40t-0.5 -33.5q88 1 90 1q88 6 141 28q40 16 75.5 73t50.5 119z" />
    <glyph glyph-name="Ntilde" unicode="&#xd1;" horiz-adv-x="766" 
d="M577 801q0 -18 -5.5 -26.5t-21.5 -17.5q-45 -25 -67 -32q-29 -9 -57 -9q-12 0 -25 2q-28 4 -60.5 26t-49.5 22q-18 0 -32 -14l-8 -8l-1 -2v2q1 6 1 11h-54q0 23 24 48q35 35 70 35q25 0 65.5 -23.5t53.5 -25.5q7 -1 16 -1q22 0 41 5q23 8 57 27zM706 -8l9 -3t22 -7.5
t16 -5.5l-22 -76l-48 16q-21 8 -48 36t-59.5 70.5t-35.5 45.5q-19 22 -63.5 67.5t-66.5 71.5q-19 23 -37 48.5t-44 65.5t-34 52q-89 133 -115 165q-4 6 -11 14.5t-13.5 17t-12.5 15.5l-1 2q-2 -16 -2 -26q0 -52 3 -158t3 -159q0 -40 3 -121.5t3 -122.5h-70q0 40 -3 121
t-3 123q0 52 -3 157.5t-3 159.5q0 17 2.5 39.5t2.5 27.5l110 25q11 -15 14 -19q4 -5 9.5 -12t13 -16.5t14.5 -17.5q24 -31 117 -171q8 -11 33 -49.5t42 -62.5t36 -46q17 -20 61 -65t68 -74q5 -5 11 -13q-2 48 -6 179v43q0 33 1.5 99t1.5 98q0 13 -2.5 57.5t-1.5 65.5l70 -4
q0 -16 2 -58.5t2 -60.5q0 -28 -1 -63.5t-1.5 -71t-0.5 -62.5v-41q4 -143 7 -197q0 -6 3 -33.5t3 -45.5q5 -5 9.5 -9t8.5 -7t7 -4zM145 617v11v-11zM128 606l4 -5q-1 2 -4 5z" />
    <glyph glyph-name="Ograve" unicode="&#xd2;" horiz-adv-x="649" 
d="M212 819l50 42q25 -25 57.5 -48.5t51.5 -30.5q5 -2 28.5 -9t36.5 -13l-31 -54q-10 4 -30.5 10.5t-28.5 9.5q-21 8 -47 25t-48.5 34.5t-38.5 33.5zM596 476q16 -88 10 -170q-3 -49 -21.5 -108.5t-55 -116t-80.5 -74.5q-18 -7 -65 -11.5t-85 -4.5q-59 0 -136 57
q-11 8 -19.5 18t-13.5 18t-10.5 22.5t-7 20.5t-5.5 24t-5 22q-10 40 -27 145q0 1 -2 5.5t-3.5 9.5t-2.5 11.5t0 11.5q8 38 29 86.5t51 95.5t71 80.5t81 37.5q11 1 19 1q46 0 107.5 -19t96.5 -48q2 -2 6 -5q14 -12 20 -17t13 -12t9.5 -11.5t2.5 -8.5q5 1 8.5 -2t6 -8t4 -11
t2.5 -13t1 -12.5t0.5 -9.5zM536 312q5 71 -9 150l-50 67q-24 20 -74.5 34t-84.5 14h-11q-43 -4 -94.5 -72t-72.5 -145q1 -13 4 -29q17 -100 26 -140q12 -48 16 -58.5t18 -20.5q57 -41 95 -41q30 0 72 3.5t52 7.5q39 15 73.5 85.5t39.5 144.5z" />
    <glyph glyph-name="Oacute" unicode="&#xd3;" horiz-adv-x="649" 
d="M497 790q7 0 -7 -7l-22 -10q-9 -3 -30 -13.5t-37 -17.5t-39.5 -13.5t-44.5 -6.5v60q17 0 36 7t47 20.5t42 19.5q2 1 8.5 5t13 7.5t16 6t17.5 2.5v-60zM596 476q16 -88 10 -170q-3 -49 -21.5 -108.5t-55 -116t-80.5 -74.5q-18 -7 -65 -11.5t-85 -4.5q-59 0 -136 57
q-11 8 -19.5 18t-13.5 18t-10.5 22.5t-7 20.5t-5.5 24t-5 22q-10 40 -27 145q0 1 -3 8t-5 15t0 15q8 38 29 86.5t51 95.5t71 80.5t81 37.5q11 1 19 1q46 0 107.5 -19t96.5 -48q2 -2 6 -5q14 -12 20 -17t13 -12t9.5 -11.5t2.5 -8.5q5 1 8.5 -2t6 -8t4 -11t2.5 -13t1 -12.5
t0.5 -9.5zM536 312q5 71 -9 150l-50 67q-24 20 -74.5 34t-84.5 14h-11q-43 -4 -94 -72t-73 -145q1 -13 4 -29q17 -100 26 -140q12 -48 16 -58.5t18 -20.5q57 -41 95 -41q30 0 72 3.5t52 7.5q39 15 73.5 85.5t39.5 144.5z" />
    <glyph glyph-name="Ocircumflex" unicode="&#xd4;" horiz-adv-x="649" 
d="M363 779q-45 -45 -69.5 -56.5t-43.5 0.5l24 44q-6 3 -8 6t1 6.5t6.5 7t12.5 9.5q4 3 6 5t5.5 5t6.5 5.5t7 5.5t7.5 6.5l7.5 7.5l6.5 6.5l5.5 5.5l3.5 3.5l2.5 2.5q17 23 35 4l7 -9t18 -21.5t21.5 -25t17.5 -21.5l8 -9v-52q-25 0 -88 64zM596 476q16 -88 10 -170
q-3 -49 -21.5 -108.5t-55 -116t-80.5 -74.5q-18 -7 -65 -11.5t-85 -4.5q-59 0 -136 57q-11 8 -19.5 18t-13.5 18t-10.5 22.5t-7 20.5t-5.5 24t-5 22q-10 40 -27 145q0 1 -3 8t-5 15t0 15q6 30 20.5 67.5t37 77.5t49 73t59.5 56t66 26q11 1 19 1q46 0 107.5 -19t96.5 -48
q2 -2 6 -5q14 -12 20 -17t13 -12t9.5 -11.5t2.5 -8.5q5 1 9.5 -3t6.5 -10t3.5 -14.5t2 -15t1 -12zM536 312q5 71 -9 150l-50 67q-24 20 -74.5 34t-84.5 14h-11q-43 -4 -94 -72t-73 -145q1 -13 4 -29q17 -100 26 -140q12 -48 16 -58.5t18 -20.5q57 -41 95 -41q30 0 72 3.5
t52 7.5q39 15 73.5 85.5t39.5 144.5z" />
    <glyph glyph-name="Otilde" unicode="&#xd5;" horiz-adv-x="649" 
d="M545 801q0 -18 -5 -26.5t-21 -17.5q-45 -25 -67 -32q-29 -9 -57 -9q-13 0 -26 2q-27 4 -60 26t-50 22t-32 -14q-3 -4 -7 -8q-1 -2 -1.5 -2t-0.5 2q1 6 1 11h-54q0 23 24 48q36 35 70 35q26 0 66.5 -23.5t52.5 -25.5q7 -1 17 -1q22 0 40 5q23 8 57 27zM596 476
q16 -88 10 -170q-3 -49 -21.5 -108.5t-55 -116t-80.5 -74.5q-18 -7 -65 -11.5t-85 -4.5q-59 0 -136 57q-11 8 -19.5 18t-13.5 18t-10.5 22.5t-7 20.5t-5.5 24t-5 22q-10 40 -27 145q0 1 -3 8t-5 15t0 15q8 38 29 86.5t51 95.5t71 80.5t81 37.5q11 1 19 1q46 0 107.5 -19
t96.5 -48q2 -2 6 -5q14 -12 20 -17t13 -12t9.5 -11.5t2.5 -8.5q5 1 8.5 -2t6 -8t4 -11t2.5 -13t1 -12.5t0.5 -9.5zM536 312q5 71 -9 150l-50 67q-12 10 -33 19.5t-43.5 15.5t-44.5 9.5t-38 3.5h-11q-43 -4 -94.5 -72t-72.5 -145q1 -13 4 -29q17 -100 26 -140q9 -36 12 -47
t7.5 -17.5t14.5 -14.5q57 -41 95 -41q30 0 72 3.5t52 7.5q39 15 73.5 85.5t39.5 144.5z" />
    <glyph glyph-name="Odieresis" unicode="&#xd6;" horiz-adv-x="649" 
d="M324 776l-57 -47q-6 0 -15 -0.5t-11 -0.5v96q1 0 5 0.5t10 0.5h11q57 0 57 -49zM452 744l-39 -6v79q1 0 23 3.5t30 0.5q33 -8 33 -38l-16 -35q1 5 3 10l-10 -25q0 -17 -8 -7q-14 17 -16 18zM480 732q-1 1 -4 1l7 15q-4 -12 -3 -16zM596 476q16 -88 10 -170
q-3 -49 -21.5 -108.5t-55 -116t-80.5 -74.5q-18 -7 -65 -11.5t-85 -4.5q-59 0 -136 57q-11 8 -19.5 18t-13.5 18t-10.5 22.5t-7 20.5t-5.5 24t-5 22q-10 40 -27 145q0 1 -2 5.5t-3.5 9.5t-2.5 11.5t0 11.5q6 30 20.5 67.5t37 77.5t49 73t59.5 56t66 26q11 1 19 1
q46 0 107.5 -19t96.5 -48q2 -2 6 -5q10 -8 14 -11.5t10.5 -9.5t9.5 -9t6 -7t4 -6.5t1 -5.5q5 1 8.5 -2t6 -8t4 -11t2.5 -13t1 -12.5t0.5 -9.5zM536 312q5 71 -9 150l-50 67q-24 20 -74.5 34t-84.5 14h-11q-43 -4 -94 -72t-73 -145q1 -13 4 -29q17 -100 26 -140
q12 -48 16 -58.5t18 -20.5q57 -41 95 -41q30 0 72 3.5t52 7.5q39 15 73.5 85.5t39.5 144.5z" />
    <glyph glyph-name="multiply" unicode="&#xd7;" horiz-adv-x="539" 
d="M414 366l-108 -72q-9 -5 -19 -12q9 -12 17 -21q37 -46 55 -62q1 -1 36 -28t54 -48l-41 -47q-9 10 -39 32.5t-45.5 36t-61.5 71.5q-10 12 -25 31q-57 -40 -69 -48q-11 -8 -26.5 -14.5t-17.5 -8.5q-9 -7 -25 -25t-26 -26l-34 56q14 11 26 25.5t23 24.5q7 5 14 9.5t12.5 7.5
t10 5t8 3.5t5.5 1.5q21 15 57 41q-66 83 -106 146l46 38q36 -57 110 -149q17 11 31 20q47 31 108 72q9 6 23 16q37 25 49 31t23 6v-72q-3 0 -65 -41z" />
    <glyph glyph-name="Oslash" unicode="&#xd8;" horiz-adv-x="649" 
d="M596 476q16 -88 10 -170q-3 -49 -21.5 -108.5t-55 -116t-80.5 -74.5q-18 -7 -65 -11.5t-85 -4.5q-48 0 -104 35q-33 -79 -60 -115l-44 43q29 38 57 107q-9 9 -15.5 18.5t-12 24t-7 20.5t-6 26t-5.5 23q-10 40 -27 145q0 1 -3 8t-5 15t0 15q8 38 29 86.5t51 95.5t71 80.5
t81 37.5q11 1 19 1q74 0 153 -36q30 53 30 81h54q0 -46 -34 -111l1 -1q2 -2 6 -5q14 -12 20 -17t13 -12t9.5 -11.5t2.5 -8.5q5 1 8.5 -2t6 -8t4 -11t2.5 -13t1 -12.5t0.5 -9.5zM170.5 191q9.5 -40 12.5 -49q7 15 15 30q17 29 48.5 72t40.5 60q8 14 16.5 31t15.5 30.5t15 29
t16 27.5q10 16 23.5 33.5t14.5 17.5q6 9 12.5 24t9.5 20q8 15 21 37q-62 23 -113 23h-11q-43 -4 -94 -72t-73 -145q1 -13 4 -29q17 -100 26.5 -140zM536 312q5 71 -9 150l-46 61q-17 -27 -23 -40q-3 -4 -11.5 -23t-14.5 -28q-8 -11 -20.5 -26.5t-15.5 -20.5
q-10 -17 -21 -37.5t-22 -42.5t-19 -36q-16 -28 -47 -71.5t-42 -61.5q-9 -17 -19 -38q41 -27 73 -27q30 0 72 3.5t52 7.5q39 15 73.5 85.5t39.5 144.5z" />
    <glyph glyph-name="Ugrave" unicode="&#xd9;" horiz-adv-x="599" 
d="M152 799l49 42q26 -25 58 -48.5t51 -30.5q5 -2 29 -9t36 -13l-31 -54q-7 3 -17.5 6.5t-22 7t-19.5 6.5q-30 11 -69 39.5t-64 53.5zM455 645l70 10q16 -123 16 -361v-26.5v-28.5q0 -83 -26 -137q-19 -40 -38 -55q-64 -51 -116 -53q-18 -1 -33 -1q-163 0 -219 106
q-29 55 -29 148v55q1 30 1 64q0 44 -1.5 141.5t-1.5 141.5h70q0 -43 1.5 -140.5t1.5 -142.5q0 -36 -1 -66v-53q0 -71 21 -111q38 -73 157 -73q14 0 30 1q38 2 76 46q12 14 18 27q12 24 15.5 43.5t3.5 58.5v27.5v27.5q0 233 -16 351z" />
    <glyph glyph-name="Uacute" unicode="&#xda;" horiz-adv-x="599" 
d="M437 830v-60q7 0 -7 -7l-23 -10q-6 -2 -38 -18t-59 -24.5t-54 -8.5v60q17 0 36.5 7t47 20.5t41.5 19.5q2 1 12 7t21.5 10t22.5 4zM455 645l70 10q16 -123 16 -361v-26.5v-28.5q0 -83 -26 -137q-19 -40 -38 -55q-64 -51 -116 -53q-18 -1 -33 -1q-163 0 -219 106
q-29 55 -29 148v55q1 30 1 64q0 44 -1.5 141.5t-1.5 141.5h70q0 -43 1.5 -140.5t1.5 -142.5q0 -36 -1 -66v-53q0 -71 21 -111q38 -73 157 -73q14 0 30 1q38 2 76 46q12 14 18 27q12 24 15.5 43.5t3.5 58.5v27.5v27.5q0 233 -16 351z" />
    <glyph glyph-name="Ucircumflex" unicode="&#xdb;" horiz-adv-x="599" 
d="M302 759q-45 -45 -69.5 -56.5t-43.5 0.5l25 44q-6 3 -8 6t0.5 6.5t6 7t12.5 9.5l7.5 6t7 6t8 7t8.5 7.5t9 8.5t8.5 8t6.5 6.5t3 3.5q18 23 35 4l4 -4.5t10.5 -12t14 -17t15 -18.5t14 -16.5t10.5 -12.5l4 -5v-52q-25 0 -88 64zM541 294v-26.5v-28.5q0 -83 -26 -137
q-19 -40 -38 -55q-64 -51 -116 -53q-18 -1 -33 -1q-163 0 -219 106q-29 55 -29 148v55q1 30 1 64q0 44 -1.5 141.5t-1.5 141.5h70q0 -43 1.5 -140.5t1.5 -142.5q0 -35 -1 -66v-53q0 -71 21 -111q38 -73 157 -73q14 0 30 1q38 2 76 46q12 14 18 27q12 24 15.5 43.5t3.5 58.5
v27.5v27.5q0 233 -16 351l70 10q16 -123 16 -361z" />
    <glyph glyph-name="Udieresis" unicode="&#xdc;" horiz-adv-x="599" 
d="M263 756l-57 -47q-6 0 -15 -0.5t-10 -0.5v96l4 0.5t10 0.5h11q57 0 57 -49zM391 724l-38 -6v79q1 0 22.5 3.5t29.5 0.5q33 -8 33 -38l-16 -35q2 5 3 10l-10 -25q0 -17 -8 -7q-14 17 -16 18zM419 712q-1 1 -4 1l7 15q-4 -12 -3 -16zM541 294v-26.5v-28.5q0 -83 -26 -137
q-19 -40 -38 -55q-64 -51 -116 -53q-18 -1 -33 -1q-163 0 -219 106q-29 55 -29 148v55q1 30 1 64q0 44 -1.5 141.5t-1.5 141.5h70q0 -43 1.5 -140.5t1.5 -142.5q0 -36 -1 -66v-53q0 -71 21 -111q38 -73 157 -73q14 0 30 1q38 2 76 46q12 14 18 27q12 24 15.5 43.5t3.5 58.5
v27.5v27.5q0 233 -16 351l70 10q16 -123 16 -361z" />
    <glyph glyph-name="Yacute" unicode="&#xdd;" horiz-adv-x="546" 
d="M456 770q7 0 -7 -7l-23 -10q-6 -2 -38 -18t-59 -24.5t-54 -8.5v60q17 0 36 7t47 20.5t42 19.5q1 1 11 7t21.5 10t23.5 4v-60zM501 658l50 -55q-21 -22 -41 -76.5t-31 -74.5q-13 -26 -39 -65t-31 -47q-7 -13 -18 -31.5t-20.5 -35t-17.5 -29.5q-1 -14 -3.5 -32.5
t-1.5 -24.5q0 -21 5 -86t5 -102h-70q0 26 -2 58t-4.5 67t-3.5 60q-1 15 2 31.5t3 22.5l43 6l-21 16h-25l-25.5 40.5t-31.5 50.5q-9 15 -23.5 37t-25 38.5t-24 38.5t-24.5 42q-6 13 -14 31t-13 30t-13 26t-18 24l50 56q17 -17 30 -40.5t24.5 -51.5t15.5 -37q12 -22 27 -46.5
t35.5 -55.5t32.5 -50q30 -49 38 -62q26 45 28 50q10 15 34.5 52t33.5 56q9 16 21.5 51.5t27.5 66t35 51.5z" />
    <glyph glyph-name="Thorn" unicode="&#xde;" horiz-adv-x="604" 
d="M535 298q5 -30 0 -41q-3 -20 -12 -37.5t-19.5 -29t-31.5 -25t-34.5 -21t-40.5 -20.5q-12 -6 -17 -9q-41 -24 -149 -30l-59 -1h-5q-15 0 -23 7l27 52l-15 12l15 1q7 0 19 0.5t21 0.5h11q102 5 133 18q17 10 44 23t42 20.5t28 21t17 30.5q-1 3 -1 5t-1 5t-1 6q-2 12 -9 38
q-11 53 -44 76q-12 13 -57.5 29t-108.5 29q-4 1 -24.5 6t-31 7.5t-27.5 5.5t-31 3t-20 -2l-5 18q-2 -8 -3 -14q-13 -106 -7 -252q8 -137 3 -189q0 -15 -4 -54l7 -9q0 -2 1 -7l-78 12q1 16 4 20q2 33 6 45v61.5t-2 59.5t-3 60q-9 158 9 264q3 25 11.5 64t12 67.5t-0.5 50.5
l67 6q9 -50 -10 -130q5 1 11 1q17 0 37.5 -3.5t48.5 -10t39 -8.5q140 -32 192 -71q42 -42 60 -120q1 -5 4 -19.5t5 -21.5z" />
    <glyph glyph-name="germandbls" unicode="&#xdf;" horiz-adv-x="425" 
d="M375 224q21 -84 13 -77q1 -13 1 -21q0 -21 -13 -44q-13 -25 -50.5 -47.5t-66.5 -22.5q-10 0 -18 4q-22 8 -34 23t-21 41q-1 4 -6.5 14t-5.5 16q0 8 6 15l44 -15l10 -4q2 -7 3 -12q7 2 22 -4q-1 0 -1 1t1 1q10 0 40.5 12t32.5 15q5 7 7 7q0 3 -1 14l-11 63
q-2 6 -12.5 20.5t-22.5 31.5t-25 45t-19 59q-2 9 -2 24q0 25 7.5 46t18.5 34.5t21.5 22.5t19.5 14t9 6l14 23q0 41 -10 54t-45 21q-6 1 -46 1l-43 -98q-6 -17 -10.5 -34.5t-8 -39t-5.5 -33.5t-5 -40t-5 -38q-2 -19 -11 -95.5t-14 -111.5t-17 -93.5t-26 -103.5
q-21 -66 -34 -93.5t-30 -32.5q-39 -12 -76 17.5t-47 79.5l49 15q2 -12 24.5 -25.5t35.5 -9.5q4 1 7.5 7t7 15.5t6.5 18.5t5.5 19t3.5 13q14 44 25.5 100.5t16 88.5t14 108t11.5 93q1 11 4.5 39.5t5.5 43.5t6 38t8.5 42.5t11.5 37.5q1 4 7.5 24t8.5 24.5t8.5 21.5t10.5 23
t11.5 18.5t14.5 17t16 11.5t20 9.5t23 2.5t26 -3q46 -9 70.5 -46.5t24.5 -96.5q0 -51 -24 -83q-10 -11 -27.5 -24.5t-28 -24.5t-10.5 -24q0 -3 1 -7q4 -23 20.5 -48.5t33.5 -52.5t24 -51z" />
    <glyph glyph-name="agrave" unicode="&#xe0;" horiz-adv-x="507" 
d="M333 623l-38 -57q-42 42 -78.5 103.5t-36.5 94.5h54q0 -10 36.5 -62.5t62.5 -78.5zM470 147q0 -13 -8 -21q-4 -4 -8 -10.5t-8 -13.5t-8 -12q-2 -4 -14 -20.5t-17 -23.5t-15 -19.5t-18.5 -21.5t-17.5 -16q-6 -4 -11.5 -7t-9.5 -4t-7.5 -1.5l-3.5 -0.5q-21 -11 -28 5
q-9 17 -9 68q0 32 5.5 76.5t10 70.5t15 78t11.5 56q3 15 8 50l-8 -14l-6 -27h-3q-2 0 -5 2q-10 -18 -25.5 -44t-19.5 -33q-10 -18 -39 -74t-48 -85q-11 -16 -31 -41.5t-26 -35.5q-38 -53 -51 -49q-15 5 -31.5 65.5t-16.5 83.5q0 92 5 127q6 41 21.5 90.5t44 99.5t60.5 66
q11 5 23 5q18 0 44 -12.5t39 -21.5t42 -30q19 37 19 50h2q24 1 54 2q17 1 22.5 0.5t5.5 -4.5v-31q-6 -37 -8 -45q-4 -15 -7 -34t-6 -40t-5.5 -34.5t-8.5 -43t-10.5 -51.5t-9 -49.5t-8 -53.5t-4.5 -48q12 12 53 68l7 11l14 22t8 12h3l23 -36h20zM223 304q6 10 21 35.5
t23 40.5q-19 18 -30 27.5t-27.5 19t-28.5 9.5q-3 0 -3.5 10.5t1.5 15.5q-34 -20 -59 -89.5t-34 -129.5q-5 -31 -5 -115h-1q4 -13 10 -41q7 10 15 21t13.5 17.5t11 13.5t8.5 11q22 33 49.5 86.5t35.5 67.5zM92 55h1h-1z" />
    <glyph glyph-name="aacute" unicode="&#xe1;" horiz-adv-x="507" 
d="M422 753q0 -27 -32 -65.5t-73.5 -66t-66.5 -27.5v70q5 0 34 21t56.5 43t27.5 25h54zM470 147q0 -13 -8 -21q-5 -6 -12.5 -18.5t-11.5 -17.5q-2 -4 -14 -20.5t-17 -23.5t-15 -19.5t-18.5 -21.5t-17.5 -16q-6 -4 -11.5 -7t-9.5 -4t-7.5 -1.5l-3.5 -0.5q-21 -11 -28 5
q-9 17 -9 68q0 26 3 56.5t8.5 64t10 58t11.5 58.5t9 44q3 15 8 50l-8 -14l-6 -27h-3q-2 0 -5 2q-10 -18 -25.5 -44t-19.5 -33q-10 -18 -39 -74t-48 -85q-11 -16 -31 -41.5t-26 -35.5q-38 -53 -51 -49q-15 5 -31.5 65.5t-16.5 83.5q0 92 5 127q6 41 21.5 90.5t44 99.5
t60.5 66q11 5 23 5q18 0 44 -12.5t39 -21.5t42 -30q19 37 19 50h2q24 1 54 2q17 1 22.5 0.5t5.5 -4.5v-31q-6 -37 -8 -45q-5 -20 -10.5 -58.5t-8.5 -50.5q-2 -13 -8 -42.5t-10.5 -51.5t-9 -49.5t-8 -53.5t-4.5 -48q12 12 53 68l4.5 7t9.5 15t9.5 15t5.5 8h3l23 -36h20z
M223 304q6 10 21 35.5t23 40.5q-19 18 -30 27.5t-27.5 19t-28.5 9.5q-3 0 -3.5 10.5t1.5 15.5q-34 -20 -59 -89.5t-34 -129.5q-5 -31 -5 -115h-1q4 -13 10 -41q11 16 27.5 36.5t20.5 27.5q22 32 49.5 85.5t35.5 67.5zM92 55h1h-1z" />
    <glyph glyph-name="acircumflex" unicode="&#xe2;" horiz-adv-x="507" 
d="M258 670q-15 -18 -22 -28t-12 -20.5t-11 -27.5l-47 22q9 29 19.5 49t15.5 26.5t19 23.5q13 16 26.5 30t17.5 20q1 1 9 14t16.5 25.5t14.5 16.5q1 0 4.5 4t7 7t10 6t12.5 3q18 0 29.5 -17.5t11.5 -40.5q0 -11 1 -19q-1 8 -1 17q0 -5 -0.5 -14.5t0 -18t3.5 -15.5
q19 -56 19 -146h-50q0 83 -19 141q-4 10 -3 32q-3 -2 -6 -5.5t-5.5 -8t-4.5 -8t-4.5 -8.5t-4.5 -8q-5 -8 -23.5 -27.5t-22.5 -24.5zM450 147h20q0 -13 -8 -21q-5 -6 -12.5 -18.5t-11.5 -17.5q-3 -4 -14.5 -20.5t-17 -23.5t-15 -19.5t-18 -21.5t-17.5 -16q-6 -4 -11.5 -7
t-9.5 -4t-7.5 -1.5l-3.5 -0.5q-21 -11 -28 5q-9 17 -9 68q0 32 5.5 76.5t10 70.5t15 78t11.5 56q3 15 8 50q-4 -6 -8 -14l-7 -27h-2q-2 0 -5 2q-10 -18 -25.5 -44t-19.5 -33q-11 -21 -27 -52t-30.5 -58t-29.5 -49q-11 -16 -31 -41.5t-27 -35.5q-37 -53 -50 -49
q-15 5 -31.5 65.5t-16.5 83.5q0 92 5 127q6 41 21.5 90.5t44 99.5t60.5 66q11 5 23 5q18 0 44 -12.5t38.5 -21.5t42.5 -30q19 38 19 50h2q24 1 54 2q28 1 28 -4v-31q-6 -37 -8 -45q-5 -20 -10.5 -58t-8 -50.5t-11 -54.5t-13 -66.5t-9.5 -61t-7 -63.5q12 12 53 68l7 11l14 22
t8 12h3zM223 304q6 10 21 35.5t23 40.5q-19 18 -30 27.5t-27.5 19t-28.5 9.5q-3 0 -3.5 10.5t1.5 15.5q-34 -20 -59 -89.5t-34 -129.5q-5 -31 -5 -115h-1q4 -13 9 -41q12 16 28.5 36.5t20.5 27.5q22 32 49.5 85.5t35.5 67.5zM92 55h1h-1z" />
    <glyph glyph-name="atilde" unicode="&#xe3;" horiz-adv-x="507" 
d="M412 726h54q0 -50 -40 -91t-89 -41q-9 0 -19 3q-8 1 -17 5.5t-17 10.5t-16 13t-15.5 14t-14 13.5t-13 11.5t-10.5 7q-10 6 -23 6q-29 0 -45 -34q-4 -8 -8.5 -9.5t-7.5 2t-3 7.5l-44 -10q0 14 14 42q37 74 94 74q23 0 49 -15q16 -9 43 -36.5t45 -31.5l3 -5.5t5 -5.5
q25 0 50 24.5t25 45.5zM470 147q0 -13 -8 -21q-5 -6 -12.5 -18.5t-11.5 -17.5q-2 -4 -14 -20.5t-17 -23.5t-15 -19.5t-18.5 -21.5t-17.5 -16q-5 -4 -9.5 -6.5t-8 -3.5l-7 -2t-5.5 -1h-2q-21 -11 -28 5q-9 17 -9 68q0 26 3 56.5t8.5 64t10 58t11.5 58.5t9 44q3 15 8 50
l-8 -14l-6 -27h-3q-2 0 -5 2q-10 -18 -25.5 -44t-19.5 -33q-10 -18 -39 -74t-48 -85q-11 -16 -31 -41.5t-26 -35.5q-38 -53 -51 -49q-15 5 -31.5 65.5t-16.5 83.5q0 92 5 127q6 41 21.5 90.5t44 99.5t60.5 66q11 5 23 5q18 0 44 -12.5t39 -21.5t42 -30q19 37 19 50h2
q24 1 54 2q17 1 22.5 0.5t5.5 -4.5v-31q-6 -37 -8 -45q-4 -15 -7 -34t-6 -40t-5.5 -34.5t-8.5 -43t-10.5 -51.5t-9 -49.5t-8 -53.5t-4.5 -48q12 12 53 68l7 11l14 22t8 12h3l23 -36h20zM223 304q6 10 21 35.5t23 40.5q-14 13 -22.5 20.5t-21 17t-23 14t-19.5 4.5
q-3 0 -3.5 10.5t1.5 15.5q-34 -20 -59 -89.5t-34 -129.5q-5 -31 -5 -115h-1q4 -13 10 -41q11 16 27.5 36.5t20.5 27.5q22 32 49.5 85.5t35.5 67.5zM92 55h1h-1z" />
    <glyph glyph-name="adieresis" unicode="&#xe4;" horiz-adv-x="507" 
d="M206 612h-65q0 65 39 99l7 4l57 -51q-8 -16 -18 -28t-15 -17t-5 -7zM383 612h-65q0 65 39 99l7 4l57 -51q-8 -16 -18 -28t-15 -17t-5 -7zM470 147q0 -13 -8 -21q-5 -6 -12.5 -18.5t-11.5 -17.5q-2 -4 -14 -20.5t-17 -23.5t-15 -19.5t-18.5 -21.5t-17.5 -16
q-6 -4 -11.5 -7t-9.5 -4t-7.5 -1.5l-3.5 -0.5q-21 -11 -28 5q-9 17 -9 68q0 32 5.5 76.5t10 70.5t15 78t11.5 56q3 15 8 50l-8 -14l-6 -27h-3q-2 0 -5 2q-10 -18 -25.5 -44t-19.5 -33q-10 -18 -39 -74t-48 -85q-11 -16 -31 -41.5t-26 -35.5q-38 -53 -51 -49
q-15 5 -31.5 65.5t-16.5 83.5q0 92 5 127q6 41 21.5 90.5t44 99.5t60.5 66q11 5 23 5q18 0 44 -12.5t39 -21.5t42 -30q19 37 19 50h2q24 1 54 2q17 1 22.5 0.5t5.5 -4.5v-31q-6 -37 -8 -45q-5 -20 -10.5 -58.5t-8 -50.5t-11 -54t-13 -66.5t-9.5 -61t-7 -63.5q12 12 53 68
l4.5 7t9.5 15t9.5 15t5.5 8h3l23 -36h20zM223 304q6 10 21 35.5t23 40.5q-19 18 -30 27.5t-27.5 19t-28.5 9.5q-3 0 -3.5 10.5t1.5 15.5q-34 -20 -59 -89.5t-34 -129.5q-5 -31 -5 -115h-1q4 -13 10 -41q11 16 27.5 36.5t20.5 27.5q22 32 49.5 85.5t35.5 67.5zM92 55h1h-1z
" />
    <glyph glyph-name="aring" unicode="&#xe5;" horiz-adv-x="507" 
d="M263 576q-47 9 -76.5 35t-29.5 71q0 56 35 87t90 31q25 0 43 -10.5t37 -34.5q26 -31 26 -67q0 -25 -9.5 -47.5t-25.5 -38.5t-36.5 -25t-41.5 -9l-6 41zM282 740q-31 0 -51 -16.5t-20 -41.5q0 -17 17.5 -29.5t44.5 -17.5l-1 -7q21 4 41.5 23t20.5 37q0 6 -18 36
q-10 16 -34 16zM450 147h20q0 -13 -8 -21q-5 -6 -12.5 -18.5t-11.5 -17.5q-2 -4 -14 -20.5t-17 -23.5t-15 -19.5t-18.5 -21.5t-17.5 -16q-6 -4 -11.5 -7t-9.5 -4t-7.5 -1.5l-3.5 -0.5q-21 -11 -28 5q-9 17 -9 68q0 26 3 56.5t8.5 64t10 58t11.5 58.5t9 44q3 15 8 50l-8 -14
l-6 -27h-3q-2 0 -5 2q-10 -18 -25.5 -44t-19.5 -33q-10 -18 -39 -74t-48 -85q-11 -16 -31 -41.5t-26 -35.5q-38 -53 -51 -49q-15 5 -31.5 65.5t-16.5 83.5q0 92 5 127q6 41 21.5 90.5t44 99.5t60.5 66q11 5 23 5q18 0 44 -12.5t39 -21.5t42 -30q19 37 19 50h2q24 1 54 2
q17 1 22.5 0.5t5.5 -4.5v-31q-6 -37 -8 -45q-5 -20 -10.5 -58.5t-8.5 -50.5q-2 -13 -8 -42.5t-10.5 -51.5t-9 -49.5t-8 -53.5t-4.5 -48q12 12 53 68l7 11l14 22t8 12h3zM223 304q6 10 21 35.5t23 40.5q-19 18 -30 27.5t-27.5 19t-28.5 9.5q-3 0 -3.5 10.5t1.5 15.5
q-34 -20 -59 -89.5t-34 -129.5q-5 -31 -5 -115h-1q4 -13 10 -41q11 16 27.5 36.5t20.5 27.5q22 32 49.5 85.5t35.5 67.5zM92 55h1h-1z" />
    <glyph glyph-name="ae" unicode="&#xe6;" horiz-adv-x="640" 
d="M507 103q10 8 20 17t14 12.5t3 2.5l44 -40q-14 -25 -49 -54q-55 -45 -93 -45q-33 0 -59 35.5t-51 106.5q-6 20 -14 45q-16 -2 -36 -2v80h14q-8 26 -13 44q-15 -26 -29.5 -46.5t-27.5 -39t-24 -37.5l-24 -42t-33.5 -57.5t-31.5 -48t-30 -34.5q-31 -22 -51 -5t-20 62
q0 11 2 24t3.5 22l1.5 9q0 77 6 115q12 85 16 103q9 39 70 104.5t106 77.5l45 -34q3 -4 13 -18l17 -26q4 8 4 11h50q0 -29 -27 -79q8 -25 19 -61q5 23 12 41q28 63 67 113q11 13 26 26t30 22t26 11q7 1 17 1q86 0 94 -43q2 -11 2 -24q0 -48 -30.5 -98.5t-72 -85.5t-81.5 -50
q-8 -3 -28.5 -11t-30.5 -11q6 -18 11 -32q17 -50 29.5 -69t32.5 -19q29 0 61 27zM266 478zM460 409q-41 -53 -60 -95q-7 -15 -10 -31q17 7 25 10q51 19 94.5 61t53.5 80q-19 5 -43 5h-5h-3q-15 -3 -30.5 -13t-21.5 -17zM255 365q1 1 7 11q-5 12 -10 23l-13 13q-1 2 -3 5
t-5 7t-5 8q-23 -9 -52.5 -30.5t-53 -47t-26.5 -42.5q-5 -20 -16 -96q-5 -35 -5 -104q0 -8 -5 -38q12 12 27 34t25.5 40t24.5 43t18 32q17 29 37.5 60.5t36 54t18.5 27.5z" />
    <glyph glyph-name="ccedilla" unicode="&#xe7;" horiz-adv-x="382" 
d="M334 361h-54q0 30 9 51q-8 10 -32 25q-15 11 -39 11q-26 0 -51.5 -18t-40.5 -48q-39 -77 -39 -159q0 -5 0.5 -15t0.5 -16q1 -7 4 -18.5t7.5 -27t7.5 -30.5l4 -47q11 11 32 -2q12 -6 32 -6q32 0 59 25q13 12 25 23t18 16t8 7h3l41 -47q-8 -12 -17.5 -21.5t-23.5 -22
t-17 -15.5q-49 -46 -96 -46h-1q-7 -24 -11 -33l-1 -3q4 1 8 1q29 0 47 -9.5t25.5 -26t7.5 -41.5q0 -19 -6 -38q-9 -31 -51 -47t-105 -16q-21 0 -35 6q-12 6 -16.5 8t-11.5 9.5t-11 17.5l50 21l11 -4q-3 2 1 2l3 -1h9l26 4t52 8.5l26 4.5q4 11 4 25q0 7 -8.5 12t-17.5 5
q-14 0 -25 -2q-25 -7 -40.5 21t-2.5 58q4 10 12 28q2 4 3 7q-4 2 -9 5q-35 23 -44 40q-4 6 -6 18t-3 23.5t-1 13.5q-17 66 -20 82q-2 36 -2 44q0 110 46 196q27 51 64 80t76 29q35 0 71 -25q34 -24 52 -61q5 -13 5 -26q0 -14 -6 -32t-6 -23z" />
    <glyph glyph-name="egrave" unicode="&#xe8;" horiz-adv-x="405" 
d="M303 628l-38 -57q-42 42 -78.5 103.5t-36.5 94.5h54q0 -10 36 -62.5t63 -78.5zM340 354q-43 -50 -93.5 -87t-120.5 -75q-4 -2 -20 -9q0 -33 9 -52q-1 -4 16.5 -22t37.5 -33l8 -6q2 0 6 -0.5t9 -1.5t11 -1.5t12.5 -1t12.5 -0.5h18l63 72l42 -51l-74 -86h1q-14 -16 -50 -16
q-24 0 -47 5.5t-34 12.5q-18 13 -39.5 36.5t-33.5 42.5l-2 1q-16 30 -20 80q-25 -8 -32 -8h-2v80h2q5 0 36 12q5 38 15 79t23 76.5t29 64t32 42.5q12 10 44 19q16 3 31 3q48 0 121 -88q26 -30 18 -51q-3 -8 -8.5 -15t-12.5 -14zM185 465q-23 -22 -42.5 -77t-29.5 -118
q34 15 49 23t41 24.5t48.5 37.5t46.5 50q0 1 1 2q-15 17 -33.5 30t-35.5 13q-18 0 -23 -2q-11 -3 -16.5 3.5t-5.5 13.5z" />
    <glyph glyph-name="eacute" unicode="&#xe9;" horiz-adv-x="405" 
d="M391 758q0 -27 -31.5 -65.5t-73 -66t-67.5 -27.5v70q5 0 34.5 21t56.5 43t27 25h54zM230 530q48 0 121 -87q26 -31 18 -52q-3 -6 -7 -12.5t-7.5 -10t-8 -8.5t-6.5 -6q-43 -50 -93.5 -87t-120.5 -75q-4 -2 -20 -9q0 -33 9 -52q-1 -4 16.5 -22t37.5 -33l8 -6q2 0 11 -1.5
t20 -2.5t20 -1h18l63 72l42 -51l-74 -86h1q-14 -16 -50 -16q-24 0 -47 5.5t-34 12.5q-18 13 -39.5 36.5t-33.5 42.5l-2 1q-16 30 -20 80q-25 -8 -32 -8h-2v80h2q5 0 36 12q5 38 15 79t23 76.5t29 64t32 42.5q12 10 44 19q16 3 31 3zM113 270q24 11 32.5 15t28.5 14.5
t31.5 19t28.5 21.5t32 29t32 36q0 1 1 2q-15 17 -33.5 30t-35.5 13q-18 0 -23 -2q-11 -3 -16.5 3.5t-5.5 13.5q-23 -22 -42.5 -77t-29.5 -118z" />
    <glyph glyph-name="ecircumflex" unicode="&#xea;" horiz-adv-x="405" 
d="M228 674q-21 -24 -29 -37.5t-16 -37.5l-48 22q10 29 20.5 49t15.5 26.5t18 23.5q14 15 27.5 29.5t17.5 20.5q1 1 9 14t16.5 25.5t14.5 16.5l3.5 3.5t7.5 7t10 6.5t13 3q17 0 29 -17.5t12 -40.5v-19q0 7 -1 17q1 -5 0.5 -14.5t0 -18t2.5 -15.5q20 -56 20 -146h-50
q0 83 -20 141q-3 10 -3 32q-3 -3 -7 -8t-6 -9.5t-6 -11t-5 -9.5q-6 -8 -24 -28t-22 -25zM340 354q-43 -50 -93.5 -87t-120.5 -75q-4 -2 -20 -9q0 -33 9 -52q-1 -4 16.5 -22t37.5 -33l8 -6q2 0 8 -1t12.5 -2t15 -1.5t15.5 -0.5h18l63 72l42 -51l-74 -86h1q-14 -16 -50 -16
q-24 0 -47 5.5t-34 12.5q-18 13 -39.5 36.5t-34.5 42.5l-1 1q-16 30 -20 80q-25 -8 -32 -8h-2v80h2q5 0 36 12q10 80 38.5 156.5t60.5 105.5q12 10 44 19q16 3 31 3q48 0 121 -87q26 -31 18 -52q-3 -6 -7 -12.5t-7.5 -10l-8 -8zM185 465q-23 -22 -42.5 -77t-29.5 -118
q34 15 49 23t41 24.5t48.5 37.5t46.5 50q0 1 1 2q-15 17 -33.5 30t-35.5 13q-18 0 -23 -2q-11 -3 -16.5 3.5t-5.5 13.5z" />
    <glyph glyph-name="edieresis" unicode="&#xeb;" horiz-adv-x="405" 
d="M176 617h-66q0 65 40 99l6 4l58 -52q-9 -15 -18.5 -27t-14.5 -17t-5 -7zM353 617h-66q0 65 40 99l7 4l57 -52q-9 -15 -18.5 -27t-14.5 -17t-5 -7zM340 354q-43 -50 -93.5 -87t-120.5 -75q-4 -2 -20 -9q0 -33 9 -52q-1 -4 16.5 -22t37.5 -33l8 -6q2 0 6 -0.5t9 -1.5
t11 -1.5t12.5 -1t12.5 -0.5h18l63 72l42 -51l-74 -86h1q-14 -16 -50 -16q-24 0 -47 5.5t-34 12.5q-18 13 -39.5 36.5t-33.5 42.5l-2 1q-16 30 -20 80q-25 -8 -32 -8h-2v80h2q5 0 36 12q5 38 15 79t23 76.5t29 64t32 42.5q12 10 44 19q16 3 31 3q48 0 121 -88q26 -30 18 -51
q-3 -8 -8.5 -15t-12.5 -14zM185 465q-23 -22 -42.5 -77t-29.5 -118q34 15 49 23t41 24.5t48.5 37.5t46.5 50q0 1 1 2q-15 17 -33.5 30t-35.5 13q-18 0 -23 -2q-11 -3 -16.5 3.5t-5.5 13.5z" />
    <glyph glyph-name="igrave" unicode="&#xec;" horiz-adv-x="228" 
d="M227 622l-39 -56q-27 27 -53.5 64.5t-43.5 74.5t-17 59h54q0 -11 36 -63t63 -79zM171 437h1v-1h-1q-2 -7 -7.5 -25.5t-8.5 -30.5q-26 -89 -58 -237q-3 -11 -8 -30.5t-7 -27.5q53 24 62 30l26 -68q-16 -11 -33 -19t-32.5 -15t-19.5 -10l-19 -10q-34 -13 -39 38v15
q0 20 3.5 41.5t10 46t7.5 26.5q35 158 59 242q1 5 3 10q-31 -10 -58 -10v80q30 0 77 19q6 3 13.5 6t10.5 4.5t7 2.5t6 0.5t5 -1.5t6 -4q7 -9 6 -22.5t-12 -49.5z" />
    <glyph glyph-name="iacute" unicode="&#xed;" horiz-adv-x="228" 
d="M261 753h54q0 -27 -32 -65.5t-73 -66t-67 -27.5v70q5 0 34.5 21t56.5 43t27 25zM177 509q7 -9 6 -22.5t-12 -49.5h1v-1h-1q-2 -7 -7.5 -25.5t-8.5 -30.5q-26 -89 -58 -237q-3 -11 -8 -30.5t-7 -27.5q53 24 62 30l26 -68q-16 -11 -33 -19t-32.5 -15t-19.5 -9l-19 -11
q-34 -13 -39 38v15q0 20 3.5 41.5t10 46t7.5 26.5q35 158 59 242q1 5 3 10q-31 -10 -58 -10v80q30 0 77 19q6 3 13.5 6t10.5 4.5t7 2.5t6 0.5t5 -1.5t6 -4z" />
    <glyph glyph-name="icircumflex" unicode="&#xee;" horiz-adv-x="228" 
d="M275 733q20 -56 20 -146h-50q0 83 -20 141q-3 10 -3 32q-4 -4 -8.5 -10t-9.5 -16t-7 -12q-5 -9 -23 -28.5t-23 -24.5q-20 -24 -28 -37.5t-16 -37.5l-48 22q10 28 20 48.5t15 27t19 22.5q13 16 27 30.5t18 19.5q1 2 8.5 15t16.5 25.5t15 16.5l3.5 3.5l7 7t10 6.5t13.5 3
q17 0 29 -17.5t12 -40.5v-19q0 7 -1 17q0 -5 -0.5 -15t0 -18t3.5 -15zM177 509q7 -9 6 -22.5t-12 -49.5h1v-1h-1q-2 -7 -7.5 -25.5t-8.5 -30.5q-25 -88 -58 -237q-2 -7 -4 -15.5t-4 -15t-4 -14t-3 -13.5q53 24 62 30l26 -68q-12 -8 -26 -15.5t-23.5 -11.5t-20.5 -9t-16 -7
l-18 -11q-34 -13 -39 38v15q0 21 3.5 42t10 45.5t7.5 26.5q35 158 59 242l2 10q-30 -10 -57 -10v80q30 0 77 19q6 3 13.5 6t10.5 4.5t7 2.5t6 0.5t5 -1.5t6 -4z" />
    <glyph glyph-name="idieresis" unicode="&#xef;" horiz-adv-x="228" 
d="M99 612h-65q0 64 39 99l7 4l58 -52q-9 -16 -18.5 -27.5t-15 -16.5t-5.5 -7zM276 612h-65q0 64 39 99l7 4l58 -52q-6 -10 -12 -18.5t-10.5 -13.5t-8 -9t-6 -6.5t-2.5 -3.5zM171 437h1v-1h-1q-2 -7 -7.5 -25.5t-8.5 -30.5q-26 -89 -58 -237q-2 -9 -5 -19.5t-5.5 -21
t-4.5 -17.5q53 24 62 30l26 -68q-16 -11 -33 -19t-32.5 -15t-19.5 -10l-19 -10q-34 -13 -39 38v15q0 20 3.5 41.5t10 46t7.5 26.5q35 158 59 242l2 10q-30 -10 -57 -10v80q30 0 77 19q6 3 13.5 6t10.5 4.5t7 2.5t6 0.5t5 -1.5t6 -4q7 -9 6 -22.5t-12 -49.5z" />
    <glyph glyph-name="eth" unicode="&#xf0;" horiz-adv-x="525" 
d="M511 648q-28 -17 -64 -36q45 -78 45 -192q0 -170 -58 -254l-9 -12q-30 -44 -46 -65.5t-39.5 -49.5t-43 -40t-38.5 -14q-51 -5 -107 23q-26 13 -44.5 25.5t-30 28.5t-18 28.5t-10 33.5t-4.5 34t-1 40q0 4 -0.5 7t-0.5 6.5v7.5q-1 36 -1 51q0 85 20 129q43 97 164 97
q38 0 68 -17q89 -51 113 -73l-36 -59q-20 19 -82.5 49t-72.5 30q-25 0 -59.5 -17t-45.5 -42q-15 -34 -15 -97q0 -13 1 -49q0 -9 1 -25q0 -19 0.5 -27t2 -20t5 -17t8 -12.5t14 -13t20 -12t28.5 -14.5q34 -17 83 -12q12 1 38 24.5t52 55.5t38 55q52 99 52 217q0 76 -59 157
q-55 -29 -85 -53l-34 63q30 24 67 46q-33 28 -72 45l21 74q77 -33 124 -80q58 29 83 44z" />
    <glyph glyph-name="ntilde" unicode="&#xf1;" horiz-adv-x="508" 
d="M486 731h53q0 -50 -40 -91t-88 -41q-9 0 -20 3q-16 3 -37 19t-39.5 34t-25.5 22q-10 6 -23 6q-29 0 -46 -34q-4 -8 -8.5 -9.5t-7 2t-2.5 7.5l-44 -10q0 14 14 42q36 73 94 73q23 0 49 -14q15 -8 30.5 -24t29 -28.5t27.5 -15.5q1 0 4 -5.5t5 -5.5q25 0 50 24.5t25 45.5z
M479 199q0 -20 -30.5 -74.5t-42.5 -57.5q-1 -9 -4.5 -16.5t-7 -12.5t-14 -12t-17.5 -10.5t-26 -13.5t-31 -16q-21 -11 -35 11t-1 46q4 8 9 16.5t7 12t3 5.5q8 33 27 89q12 35 34.5 85.5t31.5 83.5t9 76q0 5 -20 22l-2 2q-6 -8 -46 -56q-71 -79 -102.5 -120t-68.5 -106
q-11 -21 -31.5 -54.5t-28.5 -46.5q-3 -7 -6.5 -12.5t-5 -8.5t-1.5 -5q-2 -8 -2 -15q-2 -18 -15.5 -25.5t-26 -0.5t-12.5 26v5v1v19q1 6 3 12q4 25 22 83q33 104 98 270q8 20 17 47h-1q-7 -5 -34.5 -33t-54 -50.5t-37.5 -22.5h-2v60h2q1 0 22.5 21.5t45 44.5t28.5 26
q6 4 17 12q25 16 34.5 21.5t19 4.5t19.5 -11q8 -8 10.5 -19.5t0.5 -22t-5.5 -19t-6.5 -11.5h1q-15 -54 -24 -77q-27 -67 -46 -116q60 101 131 177q2 3 15 19t25 30.5t26 27t21 12.5h2l20 -15q1 -1 9 -8t12 -11t11 -13t11 -17.5t7 -20.5t3 -26q0 -57 -10.5 -99.5t-35 -97.5
t-32.5 -75q-5 -17 -15 -50q1 -1 2 -4q14 44 53 98q22 31 22 16h50z" />
    <glyph glyph-name="ograve" unicode="&#xf2;" horiz-adv-x="381" 
d="M339 628l-38 -57q-42 42 -78.5 103.5t-36.5 94.5h54q0 -7 17 -33.5t41 -58.5t41 -49zM339 512q23 0 23 -37q0 -10 -2 -26l-3 -24q-2 -32 -14 -133q-14 -113 -23 -148q21 26 19 14q-4 -26 -52 -97q-32 -47 -59 -71q-4 -4 -7.5 -6t-6 -3.5t-6.5 -2t-5.5 -0.5h-8.5h-11
q-65 0 -67 1q-6 2 -34 13t-41 19q-37 23 -33 82q4 55 27 128q6 17 14.5 48t15.5 52.5t17.5 48.5t25 51t33.5 44q-16 7 -6 13q5 3 26 11q59 22 157 22h2l-2 -20l20 21h1zM196 59q13 21 33.5 42.5t22.5 24.5q26 40 38 169q1 13 6.5 59.5t6.5 70.5v5q-85 0 -128 -17l2 -1h1
q-12 -12 -21.5 -25t-17 -28.5t-13 -28t-11.5 -31t-9.5 -30.5t-9.5 -33.5t-10 -33.5q-20 -71 -24 -109q-2 -22 8 -29q1 0 8 -1t19 -2t25 -1h4.5t12 -0.5t16 -0.5h18h17.5h6z" />
    <glyph glyph-name="oacute" unicode="&#xf3;" horiz-adv-x="381" 
d="M373 758h54q0 -27 -31.5 -65.5t-73 -66t-67.5 -27.5v70q4 0 23 13t40.5 29t38 30.5t16.5 16.5zM339 512q23 0 23 -37q0 -10 -2 -26l-3 -24q-2 -32 -14 -133q-14 -113 -23 -148q21 26 19 14q-4 -26 -52 -97q-32 -47 -59 -71q-4 -4 -7.5 -6t-6 -3.5t-6.5 -2t-5.5 -0.5h-8.5
h-11q-65 0 -67 1q-6 2 -34 13t-41 19q-37 23 -33 82q4 55 27 128q6 17 14.5 48t15.5 52.5t17.5 48.5t25 51t33.5 44q-16 7 -6 13q5 3 26 11q59 22 157 22h2l-2 -20l20 21h1zM196 59q13 21 33.5 42.5t22.5 24.5q26 40 38 169q1 13 6.5 59.5t6.5 70.5v5q-85 0 -128 -17l2 -1h1
q-12 -12 -21.5 -25t-17 -28.5t-13 -28t-11.5 -31t-9.5 -30.5t-9.5 -33.5t-10 -33.5q-20 -71 -24 -109q-2 -22 8 -29q1 0 8 -1t19 -2t25 -1h4.5t12 -0.5t16 -0.5h18h17.5h6z" />
    <glyph glyph-name="ocircumflex" unicode="&#xf4;" horiz-adv-x="381" 
d="M264 675q-21 -25 -29 -38.5t-16 -37.5l-47 22q9 29 19.5 49t15.5 26.5t18 23.5q14 16 27.5 30t17.5 20q1 1 6 9.5t10.5 17t12 17.5t11.5 12q1 0 3 2.5t5 5.5t6.5 5.5t9 4.5t10.5 2q18 0 29.5 -17.5t11.5 -40.5v-19v17q0 -5 -0.5 -14.5t0 -18t2.5 -15.5q20 -56 20 -146
h-50q0 83 -20 141q-3 10 -2 32q-5 -4 -9 -10t-9.5 -16t-6.5 -12q-5 -8 -23.5 -27.5t-22.5 -24.5zM339 512q23 0 23 -37q0 -6 -0.5 -12.5t-1.5 -12t-2 -12.5t-1 -13q-2 -32 -14 -133q-14 -113 -23 -148q21 26 19 14q-4 -26 -52 -96q-32 -48 -59 -72q-4 -4 -7.5 -6t-6 -3.5
t-6.5 -2t-5.5 -0.5h-8.5h-11q-65 0 -67 1q-6 2 -34 13t-41 19q-37 23 -33 82q4 55 27 128q5 16 17.5 59.5t20.5 67.5t26.5 58t41.5 59q-16 7 -6 13l26 11q59 22 157 22h2l-2 -20l20 21h1zM303 425v5q-85 0 -128 -17l2 -1h1q-12 -12 -21.5 -25t-17 -28.5t-13 -28t-11.5 -31
t-9.5 -30.5t-9.5 -33.5t-10 -33.5q-20 -71 -24 -109q-2 -22 8 -29q1 0 5.5 -1t10.5 -1.5t16 -1t20 -0.5h4.5t12 -0.5t16 -0.5h18h17.5h6q9 15 21.5 29t22 24t13.5 15q25 39 37 168q1 17 4 42t5.5 47.5t3.5 40.5z" />
    <glyph glyph-name="otilde" unicode="&#xf5;" horiz-adv-x="381" 
d="M418 731h54q0 -50 -40 -91t-89 -41q-9 0 -20 3q-16 3 -36.5 19t-39.5 34t-26 22q-10 6 -23 6q-29 0 -46 -34q-4 -8 -8.5 -9.5t-7 2t-2.5 7.5l-44 -10q0 14 14 42q36 74 94 74q23 0 49 -15q16 -9 43 -36.5t45 -31.5l3 -5.5t5 -5.5q25 0 50 24.5t25 45.5zM339 512
q23 0 23 -37q0 -10 -2 -26l-3 -24q-2 -32 -14 -133q-14 -113 -23 -148q21 26 19 14q-4 -26 -52 -97q-32 -47 -59 -71q-4 -4 -7.5 -6t-6 -3.5t-6.5 -2t-5.5 -0.5h-8.5h-11q-65 0 -67 1q-6 2 -34 13t-41 19q-37 23 -33 82q4 55 27 128q6 17 14.5 48t15.5 52.5t17.5 48.5t25 51
t33.5 44q-16 7 -6 13q5 3 26 11q59 22 157 22h2l-2 -20l20 21h1zM196 59q9 15 21.5 29t22 24t12.5 14q26 40 38 169q1 13 6 59.5t7 70.5v5q-85 0 -128 -17l2 -1h1q-13 -14 -24.5 -31t-18.5 -30.5t-15 -36t-11.5 -34.5t-11 -39.5t-11.5 -38.5q-20 -71 -24 -109q-2 -22 8 -29
q1 0 8 -1t19 -2t25 -1h4.5t12 -0.5t16 -0.5h18h17.5h6z" />
    <glyph glyph-name="odieresis" unicode="&#xf6;" horiz-adv-x="381" 
d="M212 617h-66q0 65 40 99l7 4l57 -51q-8 -16 -18 -28t-15 -17t-5 -7zM389 617h-66q0 65 40 99l7 4l57 -51q-4 -9 -9.5 -16.5t-9.5 -12.5t-7.5 -9t-6 -6.5l-4 -4t-1.5 -3.5zM339 512q23 0 23 -37q0 -10 -2 -26l-3 -24q-2 -32 -14 -133q-14 -113 -23 -148q21 26 19 14
q-4 -26 -52 -97q-32 -47 -59 -71q-4 -4 -7.5 -6t-6 -3.5t-6.5 -2t-5.5 -0.5h-8.5h-11q-65 0 -67 1q-6 2 -34 13t-41 19q-37 23 -33 82q4 55 27 128q6 17 14.5 48t15.5 52.5t17.5 48.5t25 51t33.5 44q-16 7 -6 13q5 3 26 11q59 22 157 22h2l-2 -20l20 21h1zM196 59
q13 21 33.5 42.5t22.5 24.5q26 40 38 169q1 13 6 59.5t7 70.5v5q-85 0 -128 -17l2 -1h1q-13 -14 -24.5 -31t-18.5 -30.5t-15 -36t-11.5 -34.5t-11 -39.5t-11.5 -38.5q-20 -71 -24 -109q-2 -22 8 -29q1 0 8 -1t19 -2t25 -1h4.5t12 -0.5t16 -0.5h18h17.5h6z" />
    <glyph glyph-name="divide" unicode="&#xf7;" horiz-adv-x="562" 
d="M304 375q-29 0 -46.5 19.5t-17.5 49.5q0 36 23.5 65.5t52.5 29.5v-70l13 28q-3 3 1 3q21 -1 39 -16l2 -2q10 -10 10 -32q0 -21 -11 -35q-33 -40 -66 -40zM315 467q-5 -1 -9.5 -4.5t-8 -8.5t-3.5 -9q0 2 1 2.5t4 0t5 -0.5h1zM294 445zM389 315q16 0 50 4t51 4v-72
q-15 0 -49 -4t-52 -4q-30 0 -81 11t-73 12q-5 0 -51.5 -0.5t-56.5 -0.5q-42 0 -71 4l7 71q24 -3 64 -3q9 0 56.5 0.5t54.5 -0.5q25 -1 75.5 -11.5t75.5 -10.5zM208 175q50 38 76 6q22 -27 22 -50q0 -29 -26 -50.5t-60 -21.5q-19 0 -36 8.5t-23.5 21t-6.5 23.5q0 5 1 11t1 8
v30h66zM234 131l18 1l-24 23v-24q0 -2 -1 -15q7 5 7 15zM220 113z" />
    <glyph glyph-name="oslash" unicode="&#xf8;" horiz-adv-x="448" 
d="M378 500q64 79 94 79l-10 -62q-13 0 -86 -104q-2 -27 -13 -121q-14 -113 -23 -148q21 26 19 14q-4 -26 -51 -97q-33 -47 -60 -71q-4 -4 -7.5 -6t-5.5 -3.5t-6.5 -2t-6 -0.5h-8.5h-10q-66 0 -68 1q-8 3 -24.5 9.5t-20.5 8.5q-44 -87 -84 -134l-31 37q38 45 75 118
q-27 23 -23 75q4 55 27 128q5 16 12 40.5t12 42.5t13.5 42t17.5 42.5t22 39t29 37.5q-16 7 -6 13q5 3 26 11q59 22 157 22h2l-2 -20l20 21h1q14 0 19 -12zM82 93v-12q35 74 62 112q31 46 93 124t72 91q3 5 14 19v3q-85 0 -128 -17l2 -1h1q-10 -10 -19 -22.5t-15.5 -23.5
t-12.5 -25t-10.5 -25.5t-9.5 -27.5t-8 -27t-8 -29.5t-9 -29.5q-20 -71 -24 -109zM273 126q25 40 37 169q1 14 3 32q-11 -14 -44 -55t-53.5 -68t-37.5 -51q-25 -37 -54 -93h18h4.5t12 -0.5t16 -0.5h18h17.5h6q13 21 33.5 42.5t23.5 24.5z" />
    <glyph glyph-name="ugrave" unicode="&#xf9;" horiz-adv-x="573" 
d="M427 618l-38 -57q-42 42 -78.5 103.5t-36.5 94.5h54q0 -10 36.5 -62.5t62.5 -78.5zM548 227h2q-28 -131 -155 -218q-34 -20 -59.5 -28.5t-31.5 0.5q-12 8 -14 36.5t1.5 53.5t5.5 30q7 29 12 54q-68 -87 -126 -120l-120 -45q-6 0 -9 0.5t-7 2.5l-6 3t-8.5 5.5t-10.5 7.5
h-1v26v7q4 15 11 36.5t11.5 37.5t7.5 29q15 60 55 146t52 122q1 3 4 9q-89 -84 -95 -67l-38 -9h-2q0 11 1.5 18t4.5 13t12 14.5t18 16.5t30 25.5t40 35.5l1 1q12 11 25.5 22t22.5 18t19.5 15t15.5 12h3l36 -40q0 -2 -75.5 -184t-77.5 -188q-5 -24 -13 -49q15 4 32 11.5
t27.5 13t12.5 6.5q104 66 216 255q10 17 18 31q26 52 38 73q2 5 3 7h1q-1 9 -0.5 19t3 18.5t10 14t20 5.5t21 -17.5t6.5 -38.5t-39 -92q-12 -23 -22 -39q-1 -3 -4 -8.5t-4 -8.5q-55 -127 -76 -222q6 -12 6 -33q7 3 7 7h1q38 26 63.5 51.5t42 54t22.5 60.5h3z" />
    <glyph glyph-name="uacute" unicode="&#xfa;" horiz-adv-x="573" 
d="M516 748q0 -27 -32 -65.5t-73.5 -66t-67.5 -27.5v70q4 0 23.5 13t40.5 29t38 30.5t17 16.5h54zM548 227h2q-28 -131 -155 -218q-34 -20 -59.5 -28.5t-31.5 0.5q-9 6 -12.5 24.5t-2 39t4 37t3.5 19.5q7 29 12 54q-68 -87 -126 -120l-120 -45q-6 0 -9 0.5t-7 2.5l-6 3
t-8.5 5.5t-10.5 7.5h-1v26v7q4 15 11 36.5t11.5 37.5t7.5 29q15 60 55 146t52 122q1 3 4 9q-89 -84 -95 -67l-38 -9h-2q0 11 1.5 18t4.5 13t12 14.5t18 16.5t30 25.5t40 35.5l1 1q12 11 25.5 22t22.5 18t19.5 15t15.5 13h3l36 -41q0 -2 -75.5 -184t-77.5 -188
q-5 -24 -13 -49q15 4 32 11.5t27.5 13t12.5 6.5q104 66 215 255q11 17 19 31q26 52 38 73q2 5 3 7h1q-1 9 -0.5 19t3 18.5t10 14t20 5.5t21 -17.5t6.5 -38.5t-39 -92q-12 -23 -22 -39q-1 -3 -2.5 -5.5t-3 -5.5t-2.5 -6q-55 -127 -76 -222q6 -12 6 -33q7 3 7 7h1
q57 39 88 78.5t40 87.5h3z" />
    <glyph glyph-name="ucircumflex" unicode="&#xfb;" horiz-adv-x="573" 
d="M352 664q-21 -24 -29 -37.5t-16 -37.5l-47 22q5 18 11.5 32.5t10 21.5t11.5 18.5t9 12.5t11 13q14 16 27.5 30.5t17.5 20.5q1 1 6 9.5t10.5 17t12.5 17.5t11 12q1 0 4 3.5t7 7t10.5 6.5t12.5 3q18 0 29.5 -17.5t11.5 -40.5v-19v17q0 -5 -0.5 -15t0 -18t2.5 -15
q20 -56 20 -146h-50q0 83 -19 141q-4 10 -3 32q-5 -4 -9 -10t-9.5 -16t-6.5 -12q-5 -8 -23.5 -28t-22.5 -25zM548 227h2q-28 -131 -154 -218q-35 -20 -60.5 -28.5t-31.5 0.5h1q-13 8 -15 36.5t1.5 53.5t6.5 30q6 30 12 54q-69 -87 -127 -120l-120 -45q-5 0 -8.5 0.5
t-7.5 2.5l-6 3t-8.5 5.5t-10.5 7.5h-1v26v7q4 15 11 36.5t11.5 37.5t7.5 29q12 47 31.5 92.5t41.5 92t34 83.5q1 3 4 9q-88 -85 -95 -67l-38 -9h-2q0 9 0.5 15t4 13t7 11t13 13t19 16.5t27.5 23t35 31.5l2 1q11 11 24.5 22t22.5 18t19.5 15t15.5 13h3l36 -41
q0 -2 -75.5 -184t-76.5 -188q-6 -24 -14 -49q11 3 24 8t23 10l17 8.5t8 4.5q104 66 216 255q10 17 18 31q26 52 38 73q2 5 3 7h1q-1 9 -0.5 19t3 18.5t10 14t20 5.5t21 -17.5t6.5 -38.5t-40 -92q-11 -22 -21 -39q-1 -3 -4 -8.5t-4 -8.5q-55 -127 -76 -222q6 -12 6 -33
q7 4 7 7h1q38 26 63.5 51.5t42 54t22.5 60.5h3z" />
    <glyph glyph-name="udieresis" unicode="&#xfc;" horiz-adv-x="573" 
d="M300 607h-66q0 64 40 99l7 4l57 -52q-8 -15 -18 -27t-15 -17t-5 -7zM477 607h-65q0 64 39 99l7 4l57 -52q-8 -15 -18 -27t-15 -17t-5 -7zM548 227h2q-28 -131 -155 -218q-34 -20 -59.5 -28.5t-31.5 0.5q-9 6 -12.5 24.5t-2 39t4 37t3.5 19.5q7 29 12 54
q-68 -87 -126 -120l-120 -45q-6 0 -9 0.5t-7 2.5l-6 3t-8.5 5.5t-10.5 7.5h-1v26v7q4 12 8.5 28.5t8 27.5t7.5 23.5t6 23.5q15 60 55 146t52 122q1 3 4 9q-89 -84 -95 -67l-38 -9h-2q0 11 1.5 18t4.5 13t12 14.5t18 16.5t30 25.5t40 35.5l1 1q10 9 20.5 17.5t19 16t16.5 13
t15.5 11.5t11.5 10h3l36 -41q0 -2 -75.5 -184t-77.5 -188q-5 -24 -13 -49q15 4 32 11.5t27.5 13t12.5 6.5q104 66 215 255q11 17 19 31q26 52 38 73q2 5 3 7h1q-1 9 -0.5 19t3 18.5t10 14t20 5.5t21 -17.5t6.5 -38.5t-39 -92q-12 -23 -22 -39q-1 -3 -2.5 -5.5t-3 -5.5
t-2.5 -6q-55 -127 -76 -222q6 -12 6 -33q7 3 7 7h1q57 39 88 78.5t40 87.5h3z" />
    <glyph glyph-name="yacute" unicode="&#xfd;" horiz-adv-x="457" 
d="M443 751q0 -27 -31.5 -65t-73 -66t-67.5 -28v70q5 0 34.5 21t56.5 43t27 25h54zM463 516q0 -55 -13.5 -136.5t-30.5 -140.5q-15 -49 -52 -120t-76 -130q1 -29 -2 -39q-2 -18 -15.5 -24t-27.5 3q-7 -8 -15.5 -17.5t-15 -16.5t-10.5 -13q-7 -9 -20.5 -31t-20.5 -30
q-37 -44 -96 -94q-38 -33 -107 -53.5t-144 -20.5h-20q-56 4 -91 41q-29 24 -31.5 65.5t24.5 47.5h2l40 -53q-1 -2 8.5 -6.5t23 -8.5t24.5 -5h20q38 0 82.5 7.5t81 20.5t51.5 26h2v1h-1q65 55 89 84q11 13 21 30.5t19 29.5q14 16 35 39.5t26 30.5q6 8 12 17l5 20
q13 49 13 103q0 167 -83 276q-14 19 -33 32t-31 13q-39 0 -39 -100h-55q0 72 30 121.5t74 49.5q46 0 97 -67q44 -56 69.5 -144.5t25.5 -180.5l-1 -9q46 83 60 127q22 79 22 246h2l29 -10l41 19h2z" />
    <glyph glyph-name="thorn" unicode="&#xfe;" horiz-adv-x="403" 
d="M382 531q12 -4 16 -17.5t4 -52.5q0 -94 -34 -208q-9 -30 -26 -67.5t-35.5 -70t-37 -58t-31.5 -33.5q-21 -13 -47 -20.5t-62 -10.5q-26 -146 -26 -225h-54q0 88 23 223h-21h-16h-15h-2v81h2h15.5h15.5h35q4 23 6 41q19 138 43 210q4 14 9 29l-32 -15q-6 -5 -23.5 -22.5
t-34 -28.5t-30.5 -11h-2v81h2q6 0 14 4t14.5 9.5t15 12.5t13.5 10q43 31 102 63q21 53 31 82q18 53 32.5 94t22.5 61.5t13.5 33t7.5 16.5t2 6h3l48 -22h2q-6 -22 -41.5 -117.5t-40.5 -105.5l-4 -8q2 1 16.5 8.5t22 11t20 9t23.5 8t21 2.5q9 0 20 -3zM209 92q16 10 39.5 47.5
t42 76.5t25.5 61q29 98 31 169l-132 -61q-10 -31 -29 -87q-23 -71 -40 -196l-4 -26q49 5 67 16z" />
    <glyph glyph-name="ydieresis" unicode="&#xff;" horiz-adv-x="457" 
d="M228 611h-66q0 64 40 98l7 4l57 -51q-9 -16 -18.5 -28t-14.5 -17t-5 -6zM405 611h-66q0 64 40 98l7 4l57 -51q-5 -9 -10 -16.5t-9 -12.5t-7.5 -9t-6 -6.5l-4 -4t-1.5 -2.5zM463 516q0 -55 -13.5 -136.5t-30.5 -140.5q-15 -49 -52 -120t-76 -130q1 -29 -2 -39
q-2 -18 -15.5 -24t-27.5 3q-7 -8 -15.5 -17.5t-15 -16.5t-10.5 -13q-7 -9 -20.5 -31t-20.5 -30q-37 -44 -96 -94q-38 -33 -107 -53.5t-144 -20.5h-20q-56 4 -91 41q-29 24 -31.5 65.5t24.5 47.5h2l40 -53q-1 -2 8.5 -6.5t23 -8.5t24.5 -5h20q38 0 82.5 7.5t81 20.5t51.5 26
h2v1h-1q65 55 89 84q11 13 21 30.5t19 29.5q14 16 35 39.5t26 30.5q6 8 12 17l5 20q13 49 13 103q0 167 -83 276q-14 19 -33 32t-31 13q-39 0 -39 -100h-55q0 72 30 121.5t74 49.5q46 0 97 -67q44 -56 69.5 -144.5t25.5 -180.5l-1 -9q46 83 60 127q22 79 22 246h2l29 -10
l41 19h2z" />
    <glyph glyph-name="Amacron" unicode="&#x100;" horiz-adv-x="592" 
d="M389 783l-10 -63q-51 -5 -76 -4.5t-72.5 3.5t-76.5 3v62q37 -4 73.5 -5t89.5 1t72 3zM523 66q12 -23 16.5 -34.5t4 -24t-10.5 -21.5q-23 -21 -41 -21q-11 0 -20.5 6.5t-15 18.5t-5.5 26q0 15 7 24q-16 32 -45 110q-9 24 -24 60v-6q-6 0 -18.5 -2t-18.5 -2q-13 -1 -28 -1
q-11 0 -33.5 1t-32.5 1q-14 0 -25 -2q-8 -1 -21.5 -4t-27.5 -5.5t-27 -2.5q-8 0 -16 0.5t-17 1t-14 0.5q-6 -17 -12 -32q-41 -107 -53.5 -138t-20.5 -38l-44 54q2 2 58 147q18 49 47 147.5t59.5 176.5t74.5 143l15 -12l65 19q4 -15 10 -32t11.5 -29.5t14.5 -33.5t14 -33
q12 -29 27 -82.5t23 -74.5q12 -31 37.5 -95t38.5 -97q30 -78 48 -113zM345 263q3 1 6.5 1.5t8 1t6.5 0.5q-17 45 -29 76q-10 25 -24.5 77.5t-24.5 77.5q-4 9 -16 36.5t-19 43.5q-16 -28 -30.5 -58t-27.5 -67t-20.5 -60t-22 -70.5t-20.5 -64.5q17 4 25 4q50 0 67 2q16 2 34 2
q12 0 34 -1t32 -1h21z" />
    <glyph glyph-name="amacron" unicode="&#x101;" horiz-adv-x="507" 
d="M384 663l-10 -63q-51 -4 -76 -3.5t-72.5 3.5t-76.5 3v62q37 -5 73.5 -5.5t89.5 1.5t72 2zM470 147q0 -13 -8 -21q-5 -6 -12.5 -18.5t-11.5 -17.5q-2 -4 -14 -20.5t-17 -23.5t-15 -19.5t-18.5 -21.5t-17.5 -16q-5 -4 -9.5 -6.5t-8 -3.5l-7 -2t-5.5 -1h-2q-21 -11 -28 5
q-9 17 -9 68q0 26 3 56.5t8.5 64t10 58t11.5 58.5t9 44q3 15 8 50l-8 -14l-6 -27h-3q-2 0 -5 2q-10 -18 -25.5 -44t-19.5 -33q-10 -18 -39 -74t-48 -85q-11 -16 -31 -41.5t-26 -35.5q-38 -53 -51 -49q-15 5 -31.5 65.5t-16.5 83.5q0 92 5 127q6 41 21.5 90.5t44 99.5
t60.5 66q11 5 23 5q18 0 44 -12.5t39 -21.5t42 -30q19 37 19 50h2q24 1 54 2q17 1 22.5 0.5t5.5 -4.5v-31q-6 -37 -8 -45q-5 -20 -10.5 -58.5t-8 -50.5t-11 -54t-13 -66.5t-9.5 -61t-7 -63.5q12 12 53 68l7 11l14 22t8 12h3l23 -36h20zM223 304q6 10 21 35.5t23 40.5
q-19 18 -30 27.5t-27.5 19t-28.5 9.5q-3 0 -3.5 10.5t1.5 15.5q-34 -20 -59 -89.5t-34 -129.5q-5 -31 -5 -115h-1q4 -13 10 -41q11 16 27.5 36.5t20.5 27.5q22 32 49.5 85.5t35.5 67.5zM92 55h1h-1z" />
    <glyph glyph-name="Abreve" unicode="&#x102;" horiz-adv-x="592" 
d="M257 695q-85 -11 -119 52q-18 33 -18 53h54l5 -8q1 -1 2 -4q3 -4 4 -7q6 -11 27 -19t45 -8q34 0 60 14t36 35l51 -10q-13 -81 -147 -98zM523 66q12 -23 16.5 -34.5t4 -24t-10.5 -21.5q-23 -21 -41 -21t-29.5 14.5t-11.5 36.5q0 15 7 24q-16 32 -45 110q-9 24 -24 60v-6
q-6 0 -18.5 -2t-18.5 -2q-13 -1 -28 -1q-11 0 -33.5 1t-32.5 1q-14 0 -25 -2q-8 -1 -21.5 -4t-27.5 -5.5t-27 -2.5q-8 0 -16 0.5t-17 1t-14 0.5q-6 -17 -12 -32q-41 -107 -53.5 -138t-20.5 -38l-44 54q2 2 58 147q18 49 47 147.5t59.5 176.5t74.5 143l15 -12l65 19
q5 -19 12 -38t20.5 -49t17.5 -41q12 -29 27 -82.5t23 -74.5q12 -31 37.5 -95t38.5 -97q30 -78 48 -113zM345 263q3 1 6.5 1.5t8 1t6.5 0.5q-17 45 -29 76q-10 25 -24.5 77.5t-24.5 77.5q-4 10 -10.5 24.5l-13 29t-11.5 26.5q-16 -28 -30.5 -58t-27.5 -67t-20.5 -60
t-22 -70.5t-20.5 -64.5q17 4 25 4q50 0 67 2q16 2 34 2q12 0 34 -1t32 -1h21z" />
    <glyph glyph-name="abreve" unicode="&#x103;" horiz-adv-x="507" 
d="M275 577q-74 0 -108.5 39.5t-34.5 118.5h54q0 -51 19 -73.5t70 -22.5q18 0 39 11t33 23q23 24 42 54v2.5t0.5 6t1.5 8t3 8.5t4.5 8t6.5 6t9 2v-72l21 -7q-28 -44 -50 -66q-46 -46 -110 -46zM470 147q0 -13 -8 -21q-5 -6 -12.5 -18.5t-11.5 -17.5q-2 -4 -14 -20.5
t-17 -23.5t-15 -19.5t-18.5 -21.5t-17.5 -16q-5 -4 -9.5 -6.5t-8 -3.5l-7 -2t-5.5 -1h-2q-21 -11 -28 5q-9 17 -9 68q0 26 3 56.5t8.5 64t10 58t11.5 58.5t9 44q3 15 8 50l-8 -14l-6 -27h-3q-2 0 -5 2q-10 -18 -25.5 -44t-19.5 -33q-10 -18 -39 -74t-48 -85
q-11 -16 -31 -41.5t-26 -35.5q-38 -53 -51 -49q-15 5 -31.5 65.5t-16.5 83.5q0 92 5 127q6 41 21.5 90.5t44 99.5t60.5 66q11 5 23 5q18 0 44 -12.5t39 -21.5t42 -30q19 37 19 50h2q24 1 54 2q17 1 22.5 0.5t5.5 -4.5v-31q-6 -37 -8 -45q-5 -20 -10.5 -58.5t-8 -50.5
t-11 -54t-13 -66.5t-9.5 -61t-7 -63.5q12 12 53 68l7 11l14 22t8 12h3l23 -36h20zM223 304q6 10 21 35.5t23 40.5q-19 18 -30 27.5t-27.5 19t-28.5 9.5q-3 0 -3.5 10.5t1.5 15.5q-34 -20 -59 -89.5t-34 -129.5q-5 -31 -5 -115h-1q4 -13 10 -41q11 16 27.5 36.5t20.5 27.5
q22 32 49.5 85.5t35.5 67.5zM92 55h1h-1z" />
    <glyph glyph-name="Aogonek" unicode="&#x104;" horiz-adv-x="592" 
d="M551 -126l32 -58q-5 -4 -17 -13.5t-21 -15.5t-18 -9q-29 -7 -70 20q-48 32 -55 72q-2 14 -2 30q0 40 14 71.5t38 51.5q1 10 6 17q-16 32 -45 110q-9 24 -24 60v-6q-6 0 -18.5 -2t-18.5 -2q-13 -1 -28 -1q-11 0 -33.5 1t-32.5 1q-14 0 -25 -2q-8 -1 -21.5 -4t-27.5 -5.5
t-27 -2.5q-10 0 -26.5 1t-20.5 1q-6 -17 -12 -32q-41 -107 -53.5 -138t-20.5 -38l-44 54q2 2 58 147q18 49 47 147.5t59.5 176.5t74.5 143l15 -12l65 19q5 -19 12 -38t20.5 -49t17.5 -41q12 -29 27 -82.5t23 -74.5q12 -31 37.5 -95t38.5 -97q30 -78 48 -113
q12 -23 16.5 -34.5t4 -24t-10.5 -21.5q-23 -21 -41 -21q-11 0 -20 6q-18 -32 -18 -71q0 -8 1 -17q15 -14 32 -25q19 -13 30 -9q4 2 8 5t11.5 9t14.5 11zM345 263q3 1 6.5 1.5t8 1t6.5 0.5q-17 45 -29 76q-7 18 -13.5 40t-11 39.5t-11 38.5t-13.5 37q-4 9 -16 36.5t-19 43.5
q-16 -28 -30.5 -58t-27.5 -67t-20.5 -60t-22 -70.5t-20.5 -64.5q17 4 25 4q50 0 67 2q16 2 34 2q12 0 34 -1t32 -1h21z" />
    <glyph glyph-name="aogonek" unicode="&#x105;" horiz-adv-x="507" 
d="M450 147h20q0 -13 -8 -21q-5 -6 -12.5 -18.5t-11.5 -17.5q-2 -4 -14 -20.5t-17 -23.5t-15 -19.5t-18.5 -21.5t-17.5 -16q-6 -4 -11.5 -7t-9.5 -4t-7.5 -1.5l-3.5 -0.5q-12 -6 -19 -4q-26 -34 -26 -82q0 -8 1 -16q15 -15 32 -26q19 -13 30 -9q3 1 6.5 3.5t7 5.5t9 7.5
t11.5 8.5l32 -58q-5 -4 -17 -13.5t-21 -15.5t-18 -9q-29 -7 -70 20q-47 32 -55 73q-2 13 -2 29q0 44 17 78t45 53v28q0 26 3 56.5t8.5 64t10 58t11.5 58.5t9 44q3 15 8 50l-8 -14l-6 -27h-3q-2 0 -5 2q-10 -18 -25.5 -44t-19.5 -33q-10 -18 -39 -74t-48 -85
q-11 -16 -31 -41.5t-26 -35.5q-38 -53 -51 -49q-15 5 -31.5 65.5t-16.5 83.5q0 92 5 127q6 41 21.5 90.5t44 99.5t60.5 66q11 5 23 5q18 0 44 -12.5t39 -21.5t42 -30q19 37 19 50h2q24 1 54 2q17 1 22.5 0.5t5.5 -4.5v-31q-6 -37 -8 -45q-5 -20 -10.5 -58.5t-8.5 -50.5
q-2 -13 -8 -42.5t-10.5 -51.5t-9 -49.5t-8 -53.5t-4.5 -48q12 12 53 68l7 11l14 22t8 12h3zM223 304q6 10 21 35.5t23 40.5q-19 18 -30 27.5t-27.5 19t-28.5 9.5q-3 0 -3.5 10.5t1.5 15.5q-34 -20 -59 -89.5t-34 -129.5q-5 -31 -5 -115h-1q4 -13 10 -41q11 16 27.5 36.5
t20.5 27.5q22 32 49.5 85.5t35.5 67.5zM92 55h1h-1z" />
    <glyph glyph-name="Cacute" unicode="&#x106;" horiz-adv-x="565" 
d="M479 850v-60q7 0 -7 -7l-22 -10q-9 -3 -30 -13.5t-37 -17.5t-39.5 -13.5t-45.5 -6.5v60q18 0 37 7t47 20.5t42 19.5q2 1 8.5 5t13 7.5t16 6t17.5 2.5zM460 117l60 10q0 -16 -23 -60q-42 -78 -159 -78q-36 0 -55 2h-12t-21.5 1t-20.5 4.5t-16 8.5q-10 11 -23 34.5
t-19 32.5q-57 75 -78.5 137.5t-21.5 137.5q0 78 26 144q19 51 102 110t130 59q23 0 87 -23q3 -1 13 -4.5t15.5 -5.5t15 -6.5t16 -8.5t13.5 -10t12 -13l-48 -48l-58 21q-4 1 -30.5 14.5t-35.5 13.5q-39 0 -102 -48t-74 -79q-22 -57 -22 -116q0 -66 19 -120.5t73 -124.5
q15 -20 21.5 -33t12.5 -20q0 1 -1 2q-5 11 -4 12.5t13 -0.5q13 -2 23 -3q16 -1 50 -1q39 0 68 10t38 26q5 9 11 21l4 9z" />
    <glyph glyph-name="cacute" unicode="&#x107;" horiz-adv-x="382" 
d="M395 743q0 -20 -20 -48.5t-47 -52.5t-56.5 -41t-49.5 -17v70q8 0 63.5 42t55.5 47h54zM289 503q34 -24 52 -61q5 -13 5 -26q0 -14 -6 -32t-6 -23h-54q0 30 9 51q-8 10 -32 25q-15 11 -39 11q-26 0 -51.5 -18t-40.5 -48q-39 -77 -39 -159q0 -5 0.5 -15t0.5 -16
q1 -7 4 -18.5t7.5 -27t7.5 -30.5l4 -47q11 11 32 -2q12 -6 32 -6q32 0 59 25q13 12 25 23t18 16t8 7h3l41 -47q-8 -12 -17.5 -21.5t-23.5 -22t-17 -15.5q-49 -46 -96 -46q-32 0 -67 22q-35 23 -44 40q-4 6 -6 18t-3 23.5t-1 13.5q-17 66 -20 82q-2 36 -2 44q0 110 46 196
q27 51 64 80t76 29q35 0 71 -25z" />
    <glyph glyph-name="Cdotaccent" unicode="&#x10a;" horiz-adv-x="565" 
d="M423 739h-128q0 1 -0.5 8.5t-0.5 12.5q0 25 13.5 42.5t43.5 32.5l57 -86q2 1 5.5 4t5.5 5l2 2q0 -2 1 -9t1 -12zM460 117l60 10q0 -16 -23 -60q-42 -78 -159 -78q-36 0 -55 2h-12t-21.5 1t-20.5 4.5t-16 8.5q-10 11 -23 34.5t-19 32.5q-57 75 -78.5 137.5t-21.5 137.5
q0 78 26 144q19 51 102 110t130 59q23 0 87 -23q3 -1 13 -4.5t15.5 -5.5t15 -6.5t16 -8.5t13.5 -10t12 -13l-48 -48l-58 21q-4 1 -30.5 14.5t-35.5 13.5q-39 0 -102 -48t-74 -79q-22 -57 -22 -116q0 -66 19 -120.5t73 -124.5q15 -20 21.5 -33t12.5 -20q0 1 -1 2
q-5 11 -4 12.5t13 -0.5q13 -2 23 -3q16 -1 50 -1q39 0 68 10t38 26q5 9 11 21l4 9z" />
    <glyph glyph-name="cdotaccent" unicode="&#x10b;" horiz-adv-x="382" 
d="M239 583q-26 0 -48 19.5t-22 41.5q0 20 18.5 33t45.5 13q16 0 33 -4q1 0 5 -0.5t9.5 -1t12.5 -2l14 -3t13.5 -5.5t11.5 -8.5t8 -11.5t3 -15h-72q0 -7 1 -12l20 -11q-13 -18 -24.5 -25.5t-28.5 -7.5zM334 361h-54q0 30 9 51q-8 10 -32 25q-15 11 -39 11q-26 0 -51.5 -18
t-40.5 -48q-39 -77 -39 -159q0 -5 0.5 -15t0.5 -16q1 -7 4 -18.5t7.5 -27t7.5 -30.5l4 -47q11 11 32 -2q12 -6 32 -6q32 0 59 25q13 12 25 23t18 16t8 7h3l41 -47q-8 -12 -17.5 -21.5t-23.5 -22t-17 -15.5q-49 -46 -96 -46q-32 0 -67 22q-35 23 -44 40q-4 6 -6 18t-3 23.5
t-1 13.5q-17 66 -20 82q-2 36 -2 44q0 110 46 196q27 51 64 80t76 29q35 0 71 -25q34 -24 52 -61q5 -13 5 -26q0 -14 -6 -32t-6 -23z" />
    <glyph glyph-name="Ccaron" unicode="&#x10c;" horiz-adv-x="565" 
d="M304 750q-4 4 -9 8.5t-8.5 8t-8.5 7t-7.5 5.5t-6.5 6q-9 7 -12.5 10t-6.5 7t-1 6.5t8 5.5l-24 44q18 12 43 0.5t70 -56.5q63 64 88 64v-52q-5 -6 -12.5 -14.5t-23 -27.5t-26 -31.5l-10.5 -12.5q-18 -19 -35 4l-2 2l-2.5 2.5l-3.5 3.5l-5 5zM460 117l60 10q0 -16 -23 -60
q-42 -78 -159 -78q-36 0 -55 2h-12t-21.5 1t-20.5 4.5t-16 8.5q-10 11 -23 35t-19 32q-57 76 -78.5 138t-21.5 137q0 78 25 144q13 34 58 74t95 67.5t80 27.5q23 0 87 -23q2 -1 15.5 -5.5t19.5 -7.5t17 -8t19 -12t14 -15l-48 -48l-58 21q-4 1 -30.5 14.5t-35.5 13.5
q-39 0 -102 -48t-75 -79q-21 -57 -21 -116q0 -66 19 -120.5t73 -124.5q15 -20 21.5 -33t12.5 -20q0 1 -1 2q-5 11 -4 12.5t13 -0.5q13 -2 23 -3q16 -1 50 -1q25 0 47 4.5t37.5 12.5t21.5 19q5 9 11 21q4 9 4.5 9.5t0.5 -8.5z" />
    <glyph glyph-name="ccaron" unicode="&#x10d;" horiz-adv-x="382" 
d="M357 814l47 -22q-9 -29 -19.5 -49.5t-15.5 -27t-19 -22.5q-13 -16 -26.5 -30.5t-17.5 -19.5q-1 -1 -9 -14.5t-17 -26t-14 -15.5l-4.5 -4.5l-7 -7t-10 -6.5t-12.5 -3q-18 0 -30 17.5t-12 41.5v18q1 -7 1 -16q0 5 0.5 14.5t0 17.5t-3.5 16q-19 56 -19 145h50q0 -82 19 -140
q4 -11 3 -33q5 4 9 10t9.5 16t6.5 12q5 9 23.5 28.5t22.5 24.5q21 25 29 38t16 38zM289 503q34 -24 52 -61q5 -13 5 -26q0 -14 -6 -32t-6 -23h-54q0 30 9 51q-8 10 -31 25q-16 11 -40 11q-26 0 -51 -18t-41 -48q-39 -77 -39 -159q0 -5 0.5 -15t0.5 -16q1 -8 8 -33t11 -43
l4 -47q11 11 32 -2q13 -6 32 -6q32 0 59 25l20 18t15.5 13.5t10 8.5t5.5 6h3l41 -47q-8 -12 -17.5 -21.5t-23.5 -22t-17 -15.5q-49 -46 -96 -46q-32 0 -67 22q-35 23 -44 40q-4 6 -6 18t-3 23.5t-1 13.5q-17 66 -20 82q-2 36 -2 44q0 110 46 196q27 51 64 80t76 29
q35 0 71 -25z" />
    <glyph glyph-name="Dcaron" unicode="&#x10e;" horiz-adv-x="655" 
d="M282 750q-4 4 -9 8.5t-8.5 8t-8.5 7t-7.5 5.5t-6.5 6q-9 7 -12.5 10t-6 7t-1 6.5t7.5 5.5l-24 44q19 12 43.5 0.5t69.5 -56.5q63 64 88 64v-52q-5 -6 -12.5 -14.5t-23 -27.5t-26 -31.5l-10.5 -12.5q-18 -19 -35 4l-2 2l-2.5 2.5l-3.5 3.5t-4.5 5t-5.5 5zM359 651
q58 0 108 -28.5t81.5 -73.5t49.5 -97.5t18 -102.5q0 -42 -7 -74q-13 -52 -38 -101.5t-58 -86.5t-67 -50q-44 -18 -77 -24.5t-83 -9.5q-17 0 -63 -0.5t-70 -2.5l-7 -2q-5 2 -9 11.5t-4 53.5q0 12 1 54t1 50q-1 16 -1 34q0 30 2.5 91t2.5 91q0 28 -2 61.5t-4.5 69.5t-2.5 61
h-14.5h-4.5l-36 54q25 19 131 19q41 0 84 -2q14 -1 21.5 -0.5t10 2t12 2.5t25.5 1zM550 293q6 25 6 56q0 91 -59 161.5t-138 70.5l-27 -3t-45 -2q-42 2 -81 2q-1 0 -16 -1q0 -20 4.5 -87.5t4.5 -106.5q0 -32 -2.5 -93t-2.5 -89q0 -17 1 -32q0 -6 -0.5 -23.5t-1 -40.5
t-0.5 -33q88 1 90 1q88 6 141 28q40 16 75.5 73t50.5 119z" />
    <glyph glyph-name="dcaron" unicode="&#x10f;" horiz-adv-x="523" 
d="M450 186l35 -46q-12 -13 -46 -53t-61 -71t-30 -31q-21 -2 -32 18.5t-11 60.5q0 14 7 78q6 53 12 96q-5 -9 -11 -19t-10.5 -17t-8 -13t-3.5 -7q-7 -13 -25 -51t-29 -60.5t-30.5 -52t-38.5 -47.5h-1h-2q-17 0 -40 42q-41 75 -60 113q-30 54 -30 128q0 67 27 125
q6 14 14.5 26.5t20.5 28t16 20.5q35 49 60 67q5 5 18 5q23 0 80 -25.5t65 -25.5h2v-81h-2q-12 0 -41 13t-59 25.5t-44 13.5q-16 -12 -41 -48q-9 -12 -19 -24.5t-14.5 -18.5t-6.5 -10q-21 -47 -21 -91q0 -43 17 -78q2 -4 57 -109q16 22 28.5 46.5t29 60.5t24.5 51
q39 78 46 71q1 -1 1 -5h38q21 135 58 277q5 20 20 67h-81l-1.5 -1t-3 -1t-4 -0.5t-4.5 0.5t-4 3t-3 5.5t-1 9.5q2 2 -3 11.5t-9 19t3.5 19.5t29.5 14q14 3 30.5 3t36 -1.5t29.5 -1.5h1h2l9 -20h-1q33 -8 34 -37t-20 -88q-4 -14 -7 -22q-18 -59 -29 -122t-23 -149.5
t-24 -152.5q-4 -17 -5 -35q54 65 86 97h3zM174 -134q1 -1 2 -3t2.5 -4t3.5 -6t3 -8q8 -14 -14 -43.5t-55 -54.5l-38 48q10 8 18.5 15.5t13 13t7.5 9.5t4.5 7t2.5 3q0 1 -1 3l-12 30q-4 12 -11 19q-2 2 -3 4l45 37q4 -5 9.5 -15.5t9 -19t8 -20.5t5.5 -15z" />
    <glyph glyph-name="Dcroat" unicode="&#x110;" horiz-adv-x="655" 
d="M359 651q47 0 88.5 -18.5t72 -50t52.5 -71t33 -81t11 -81.5q0 -42 -7 -74q-19 -80 -65.5 -149t-97.5 -89q-44 -18 -77 -24.5t-83 -9.5q-17 0 -63 -0.5t-70 -2.5l-7 -2q-5 2 -9 11.5t-4 53.5q0 12 1 54t1 50q-1 16 -1 34q0 29 3 103q-12 -5 -24 -7q-16 -2 -35 -2
q-7 0 -20.5 0.5t-20.5 0.5v62q7 0 20.5 -0.5t20.5 -0.5q16 0 26 1q4 1 35 12v13q0 36 -4.5 101.5t-4.5 90.5h-14.5h-4.5l-36 54q25 19 131 19q41 0 84 -2q21 -1 32.5 2t36.5 3zM550 293q6 25 6 56q0 91 -59 161.5t-138 70.5l-27 -3t-45 -2q-42 2 -81 2q-1 0 -16 -1
q0 -23 2.5 -59t4.5 -70.5t2 -64.5v-7q2 -1 19.5 -3.5t26.5 -3.5h30q13 0 40 0.5t41 0.5v-62q-13 0 -40 -0.5t-41 -0.5h-32q-7 1 -45 6q-4 -89 -4 -112q0 -17 1 -32q0 -6 -0.5 -23.5t-1 -40t-0.5 -33.5q88 1 90 1q88 6 141 28q40 16 75.5 73t50.5 119z" />
    <glyph glyph-name="dcroat" unicode="&#x111;" horiz-adv-x="523" 
d="M521 593q13 0 40 0.5t41 0.5v-62q-13 0 -40 -0.5t-41 -0.5q-18 0 -33 1q-7 0 -15.5 1t-18 3t-14.5 3q-23 -75 -44 -220.5t-30 -194.5q-4 -17 -5 -35q54 65 86 97h3l35 -46q-12 -13 -46 -53t-61 -71t-30 -31q-21 -2 -32 18.5t-11 60.5q0 14 7 78q6 53 12 96
q-6 -11 -14 -24.5t-13.5 -22t-5.5 -9.5q-7 -13 -25 -51t-29 -60.5t-30.5 -52t-38.5 -47.5h-1h-2q-17 0 -40 42q-41 75 -60 113q-30 54 -30 128q0 67 27 125q4 9 9 17.5t10.5 16.5t10 14t11 13.5t10.5 13.5q35 49 60 67q5 5 18 5q23 0 80 -25.5t65 -25.5h2v-81h-2
q-14 0 -70.5 25.5t-73.5 26.5q-16 -12 -41 -48q-9 -12 -19 -24.5t-14.5 -18.5t-6.5 -10q-21 -47 -21 -91q0 -43 17 -78q2 -4 57 -109q16 22 28.5 46.5t29 60.5t24.5 51q39 78 46 71q1 -1 1 -5h38q18 117 48 236q-10 -4 -20 -5q-16 -3 -35 -3q-7 0 -21 0.5t-20 0.5v62
q7 0 20.5 -0.5t20.5 -0.5q16 0 26 2q8 1 24 7.5t24 8.5q6 18 11 36h-81l-1.5 -1t-3 -1t-4 -0.5t-4.5 0.5t-4 3t-3 5.5t-1 9.5q2 2 -1.5 8.5t-7 14t-4 16t7.5 15.5t26 10q14 3 30.5 3t36 -1.5t29.5 -1.5h1h2l9 -20h-1q30 -8 33.5 -30.5t-11.5 -66.5q25 -4 34 -4q13 -1 30 -1z
" />
    <glyph glyph-name="Emacron" unicode="&#x112;" horiz-adv-x="574" 
d="M417 798l-10 -63q-51 -4 -76.5 -3.5t-72.5 3.5t-76 3v62q37 -5 73 -5.5t89.5 1.5t72.5 2zM456 78l60 -50q0 -16 -18.5 -19t-79.5 -3q-14 0 -100.5 -2.5t-124.5 -2.5q-94 0 -119 15q-4 2 -6 4t-2.5 4.5t0 7t1.5 9.5t3 15.5t4 21.5q8 57 14 163q2 21 2 42q0 58 -12 165
q-2 17 -3.5 37t-2 36t-1 36t-2.5 36l20 2v51q163 0 285 11q10 1 20 1q11 0 27 -1.5t26.5 -2t22.5 0t22 4.5v-80q-16 -5 -32 -5t-36 2t-30 2q-7 0 -14 -1q-107 -9 -239 -11q5 -97 6 -109q5 -44 8 -71q11 1 23 1q26 0 78 -3.5t75 -3.5q18 0 31 1q10 1 18.5 2.5t18.5 3.5
q13 4 17.5 2.5t1.5 -14.5l30 -56q-11 -11 -80 -17q-16 -2 -37 -2q-25 0 -77 3.5t-76 3.5q-10 0 -19 -1q1 -12 1 -23q0 -24 -2 -46q-6 -96 -13 -154q29 -2 48 -2q37 0 123.5 2.5t101.5 2.5z" />
    <glyph glyph-name="emacron" unicode="&#x113;" horiz-adv-x="405" 
d="M354 668l-10 -63q-51 -4 -76.5 -3.5t-72.5 3.5t-76 3v62q37 -5 73 -5.5t89.5 1.5t72.5 2zM340 354q-43 -50 -93.5 -87t-120.5 -75q-4 -2 -20 -9q0 -33 9 -52q-1 -4 16.5 -22t37.5 -33l8 -6q2 0 11 -1.5t20 -2.5t20 -1h18l63 72l42 -51l-74 -86h1q-14 -16 -50 -16
q-24 0 -47 5.5t-34 12.5q-18 13 -39.5 36.5t-33.5 42.5l-2 1q-16 30 -20 80q-25 -8 -32 -8h-2v80h2q5 0 36 12q6 52 21.5 105t36 95.5t41.5 61.5q12 10 44 19q16 3 31 3q48 0 121 -88q26 -30 18 -51q-3 -8 -8.5 -15t-12.5 -14zM185 465q-23 -22 -42.5 -77t-29.5 -118
q34 15 49 23t41 24.5t48.5 37.5t46.5 50q0 1 1 2q-15 17 -33.5 30t-35.5 13q-18 0 -23 -2q-11 -3 -16.5 3.5t-5.5 13.5z" />
    <glyph glyph-name="Edotaccent" unicode="&#x116;" horiz-adv-x="574" 
d="M367 734h-128q0 1 -0.5 8.5t-0.5 12.5q0 13 3.5 23.5t10.5 19.5t17.5 16.5t25.5 15.5l57 -86q2 1 5.5 4t6 5l2.5 2q0 -2 0.5 -9t0.5 -12zM456 78l60 -50q0 -15 -17.5 -18.5t-70.5 -3.5h-10q-14 0 -100.5 -2.5t-124.5 -2.5q-94 0 -119 15q-4 2 -6 4t-2.5 4.5t0 7t1.5 9.5
t3 15.5t4 21.5q8 57 14 163q2 21 2 42q0 58 -12 165q-3 27 -5 76.5t-4 68.5l20 2v51q163 0 285 11q10 1 20 1q13 0 34.5 -2t36 -2t27.5 5v-80q-16 -5 -32 -5t-36 2t-30 2q-7 0 -14 -1q-107 -9 -239 -11q5 -97 6 -109q5 -44 8 -71q11 1 23 1q26 0 78 -3.5t75 -3.5q18 0 31 1
q10 1 18.5 2.5t18.5 3.5q13 4 17.5 2.5t1.5 -14.5l30 -56q-11 -11 -80 -17q-16 -2 -37 -2q-25 0 -77 3.5t-76 3.5q-10 0 -19 -1q1 -12 1 -23q0 -24 -2 -46q-6 -96 -13 -154q29 -2 48 -2q37 0 123.5 2.5t101.5 2.5z" />
    <glyph glyph-name="edotaccent" unicode="&#x117;" horiz-adv-x="405" 
d="M235 598q-25 0 -47.5 19.5t-22.5 41.5q0 20 18.5 33t46.5 13q15 0 33 -4l7.5 -0.5t15 -1.5t18 -4.5t18 -8t13 -13t5.5 -19.5h-72q0 -7 1 -12l20 -11q-13 -18 -24.5 -25.5t-29.5 -7.5zM340 354q-43 -50 -93.5 -87t-120.5 -75q-4 -2 -20 -9q0 -33 9 -52q-1 -4 16.5 -22
t37.5 -33l8 -6q2 0 11 -1.5t20 -2.5t20 -1h18l63 72l42 -51l-74 -86h1q-14 -16 -50 -16q-24 0 -47 5.5t-34 12.5q-18 13 -39.5 36.5t-33.5 42.5l-2 1q-16 30 -20 80q-25 -8 -32 -8h-2v80h2q5 0 36 12q6 52 21.5 105t36 95.5t41.5 61.5q12 10 44 19q16 3 31 3q48 0 121 -88
q26 -30 18 -51q-3 -8 -8.5 -15t-12.5 -14zM185 465q-23 -22 -42.5 -77t-29.5 -118q34 15 49 23t41 24.5t48.5 37.5t46.5 50q0 1 1 2q-15 17 -33.5 30t-35.5 13q-18 0 -23 -2q-11 -3 -16.5 3.5t-5.5 13.5z" />
    <glyph glyph-name="Eogonek" unicode="&#x118;" horiz-adv-x="574" 
d="M521 -126l32 -58q-5 -4 -17 -13.5t-21 -15.5t-18 -9q-29 -7 -70 20q-47 32 -55 72q-2 14 -2 30q0 64 35 106q-9 0 -92.5 -2.5t-119.5 -2.5q-94 0 -119 15q-4 2 -6 4t-2.5 4.5t0 7t1.5 9.5t3 15.5t4 21.5q8 57 14 163q2 21 2 42q0 58 -12 165q-2 17 -3.5 37t-2 36t-1 36
t-2.5 36l20 2v51q163 0 285 11q10 1 20 1q11 0 27 -1.5t26.5 -2t22.5 0t22 4.5v-80q-16 -5 -32 -5t-36 2t-30 2q-7 0 -14 -1q-107 -9 -239 -11q5 -97 6 -109q5 -44 8 -71q11 1 23 1q26 0 78 -3.5t75 -3.5q18 0 31 1q10 1 18.5 2.5t18.5 3.5q13 4 17.5 2.5t1.5 -14.5l30 -56
q-11 -11 -80 -17q-16 -2 -37 -2q-25 0 -77 3.5t-76 3.5q-10 0 -19 -1q1 -12 1 -23q0 -24 -2 -46q-6 -96 -13 -154q29 -2 48 -2q37 0 123.5 2.5t101.5 2.5l38 -8l60 -50q0 -18 -33 -21q-25 -7 -42 -39t-17 -68q0 -8 1 -17q15 -14 32 -25q19 -13 30 -9q4 2 8 5t11.5 9t14.5 11
z" />
    <glyph glyph-name="eogonek" unicode="&#x119;" horiz-adv-x="405" 
d="M340 354q-43 -50 -93.5 -87t-120.5 -75q-4 -2 -20 -9q0 -33 9 -52q0 -3 7.5 -12.5t20.5 -21t26 -21.5l8 -6q2 0 11 -1.5t20 -2.5t20 -1h18l63 72l42 -51l-74 -86h1q-11 -12 -32 -15q-32 -34 -32 -90q0 -8 1 -17q15 -14 32 -25q19 -13 30 -9q4 2 8 5t11.5 9t14.5 11
l31 -58q-5 -4 -16.5 -14t-20.5 -15.5t-19 -8.5q-28 -7 -69 20q-48 32 -55 72q-2 13 -2 30q0 54 25 93q-26 6 -38 14q-18 13 -39.5 36.5t-33.5 42.5l-2 1q-16 30 -20 80q-25 -8 -32 -8h-2v80h2q5 0 36 12q6 52 21.5 105t36 95.5t41.5 61.5q12 10 44 19q16 3 31 3
q48 0 121 -88q26 -30 18 -51q-3 -8 -8.5 -15t-12.5 -14zM185 465q-23 -22 -42.5 -77t-29.5 -118q34 15 49 23t41 24.5t48.5 37.5t46.5 50q0 1 1 2q-15 17 -33.5 30t-35.5 13q-18 0 -23 -2q-11 -3 -16.5 3.5t-5.5 13.5z" />
    <glyph glyph-name="Ecaron" unicode="&#x11a;" horiz-adv-x="574" 
d="M248 745q-4 4 -9 8.5t-8.5 8t-8.5 7t-7.5 5.5t-6.5 6q-9 7 -12.5 10t-6.5 7t-1 6.5t8 5.5l-24 44q19 12 43.5 0.5t69.5 -56.5q63 64 88 64v-52q-5 -6 -12.5 -14.5t-23 -27.5t-26 -31.5l-10.5 -12.5q-18 -19 -35 4q-1 1 -3 3.5t-6.5 7t-8.5 7.5zM456 78l60 -50
q0 -16 -18.5 -19t-79.5 -3q-14 0 -100.5 -2.5t-124.5 -2.5q-94 0 -119 15q-4 2 -6 4t-2.5 4t0 7t1.5 10t3 15.5t4 21.5q8 57 14 163q2 21 2 42q0 58 -12 165q-3 27 -5 76.5t-4 68.5l20 2v51q163 0 285 11q10 1 20 1q13 0 34.5 -2t36 -2t27.5 5v-80q-16 -5 -32 -5t-36 2
t-30 2q-8 0 -14 -1q-107 -9 -239 -11q5 -97 6 -109q5 -44 8 -71q11 1 23 1q26 0 78 -3.5t75 -3.5q18 0 31 1q10 1 18.5 2.5t17.5 3.5q11 3 14.5 3t6.5 -3t-1 -12l30 -56q-11 -11 -80 -17q-16 -2 -37 -2q-25 0 -77 3.5t-76 3.5q-10 0 -19 -1q1 -11 1 -23q0 -24 -2 -46
q-6 -96 -13 -154q29 -2 48 -2q37 0 123.5 2.5t101.5 2.5z" />
    <glyph glyph-name="ecaron" unicode="&#x11b;" horiz-adv-x="405" 
d="M188 641q0 6 0.5 15.5t0 17.5t-3.5 16q-20 56 -20 145h50q0 -82 20 -140q3 -11 3 -33q3 3 7 8.5t6.5 9.5t6 10.5t5.5 9.5q4 7 11.5 15.5t18 19.5t16.5 18q20 25 28 38t16 38l48 -22q-10 -29 -20 -49.5t-15 -27t-19 -22.5q-13 -16 -26.5 -30.5t-18.5 -19.5q0 -1 -8 -14.5
t-17 -26t-15 -15.5q0 -1 -2.5 -3.5t-5.5 -5t-6.5 -5.5t-8.5 -5t-11 -2q-17 0 -29 17.5t-12 41.5v18q0 -7 1 -17zM230 530q48 0 121 -88q26 -30 18 -51q-3 -8 -8.5 -15t-12.5 -14l-8 -8q-43 -50 -93.5 -87t-120.5 -75q-4 -2 -20 -9q0 -33 9 -52q-1 -4 16.5 -22t37.5 -33l8 -6
q2 0 8 -1t12.5 -2t15 -1.5t15.5 -0.5h18l63 72l42 -51l-74 -86h1q-14 -16 -50 -16q-24 0 -47 5.5t-34 12.5q-18 13 -39.5 36.5t-33.5 42.5l-2 1q-16 30 -20 80q-25 -8 -32 -8h-2v80h2q5 0 36 12q10 79 38.5 156t60.5 106q12 10 44 19q16 3 31 3zM298 405l0.5 1l0.5 1
q-15 17 -33.5 30t-35.5 13q-18 0 -23 -2q-11 -3 -16.5 3.5t-5.5 13.5q-23 -22 -42.5 -77t-29.5 -119q28 13 39 18.5t34 19t37.5 25t34.5 31t40 42.5z" />
    <glyph glyph-name="Gbreve" unicode="&#x11e;" horiz-adv-x="637" 
d="M355 715q-85 -11 -119 52q-18 33 -18 53h54l6 -8q0 -1 2 -4l3 -6q7 -12 27.5 -20t44.5 -8q35 0 61 14t36 36l51 -10q-13 -82 -148 -99zM638 273q-43 0 -81 -1l-32 -41q-8 -55 -31.5 -118.5t-48.5 -85.5q-34 -30 -83 -34q-41 -4 -105 -4q-45 0 -67 8t-31 25
q-7 15 -30 54.5t-35 68.5t-15 56q0 8 -11 47q-5 19 -5 47q0 10 2 44q1 18 6.5 36t15.5 40t14 33q36 104 80 148q27 27 75.5 44.5t87.5 17.5q93 0 174 -80l-50 -56q-57 56 -124 56q-16 0 -38 -5t-43.5 -14t-31.5 -20q-36 -35 -64 -118q-7 -17 -15 -36.5t-12.5 -31t-4.5 -18.5
q-2 -33 -2 -40q0 -16 2 -25q8 -27 9 -38q3 -22 11.5 -46t16 -38.5t23 -40.5t20.5 -36q1 0 5.5 -0.5t14.5 -1t22 -0.5q62 0 98 3q30 3 44 16q18 15 38.5 78.5t20.5 96.5l15 5q-13 0 -25 -1q-79 -5 -89 -14l-59 36q26 20 56 27t88 11q112 6 194 6v-60zM518 222z" />
    <glyph glyph-name="gbreve" unicode="&#x11f;" horiz-adv-x="498" 
d="M326 577q-74 0 -108.5 39t-34.5 119h54q0 -51 19 -73.5t70 -22.5q18 0 38.5 11t33.5 23q23 23 42 54v2.5t0.5 6t1.5 8t3 8.5t4.5 7.5t6.5 6t9 2.5v-72l21 -7q-28 -44 -50 -67q-46 -45 -110 -45zM378 496q0 27 23.5 40t47.5 3.5t24 -37.5q0 -14 4 -56.5t4 -70.5
q0 -18 -1 -32q-24 -258 -79 -361q-2 -4 -10 -19.5t-11.5 -22t-13 -21.5t-16 -23t-19 -21.5t-24 -21.5t-28 -18.5t-34 -17t-40 -12t-47.5 -8.5q-9 -1 -29.5 -4.5t-37 -5.5t-30.5 -2q-11 0 -23 2q-54 6 -89.5 44.5t-35.5 92.5h55q0 -20 22.5 -36.5t54.5 -20.5q7 -1 16 -1
q13 0 29 2t34.5 5t26.5 4q39 5 68.5 14.5t47.5 19.5t34.5 28t23.5 29t20 33q3 6 5 9q23 40 39.5 105.5t23 114.5t13.5 120q1 12 1 25q0 17 -2 40q-8 -24 -29 -54q-93 -132 -143 -186q-5 -5 -39 -38.5t-49 -53.5q-61 -80 -93 -80q-9 0 -15 6q-16 16 -16 75q0 49 8 99l8 48
t10 51.5t14 56.5t18 53t24 51t31 41t39 31q7 4 16 4q27 0 103 -39q4 -2 11.5 -5.5t14 -6.5t13.5 -6.5t13 -8.5t10 -10q4 10 4 40v4v9zM213 231q56 59 139 177q19 27 21 32l-39 -46q6 -8 -7 -4t-40 18q-59 30 -78 30h1l3 3q-44 -27 -67 -85.5t-43 -184.5q-5 -34 -7 -69
q14 14 26 30q18 24 35 42.5t34 34.5t22 22z" />
    <glyph glyph-name="Gdotaccent" unicode="&#x120;" horiz-adv-x="637" 
d="M438 739h-128q0 1 -0.5 8.5t-0.5 12.5q0 13 3 23.5t10.5 19.5t18 16.5t25.5 15.5l57 -86q2 1 5.5 4t5.5 5l2 2q0 -2 1 -9t1 -12zM638 273q-43 0 -81 -1l-32 -41q-8 -55 -31.5 -118.5t-48.5 -85.5q-34 -30 -83 -34q-41 -4 -105 -4q-30 0 -50 3.5t-31 11t-17 18.5
q-7 14 -18.5 34.5t-20.5 37t-18.5 35t-15 37t-7.5 35.5q0 8 -11 47q-5 19 -5 47q0 10 2 44q1 18 6.5 36t15.5 40t14 33q36 104 80 148q27 27 75.5 44.5t87.5 17.5q93 0 174 -80l-50 -56q-57 56 -124 56q-16 0 -38 -5t-43.5 -14t-31.5 -20q-36 -35 -64 -118q-7 -17 -15 -36.5
t-12.5 -31t-4.5 -18.5q-2 -33 -2 -40q0 -16 2 -25q8 -27 9 -38q3 -22 11.5 -46t16 -38.5t23 -40.5t20.5 -36q1 0 5.5 -0.5t14.5 -1t22 -0.5q62 0 98 3q30 3 44 16q18 15 38.5 78.5t20.5 96.5l15 5q-13 0 -25 -1q-79 -5 -89 -14l-59 36q26 20 56 27t88 11q112 6 194 6v-60z
M518 222z" />
    <glyph glyph-name="gdotaccent" unicode="&#x121;" horiz-adv-x="498" 
d="M317 593q-26 0 -48 19.5t-22 41.5q0 20 18.5 33t45.5 13q16 0 33 -4l7.5 -0.5t15.5 -1.5t18 -4.5t17.5 -8t13 -13t5.5 -19.5h-72q0 -7 1 -12l20 -11q-13 -18 -24.5 -25.5t-28.5 -7.5zM473 502q0 -11 1 -27t3 -30t3 -33.5t1 -36.5q0 -18 -1 -32q-24 -258 -79 -361
q-2 -4 -10 -19.5t-11.5 -22t-13 -21.5t-16 -23t-19 -21.5t-24 -21.5t-28 -18.5t-34 -17t-40 -12t-47.5 -8.5q-9 -1 -29.5 -4.5t-37 -5.5t-30.5 -2q-11 0 -23 2q-55 6 -90 44.5t-35 92.5h55q0 -20 22.5 -36.5t54.5 -20.5q7 -1 16 -1q13 0 29 2t34.5 5t26.5 4q39 5 68.5 14.5
t47.5 19.5t34.5 28t23.5 29t20 33q3 6 5 9q23 40 39.5 105.5t23 114.5t13.5 120q1 12 1 25q0 17 -2 40q-8 -24 -29 -54q-93 -132 -143 -186q-5 -5 -39 -38.5t-49 -53.5q-61 -80 -93 -80q-9 0 -15 6q-16 16 -16 75q0 49 8 99q6 35 9.5 56.5t12 61t19 66.5t25 58.5t34.5 54
t44 35.5q7 4 16 4q27 0 103 -39q2 -1 18.5 -8.5t27 -14t16.5 -14.5q4 10 4 40v4v9q0 27 23.5 40t47.5 3.5t24 -37.5zM213 231q56 59 139 177q19 27 21 32l-39 -46q6 -8 -7 -4t-40 18q-59 30 -78 30h1l3 3q-44 -27 -67 -85.5t-43 -184.5q-5 -34 -7 -69q14 14 26 30
q18 24 35 42.5t34 34.5t22 22z" />
    <glyph glyph-name="uni0122" unicode="&#x122;" horiz-adv-x="637" 
d="M638 273q-43 0 -81 -1l-32 -41q-8 -55 -31.5 -118.5t-48.5 -85.5q-34 -30 -83 -34q-41 -4 -105 -4q-30 0 -50 3.5t-31 11t-17 18.5q-7 15 -30 54.5t-35 68.5t-15 56q0 8 -11 47q-5 19 -5 47q0 10 2 44q1 18 6.5 36t15.5 40t14 33q36 104 80 148q27 27 75.5 44.5
t87.5 17.5q93 0 174 -80l-50 -56q-57 56 -124 56q-16 0 -38 -5t-43.5 -14t-31.5 -20q-36 -35 -64 -118q-7 -17 -15 -36.5t-12.5 -31t-4.5 -18.5q-2 -33 -2 -40q0 -16 2 -25q8 -27 9 -38q3 -22 11.5 -46t16 -38.5t23 -40.5t20.5 -36q1 0 5.5 -0.5t14.5 -1t22 -0.5q62 0 98 3
q30 3 44 16q18 15 38.5 78.5t20.5 96.5l15 5q-13 0 -25 -1q-79 -5 -89 -14l-59 36q26 20 56 27t88 11q112 6 194 6v-60zM518 222zM347 -124q1 -1 2.5 -4t4 -7.5t4.5 -9.5q7 -14 -14.5 -44t-55.5 -54l-38 48q17 12 28 23.5t15 18l4 6.5q-1 1 -1 3q-18 43 -20 45l-6 7l45 38
q4 -5 9.5 -15.5t9 -19t8 -20.5t5.5 -15z" />
    <glyph glyph-name="uni0123" unicode="&#x123;" horiz-adv-x="498" 
d="M473 502q0 -11 1 -27t3 -30t3 -33.5t1 -36.5q0 -18 -1 -32q-24 -258 -79 -361q-2 -4 -10 -19.5t-11.5 -22t-13 -21.5t-16 -23t-19 -21.5t-24 -21.5t-28 -18.5t-34 -17t-40 -12t-47.5 -8.5q-9 -1 -23 -3.5t-24.5 -4t-24.5 -3t-25 -1.5t-23 2q-54 6 -89.5 44.5t-35.5 92.5
h55q0 -20 22.5 -36.5t54.5 -20.5q7 -1 16 -1t18.5 1l19 2t18 2.5t18.5 3t16 2.5q39 5 68.5 14.5t47.5 19.5t34.5 28t23.5 29t20 33q3 6 5 9q23 40 39.5 105.5t23 114.5t13.5 120q1 12 1 25q0 17 -2 40q-8 -24 -29 -54q-93 -132 -143 -186q-5 -5 -39 -38.5t-49 -53.5
q-61 -80 -93 -80q-9 0 -15 6q-16 16 -16 75q0 49 8 99q6 35 9.5 56.5t12 61t19 66.5t25 58.5t34.5 54t44 35.5q7 4 16 4q27 0 103 -39q2 -1 18.5 -8.5t27 -14t16.5 -14.5q4 10 4 40v4v9q0 27 23.5 40t47.5 3.5t24 -37.5zM213 231q56 59 139 177q19 27 21 32l-39 -46
q6 -8 -7 -4t-40 18q-59 30 -78 30h1l3 3q-44 -27 -67 -85.5t-43 -184.5q-5 -34 -7 -69q14 14 26 30q18 24 35 42.5t34 34.5t22 22zM167 -334q1 -1 2.5 -5t4 -10t4.5 -13q4 -9 -0.5 -25t-14.5 -34t-24.5 -37t-30.5 -35l-38 65q17 16 27.5 31t15 23.5t4.5 9.5q-1 1 -1 4
q-6 19 -12 39q-5 16 -11 26q-2 3 -3 4l45 50q4 -6 9.5 -20t9 -25.5t8 -27.5t5.5 -20z" />
    <glyph glyph-name="Hbar" unicode="&#x126;" horiz-adv-x="717" 
d="M617 333q0 -71 5 -278q0 -5 3 -23.5t3 -31.5h-70q0 5 -2.5 22.5t-3.5 30.5q-4 180 -5 235q-19 1 -58.5 4t-50.5 3q-51 0 -145.5 -5.5t-137.5 -6.5v-12q0 -50 -7 -138.5t-7 -134.5h-70q0 50 7 138.5t7 134.5q0 40 -4 117t-4 89q-1 19 -1 40q0 23 1.5 68t1.5 66h70
q0 -23 -1.5 -67.5t-1.5 -66.5v-14q69 -5 78 -4q107 7 299 7h29q7 106 7 143h70q0 -42 -5 -119t-6 -108q-1 -42 -1 -89zM153 353q42 1 137.5 6.5t147.5 5.5q13 0 52.5 -3t56.5 -4q0 39 1 66q0 11 1 20h-26q-191 0 -295 -7q-17 -1 -79 3q0 -7 1.5 -38.5t2.5 -48.5z" />
    <glyph glyph-name="hbar" unicode="&#x127;" horiz-adv-x="525" 
d="M442 477q26 -28 41 -76t15 -103q0 -109 -43 -179q-5 -8 -16.5 -32.5t-23.5 -47t-21 -31.5q-18 -19 -27 -25t-26 -6q-25 0 -50 22.5t-44 62.5l46 35h3q7 -16 21 -27.5t24 -11.5q9 0 13 5q11 17 30.5 53.5t22.5 42.5q22 38 29 67t7 72q0 84 -41 126q-1 0 -4 4.5t-7 8.5
t-10 8.5t-15 7t-20 2.5q-5 0 -63.5 -88.5t-98.5 -157.5q-14 -24 -37 -65q-4 -7 -8 -15l-7 -35q-6 -33 -9 -53q-13 -96 -45 -96q-22 0 -41 49q-12 28 -1.5 57t52.5 112q1 4 9.5 48t12.5 66q8 37 15 68.5t11.5 52t12 53.5t14.5 65q2 8 4 19h-5q-10 0 -32.5 -4t-33.5 -4
q-15 -1 -33 -1q-14 0 -41 0.5t-40 0.5v62q14 0 41 -0.5t40 -0.5q17 0 30 1q9 0 32.5 4t36.5 4q8 0 16 -1q3 18 6 32q-12 1 -23 1q-13 0 -38.5 -1.5t-38.5 -1.5h-2v80h2q12 0 37.5 1.5t39.5 1.5q22 0 43 -3q21 -2 31.5 -28.5t3.5 -57.5q-3 -18 -8 -42h3q10 -2 26 -2
q7 0 20.5 0.5t20.5 0.5v-62q-6 0 -20 -0.5t-21 -0.5q-19 0 -35 3q-2 0 -5 1q-2 -11 -4 -21q-9 -41 -16 -73.5t-14.5 -63t-11.5 -51.5q74 119 116.5 173.5t61.5 51.5q13 -2 25 -6.5t20.5 -9.5t16.5 -11.5t12 -11t9.5 -11t6.5 -7.5z" />
    <glyph glyph-name="Imacron" unicode="&#x12a;" horiz-adv-x="255" 
d="M278 803l-10 -63q-52 -4 -77 -3.5t-72 3.5t-77 3v62q37 -5 73.5 -5.5t89.5 1.5t73 2zM176 0h-70q0 188 -9 398q-1 18 -1 38q0 37 3.5 109t3.5 105h70q0 -36 -3.5 -108t-3.5 -106q0 -18 1 -35q9 -211 9 -401z" />
    <glyph glyph-name="imacron" unicode="&#x12b;" horiz-adv-x="228" 
d="M278 663l-10 -63q-51 -4 -76.5 -3.5t-72.5 3.5t-76 3v62q36 -5 72.5 -5.5t89.5 1.5t73 2zM171 437h1v-1h-1q-2 -7 -7.5 -25.5t-8.5 -30.5q-26 -89 -58 -237q-3 -11 -8 -30.5t-7 -27.5q53 24 62 30l26 -68q-16 -11 -33 -19t-32.5 -15t-19.5 -10l-19 -10q-34 -13 -39 38v15
q0 20 3.5 41.5t10 46t7.5 26.5q35 158 59 242q1 5 3 10q-31 -10 -58 -10v80q30 0 77 19q6 3 13.5 6t10.5 4.5t7 2.5t6 0.5t5 -1.5t6 -4q7 -9 6 -22.5t-12 -49.5z" />
    <glyph glyph-name="Iogonek" unicode="&#x12e;" horiz-adv-x="255" 
d="M206 -135l32 -58q-5 -4 -16.5 -13.5t-21 -15.5t-18.5 -9q-29 -7 -70 20q-47 32 -55 72q-2 14 -2 30q0 79 51 122q-1 183 -9 385q-1 18 -1 38q0 37 3.5 109t3.5 105h70q0 -36 -3.5 -108t-3.5 -106q0 -18 1 -35q9 -211 9 -401h-4q-26 -6 -44.5 -38.5t-18.5 -70.5
q0 -8 2 -17q15 -14 31 -25q20 -13 30 -9q4 2 8.5 5t11.5 9t14 11z" />
    <glyph glyph-name="iogonek" unicode="&#x12f;" horiz-adv-x="230" 
d="M236 718h2v-98h-2q-13 0 -21.5 -3t-22 -11.5t-21.5 -12.5h-3l-28 87h1q8 4 22 12t22.5 13t22.5 9t28 4zM179 514q7 -9 6 -22.5t-12 -50.5h1v-1h-1q-2 -7 -7.5 -25.5t-8.5 -30.5q-26 -90 -59 -240q-3 -11 -8 -30.5t-7 -28.5q53 25 62 31l27 -68q-25 -17 -74 -39h-1
q-7 -3 -11 -5l-17 -11h-2q-16 -16 -25.5 -41t-9.5 -52q0 -8 1 -16q16 -15 32 -26q19 -13 30 -9q4 2 8.5 5t11.5 9t14 11l32 -58q-5 -4 -16.5 -13.5t-21 -15.5t-18.5 -9q-29 -7 -70 20q-47 32 -55 73q-2 13 -2 29q0 39 13.5 70.5t37.5 52.5q-2 10 -2 24q0 20 4 41.5t10.5 46
t6.5 27.5q36 159 60 244q2 5 3 11q-31 -11 -58 -11v81q31 0 77 19q7 3 14.5 6t10.5 4.5t7 3t6 0.5t5 -2t6 -4z" />
    <glyph glyph-name="Idotaccent" unicode="&#x130;" horiz-adv-x="255" 
d="M227 739h-127q0 1 -1 8.5t-1 12.5q0 13 3.5 23.5t10.5 19.5t17.5 16.5t25.5 15.5l57 -86q3 1 6.5 4t5.5 5l2 2q0 -2 0.5 -9t0.5 -12zM176 0h-70q0 188 -9 398q-1 18 -1 38q0 37 3.5 109t3.5 105h70q0 -36 -3.5 -108t-3.5 -106q0 -18 1 -35q9 -211 9 -401z" />
    <glyph glyph-name="dotlessi" unicode="&#x131;" horiz-adv-x="228" 
d="M171 437h1v-1h-1q-2 -7 -7.5 -25.5t-8.5 -30.5q-26 -89 -58 -237q-2 -9 -5 -19.5t-5.5 -21t-4.5 -17.5q53 24 62 30l26 -68q-16 -11 -33 -19t-32.5 -15t-19.5 -10l-19 -10q-34 -13 -39 38v15q0 20 3.5 41.5t10 46t7.5 26.5q35 158 59 242l2 10q-30 -10 -57 -10v80
q30 0 77 19q6 3 13.5 6t10.5 4.5t7 2.5t6 0.5t5 -1.5t6 -4q7 -9 6 -22.5t-12 -49.5z" />
    <glyph glyph-name="IJ" unicode="&#x132;" horiz-adv-x="533" 
d="M170 -152l65 -29q7 17 9.5 23.5t5.5 9.5t6 4t10.5 8.5t18.5 21.5q58 72 77 180q6 29 6 73q0 22 -3 69.5t-3 68.5q1 46 -6 287v86h70v-84q7 -239 6 -287q0 -20 3 -67.5t3 -72.5q0 -52 -7 -87q-23 -131 -91 -216q-54 -68 -116 -76q-50 -7 -61 30q-6 24 7 58zM176 0h-70
q0 188 -9 398q-1 18 -1 38q0 37 3.5 109t3.5 105h70q0 -36 -3.5 -108t-3.5 -106q0 -18 1 -35q9 -211 9 -401z" />
    <glyph glyph-name="ij" unicode="&#x133;" horiz-adv-x="394" 
d="M412 686h1l-18 -93h-2q-8 2 -17.5 9.5t-17.5 13t-14 5.5h-2v98h2q7 0 16.5 -3.5t18 -8t16 -9.5t12.5 -8.5zM145 593h-3l-28 87h1q8 4 22 12t22.5 13t22.5 9t28 4h2v-98h-2q-13 0 -21.5 -3t-22 -11.5t-21.5 -12.5zM365 448q0 -10 -0.5 -45.5t-0.5 -54.5q0 -4 1 -35t1 -50
q0 -31 -2 -41q-3 -18 -7.5 -33t-10 -30t-8.5 -23q0 -2 -3.5 -21t-7.5 -29q-44 -103 -86 -170q-2 -3 -6 -10.5t-7.5 -14.5t-8 -14.5t-9.5 -11.5q-4 -4 -15 -13.5t-16 -14l-15 -13.5t-16.5 -13.5t-16 -12t-16.5 -12.5t-16 -10t-17 -10l-24 65l18 10t19 12.5t16 11.5t18 14
t14.5 12t16.5 14.5t14 13.5q6 5 8 9t4.5 11t8.5 16q43 68 82 159q3 8 3.5 12.5t1.5 11.5t4 19q4 12 13 37.5t12 40.5q1 6 1 28q0 17 -1 48.5t-1 36.5q0 17 1 44q-20 -30 -27 -41q-11 -19 -40.5 -80t-54.5 -109t-61.5 -96t-69.5 -64q-16 -8 -26 -3t-15 20t-5 39q0 5 0.5 10
t1.5 9l2 8t2 7t2 5t1.5 3.5l0.5 1.5q2 17 3.5 38.5t3.5 43t3 37.5q10 91 49 189l2 6q-16 -5 -31 -5v72q11 0 39.5 15.5t49.5 15.5q20 1 23 -12t-11 -56q-17 -50 -22 -63q-37 -92 -45 -169q-2 -16 -3.5 -36.5l-3 -41t-3.5 -36.5q29 32 60 87.5t60.5 118t41.5 81.5q8 15 22 40
q38 64 52.5 84.5t28.5 20.5q25 0 25 -47v-13.5t-0.5 -14t-0.5 -9.5zM102 469q1 5 0 5q-4 1 -5 -9q0 -4 1 -7q3 10 4 11z" />
    <glyph glyph-name="uni0136" unicode="&#x136;" horiz-adv-x="551" 
d="M357 199q11 -11 40.5 -36.5t44.5 -41.5q1 -1 17 -17.5t30 -30.5l14 -14v-80q-17 0 -42 20.5t-69 65.5q-9 9 -24.5 22.5t-32 28.5t-29.5 29q-12 13 -22.5 23t-27 24t-22.5 19q-3 3 -22 16.5t-32.5 27.5t-24.5 32q-8 -189 -8 -288h-70q0 64 2 130.5t6 157.5t6 129
q1 39 -6 117.5t-7 116.5h70q0 -32 7 -112t6 -125q-1 -24 -2 -52q14 18 35 38t43.5 39.5t27.5 24.5q22 21 43 44.5t47 55t40 48.5q14 15 36 33t25 22l50 -57q-12 -11 -32 -27.5t-26 -23.5q-13 -15 -32 -38t-33 -39.5t-32.5 -37t-36.5 -38.5q-7 -6 -42.5 -38t-50.5 -47
q7 -8 28.5 -24t30.5 -25q59 -51 77 -72zM157 318l-1 -21l21 12zM331 -124q0 -1 1.5 -5t4.5 -10t5 -13q7 -19 -15 -58.5t-55 -72.5l-38 64q17 17 27.5 32t14.5 23.5t5 8.5q-1 2 -2 5q-17 57 -19 60l-6 9l45 50q3 -5 7 -14.5t7.5 -21t6.5 -21t6.5 -21t4.5 -15.5z" />
    <glyph glyph-name="uni0137" unicode="&#x137;" horiz-adv-x="533" 
d="M493 56h1l-28 -68h-3q-29 19 -56.5 48t-62.5 73t-48 59q-2 2 -13 20l-6 -3l-6.5 -4t-11 -6t-12.5 -5.5t-13.5 -4t-12.5 1.5t-11 7t-7 15.5t-3 25.5q0 13 3 23q-28 -38 -61 -90q-26 -40 -52 -96q0 -54 -15 -71q-26 -28 -46 -6q-21 24 -6 68l4 12q4 8 13 28q6 31 10.5 54.5
t8 39.5t8 34.5t8 31t10.5 39t12 48.5q9 32 14.5 55t12 48.5t12.5 51.5q12 46 31 130q-12 -5 -36.5 -16t-37.5 -16h-2l-17 77h2q16 6 41 17t33 14q19 7 27 13q19 13 30 13t21 -10q7 -4 7 -32q0 -9 -1.5 -17t-3.5 -14.5t-4 -11t-3.5 -7.5t-1.5 -4q-12 -79 -32 -156l-19 -76
t-20 -79.5t-15 -58.5q63 92 151 188q40 44 67.5 61t59.5 16q15 -1 24 -16t11 -29.5t1 -23.5h3q3 -14 3 -36q0 -9 -1 -24.5l-1 -15.5q-1 -27 -15.5 -54.5t-39.5 -52t-59 -43.5l-1 -1q10 -12 42 -52.5t57.5 -66.5t55.5 -45zM326 384q-59 -65 -97 -112l4 2h-1q2 2 5 4.5t4 3.5
t3.5 2.5t3.5 2l3 1.5t3.5 1t4 0.5t5.5 0.5q13 0 27 -11q13 7 21 12q85 49 87 83q0 5 0.5 10.5t0.5 9.5t0.5 8.5t0.5 8.5q0 9 -2 17h1q-13 6 -29.5 -3.5t-44.5 -40.5zM312 -123q0 -2 1.5 -5.5t4 -10t5.5 -12.5q7 -19 -15 -58.5t-55 -72.5l-38 64q10 10 18.5 20t13 17.5
t7.5 13t5 9t2 4.5q-1 3 -1 4q-6 19 -12 40q-4 16 -11 26q-2 2 -3 4l45 49q5 -6 10 -19.5t8.5 -25.5t8 -28t6.5 -19z" />
    <glyph glyph-name="Lacute" unicode="&#x139;" horiz-adv-x="540" 
d="M465 663q0 -27 -32 -65.5t-73.5 -66t-67.5 -27.5v70q4 0 23.5 13t40.5 29t38 30t17 17h54zM342 63q23 0 71 1.5t72 1.5v-66q-23 0 -71 -1.5t-72 -1.5q-22 0 -64.5 3t-63.5 3q-10 0 -57 -5.5t-62 -4.5q-11 1 -11 19q0 15 0.5 43t0.5 42q0 41 -1 60q-2 23 -2 68.5t-2 67.5
l-7 77t-6 103q0 4 0.5 16t0.5 18q-3 73 8 123q1 7 4 15l1 3h60q0 -32 -6 -37l-1 3q-3 -17 -4 -39t-1.5 -44t-0.5 -29q-1 -14 -1 -29q0 -24 2.5 -53t5.5 -64t5 -58q2 -25 2 -70t1 -65q2 -22 2 -66v-35q56 7 69 7q23 0 65.5 -3t62.5 -3z" />
    <glyph glyph-name="lacute" unicode="&#x13a;" horiz-adv-x="268" 
d="M332 834q7 0 -7 -7q-9 -4 -22 -10q-9 -3 -24 -10.5t-28.5 -14t-30 -12.5t-34 -10t-34.5 -4v60q17 0 36 7t47 20.5t42 19.5q1 0 11 6.5t21.5 10.5t22.5 4v-60zM211 164h2l18 -76h-2q-8 -3 -25.5 -19.5t-35.5 -33.5t-45.5 -31.5t-55.5 -14.5q-12 0 -25 2q-14 2 -19.5 17
t-5.5 47q0 15 1 24q4 34 14.5 91t12.5 76q4 26 8 49.5t9.5 48t8.5 39.5t11 42t10.5 37t12.5 43.5t13 42.5q10 33 16 53q-36 -20 -57 -20h-2v81h2q16 0 52 22l29 18q40 17 51 32q-11 -18 -7 -63q3 -32 -31 -146q-3 -10 -10.5 -33.5t-10 -32t-8 -28.5t-8 -28.5t-7 -26
t-7 -27.5t-6 -25.5t-5.5 -28.5t-4.5 -28.5t-5.5 -31.5q-3 -26 -13.5 -81.5t-13.5 -82.5v-1q25 1 42 12.5t26 25.5t27.5 30.5t43.5 25.5z" />
    <glyph glyph-name="uni013B" unicode="&#x13b;" horiz-adv-x="540" 
d="M342 63q23 0 71 1.5t72 1.5v-66q-23 0 -71 -1.5t-72 -1.5q-22 0 -64.5 3t-63.5 3q-10 0 -57 -5.5t-62 -4.5q-11 1 -11 19q0 15 0.5 43t0.5 42q0 41 -1 60q-2 23 -2 68.5t-2 67.5l-7 77t-6 103q0 4 0.5 16t0.5 18q-3 73 8 123q1 7 4 15l1 3h60q0 -32 -6 -37l-1 3
q-3 -17 -4 -39t-1.5 -44t-0.5 -29q-1 -14 -1 -29q0 -24 2.5 -53t5.5 -64t5 -58q2 -25 2 -70t1 -65q2 -22 2 -66v-35q56 7 69 7q23 0 65.5 -3t62.5 -3zM318 -121q1 -1 2.5 -4t4 -7.5t4.5 -9.5q7 -14 -14.5 -44t-55.5 -55l-38 49q17 12 27.5 23.5t15 17.5t4.5 7q-1 1 -1 3
q-6 14 -12 30q-5 12 -11 19l-3 3l45 38q4 -5 9.5 -15.5t9 -19t8 -20.5t5.5 -15z" />
    <glyph glyph-name="uni013C" unicode="&#x13c;" horiz-adv-x="268" 
d="M213 164l18 -76h-2q-8 -3 -25.5 -19.5t-35.5 -33.5t-45.5 -31.5t-55.5 -14.5q-12 0 -25 2q-14 2 -19.5 17t-5.5 47q0 15 1 24q4 34 14.5 91t12.5 76q4 26 8 49.5t9.5 48t8.5 39.5t11 42t10.5 37t12.5 43.5t13 42.5q10 33 16 53q-36 -20 -57 -20h-2v81h2q16 0 52 22l29 18
q40 17 51 32q-11 -18 -7 -63q3 -32 -31 -146q-3 -8 -11.5 -36.5t-10.5 -36t-9 -30.5t-9 -31.5t-7 -28t-7.5 -31t-6 -29t-6 -33.5t-5.5 -34q-3 -26 -13.5 -81.5t-13.5 -82.5v-1q25 1 42 12.5t26 25.5t27.5 30.5t43.5 25.5h2zM130 -124q0 -1 1.5 -4t4 -7.5t5.5 -9.5
q3 -7 -1 -19t-14.5 -25.5t-24.5 -27.5t-30 -26l-38 48q16 12 27 23.5t15 18l4 6.5q0 1 -1 3l-12 30q-4 12 -11 19q-2 2 -3 4l45 37q5 -5 10 -15.5t8.5 -19t8 -20.5t6.5 -15z" />
    <glyph glyph-name="Lcaron" unicode="&#x13d;" horiz-adv-x="540" 
d="M294 549q-8 0 2.5 9t21.5 16q3 2 6 5t5 6.5t4.5 7.5t4.5 7.5t4.5 7.5t3.5 7q6 9 24 28.5t22 24.5q21 24 29 37.5t16 37.5l48 -22q-10 -28 -20.5 -48.5t-15.5 -27t-18 -22.5q-11 -13 -20.5 -23t-15 -16.5t-9.5 -10.5q-1 -2 -6 -10.5t-10.5 -17t-12 -17.5t-11.5 -12
l-3.5 -3.5t-7.5 -7t-10 -6.5t-13 -3l-2 5.5t-4.5 13.5l-5 16t-4.5 13zM342 63q23 0 71 1.5t72 1.5v-66q-23 0 -71 -1.5t-72 -1.5q-22 0 -64.5 3t-63.5 3q-10 0 -57 -5.5t-62 -4.5q-11 1 -11 19q0 15 0.5 43t0.5 42q0 41 -1 60q-2 23 -2 68.5t-2 66.5q-1 12 -7 78t-6 102
q0 5 0.5 17t0.5 18q-3 73 8 123q1 5 2.5 9t2 6.5l0.5 2.5h60q0 -32 -6 -37l-1 2q-3 -16 -4.5 -38t-1.5 -44v-29q-1 -15 -1 -30q0 -31 6 -93.5t7 -80.5q2 -25 2 -70t1 -65q2 -22 2 -66q0 -14 -1 -35q57 7 70 7q23 0 65.5 -3t62.5 -3z" />
    <glyph glyph-name="lcaron" unicode="&#x13e;" horiz-adv-x="268" 
d="M213 542q-7 -2 0 11q5 9 14 21q3 4 5.5 10.5t3.5 12t2 14t2 11.5q2 10 12.5 34.5t12.5 30.5q11 31 14 46t2 41l52 -5q1 -23 0 -39.5t-4.5 -31t-5 -19t-7.5 -21.5q-5 -15 -10.5 -28t-9 -20.5t-4.5 -13.5q-1 -2 -4 -17t-7 -29.5t-8 -20.5l-1.5 -3t-3 -7t-4 -7.5t-7 -7
t-9.5 -5.5l-4 4.5t-9 11l-10 13t-8.5 11t-3.5 3.5zM213 164l17 -76h-1q-8 -3 -25.5 -19.5t-35.5 -33.5t-45.5 -31.5t-56.5 -14.5q-11 0 -25 2q-13 2 -18.5 17t-5.5 47q0 15 1 24q4 34 14.5 91t12.5 76q4 26 8 49.5t9.5 48t8.5 39.5t11 42t10.5 37t12.5 43.5t13 42.5
q10 33 16 53q-36 -20 -57 -20h-2v81h2q16 0 52 22l29 18q40 17 51 32q-11 -18 -7 -63q3 -32 -32 -146q-3 -10 -10 -33.5t-9.5 -32t-8 -28.5t-8 -28.5t-7 -26t-7 -27.5t-6 -25.5t-5.5 -28.5t-4.5 -28.5t-5.5 -31.5q-3 -26 -13.5 -81.5t-13.5 -82.5v-1q25 1 42 12.5t26 25.5
t27.5 30.5t43.5 25.5h2z" />
    <glyph glyph-name="Ldot" unicode="&#x13f;" horiz-adv-x="540" 
d="M342 63q23 0 71 1.5t72 1.5v-66q-23 0 -71 -1.5t-72 -1.5q-22 0 -64.5 3t-63.5 3q-10 0 -57 -5.5t-62 -4.5q-11 1 -11 19q0 15 0.5 43t0.5 42q0 41 -1 60q-2 23 -2 68.5t-2 67.5l-7 77t-6 103q0 4 0.5 16t0.5 18q-3 73 8 123q1 7 4 15l1 3h60q0 -32 -6 -37l-1 3
q-3 -17 -4 -39t-1.5 -44t-0.5 -29q-1 -14 -1 -29q0 -24 2.5 -53t5.5 -64t5 -58q2 -25 2 -70t1 -65q2 -22 2 -66v-35q56 7 69 7q23 0 65.5 -3t62.5 -3zM314 279q0 2 -5.5 7.5t-16 18.5t-20.5 30l63 57l10 -7q41 -40 41 -106h-72z" />
    <glyph glyph-name="ldot" unicode="&#x140;" horiz-adv-x="261" 
d="M213 164l18 -76h-2q-8 -3 -25.5 -19.5t-35.5 -33.5t-45.5 -31.5t-55.5 -14.5q-12 0 -25 2q-14 2 -19.5 17t-5.5 47q0 15 1 24q4 34 14.5 91t12.5 76q4 26 8 49.5t9.5 48t8.5 39.5t11 42t10.5 37t12.5 43.5t13 42.5q10 33 16 53q-36 -20 -57 -20h-2v81h2q16 0 52 22l29 18
q40 17 51 32q-11 -18 -7 -63q3 -32 -31 -146q-3 -8 -11.5 -36.5t-10.5 -36t-9 -30.5t-9 -31.5t-7 -28t-7.5 -31t-6 -29t-6 -33.5t-5.5 -34q-3 -26 -13.5 -81.5t-13.5 -82.5v-1q25 1 42 12.5t26 25.5t27.5 30.5t43.5 25.5h2zM209 299q0 2 -5.5 7.5t-16 18.5t-20.5 30l63 57
l10 -7q41 -40 41 -106h-72z" />
    <glyph glyph-name="Lslash" unicode="&#x141;" horiz-adv-x="540" 
d="M342 63q23 0 71 1.5t72 1.5v-66q-23 0 -71 -1.5t-72 -1.5q-22 0 -64.5 3t-63.5 3q-10 0 -57 -5.5t-62 -4.5q-11 1 -11 19q0 15 0.5 43t0.5 42q0 41 -1 60q-2 23 -2 65t-1 58q-2 -1 -9.5 -6.5t-10 -7.5t-10 -6.5t-11 -6.5t-9.5 -5t-10.5 -4.5t-9.5 -3t-9 -1.5l-10 52
q10 0 41 23t43 28q-9 93 -9 131q0 4 0.5 16t0.5 18q-3 73 8 123q0 3 1 6t1.5 5t1.5 3.5t1 2.5v1h60q0 -32 -6 -37l-1 3q-3 -17 -4 -39t-1.5 -44t-0.5 -29q-1 -14 -1 -29q0 -33 8 -117q33 3 42 7l26 12.5t50 22.5t33 10l10 -52q-3 0 -12.5 -4t-22 -9.5t-24 -11.5t-20.5 -10
t-10 -4q-20 -9 -67 -14v-5q2 -25 2 -70t1 -65q2 -22 2 -66v-35q56 7 69 7q23 0 65.5 -3t62.5 -3z" />
    <glyph glyph-name="lslash" unicode="&#x142;" horiz-adv-x="268" 
d="M211 164h2l18 -76h-2q-8 -3 -25.5 -19.5t-35.5 -33.5t-45.5 -31.5t-55.5 -14.5q-12 0 -25 2q-14 2 -19.5 17t-5.5 47q0 15 1 24q4 34 14.5 91t12.5 76q6 38 12 73q-4 -2 -15.5 -10.5t-18.5 -13t-17 -10t-18.5 -8.5t-16.5 -3l-10 52q9 0 25.5 11.5t36 25.5t31.5 18l18 4
q9 37 46 163q10 33 16 53q-36 -20 -57 -20h-2v81h2q16 0 52 22l29 18q40 17 51 32q-11 -18 -7 -63q3 -32 -31 -146q-32 -104 -39 -131q9 2 15 4l25.5 12.5t50 22.5t33.5 10l10 -52q-3 0 -17.5 -6t-29.5 -13t-28 -13.5t-14 -7.5q-21 -8 -59 -12q-11 -49 -19 -104
q-3 -26 -13.5 -81.5t-13.5 -82.5v-1q25 1 42 12.5t26 25.5t27.5 30.5t43.5 25.5z" />
    <glyph glyph-name="Nacute" unicode="&#x143;" horiz-adv-x="766" 
d="M529 790q7 0 -7 -7q-9 -4 -22 -10q-9 -3 -30.5 -13.5t-37.5 -17.5t-39.5 -13.5t-44.5 -6.5v60q17 0 36.5 7t47 20.5t41.5 19.5q2 1 9 5t13 7.5t15.5 6t18.5 2.5v-60zM706 -8l9 -3t22 -7.5t16 -5.5l-22 -76l-48 16q-21 8 -48 36t-59.5 70.5t-35.5 45.5q-19 22 -63.5 67.5
t-66.5 71.5q-19 23 -37 48.5t-44 65.5t-34 52q-89 133 -115 165q-4 6 -11 14.5t-13.5 17t-12.5 15.5l-1 2q-2 -16 -2 -26q0 -52 3 -158t3 -159q0 -40 3 -121.5t3 -122.5h-70q0 40 -3 121t-3 123q0 52 -3 157.5t-3 159.5q0 17 2.5 39.5t2.5 27.5l110 25q11 -15 14 -19
q5 -6 17 -21.5t20 -24.5q24 -31 117 -171q8 -11 33 -49.5t42 -62.5t36 -46q17 -20 61 -65t68 -74q5 -5 11 -13q-2 48 -6 179v43q0 33 1.5 99t1.5 98q0 13 -2.5 57.5t-0.5 65.5l69 -4q0 -13 1 -33.5t2 -44.5t1 -41q0 -33 -1.5 -99t-1.5 -98v-41q4 -143 7 -197q0 -6 3 -33.5
t3 -45.5q16 -16 25 -20zM145 617v11v-11zM128 606l4 -5q-1 2 -4 5z" />
    <glyph glyph-name="nacute" unicode="&#x144;" horiz-adv-x="508" 
d="M495 758q0 -27 -31.5 -65.5t-73 -66t-67.5 -27.5v70q5 0 34.5 21t56.5 43t27 25h54zM429 199h50q0 -13 -15 -44.5t-33 -58.5t-25 -29q-1 -9 -4.5 -16.5t-7 -12.5t-14 -12t-17.5 -10.5t-26 -13.5t-31 -16q-21 -11 -35 11t-1 46q3 7 7 13.5t6 9.5t3.5 6l2.5 5q8 33 27 89
q12 35 34.5 85.5t31.5 83.5t9 76q0 5 -20 22l-2 2q-6 -8 -46 -56q-71 -79 -102.5 -120t-68.5 -106q-11 -21 -31.5 -54.5t-28.5 -46.5q-3 -7 -6.5 -12.5t-5 -8.5t-1.5 -5q-2 -8 -2 -15q-2 -18 -15.5 -25.5t-26 -0.5t-12.5 26v5v1v19q1 6 3 12q4 25 22 83q33 104 98 270
q8 20 17 47h-1q-7 -5 -34.5 -33t-54 -50.5t-37.5 -22.5h-2v60h2q1 0 22.5 21.5t45 44.5t28.5 26q6 4 17 12q25 16 34.5 21.5t19 4.5t19.5 -11q7 -6 9.5 -15t2 -17.5t-2.5 -17t-5 -14t-5 -8.5h1q-15 -54 -24 -77q-27 -67 -46 -116q60 101 131 177q2 3 8.5 11t14 17.5
t17.5 20.5t18 19.5t16 14.5t13 6h2l20 -15q1 -1 9 -8t12 -11t11 -13t11 -17.5t7 -20.5t3 -26q0 -30 -3.5 -57.5t-9.5 -48.5t-14.5 -44t-16 -40t-17.5 -40t-17 -42q-5 -17 -15 -50q1 -1 2 -4q14 44 53 98q22 31 22 16z" />
    <glyph glyph-name="uni0145" unicode="&#x145;" horiz-adv-x="766" 
d="M706 -8l9 -3t22 -7.5t16 -5.5l-22 -76l-48 16q-21 8 -48 36t-59.5 70.5t-35.5 45.5q-19 22 -63.5 67.5t-66.5 71.5q-19 23 -37 48.5t-44 65.5t-34 52q-89 133 -115 165q-4 6 -11 14.5t-13.5 17t-12.5 15.5l-1 2q-2 -16 -2 -26q0 -52 3 -158t3 -159q0 -40 3 -121.5
t3 -122.5h-70q0 40 -3 121t-3 123q0 52 -3 157.5t-3 159.5q0 17 2.5 39.5t2.5 27.5l110 25q11 -15 14 -19q5 -6 17 -21.5t20 -24.5q24 -31 117 -171q8 -11 33 -49.5t42 -62.5t36 -46q17 -20 61 -65t68 -74q5 -5 11 -13q-2 48 -6 179v43q0 33 1.5 99t1.5 98q0 13 -2.5 57.5
t-0.5 65.5l69 -4q0 -13 1 -33.5t2 -44.5t1 -41q0 -33 -1.5 -99t-1.5 -98v-41q4 -143 7 -197q0 -6 3 -33.5t3 -45.5q16 -16 25 -20zM145 617v11v-11zM128 606l4 -5q-1 2 -4 5zM392 -124q0 -1 1.5 -3.5t2.5 -6t3 -8.5l4 -10q7 -19 -15 -58.5t-55 -72.5l-38 64q17 17 27.5 32
t14.5 23.5t5 8.5q-1 2 -2 5q-17 57 -19 60l-6 9l45 50q4 -7 9.5 -20.5t9 -25t8 -27.5t5.5 -20z" />
    <glyph glyph-name="uni0146" unicode="&#x146;" horiz-adv-x="508" 
d="M429 199h50q0 -13 -15 -44.5t-33 -58.5t-25 -29q-1 -9 -4.5 -16.5t-7 -12.5t-14 -12t-17.5 -10.5t-26 -13.5t-31 -16q-21 -11 -35 11t-1 46q3 7 7 13.5t6 9.5t3.5 6l2.5 5q8 33 27 89q12 35 34.5 85.5t31.5 83.5t9 76q0 5 -20 22l-2 2q-6 -8 -46 -56q-71 -79 -102.5 -120
t-68.5 -106q-11 -21 -31.5 -54.5t-28.5 -46.5q-3 -7 -6.5 -12.5t-5 -8.5t-1.5 -5q-2 -8 -2 -15q-2 -18 -15.5 -25.5t-26 -0.5t-12.5 26v5v1v19q1 6 3 12q4 25 22 83q33 104 98 270q8 20 17 47h-1q-7 -5 -34.5 -33t-54 -50.5t-37.5 -22.5h-2v60h2q1 0 22.5 21.5t45 44.5
t28.5 26q6 4 17 12q25 16 34.5 21.5t19 4.5t19.5 -11q7 -6 9.5 -15t2 -17.5t-2.5 -17t-5 -14t-5 -8.5h1q-15 -54 -24 -77q-27 -67 -46 -116q60 101 131 177q2 3 8.5 11t14 17.5t17.5 20.5t18 19.5t16 14.5t13 6h2l20 -15q1 -1 9 -8t12 -11t11 -13t11 -17.5t7 -20.5t3 -26
q0 -30 -3.5 -57.5t-9.5 -48.5t-14.5 -44t-16 -40t-17.5 -40t-17 -42q-5 -17 -15 -50q1 -1 2 -4q14 44 53 98q22 31 22 16zM202 -124q1 -1 2 -3.5t2 -5.5t3 -8l4 -10q7 -19 -14.5 -58.5t-55.5 -72.5l-38 64q17 16 27.5 31t15 23.5t4.5 9.5q-1 2 -1 4q-7 19 -12 39
q-5 16 -11 26q-2 3 -3 5l45 49q4 -6 9.5 -20t9 -25.5t8 -27.5t5.5 -20z" />
    <glyph glyph-name="Ncaron" unicode="&#x147;" horiz-adv-x="766" 
d="M354 750q-5 4 -9.5 8.5t-8.5 8t-8.5 7t-7 5.5l-7.5 6q-8 7 -11.5 10t-6.5 7t-1 6.5t8 5.5l-25 44q19 12 43.5 0.5t70.5 -56.5q63 64 87 64v-52q-4 -6 -11.5 -14.5t-23.5 -27.5t-26.5 -31.5l-10.5 -12.5q-17 -19 -35 4q0 1 -1 2t-3 2.5t-3.5 3.5t-4.5 5zM706 -8l9 -3
t21.5 -7.5t16.5 -5.5l-22 -76l-48 16q-16 6 -38.5 27.5t-39.5 42.5t-38 48t-27 34q-19 22 -63.5 67.5t-66.5 71.5q-15 18 -31 40.5t-27.5 40t-29 44t-27.5 41.5q-89 133 -115 165q-3 4 -16 20.5t-21 26.5l-1 2q-2 -16 -2 -26q0 -52 3 -158t3 -159q0 -40 3 -121.5t3 -122.5
h-70q0 40 -3 121t-3 123q0 52 -3 157.5t-3 159.5q0 17 2.5 39.5t2.5 27.5l110 25q11 -15 14 -19q5 -6 17 -21.5t20 -25.5q24 -30 117 -170q8 -11 32.5 -49.5t42 -62.5t36.5 -46q16 -20 60.5 -65t68.5 -74q5 -5 11 -13q-2 48 -6 179v43q0 33 1.5 99t1.5 98q0 13 -2.5 57.5
t-1.5 65.5l70 -4q0 -16 2 -58.5t2 -60.5q0 -28 -1 -63.5t-1.5 -71t-0.5 -62.5v-41q4 -143 7 -197q0 -8 1.5 -22t3 -29t1.5 -28q16 -16 25 -20zM145 617v11v-11zM128 606l4 -5q-1 2 -4 5z" />
    <glyph glyph-name="ncaron" unicode="&#x148;" horiz-adv-x="508" 
d="M292 642v11t0.5 12t-0.5 12t-3 13q-20 56 -20 145h50q0 -82 20 -140q4 -11 3 -33q4 4 8.5 10t9.5 16t7 12q5 9 23.5 28.5t22.5 24.5q14 17 21.5 27t12.5 21t10 28l48 -22q-10 -29 -20 -49.5t-15 -27t-19 -22.5q-13 -16 -26.5 -30.5t-17.5 -19.5q-1 -1 -9 -14.5t-17 -26
t-15 -15.5q0 -1 -3.5 -4.5l-7 -7t-10 -6.5t-13.5 -3q-17 0 -29 17.5t-12 41.5v18q0 -7 1 -16zM354 85q15 44 53 98q22 31 22 16h50q0 -20 -30.5 -74.5t-42.5 -57.5q-1 -9 -4.5 -16.5t-7 -12.5t-14 -12t-17.5 -10.5t-26 -13.5t-31 -16q-21 -11 -35 11t-1 46q4 8 9 16.5t7 12
t3 5.5q8 33 27 89q12 35 34.5 85.5t31.5 83.5t9 76q0 5 -17 20q-3 3 -5 4q-6 -8 -46 -56q-71 -79 -102.5 -120t-68.5 -106q-9 -17 -21 -37t-22 -36.5t-17 -27.5q-3 -7 -6 -12.5t-5 -8.5t-2 -5q-1 -8 -1 -15h-1q-2 -18 -15.5 -25.5t-26 -0.5t-12.5 26v5v1v19q2 6 3 12
q4 25 22 83q33 104 98 270q9 20 17 47h-1q-7 -5 -34.5 -33t-54 -50.5t-37.5 -22.5h-2v60h2q1 0 22.5 21.5t45 44.5t28.5 26q6 4 17 12q25 16 34.5 21.5t19 4.5t20 -11t11 -26.5t-3.5 -28.5t-9 -17h1q-15 -54 -24 -77q-27 -66 -46 -116q60 101 131 177q2 3 15 19t25 30.5
t26 27t21 12.5h2l20 -15q2 -1 8 -6.5t9.5 -9t9.5 -10.5t10 -13.5t8 -15t6 -19t2 -22.5q0 -57 -10.5 -99.5t-35 -97.5t-32.5 -75q-5 -16 -15 -50q1 -1 2 -4z" />
    <glyph glyph-name="Eng" unicode="&#x14a;" horiz-adv-x="766" 
d="M675 91v-14v-6q0 -29 -4 -51q-3 -18 -10 -41.5t-8 -27.5q-13 -62 -39.5 -97.5t-69.5 -54.5q-14 -6 -31 -6q-12 0 -36 2t-28 2v62q6 0 29.5 -2t34.5 -2h7h2q33 14 50.5 39t27.5 72q3 12 11 40q-18 19 -99 97.5t-102 103.5q-19 23 -37 48.5t-44 65.5t-34 52
q-89 133 -115 165q-4 6 -11 14.5t-13.5 17t-12.5 15.5l-1 2q-2 -16 -2 -26q0 -52 3 -158t3 -159q0 -40 3 -121.5t3 -122.5h-70q0 40 -3 121t-3 123q0 52 -3 157.5t-3 159.5q0 17 2.5 39.5t2.5 27.5l110 25q11 -15 14 -19q4 -5 9.5 -12t13 -16.5t14.5 -17.5q24 -31 117 -171
q8 -11 33 -49.5t42 -62.5t36 -46q17 -20 68 -75t72 -78q-2 47 -6 180v43q0 33 1.5 99t1.5 98q0 13 -2.5 57.5t-1.5 65.5l70 -4q0 -13 1 -33.5t2 -44.5t1 -41q0 -33 -1.5 -99t-1.5 -98v-41q4 -143 7 -197zM145 617v11v-11zM128 606l4 -5q-1 2 -4 5z" />
    <glyph glyph-name="eng" unicode="&#x14b;" horiz-adv-x="485" 
d="M392 507q1 -1 9 -8t12 -11t11 -13t11 -17.5t7 -20.5t3 -26q0 -57 -10.5 -99.5t-35 -97.5t-32.5 -75q-4 -13 -9 -29t-9 -31.5t-8 -26.5q-6 -19 -22 -46h-4q-13 -42 -24 -79l-3 -15t-4.5 -18t-5.5 -17.5t-8.5 -18t-12.5 -15.5q-22 -22 -64.5 -43.5t-64.5 -21.5v72
q17 0 50 18t41 26q6 6 8.5 9.5t3 6.5t3 13.5t6.5 23.5q12 45 28 93q5 17 23 46q8 30 25 80q11 32 27 70t25 59t16 51.5t7 64.5q0 5 -20 22l-2 2q-6 -8 -46 -56q-71 -79 -102.5 -120t-68.5 -106q-11 -21 -31.5 -54.5t-28.5 -46.5q-2 -6 -5 -10.5t-4 -7t-2.5 -4.5t-1.5 -4
q-2 -8 -2 -15q-2 -18 -15.5 -25.5t-26 -0.5t-12.5 26v5v1q-2 9 0 19q1 6 3 12q4 25 22 83q33 104 98 270q8 20 17 47h-1q-7 -5 -34.5 -33t-54 -50.5t-37.5 -22.5h-2v60h2q1 0 22.5 21.5t45 44.5t28.5 26q6 4 17 12q25 16 34.5 21.5t19 4.5t19.5 -11t11 -26.5t-3 -28.5
t-9 -17h1q-15 -54 -24 -77q-27 -67 -46 -116q60 101 131 177q2 3 15 19t25 30.5t26 27t21 12.5h2zM318 15l-2 -7q1 4 2 7z" />
    <glyph glyph-name="Omacron" unicode="&#x14c;" horiz-adv-x="649" 
d="M491 803l-10 -63q-51 -4 -76.5 -3.5t-72.5 3.5t-76 3v62q37 -5 73 -5.5t89.5 1.5t72.5 2zM596 476q16 -88 10 -170q-3 -49 -21.5 -108.5t-55 -116t-80.5 -74.5q-18 -7 -65 -11.5t-85 -4.5q-59 0 -136 57q-11 8 -19.5 18t-13.5 18t-10.5 22.5t-7 20.5t-5.5 24t-5 22
q-10 40 -27 145q0 1 -3 8t-5 15t0 15q6 30 20.5 67.5t37 77.5t49 73t59.5 56t66 26q11 1 19 1q46 0 107.5 -19t96.5 -48q2 -2 6 -5q14 -12 20 -17t13 -12t9.5 -11.5t2.5 -8.5q5 1 8.5 -2t6 -8t4 -11t2.5 -13t1 -12.5t0.5 -9.5zM536 312q5 71 -9 150l-50 67q-24 20 -74.5 34
t-84.5 14h-11q-43 -4 -94 -72t-73 -145q1 -13 4 -29q17 -100 26 -140q12 -48 16 -58.5t18 -20.5q57 -41 95 -41q30 0 72 3.5t52 7.5q39 15 73.5 85.5t39.5 144.5z" />
    <glyph glyph-name="omacron" unicode="&#x14d;" horiz-adv-x="381" 
d="M390 668l-10 -63q-51 -4 -76.5 -3.5t-72.5 3.5t-76 3v62q37 -5 73 -5.5t89.5 1.5t72.5 2zM339 512q23 0 23 -37q0 -10 -2 -26l-3 -24q-2 -32 -14 -133q-14 -113 -23 -148q21 26 19 14q-4 -26 -52 -97q-32 -47 -59 -71q-4 -4 -7.5 -6t-6 -3.5t-6.5 -2t-5.5 -0.5h-8.5h-11
q-65 0 -67 1q-6 2 -34 13t-41 19q-37 23 -33 82q4 55 27 128q6 17 14.5 48t15.5 52.5t17.5 48.5t25 51t33.5 44q-16 7 -6 13q5 3 26 11q59 22 157 22h2l-2 -20l20 21h1zM196 59q9 15 21.5 29t22 24t12.5 14q26 40 38 169q1 13 6.5 59.5t6.5 70.5v5q-85 0 -128 -17l2 -1h1
q-12 -12 -21.5 -25t-17 -28.5t-13 -28t-11.5 -31t-9.5 -30.5t-9.5 -33.5t-10 -33.5q-20 -71 -24 -109q-2 -22 8 -29q1 0 8 -1t19 -2t25 -1h4.5t12 -0.5t16 -0.5h18h17.5h6z" />
    <glyph glyph-name="Ohungarumlaut" unicode="&#x150;" horiz-adv-x="649" 
d="M326 772q-1 -1 -13 -14t-23 -24t-27.5 -21t-30.5 -10v72q6 0 14 5.5t14 12t12 14t7 8.5q12 12 22.5 18t11.5 7t8 6.5t12 10t13 8.5t14 4v-72q11 0 -15 -15l-8 -3.5t-11 -6.5zM591 808q-100 -80 -123 -93q-25 -12 -26 1h-54q0 29 99 99l-3 2q7 7 14.5 13.5t12.5 11t7 5.5
l8 -4q27 18 31 21l-1 -37zM596 476q16 -88 10 -170q-3 -49 -21.5 -108.5t-55 -116t-80.5 -74.5q-18 -7 -65 -11.5t-85 -4.5q-59 0 -136 57q-11 8 -19.5 18t-13.5 18t-10.5 22.5t-7 20.5t-5.5 24t-5 22q-10 40 -27 145q0 1 -3 8t-5 15t0 15q8 38 29 86.5t51 95.5t71 80.5
t81 37.5q11 1 19 1q46 0 107.5 -19t96.5 -48q2 -2 6 -5q14 -12 20 -17t13 -12t9.5 -11.5t2.5 -8.5q5 1 8.5 -2t6 -8t4 -11t2.5 -13t1 -12.5t0.5 -9.5zM536 312q5 71 -9 150l-50 67q-12 10 -33 19.5t-43.5 15.5t-44.5 9.5t-38 3.5h-11q-43 -4 -94.5 -72t-72.5 -145
q1 -13 4 -29q17 -100 26 -140q9 -36 12 -47t7.5 -17.5t14.5 -14.5q57 -41 95 -41q30 0 72 3.5t52 7.5q39 15 73.5 85.5t39.5 144.5z" />
    <glyph glyph-name="ohungarumlaut" unicode="&#x151;" horiz-adv-x="381" 
d="M277 758h54q0 -27 -31.5 -65.5t-73 -66t-67.5 -27.5v70q4 0 23 13t40.5 29t38 30.5t16.5 16.5zM449 758h54q0 -27 -31.5 -65.5t-73 -66t-67.5 -27.5v70q4 0 23 13t40.5 29t38 30.5t16.5 16.5zM339 512q23 0 23 -37q0 -10 -2 -26l-3 -24q-2 -32 -14 -133
q-14 -113 -23 -148q21 26 19 14q-4 -26 -52 -97q-32 -47 -59 -71q-4 -4 -7.5 -6t-6 -3.5t-6.5 -2t-5.5 -0.5h-8.5h-11q-65 0 -67 1q-6 2 -34 13t-41 19q-37 23 -33 82q4 55 27 128q5 16 17.5 59.5t20.5 67.5t26.5 58t41.5 59q-16 7 -6 13q5 3 26 11q59 22 157 22h2l-2 -20
l20 21h1zM196 59q9 15 21.5 29t22 24t12.5 14q26 40 38 169q1 13 6.5 59.5t6.5 70.5v5q-85 0 -128 -17l2 -1h1q-12 -12 -21.5 -25t-17 -28.5t-13 -28t-11.5 -31t-9.5 -30.5t-9.5 -33.5t-10 -33.5q-20 -71 -24 -109q-2 -22 8 -29q1 0 8 -1t19 -2t25 -1h4.5t12 -0.5t16 -0.5
h18h17.5h6z" />
    <glyph glyph-name="OE" unicode="&#x152;" horiz-adv-x="917" 
d="M856 5q-108 -6 -272 -6h-53.5h-63h-53.5q-56 -8 -115 -8t-136 57q-11 8 -19.5 18t-13.5 18t-10.5 22.5t-7 20.5t-5.5 24t-5 22q-10 40 -27 145q0 1 -2 5.5t-3.5 9.5t-2.5 11.5t0 11.5q6 30 20.5 67.5t37 77.5t49 73t59.5 56t66 26q11 1 19 1q54 0 120 -23q11 1 26 1.5
t26.5 1.5t22.5 2t14 2q20 1 65.5 5.5t70.5 5.5q28 1 63 1q21 0 62 -0.5t62 -0.5v-72q-21 0 -62.5 0.5t-61.5 0.5q-35 0 -61 -1q-24 -1 -66 -5t-53 -5q27 -24 27 -34q5 1 8.5 -2t6 -8t4 -11t2.5 -13t1 -12.5t0.5 -9.5l0.5 -4q10 -54 11 -107h33.5t39.5 -0.5t34 -0.5
q46 0 81 2l3 -72q-38 -2 -84 -2h-28t-26.5 0.5t-27.5 0.5h-27q-3 -35 -14 -76t-31 -85t-44 -75h68q163 0 268 6zM204 112q57 -41 95 -41q30 0 72 3.5t52 7.5q39 15 73.5 85.5t39.5 144.5q5 71 -9 150l-50 67q-24 20 -74.5 34t-84.5 14h-11q-43 -4 -94 -72t-73 -145
q1 -13 4 -29q17 -100 26 -140q9 -36 12 -47t7.5 -17.5t14.5 -14.5z" />
    <glyph glyph-name="oe" unicode="&#x153;" horiz-adv-x="625" 
d="M328 184q0 -3 -1 -6q0 -14 2 -23q12 13 9 1q-1 -5 -5 -16q1 -4 3 -9q-1 -4 16.5 -22t37.5 -33l8 -6q2 0 8 -1l12 -2t15 -1.5t16 -0.5h18l63 72l42 -51l-74 -86h1q-15 -16 -50 -16q-24 0 -47 5.5t-34 12.5q-17 12 -37.5 34t-33.5 41q-37 -59 -69 -87q-4 -4 -7.5 -6
t-6 -3.5t-6.5 -2t-5.5 -0.5h-8.5h-11q-65 0 -67 1q-6 2 -34 13t-41 19q-37 23 -33 82q4 55 27 128q6 17 14.5 48t15.5 52.5t17.5 48.5t25 51t33.5 44q-16 7 -6 13q5 3 26 11q59 22 157 22h2l-2 -20l20 21h1q18 0 22 -21q8 10 15 17q11 10 44 19q16 3 31 3q48 0 121 -88
q26 -30 18 -51q-3 -8 -8.5 -15t-12.5 -14l-8 -8q-29 -34 -65 -64t-69.5 -51.5t-79.5 -46.5q-4 -2 -19 -8zM406 465q-33 -31 -57 -124q-1 -8 -3 -24.5t-3 -24.5q-1 -4 -2 -19q39 18 60.5 30t54 38.5t62.5 63.5l2 2q-15 17 -34 30t-35 13q-19 0 -23 -2q-11 -3 -17 3.5t-5 13.5
zM196 59q13 21 33.5 42.5t22.5 24.5q10 15 16 35q-21 -7 -27 -7h-2v80h2q5 0 36 12q5 42 16 86q9 69 10 93v5q-85 0 -128 -17l2 -1h1q-10 -11 -19 -23t-15.5 -23t-12.5 -25t-10.5 -25.5t-9.5 -27.5t-8 -27t-8 -29.5t-9 -29.5q-20 -71 -24 -109q-2 -22 8 -29q1 0 5.5 -1
t10.5 -1.5t16 -1t20 -0.5h4.5t12 -0.5t16 -0.5h18h17.5h6z" />
    </font>
</defs>
</svg>
