<?xml version="1.0" standalone="no"?>
<!DOCTYPE svg PUBLIC "-//W3C//DTD SVG 1.1//EN" "http://www.w3.org/Graphics/SVG/1.1/DTD/svg11.dtd" >
<svg xmlns="http://www.w3.org/2000/svg" xmlns:xlink="http://www.w3.org/1999/xlink" version="1.1">
<metadata>
Created by FontForge 20170731 at Sun Jun 10 16:58:27 2018
 By Aleksey,,,
Copyright (c) 2018 by Lucas Descroix. All rights reserved.
</metadata>
<defs>
<font id="Syne-Regular" horiz-adv-x="544" >
  <font-face 
    font-family="Syne"
    font-weight="400"
    font-stretch="normal"
    units-per-em="1000"
    panose-1="0 0 5 0 0 0 0 0 0 0"
    ascent="800"
    descent="-200"
    x-height="500"
    cap-height="650"
    bbox="-546 -210 1048 890"
    underline-thickness="74"
    underline-position="-298"
    unicode-range="U+0020-FB01"
  />
<missing-glyph horiz-adv-x="446" 
d="M100 384h245v-245h-245v245z" />
    <glyph glyph-name="periodcentered" unicode="&#x2d;&#x2d;" horiz-adv-x="232" 
d="M167 322v-98h-102v98h102z" />
    <glyph glyph-name="fi" unicode="fi" horiz-adv-x="548" 
d="M281 621q-90 3 -90 -90v-51h297v-480h-78v406h-219v-406h-78v406h-88v74h88v50q0 59 22 97.5t59 55.5t88 17h206v-79h-207z" />
    <glyph glyph-name="f_f" unicode="ff" horiz-adv-x="635" 
d="M581 621q-90 3 -90 -90v-31h132v-74h-132v-426h-78v426h-229v-426h-78v426h-81v74h81v10q0 58 22 97t59 56t88 17h43v-79h-44q-90 2 -90 -90v-11h229v30q0 87 45.5 128.5t123.5 41.5h43v-79h-44z" />
    <glyph glyph-name="f_f_i" unicode="ffi" horiz-adv-x="856" 
d="M796 500v-500h-78v426h-227v-426h-78v426h-229v-426h-78v426h-81v74h81v10q0 58 22 97t59 56t88 17h43v-79h-44q-90 2 -90 -90v-11h229v30q0 87 45.5 128.5t123.5 41.5h213v-79h-214q-90 3 -90 -90v-31h305z" />
    <glyph glyph-name=".notdef" horiz-adv-x="446" 
d="M100 384h245v-245h-245v245z" />
    <glyph glyph-name=".null" horiz-adv-x="0" 
 />
    <glyph glyph-name="nonmarkingreturn" horiz-adv-x="333" 
 />
    <glyph glyph-name="space" unicode=" " horiz-adv-x="209" 
 />
    <glyph glyph-name="exclam" unicode="!" horiz-adv-x="222" 
d="M73 650h76v-449h-76v449zM162 97v-97h-102v97h102z" />
    <glyph glyph-name="quotedbl" unicode="&#x22;" horiz-adv-x="344" 
d="M64 447l-11 21q5 3 11.5 9t17.5 25t12 41l-49 11v96h106v-67q0 -107 -87 -136zM212 447l-11 21q5 3 11.5 9t18 25t11.5 41l-49 11v96h106v-67q0 -107 -87 -136z" />
    <glyph glyph-name="numbersign" unicode="#" horiz-adv-x="681" 
d="M611 404h-137v-158h137v-65h-137v-161h-61v161h-138v-161h-62v161h-143v65h143v158h-143v65h143v161h62v-161h138v161h61v-161h137v-65zM413 246v158h-138v-158h138z" />
    <glyph glyph-name="dollar" unicode="$" horiz-adv-x="432" 
d="M235 354l15 -6q28 -11 43 -17.5t37.5 -20.5t33.5 -28t19.5 -36.5t8.5 -50.5q0 -62 -42.5 -101t-109.5 -39q-11 0 -22 1l-23 -128l-74 13l24 133q-38 18 -64 50t-34 58.5t-7 43.5h73q9 -41 40.5 -67.5t80.5 -27.5q19 0 34.5 4.5t25.5 13t15 20.5t5 26q0 9 -2 17t-4.5 14
t-9.5 12l-10.5 9t-14.5 8t-15 6.5t-19 7t-19.5 7.5t-13.5 5q-30 11 -45.5 17.5t-40.5 20.5t-37.5 28t-23 36t-10.5 48q0 62 45 103t117 41q11 0 22 -1l22 127l74 -13l-24 -137q69 -43 71 -136h-68q-14 82 -100 82q-36 0 -58.5 -17.5t-22.5 -45.5q0 -13 5 -23.5t18.5 -19
t22 -12.5t31.5 -13t31 -12z" />
    <glyph glyph-name="percent" unicode="%" horiz-adv-x="683" 
d="M507 686l54 -30l-382 -690l-52 32zM160.5 336q-61.5 0 -101 46t-39.5 116q0 72 39.5 117t101.5 45t101.5 -45t39.5 -117q0 -70 -40 -116t-101.5 -46zM161 410q19 0 34.5 11t24.5 31t9 46q0 40 -19.5 64.5t-48.5 24.5t-49 -24.5t-20 -64t20 -64t49 -24.5zM522.5 -10
q-61.5 0 -101 45.5t-39.5 116.5t39.5 116.5t101 45.5t101.5 -45.5t40 -116.5t-40 -116.5t-101.5 -45.5zM522.5 63q29.5 0 49 24.5t19.5 64.5q0 19 -5.5 36t-14.5 28t-21.5 17.5t-26.5 6.5q-30 0 -49.5 -24.5t-19.5 -64t19.5 -64t49 -24.5z" />
    <glyph glyph-name="ampersand" unicode="&#x26;" horiz-adv-x="562" 
d="M537 375v-75h-117v-446h-68v240q-26 -104 -134 -104q-81 0 -131 52t-50 131q0 73 42 115.5t116 53.5q-149 17 -149 142q0 75 53 125.5t135 50.5q76 0 121 -43.5t45 -121.5h-68q0 44 -27 68t-71 24q-25 0 -45.5 -7.5t-34.5 -21t-22 -32.5t-8 -41q0 -50 34 -80t90 -30h289z
M352 177v123h-104q-63 0 -98 -32.5t-35 -86.5t30.5 -86t81.5 -32q33 0 61.5 15t46 41t17.5 58z" />
    <glyph glyph-name="quotesingle" unicode="'" horiz-adv-x="196" 
d="M120 446h-44l-31 127v77h106v-77z" />
    <glyph glyph-name="parenleft" unicode="(" horiz-adv-x="304" 
d="M254 -87l-66 -45q-6 6 -15 18t-33 52.5t-42 85.5t-33 116.5t-15 145.5q0 54 7.5 106.5t19.5 93t27 76.5t29.5 61.5t27 44.5t19.5 28l8 9l66 -46q-5 -5 -13.5 -15.5t-30 -46.5t-38 -76t-30 -104t-13.5 -131q0 -49 7 -96t18 -83t24 -68t26.5 -54.5t24.5 -39t18 -24.5z" />
    <glyph glyph-name="parenright" unicode=")" horiz-adv-x="304" 
d="M50 -87q5 6 13.5 16t30 46t38 76t30 104t13.5 131t-13 130t-31.5 105.5t-36.5 75t-31 47.5l-13 15l66 46q5 -7 14.5 -18.5t33.5 -52.5t42 -86t33 -116.5t15 -145.5t-14.5 -144.5t-34.5 -118t-40.5 -84.5t-34.5 -54l-14 -17z" />
    <glyph glyph-name="asterisk" unicode="*" horiz-adv-x="427" 
d="M376 562l-103 -34l71 -99l-56 -41l-75 104l-75 -104l-56 41l70 97l-102 33l22 67l107 -35v118h69v-116l107 35z" />
    <glyph glyph-name="plus" unicode="+" horiz-adv-x="456" 
d="M406 304v-68h-144v-146h-68v146h-144v68h144v146h68v-146h144z" />
    <glyph glyph-name="comma" unicode="," horiz-adv-x="196" 
d="M64 -106l-11 21q2 1 4.5 3t9.5 9.5t12.5 15.5t10 20.5t4.5 25.5l-49 11v97h106v-67q0 -107 -87 -136z" />
    <glyph glyph-name="hyphen" unicode="-" horiz-adv-x="448" 
d="M80 306h288v-73h-288v73z" />
    <glyph glyph-name="period" unicode="." horiz-adv-x="232" 
d="M167 97v-97h-102v97h102z" />
    <glyph glyph-name="slash" unicode="/" horiz-adv-x="414" 
d="M316 721l69 -25l-286 -785l-69 25z" />
    <glyph glyph-name="zero" unicode="0" horiz-adv-x="582" 
d="M292 -10q-99 0 -170.5 71.5t-71.5 187.5t71.5 188.5t170.5 72.5q98 0 169 -72.5t71 -188.5t-71 -187.5t-169 -71.5zM292 66q65 0 113.5 49.5t48.5 133.5q0 83 -48.5 134t-113.5 51q-31 0 -60 -12.5t-52.5 -35.5t-37.5 -58.5t-14 -78.5q0 -84 49 -133.5t115 -49.5z" />
    <glyph glyph-name="one" unicode="1" horiz-adv-x="324" 
d="M25 500h194v-500h-78v427h-116v73z" />
    <glyph glyph-name="two" unicode="2" horiz-adv-x="453" 
d="M160 74h253v-74h-364v74q40 32 91.5 68t77.5 55t52.5 43t36.5 47t10 52q0 42 -28.5 70t-73.5 28q-44 0 -75 -29t-31 -73h-68q-7 72 45.5 124t128.5 52q84 0 132 -48.5t48 -118.5q0 -55 -32.5 -98.5t-99.5 -94.5z" />
    <glyph glyph-name="three" unicode="3" horiz-adv-x="448" 
d="M264 192q147 -21 147 -165q0 -79 -53 -133t-137 -54q-80 0 -135.5 55.5t-47.5 131.5h68q0 -49 33.5 -81.5t81.5 -32.5q51 0 81.5 32t30.5 86q0 35 -15 62t-43 42.5t-65 15.5h-56v73h56q54 0 84 30t30 80q0 30 -14 53t-37.5 36t-53.5 13q-28 0 -52 -12.5t-38 -36
t-14 -53.5h-68q-7 73 44.5 124.5t127.5 51.5q54 0 96 -23.5t64 -63.5t22 -90q0 -36 -9.5 -62t-28.5 -42t-43 -25t-56 -12z" />
    <glyph glyph-name="four" unicode="4" horiz-adv-x="530" 
d="M485 74v-74h-91v-145h-78v145h-271v74l271 431h78v-431h91zM131 74h185v297z" />
    <glyph glyph-name="five" unicode="5" horiz-adv-x="528" 
d="M288 270q87 0 141 -59t54 -157q0 -97 -59.5 -155.5t-146.5 -58.5q-88 0 -149.5 53.5t-67.5 142.5h78q6 -56 44.5 -87.5t94.5 -31.5q54 0 91.5 36.5t37.5 100.5q0 65 -34.5 102t-89.5 37q-94 0 -130 -84l-73 15l20 376h324v-74h-250l-14 -246q17 46 51.5 68t77.5 22z" />
    <glyph glyph-name="six" unicode="6" horiz-adv-x="480" 
d="M250 420q82 0 138.5 -60t54.5 -156.5t-63 -155t-150 -58.5q-88 0 -147.5 58.5t-57.5 154.5q1 49 23 108l157 339h83l-136 -280q44 50 98 50zM365 204q1 64 -36 101.5t-92 37.5q-59 0 -96 -40t-38 -100q-1 -63 36 -100t92 -37q56 0 94.5 37t39.5 101z" />
    <glyph glyph-name="seven" unicode="7" horiz-adv-x="402" 
d="M332 500h50v-73l-221 -577h-76l218 577h-283v73h311h1z" />
    <glyph glyph-name="eight" unicode="8" horiz-adv-x="483" 
d="M324 342q52 -19 83 -61t31 -103q0 -79 -54.5 -133.5t-142 -54.5t-142 54.5t-54.5 133.5q0 61 31 103t83 61q-100 34 -100 142q0 75 51 125.5t132 50.5q53 0 95 -23.5t64.5 -63.5t22.5 -89q0 -108 -100 -142zM242 587q-29 0 -52.5 -13t-38 -36.5t-14.5 -53.5
q0 -44 30.5 -74.5t74 -30.5t74 30.5t30.5 74.5q0 45 -30.5 74t-73.5 29zM242 63q50 0 84 33t34 81q0 52 -34 85.5t-84 33.5q-34 0 -61 -15t-42.5 -42t-15.5 -62q0 -32 15.5 -58t42.5 -41t61 -15z" />
    <glyph glyph-name="nine" unicode="9" horiz-adv-x="480" 
d="M249 510q88 0 147.5 -58.5t58.5 -154.5q-1 -49 -24 -108l-156 -339h-83l136 280q-44 -49 -98 -49q-79 0 -137 60t-56 156t63 154.5t149 58.5zM243 157q59 0 96 40t38 100q1 63 -36 100t-92.5 37t-94 -37t-39.5 -101t36 -101.5t92 -37.5z" />
    <glyph glyph-name="colon" unicode=":" horiz-adv-x="273" 
d="M177 487v-98h-102v98h102zM177 97v-97h-102v97h102z" />
    <glyph glyph-name="semicolon" unicode=";" horiz-adv-x="244" 
d="M167 486v-97h-102v97h102zM92 -107l-11 21q5 3 11.5 9t18 25.5t11.5 40.5l-49 11v96h106v-67q0 -106 -87 -136z" />
    <glyph glyph-name="less" unicode="&#x3c;" horiz-adv-x="532" 
d="M431 454l-283 -163l283 -164l-39 -67l-322 186v90l322 186z" />
    <glyph glyph-name="equal" unicode="=" horiz-adv-x="465" 
d="M50 404h365v-74h-365v74zM50 225h365v-74h-365v74z" />
    <glyph glyph-name="greater" unicode="&#x3e;" horiz-adv-x="531" 
d="M140 522l321 -186v-90l-321 -186l-40 67l283 164l-283 163z" />
    <glyph glyph-name="question" unicode="?" horiz-adv-x="457" 
d="M228 660q82 0 133 -50t51 -125q0 -52 -20.5 -91.5t-55.5 -62t-82 -28.5v-102h-78v173h43q50 0 82.5 32.5t32.5 78.5q0 45 -29.5 73.5t-76.5 28.5q-44 0 -74.5 -29t-30.5 -73h-78q0 74 54 124.5t129 50.5zM156 0v97h102v-97h-102z" />
    <glyph glyph-name="at" unicode="@" horiz-adv-x="731" 
d="M639 590q13 -39 13 -85q0 -19 -2 -38.5t-6 -42.5t-7 -37t-9.5 -41t-8.5 -36q-6 -26 -31 -94t-37 -81q-2 -2 -11 -9.5t-12 -12.5l-2.5 -5t-3 -5t-4.5 -3q-1 -1 -2 -1q-3 0 -7.5 3.5t-5.5 4.5q-37 18 -37 63q0 32 1.5 95t1.5 95q0 1 0.5 1.5t0.5 1t0.5 2.5t1.5 5t2.5 9.5
t2.5 14.5q1 2 3 10l3 10h-1q-15 -17 -29 -40v-48q-7 0 -25 9q-5 -10 -21 -38t-27 -47t-23 -36q-16 -22 -39 -47t-47 -50.5t-40 -45.5q-4 3 -4 26q0 69 7 116q8 45 42 182q8 32 14 62v4.5t-0.5 5t-0.5 6v5.5q0 7 3 7q2 0 6 -2t5 -3q1 0 17 -2.5t21 -5.5q1 0 73 -42
q17 30 27 42q37 44 68 23q34 -22 24 -101q-2 -9 -3 -18l-7 -16q0 -32 -6 -88.5t-7 -75.5l3 3l54 131q3 13 9 40t9 40t6.5 32t5 34t1.5 29q0 36 -10 66q-3 9 -4 15q0 2 -2 3q-1 1 -2 1t-2.5 1.5t-3.5 2.5q-7 5 -64 21q0 -1 -1.5 -0.5t-6.5 0.5h-9q-18 0 -47 -4
q-51 -8 -93 -26q-39 -16 -84.5 -57.5t-55.5 -70.5q-40 -109 -54.5 -187t-14.5 -177q0 -35 7 -62.5t15 -40t22 -30.5t20 -26q-4 6 5 4q10 -2 36 -13q10 -5 26 -5h7q16 0 24 7t40 50q4 6 7 9q14 20 32 51l24 43l48 -38l1 1l-2 -7q-4 -6 -12 -20.5t-13 -22.5q-15 -28 -48 -66
q-7 -9 -21 -26t-21 -24.5t-18.5 -17.5t-22.5 -14t-25 -4q-20 0 -47 11q-2 1 -5 3q-47 20 -60 41q-73 115 -73 197q0 109 17 198.5t55 196.5q11 28 40.5 64t65.5 65.5t64 41.5q58 23 106 31q35 5 55 5q18 0 31 -4q53 -15 80 -33q7 -5 13.5 -15t8.5 -15.5t7 -21.5t6 -16z
M342 439v-1v1zM310 232q17 24 69 130q-38 22 -48 27q-2 -9 -4 -16q-27 -112 -50 -174q-1 -3 -1 -4z" />
    <glyph glyph-name="A" unicode="A" horiz-adv-x="613" 
d="M509 0l-62 171h-283l-62 -171h-82l245 650h81l247 -650h-84zM192 246h227l-113 310z" />
    <glyph glyph-name="B" unicode="B" horiz-adv-x="609" 
d="M564 181q0 -85 -55 -130.5t-148 -50.5h-281v650h251q100 0 156 -46t56 -128q0 -67 -35 -101.5t-100 -46.5q73 -8 114.5 -41t41.5 -106zM341 77q146 0 146 103q0 32 -14.5 53.5t-40 31.5t-51.5 14t-60 4l1 44l-1 34q69 0 107.5 29t38.5 84q0 52 -37 75.5t-99 23.5h-173
v-212h163v-78h-163v-206h183z" />
    <glyph glyph-name="C" unicode="C" horiz-adv-x="682" 
d="M632 217q-15 -105 -90 -166t-182 -61q-134 0 -222 92.5t-88 242.5t88 242.5t222 92.5q108 0 182.5 -61.5t89.5 -166.5h-72q-20 73 -74.5 114t-125.5 41q-37 0 -71 -11t-63.5 -33t-51 -53t-34 -73.5t-12.5 -91.5q0 -121 68 -191t164 -70q71 0 125 40t75 113h72z" />
    <glyph glyph-name="D" unicode="D" horiz-adv-x="679" 
d="M285 650q75 0 134.5 -17t98.5 -46t64.5 -71t36 -88t10.5 -100q0 -67 -19 -124.5t-59 -104t-108 -73t-158 -26.5h-205v650h205zM285 75q61 0 108.5 15t77 38.5t48.5 57.5t26.5 68.5t7.5 73.5q0 33 -5.5 61.5t-17.5 57t-32.5 51t-49.5 40.5t-70.5 27.5t-92.5 9.5h-127v-500
h127z" />
    <glyph glyph-name="E" unicode="E" horiz-adv-x="594" 
d="M158 74h376v-74h-454v650h453v-73h-375v-216h307v-75h-307v-212z" />
    <glyph glyph-name="F" unicode="F" horiz-adv-x="558" 
d="M533 575h-375v-213h307v-76h-307v-286h-78v650h453v-75z" />
    <glyph glyph-name="G" unicode="G" horiz-adv-x="713" 
d="M654 301v-70l-1 -231h-76q0 66 8 191q-46 -201 -233 -201q-133 0 -217.5 94t-84.5 241q0 97 39 173.5t110 119t161 42.5q110 0 183 -62.5t83 -165.5h-66q-20 71 -73.5 112t-126.5 41q-102 0 -167 -73t-65 -187t64 -186.5t166 -72.5q74 0 122 42t62 121l-144 -2v74h256z
" />
    <glyph glyph-name="H" unicode="H" horiz-adv-x="713" 
d="M555 650h78v-650h-78v288h-397v-288h-78v650h78v-289h397v289z" />
    <glyph glyph-name="I" unicode="I" horiz-adv-x="278" 
d="M100 650h78v-650h-78v650z" />
    <glyph glyph-name="J" unicode="J" horiz-adv-x="531" 
d="M373 650h78v-432q0 -99 -59 -163.5t-153 -64.5q-86 0 -148.5 54t-66.5 143h71q6 -38 28.5 -66t52.5 -41t63 -13q61 0 97.5 42t36.5 109v432z" />
    <glyph glyph-name="K" unicode="K" horiz-adv-x="624" 
d="M604 0h-103l-343 340v-340h-78v650h78v-310l300 310h104l-303 -307z" />
    <glyph glyph-name="L" unicode="L" horiz-adv-x="565" 
d="M158 73h357v-73h-362h-73v650h78v-577z" />
    <glyph glyph-name="M" unicode="M" horiz-adv-x="871" 
d="M713 650h78v-650h-78v478l-239 -478h-77l-239 477v-477h-78v650h78l277 -571z" />
    <glyph glyph-name="N" unicode="N" horiz-adv-x="713" 
d="M555 650h78v-650h-78l-397 525v-525h-78v650h78l397 -525v525z" />
    <glyph glyph-name="O" unicode="O" horiz-adv-x="733" 
d="M366.5 -10q-65.5 0 -123.5 24t-100.5 67t-67.5 106t-25 138t25 138t67.5 106t100.5 67t123 24q52 0 100 -15t87.5 -44.5t68.5 -69.5t45 -93t16 -113q0 -75 -25 -138t-68 -106t-100.5 -67t-123 -24zM366.5 66q62.5 0 116 28.5t88 89t34.5 141.5t-34.5 141t-88 89.5
t-116 29.5t-116 -29.5t-88 -89.5t-34.5 -141t34.5 -141.5t88 -89t116 -28.5z" />
    <glyph glyph-name="P" unicode="P" horiz-adv-x="599" 
d="M341 650q92 0 152.5 -56.5t60.5 -153t-60.5 -153t-152.5 -56.5h-185v-231h-78v650h263zM340 307q61 0 98.5 36.5t37.5 97.5q0 41 -17 71.5t-48 46.5t-71 16h-184v-268h184z" />
    <glyph glyph-name="Q" unicode="Q" horiz-adv-x="733" 
d="M683 325q0 -138 -78.5 -228.5t-199.5 -104.5v-192h-78v192q-120 14 -198.5 104.5t-78.5 228.5q0 75 25 138t67.5 106t100.5 67t123 24q52 0 100 -15t87.5 -44.5t68.5 -69.5t45 -93t16 -113zM366.5 66q62.5 0 116 28.5t88 89t34.5 141.5t-34.5 141t-88 89.5t-116 29.5
t-116 -29.5t-88 -89.5t-34.5 -141t34.5 -141.5t88 -89t116 -28.5z" />
    <glyph glyph-name="R" unicode="R" horiz-adv-x="635" 
d="M422 300q72 -5 107.5 -34.5t35.5 -103.5v-162h-77l-1 163q0 103 -144 103h-185v-266h-78v650h281q68 0 115.5 -20.5t73 -62t25.5 -101.5q0 -73 -41 -113.5t-112 -52.5zM158 575v-233h203v-39v39q40 0 70.5 15.5t47.5 43.5t18 65q0 52 -37 80.5t-99 28.5h-203z" />
    <glyph glyph-name="S" unicode="S" horiz-adv-x="520" 
d="M42 210h69q4 -63 53 -104.5t115 -42.5q55 -1 89 29.5t34 77.5q0 13 -3.5 24.5t-7 19.5t-14 17t-16.5 13.5t-22 12t-22 10t-26.5 10t-26 9.5t-17.5 7q-27 10 -41 15.5t-38.5 17t-38 20.5t-31.5 24.5t-27 31t-16 36.5t-7 45q0 76 54.5 126.5t146.5 50.5q94 0 147 -56.5
t51 -150.5h-69q-2 67 -39 99.5t-94 32.5q-23 0 -44 -5.5t-38 -16.5t-27 -30.5t-10 -45.5q0 -18 6.5 -33t14 -24.5t26 -20t30 -15.5t40 -16t41.5 -16q7 -4 30.5 -13t34 -13.5t31.5 -15t32 -19t26.5 -23t23 -29.5t13 -35t5.5 -43q0 -81 -50 -131t-143 -50q-57 0 -103 18
t-73.5 45t-45 58.5t-22.5 57.5t-1 41z" />
    <glyph glyph-name="T" unicode="T" horiz-adv-x="543" 
d="M528 650v-73h-218v-577h-77v577h-218v73h513z" />
    <glyph glyph-name="U" unicode="U" horiz-adv-x="688" 
d="M530 650h77v-401q0 -131 -70.5 -195t-191.5 -64q-122 0 -193.5 64t-71.5 195v401h78v-401q0 -54 14.5 -91t42 -56.5t59 -27.5t71.5 -8q32 0 57.5 4.5t50 17t41 32.5t26.5 53t10 76v401z" />
    <glyph glyph-name="V" unicode="V" horiz-adv-x="593" 
d="M491 650h82l-235 -650h-81l-237 650h84l193 -536z" />
    <glyph glyph-name="W" unicode="W" horiz-adv-x="1025" 
d="M1005 650l-229 -648v-2h-83l1 2l-180 550l-180 -550v-2h-83l1 2l-232 648h84l188 -530l180 530h83l181 -530l188 530h81z" />
    <glyph glyph-name="X" unicode="X" horiz-adv-x="609" 
d="M566 650l-218 -317l218 -333h-97l-165 267l-174 -267h-87l219 332l-209 318h87l166 -253l173 253h87z" />
    <glyph glyph-name="Y" unicode="Y" horiz-adv-x="584" 
d="M471 650h88l-228 -427v-223h-78v223l-228 427h88l181 -344z" />
    <glyph glyph-name="Z" unicode="Z" horiz-adv-x="633" 
d="M578 650v-73l-422 -503h422v-74h-523v74l424 503h-424v73h523z" />
    <glyph glyph-name="bracketleft" unicode="[" horiz-adv-x="340" 
d="M282 -99v-79h-194v978h194v-79h-115v-820h115z" />
    <glyph glyph-name="backslash" unicode="\" horiz-adv-x="414" 
d="M99 721l286 -785l-69 -25l-286 785z" />
    <glyph glyph-name="bracketright" unicode="]" horiz-adv-x="344" 
d="M60 -98h115v819h-115v79h194v-977h-194v79z" />
    <glyph glyph-name="asciicircum" unicode="^" horiz-adv-x="587" 
d="M203 600v-97h-102v97h102z" />
    <glyph glyph-name="underscore" unicode="_" horiz-adv-x="788" 
d="M80 -124h627v-76h-627v76z" />
    <glyph glyph-name="grave" unicode="`" horiz-adv-x="587" 
d="M335 700h102v-97h-102v97z" />
    <glyph glyph-name="a" unicode="a" horiz-adv-x="561" 
d="M420 500h78v-500h-72q-6 67 -6 99v54q-16 -71 -56.5 -117t-111.5 -46q-89 0 -152 74t-63 185q0 112 65 186.5t160 74.5q129 0 158 -142v132zM271 66q73 0 111 51.5t38 131.5q0 85 -38 134.5t-111 49.5q-49 0 -84.5 -23.5t-53.5 -65t-18 -95.5q0 -80 44 -131.5t112 -51.5z
" />
    <glyph glyph-name="b" unicode="b" horiz-adv-x="578" 
d="M326 510q93 0 154 -74t61 -187q0 -112 -62.5 -185.5t-153.5 -73.5q-71 0 -111.5 46t-55.5 117v-54l-7 -99h-71v700h78v-333q14 68 53.5 105.5t114.5 37.5zM306 66q68 0 112.5 51.5t44.5 131.5q0 83 -42 134t-115 51q-72 0 -110 -50t-38 -135q0 -52 15.5 -92t49.5 -65.5
t83 -25.5z" />
    <glyph glyph-name="c" unicode="c" horiz-adv-x="541" 
d="M504 188q-12 -91 -75.5 -144.5t-149.5 -53.5q-99 0 -170.5 71.5t-71.5 187.5t71.5 188.5t170.5 72.5q85 0 148.5 -53.5t75.5 -143.5h-71q-17 56 -60 88.5t-93 32.5q-65 0 -114.5 -50.5t-49.5 -134.5t49 -133.5t115 -49.5q57 0 97 31.5t57 90.5h71z" />
    <glyph glyph-name="d" unicode="d" horiz-adv-x="578" 
d="M420 700h78v-700h-72q-6 67 -6 99v54q-16 -71 -56.5 -117t-111.5 -46q-91 0 -153 73.5t-62 185.5q0 113 61 187t154 74q74 0 113.5 -37.5t54.5 -105.5v333zM271 66q73 0 111 51.5t38 131.5q0 85 -38 135t-111 50t-114.5 -51t-41.5 -134q0 -80 44 -131.5t112 -51.5z" />
    <glyph glyph-name="e" unicode="e" horiz-adv-x="529" 
d="M415 160h74q-13 -74 -69 -122t-139 -48q-68 0 -124 33t-88 92.5t-32 133.5q0 112 68 186.5t171 74.5q108 0 165.5 -73t49.5 -208h-376q7 -72 53.5 -117.5t112.5 -45.5q49 0 85 26t49 68zM271 434q-37 0 -68 -16t-52 -45.5t-31 -68.5h292q-5 62 -43.5 96t-97.5 34z" />
    <glyph glyph-name="f" unicode="f" horiz-adv-x="335" 
d="M281 621q-90 3 -90 -90v-31h124v-74h-124v-426h-78v426h-88v74h88v30q0 59 22 97.5t59 55.5t88 17h43v-79h-44z" />
    <glyph glyph-name="g" unicode="g" horiz-adv-x="531" 
d="M503 501v-87q-60 0 -136 39q77 -56 77 -160q0 -97 -59 -155.5t-143 -58.5q-60 -3 -86.5 -12t-26.5 -33q0 -34 46 -34h101q41 0 73.5 -8t59.5 -25.5t41.5 -49.5t14.5 -75v-42h-78v22q0 52 -27 77t-83 25h-97q-129 0 -129 85q0 45 34.5 65t82.5 19q-58 22 -94.5 74
t-36.5 126q0 97 60 157t145 60q31 0 62 -10zM242 154q51 0 87.5 37t36.5 102q0 43 -17.5 75.5t-46 48.5t-60.5 16q-52 0 -89.5 -38t-37.5 -102.5t37 -101.5t90 -37z" />
    <glyph glyph-name="h" unicode="h" horiz-adv-x="556" 
d="M323 510q79 0 124.5 -47t45.5 -128v-335h-78v316q0 115 -107 115q-55 0 -97.5 -37t-57.5 -97v-297h-78v700h78v-343q17 70 63 111.5t107 41.5z" />
    <glyph glyph-name="i" unicode="i" horiz-adv-x="222" 
d="M162 700v-97h-102v97h102zM72 500h78v-500h-78v500z" />
    <glyph glyph-name="j" unicode="j" horiz-adv-x="222" 
d="M162 700v-97h-102v97h102zM73 500h78v-700h-78v700z" />
    <glyph glyph-name="k" unicode="k" horiz-adv-x="511" 
d="M75 0v700h78v-700h-78zM261 278l240 -278h-100l-246 279l217 221h112z" />
    <glyph glyph-name="l" unicode="l" horiz-adv-x="228" 
d="M75 700h78v-700h-78v700z" />
    <glyph glyph-name="m" unicode="m" horiz-adv-x="876" 
d="M643 510q79 0 124.5 -47t45.5 -128v-335h-78v315q0 116 -107 116q-24 0 -47 -7.5t-41.5 -22t-33.5 -34.5t-25 -44v-323h-78v315q0 116 -107 116q-55 0 -97.5 -37t-57.5 -97v-297h-78v500h78v-143q17 70 63 111.5t107 41.5q69 0 112.5 -35.5t54.5 -99.5q20 62 64 98.5
t101 36.5z" />
    <glyph glyph-name="n" unicode="n" 
d="M311 510q79 0 124.5 -46.5t45.5 -128.5v-335h-78v315q0 116 -107 116q-55 0 -97.5 -37t-57.5 -97v-297h-78v500h78v-143q17 70 63 111.5t107 41.5z" />
    <glyph glyph-name="o" unicode="o" horiz-adv-x="556" 
d="M279 -10q-99 0 -170.5 71.5t-71.5 187.5t71.5 188.5t170.5 72.5q98 0 169 -72.5t71 -188.5t-70.5 -187.5t-169.5 -71.5zM279 66q65 0 113.5 49.5t48.5 133.5q0 83 -48.5 134t-113.5 51q-31 0 -60 -12.5t-52.5 -35.5t-37.5 -58.5t-14 -78.5q0 -84 49 -133.5t115 -49.5z
" />
    <glyph glyph-name="p" unicode="p" horiz-adv-x="560" 
d="M308 510q90 0 152.5 -75t62.5 -186t-63.5 -185t-151.5 -74q-71 0 -111 45.5t-56 115.5v-351h-78v700h75l3 -104v-27q15 67 54.5 104t112.5 37zM289 66q69 0 112.5 51.5t43.5 131.5q0 54 -18 95.5t-53.5 65.5t-84.5 24q-62 0 -102.5 -46t-45.5 -122v-35q3 -47 19.5 -83.5
t49.5 -59t79 -22.5z" />
    <glyph glyph-name="q" unicode="q" horiz-adv-x="578" 
d="M419 500h79v-700h-78v353q-16 -71 -56.5 -117t-111.5 -46q-89 0 -152 74t-63 185t63 186t152 75q74 0 113.5 -37.5t54.5 -105.5v41zM271 66q73 0 111 51.5t38 131.5q0 85 -38 135t-111 50t-114.5 -51t-41.5 -134q0 -80 44 -131.5t112 -51.5z" />
    <glyph glyph-name="r" unicode="r" horiz-adv-x="315" 
d="M141 364q4 16 9.5 30.5t14.5 32t22 31.5t29 26t37.5 19t46.5 7v-80q-38 0 -68 -15t-48 -39.5t-27.5 -45t-15.5 -41.5v-289h-78v500h78v-136z" />
    <glyph glyph-name="s" unicode="s" horiz-adv-x="432" 
d="M40 161h72q10 -41 41.5 -68t80.5 -27q38 -1 59 17t21 46q0 10 -2 18t-4.5 13.5t-9.5 11.5l-10.5 9t-14.5 8t-15.5 7t-19 7.5t-19 7t-13.5 5.5q-21 8 -32 12t-30.5 13t-30.5 16.5t-25 19.5t-21 24t-12.5 28.5t-5.5 35.5q0 31 11.5 57.5t32.5 46t51.5 30.5t65.5 11
q74 0 119 -44t46 -116h-67q-15 82 -101 82q-35 0 -57.5 -17.5t-22.5 -45.5q0 -14 5 -24t18.5 -18.5t22 -13t31.5 -13t31 -11.5q5 -2 14 -6q29 -12 43.5 -18.5t37 -20.5t33.5 -27.5t20 -36t9 -50.5q0 -63 -42.5 -101.5t-109.5 -38.5q-46 0 -83 14t-58.5 34.5t-35.5 45
t-19 44.5t-4 33z" />
    <glyph glyph-name="t" unicode="t" horiz-adv-x="340" 
d="M315 500v-74h-106v-426h-78v426h-106v74h106v130h78v-130h106z" />
    <glyph glyph-name="u" unicode="u" 
d="M403 500h78v-500h-78v166q-4 -23 -10.5 -43.5t-20 -46t-30.5 -43.5t-45 -30.5t-62 -12.5q-31 0 -59.5 8.5t-54.5 27.5t-42 55t-16 86v333h78v-313q0 -118 109 -118q37 0 66 14.5t46 38.5t26.5 44t14.5 41v293z" />
    <glyph glyph-name="v" unicode="v" horiz-adv-x="489" 
d="M384 500h85l-188 -500h-74l-187 500h85l138 -398z" />
    <glyph glyph-name="w" unicode="w" horiz-adv-x="762" 
d="M657 500h85l-171 -500h-73l-117 406l-117 -406h-73l-171 500h85l124 -395l105 395h95l103 -395z" />
    <glyph glyph-name="x" unicode="x" horiz-adv-x="504" 
d="M479 0h-95l-133 190l-131 -190h-95l181 253l-181 247h95l132 -180l123 180h94l-171 -243z" />
    <glyph glyph-name="y" unicode="y" horiz-adv-x="500" 
d="M397 500h83l-277 -700h-82l90 207l-191 493h83l147 -396z" />
    <glyph glyph-name="z" unicode="z" horiz-adv-x="493" 
d="M153 74h285v-74h-383v74l286 352h-286v74h380v-74z" />
    <glyph glyph-name="braceleft" unicode="{" horiz-adv-x="416" 
d="M328 800v-79h-123q0 -43 33.5 -136.5t33.5 -133.5q0 -111 -120 -140q120 -29 120 -140q0 -40 -33.5 -133.5t-33.5 -136.5h123v-79h-210q-8 42 2 97t26.5 98t31.5 87.5t15 66.5q0 46 -34.5 73t-100.5 27v80q44 0 74.5 13t45.5 35t15 52q0 22 -15 66.5t-31.5 87.5t-26.5 98
t-2 97h210z" />
    <glyph glyph-name="bar" unicode="|" horiz-adv-x="268" 
d="M100 800h68v-960h-68v960z" />
    <glyph glyph-name="braceright" unicode="}" horiz-adv-x="416" 
d="M224 451q0 -46 34.5 -73t99.5 -27v-80q-65 0 -99.5 -27t-34.5 -73q0 -22 14.5 -66.5t31 -87.5t26.5 -98t3 -97h-211v79h123q0 43 -33 136.5t-33 133.5q0 111 119 140q-119 29 -119 140q0 40 33 133.5t33 136.5h-123v79h211q7 -42 -3 -97t-26.5 -98t-31 -87.5t-14.5 -66.5
z" />
    <glyph glyph-name="asciitilde" unicode="~" horiz-adv-x="262" 
d="M162 322v-98h-102v98h102z" />
    <glyph glyph-name="exclamdown" unicode="&#xa1;" horiz-adv-x="222" 
d="M162 443h-102v97h102v-97zM73 -110v449h76v-449h-76z" />
    <glyph glyph-name="cent" unicode="&#xa2;" horiz-adv-x="541" 
d="M433 188h71q-12 -91 -75.5 -144.5t-149.5 -53.5q-10 0 -20 1l-15 -87l-74 13l16 92q-67 28 -108 90.5t-41 149.5q0 114 70 186.5t167 74.5l18 100l74 -13l-17 -97q61 -19 103 -68t51 -119h-71q-12 40 -37.5 68t-59.5 42l-62 -357h6q57 0 97 31.5t57 90.5zM115 249
q0 -38 11.5 -70.5t30 -54.5t43.5 -37l61 346q-60 -7 -103 -56.5t-43 -127.5z" />
    <glyph glyph-name="sterling" unicode="&#xa3;" horiz-adv-x="463" 
d="M232 200q0 -26 -8.5 -49.5t-23 -38.5t-25 -24t-20.5 -14h259v-74h-343v74q3 1 8.5 4.5t20.5 15t26 25t20 36t9 46.5q0 27 -14 60h-101v60h71q-52 101 -52 163q0 80 51.5 128t130.5 48q54 0 96 -23.5t64 -63t22 -88.5h-78q0 29 -14 52.5t-37.5 36.5t-52.5 13
q-43 0 -73.5 -26.5t-30.5 -75.5q0 -13 1.5 -25t5.5 -26t7 -22.5t10 -24t10 -21t12.5 -23.5t10.5 -22h142v-60h-115q11 -32 11 -61z" />
    <glyph glyph-name="currency" unicode="&#xa4;" horiz-adv-x="555" 
d="M458 310q0 -55 -30 -101l79 -78l-50 -49l-77 77q-46 -32 -102.5 -32t-102.5 32l-78 -77l-49 49l78 78q-29 46 -29 101t29 101l-78 78l49 49l78 -77q46 32 102.5 32t102.5 -32l77 77l50 -49l-78 -78q29 -46 29 -101zM277 198q30 0 56 15t41 41t15 56t-15 56t-41 41t-56 15
q-45 0 -78 -33t-33 -79t33 -79t78 -33z" />
    <glyph glyph-name="yen" unicode="&#xa5;" horiz-adv-x="584" 
d="M559 650l-212 -396h94v-60h-298v60h94l-212 396h88l181 -344l177 344h88zM143 84v60h298v-60h-110v-84h-78v84h-110z" />
    <glyph glyph-name="brokenbar" unicode="&#xa6;" horiz-adv-x="268" 
d="M168 800v-344h-68v344h68zM168 184v-344h-68v344h68z" />
    <glyph glyph-name="section" unicode="&#xa7;" horiz-adv-x="432" 
d="M296 232q51 -25 73.5 -54t22.5 -73q0 -63 -42.5 -102t-110.5 -39q-45 0 -82.5 14.5t-59 35t-35.5 45t-18.5 44t-3.5 32.5h72q10 -41 41.5 -67.5t79.5 -27.5q39 0 60 17.5t21 46.5q0 12 -4.5 22.5t-9 16.5t-17 13t-19.5 10t-25 10t-25 10q-24 10 -33.5 14t-32 14.5
t-33.5 18t-27 20t-23.5 24.5t-14 28.5t-6.5 34.5q0 39 26.5 67.5t81.5 34.5q-57 24 -82.5 52.5t-25.5 70.5q0 63 45 104t117 41q74 0 118.5 -44t46.5 -116h-68q-14 82 -100 82q-36 0 -58.5 -18t-22.5 -45q0 -14 5 -24t18.5 -18.5t22 -13t31.5 -13t31 -11.5q6 -3 23 -9.5
t23.5 -9.5t21.5 -10t22 -11t19 -12.5t18 -15.5t14 -17t11.5 -21t6.5 -24.5t3 -28.5q0 -40 -23.5 -67t-72.5 -31zM122 348q0 -10 3 -18.5t10 -16t13 -12.5t19.5 -12t21 -10t26.5 -11.5t27 -11.5q22 3 38.5 13.5t25 26.5t8.5 34q0 11 -2.5 19.5t-8.5 15.5t-12 12t-18 11t-20 9
t-25 10t-26 11q-36 -6 -58 -24.5t-22 -45.5z" />
    <glyph glyph-name="dieresis" unicode="&#xa8;" horiz-adv-x="533" 
d="M212 699v-97h-102v97h102zM388 699v-97h-102v97h102z" />
    <glyph glyph-name="copyright" unicode="&#xa9;" horiz-adv-x="642" 
d="M322 55q-112 0 -192 81.5t-80 195.5t79.5 195t192.5 81q112 0 191.5 -81t79.5 -195t-80 -195.5t-191 -81.5zM322 126q82 0 141 61t59 145t-59 144.5t-141 60.5q-83 0 -142 -60.5t-59 -144.5t59 -145t142 -61zM443 313q0 -35 -15.5 -62t-42.5 -41t-60 -14q-26 0 -49.5 10
t-40 28t-26 43.5t-9.5 53.5q0 19 4 37t12 33t19.5 27.5t25.5 21t30 13.5t34 5q50 0 83.5 -32.5t34.5 -84.5h-61q-3 24 -19.5 37.5t-37.5 13.5q-25 0 -42.5 -20.5t-17.5 -50.5t17 -50t43 -20q22 0 38 14t20 38h60z" />
    <glyph glyph-name="ordfeminine" unicode="&#xaa;" horiz-adv-x="517" 
d="M376 700h78v-390h-71q-7 67 -7 89v39q-8 -26 -20 -49t-30.5 -43.5t-45 -33t-58.5 -12.5q-82 0 -133.5 57t-51.5 142q0 92 53 151.5t142 59.5q113 0 144 -122v112zM242 376q61 0 97.5 37t36.5 86q0 61 -35.5 97.5t-98.5 36.5q-66 0 -96.5 -36t-30.5 -98q0 -53 33.5 -88
t93.5 -35z" />
    <glyph glyph-name="guillemotleft" unicode="&#xab;" horiz-adv-x="495" 
d="M294 442l-148 -163l148 -163l-55 -54l-197 217l197 217zM405 337l-53 -58l52 -58l-52 -52l-100 110l100 111z" />
    <glyph glyph-name="logicalnot" unicode="&#xac;" horiz-adv-x="590" 
d="M490 405v-245h-79v170h-326v75h405z" />
    <glyph glyph-name="uni00AD" unicode="&#xad;" horiz-adv-x="600" 
d="M80 306h288v-73h-288v73z" />
    <glyph glyph-name="registered" unicode="&#xae;" horiz-adv-x="642" 
d="M322 106q-112 0 -192 81.5t-80 195.5t79.5 195t192.5 81q112 0 191.5 -81t79.5 -195t-80 -195.5t-191 -81.5zM322 177q87 0 143.5 60t56.5 146t-56 145t-144 59q-89 0 -145 -59t-56 -145t56 -146t145 -60zM227 257v261h104q105 0 105 -79q0 -63 -51 -71q27 -5 37 -20
t10 -39v-52h-65v52q0 29 -45 29h-30v-81h-65zM292 397h37q42 0 42 33q1 27 -42 27h-37v-60z" />
    <glyph glyph-name="macron" unicode="&#xaf;" horiz-adv-x="304" 
d="M203 700v-97h-102v97h102z" />
    <glyph glyph-name="degree" unicode="&#xb0;" horiz-adv-x="346" 
d="M173 412q-51 0 -87 37t-36 89q0 51 36 87.5t87 36.5t87 -36.5t36 -87.5q0 -52 -36 -89t-87 -37zM173 477q9 0 18 3t16 8.5t12.5 13t8.5 17t3 19.5q0 16 -7.5 30t-21 22t-29.5 8q-24 0 -41 -18t-17 -42q0 -26 17 -43.5t41 -17.5z" />
    <glyph glyph-name="plusminus" unicode="&#xb1;" horiz-adv-x="456" 
d="M262 324h144v-69h-144v-125h-68v125h-144v69h144v126h68v-126zM60 -10v75h336v-75h-336z" />
    <glyph glyph-name="uni00B2" unicode="&#xb2;" horiz-adv-x="330" 
d="M143 461l137 6v-67h-221v63q24 18 52 37t43.5 29t29.5 22t20 22.5t6 23.5q0 19 -12 31t-35 12q-25 0 -38 -17.5t-6 -40.5h-66q-12 51 22 89.5t88 38.5q52 0 86 -32t34 -81q0 -20 -6.5 -36.5t-15.5 -28t-29.5 -24.5t-38 -22t-50.5 -25z" />
    <glyph glyph-name="uni00B3" unicode="&#xb3;" horiz-adv-x="314" 
d="M202 553q62 -14 62 -72q0 -37 -27.5 -63t-79.5 -26q-55 0 -82.5 32t-23.5 78h66q-1 -16 8 -28t32 -12q19 0 28.5 9t9.5 22q0 17 -11 26.5t-32 9.5h-35v49h35q39 0 39 31q0 33 -37 33q-18 0 -28 -11t-9 -26h-62q-4 28 7 52t36 38.5t58 14.5q48 0 76 -25t28 -65
q0 -19 -6 -32.5t-19 -22t-33 -12.5z" />
    <glyph glyph-name="acute" unicode="&#xb4;" horiz-adv-x="304" 
d="M192 700v-97h-102v97h102z" />
    <glyph glyph-name="uni00B5" unicode="&#xb5;" horiz-adv-x="590" 
d="M481 168q0 -62 21.5 -81t77.5 -19v-78q-89 0 -132.5 46t-44.5 131q-4 -23 -10.5 -44t-20 -46.5t-31 -43.5t-45.5 -30.5t-62 -12.5q-61 0 -93 48v-238h-78v700h78v-313q0 -118 109 -118q37 0 66 14.5t46 38.5t26.5 44t14.5 42v292h78v-332z" />
    <glyph glyph-name="paragraph" unicode="&#xb6;" horiz-adv-x="561" 
d="M481 650v-650h-76v269h-53v-269h-76v269h-43q-84 0 -143.5 52.5t-59.5 138t59.5 138t143.5 52.5h248zM405 345v230h-165q-60 0 -96 -28t-36 -87.5t35.5 -87t96.5 -27.5h165z" />
    <glyph glyph-name="cedilla" unicode="&#xb8;" horiz-adv-x="304" 
d="M203 -103v-97h-102v97h102z" />
    <glyph glyph-name="uni00B9" unicode="&#xb9;" horiz-adv-x="267" 
d="M50 700h167v-300h-78v232h-89v68z" />
    <glyph glyph-name="ordmasculine" unicode="&#xba;" horiz-adv-x="556" 
d="M279 290q-94 0 -153 58.5t-59 150.5q0 91 59 151t153 60q47 0 86.5 -16.5t66.5 -44.5t42 -67t15 -83q0 -92 -58 -150.5t-152 -58.5zM279 363q30 0 55 10t42 28t26.5 43t9.5 55q0 59 -36.5 98t-96.5 39t-97.5 -38.5t-37.5 -98.5t37 -98t98 -38z" />
    <glyph glyph-name="guillemotright" unicode="&#xbb;" horiz-adv-x="503" 
d="M245 496l198 -217l-198 -217l-54 54l148 163l-148 163zM132 390l101 -111l-100 -110l-53 52l52 58l-52 58z" />
    <glyph glyph-name="onequarter" unicode="&#xbc;" horiz-adv-x="694" 
d="M551 700l54 -30l-382 -690l-52 32zM255 260h-230v64h84v261h-78v65h152v-326h72v-64zM649 140v-64h-39v-76h-67v76h-154v59l155 254h66v-249h39zM543 279l-79 -139h79v139z" />
    <glyph glyph-name="onehalf" unicode="&#xbd;" horiz-adv-x="739" 
d="M551 700l54 -30l-382 -690l-52 32zM255 260h-230v64h84v261h-78v65h152v-326h72v-64zM542 64h157v-64h-234l-1 64q4 5 13 13q24 27 36.5 40.5t33 36.5t31 37.5t22.5 32.5t17 32t5 26q0 51 -49 51q-22 0 -34.5 -13t-11.5 -28h-61q-5 45 27.5 75.5t83.5 30.5q52 0 82 -29.5
t30 -76.5q0 -21 -7.5 -42.5t-16.5 -38t-26.5 -39t-28.5 -34.5t-32 -35z" />
    <glyph glyph-name="threequarters" unicode="&#xbe;" horiz-adv-x="661" 
d="M517 700l54 -30l-382 -690l-52 32zM271 371q0 -52 -32 -86.5t-83 -34.5q-55 0 -89 36t-29 84h59q0 -24 15.5 -39.5t43.5 -15.5q51 0 51 57q0 28 -18.5 44t-52.5 16h-21v62h21q65 0 65 53q0 20 -14 33t-35 13t-35 -13.5t-14 -32.5h-60q-5 45 26.5 77.5t82.5 32.5
q49 0 81.5 -30.5t32.5 -70.5q0 -79 -97 -90q49 -6 75.5 -30t26.5 -65zM616 140v-64h-39v-76h-67v76h-154v59l155 254h66v-249h39zM509 279l-78 -139h78v139z" />
    <glyph glyph-name="questiondown" unicode="&#xbf;" horiz-adv-x="457" 
d="M301 586v-97h-102v97h102zM333 101h79q-1 -74 -54.5 -124.5t-129.5 -50.5q-54 0 -96 23t-64.5 63t-22.5 89q0 77 43 124.5t114 57.5v102h78v-173h-43q-49 0 -81.5 -32.5t-32.5 -78.5q0 -45 29 -73.5t76 -28.5q44 0 75 29t30 73z" />
    <glyph glyph-name="Agrave" unicode="&#xc0;" horiz-adv-x="613" 
d="M256 840h102v-97h-102v97zM509 0l-62 171h-283l-62 -171h-82l245 650h81l247 -650h-84zM192 246h227l-113 310z" />
    <glyph glyph-name="Aacute" unicode="&#xc1;" horiz-adv-x="613" 
d="M358 840v-97h-102v97h102zM509 0l-62 171h-283l-62 -171h-82l245 650h81l247 -650h-84zM192 246h227l-113 310z" />
    <glyph glyph-name="Acircumflex" unicode="&#xc2;" horiz-adv-x="613" 
d="M358 840v-97h-102v97h102zM509 0l-62 171h-283l-62 -171h-82l245 650h81l247 -650h-84zM192 246h227l-113 310z" />
    <glyph glyph-name="Atilde" unicode="&#xc3;" horiz-adv-x="613" 
d="M358 840v-97h-102v97h102zM509 0l-62 171h-283l-62 -171h-82l245 650h81l247 -650h-84zM192 246h227l-113 310z" />
    <glyph glyph-name="Adieresis" unicode="&#xc4;" horiz-adv-x="613" 
d="M172 650v-97h-102v97h102zM543 650v-97h-102v97h102zM509 0l-62 171h-283l-62 -171h-82l245 650h81l247 -650h-84zM192 246h227l-113 310z" />
    <glyph glyph-name="Aring" unicode="&#xc5;" horiz-adv-x="613" 
d="M358 840v-97h-102v97h102zM509 0l-62 171h-283l-62 -171h-82l245 650h81l247 -650h-84zM192 246h227l-113 310z" />
    <glyph glyph-name="AE" unicode="&#xc6;" horiz-adv-x="911" 
d="M475 74h376v-74h-454v181h-198l-97 -181h-82l355 650h476v-73h-376v-216h307v-75h-307v-212zM236 251h161v300z" />
    <glyph glyph-name="Ccedilla" unicode="&#xc7;" horiz-adv-x="682" 
d="M632 217q-15 -105 -90 -166t-182 -61q-134 0 -222 92.5t-88 242.5t88 242.5t222 92.5q108 0 182.5 -61.5t89.5 -166.5h-72q-20 73 -74.5 114t-125.5 41q-37 0 -71 -11t-63.5 -33t-51 -53t-34 -73.5t-12.5 -91.5q0 -121 68 -191t164 -70q71 0 125 40t75 113h72zM406 -103
v-97h-102v97h102z" />
    <glyph glyph-name="Egrave" unicode="&#xc8;" horiz-adv-x="594" 
d="M257 840h102v-97h-102v97zM158 74h376v-74h-454v650h453v-73h-375v-216h307v-75h-307v-212z" />
    <glyph glyph-name="Eacute" unicode="&#xc9;" horiz-adv-x="594" 
d="M359 840v-97h-102v97h102zM158 74h376v-74h-454v650h453v-73h-375v-216h307v-75h-307v-212z" />
    <glyph glyph-name="Ecircumflex" unicode="&#xca;" horiz-adv-x="594" 
d="M359 840v-97h-102v97h102zM158 74h376v-74h-454v650h453v-73h-375v-216h307v-75h-307v-212z" />
    <glyph glyph-name="Edieresis" unicode="&#xcb;" horiz-adv-x="594" 
d="M271 840v-97h-102v97h102zM446 840v-97h-102v97h102zM158 74h376v-74h-454v650h453v-73h-375v-216h307v-75h-307v-212z" />
    <glyph glyph-name="Igrave" unicode="&#xcc;" horiz-adv-x="278" 
d="M88 840h102v-97h-102v97zM100 650h78v-650h-78v650z" />
    <glyph glyph-name="Iacute" unicode="&#xcd;" horiz-adv-x="278" 
d="M190 840v-97h-102v97h102zM100 650h78v-650h-78v650z" />
    <glyph glyph-name="Icircumflex" unicode="&#xce;" horiz-adv-x="278" 
d="M190 840v-97h-102v97h102zM100 650h78v-650h-78v650z" />
    <glyph glyph-name="Idieresis" unicode="&#xcf;" horiz-adv-x="278" 
d="M102 840v-97h-102v97h102zM278 840v-97h-102v97h102zM100 650h78v-650h-78v650z" />
    <glyph glyph-name="Eth" unicode="&#xd0;" horiz-adv-x="679" 
d="M285 650q94 0 162.5 -25.5t107 -71t56.5 -101.5t18 -124q0 -67 -19 -124.5t-59 -104t-108 -73t-158 -26.5h-205v295h-79v60h79v295h205zM285 75q61 0 108.5 15t77 38.5t48.5 57.5t26.5 68.5t7.5 73.5q0 33 -5.5 61.5t-17.5 57t-32.5 51t-49.5 40.5t-70.5 27.5t-92.5 9.5
h-127v-220h140v-60h-140v-220h127z" />
    <glyph glyph-name="Ntilde" unicode="&#xd1;" horiz-adv-x="713" 
d="M414 840v-97h-102v97h102zM555 650h78v-650h-78l-397 525v-525h-78v650h78l397 -525v525z" />
    <glyph glyph-name="Ograve" unicode="&#xd2;" horiz-adv-x="733" 
d="M315 840h102v-97h-102v97zM366.5 -10q-65.5 0 -123.5 24t-100.5 67t-67.5 106t-25 138t25 138t67.5 106t100.5 67t123.5 24t123 -24t100.5 -67t68 -106t25 -138t-25 -138t-68 -106t-100.5 -67t-123 -24zM366.5 66q62.5 0 116 28.5t88 89t34.5 141.5t-34.5 141t-88 89.5
t-116 29.5t-116 -29.5t-88 -89.5t-34.5 -141t34.5 -141.5t88 -89t116 -28.5z" />
    <glyph glyph-name="Oacute" unicode="&#xd3;" horiz-adv-x="733" 
d="M417 840v-97h-102v97h102zM366.5 -10q-65.5 0 -123.5 24t-100.5 67t-67.5 106t-25 138t25 138t67.5 106t100.5 67t123.5 24t123 -24t100.5 -67t68 -106t25 -138t-25 -138t-68 -106t-100.5 -67t-123 -24zM366.5 66q62.5 0 116 28.5t88 89t34.5 141.5t-34.5 141t-88 89.5
t-116 29.5t-116 -29.5t-88 -89.5t-34.5 -141t34.5 -141.5t88 -89t116 -28.5z" />
    <glyph glyph-name="Ocircumflex" unicode="&#xd4;" horiz-adv-x="733" 
d="M417 840v-97h-102v97h102zM366.5 -10q-65.5 0 -123.5 24t-100.5 67t-67.5 106t-25 138t25 138t67.5 106t100.5 67t123.5 24t123 -24t100.5 -67t68 -106t25 -138t-25 -138t-68 -106t-100.5 -67t-123 -24zM366.5 66q62.5 0 116 28.5t88 89t34.5 141.5t-34.5 141t-88 89.5
t-116 29.5t-116 -29.5t-88 -89.5t-34.5 -141t34.5 -141.5t88 -89t116 -28.5z" />
    <glyph glyph-name="Otilde" unicode="&#xd5;" horiz-adv-x="733" 
d="M417 840v-97h-102v97h102zM366.5 -10q-65.5 0 -123.5 24t-100.5 67t-67.5 106t-25 138t25 138t67.5 106t100.5 67t123.5 24t123 -24t100.5 -67t68 -106t25 -138t-25 -138t-68 -106t-100.5 -67t-123 -24zM366.5 66q62.5 0 116 28.5t88 89t34.5 141.5t-34.5 141t-88 89.5
t-116 29.5t-116 -29.5t-88 -89.5t-34.5 -141t34.5 -141.5t88 -89t116 -28.5z" />
    <glyph glyph-name="Odieresis" unicode="&#xd6;" horiz-adv-x="734" 
d="M366.5 -10q-65.5 0 -123.5 24t-100.5 67t-67.5 106t-25 138t25 138t67.5 106t100.5 67t123 24q52 0 100 -15t87.5 -44.5t68.5 -69.5t45 -93t16 -113q0 -75 -25 -138t-68 -106t-100.5 -67t-123 -24zM97 648v-97h-102v97h102zM738 648v-97h-102v97h102zM366.5 66
q62.5 0 116 28.5t88 89t34.5 141.5t-34.5 141t-88 89.5t-116 29.5t-116 -29.5t-88 -89.5t-34.5 -141t34.5 -141.5t88 -89t116 -28.5z" />
    <glyph glyph-name="multiply" unicode="&#xd7;" horiz-adv-x="400" 
d="M351 372l-102 -102l102 -101l-49 -49l-102 101l-102 -101l-48 49l101 101l-101 102l48 49l102 -102l102 102z" />
    <glyph glyph-name="Oslash" unicode="&#xd8;" horiz-adv-x="733" 
d="M556 599q39 -30 67 -70t44 -92.5t16 -111.5q0 -75 -25 -138t-68 -106t-100.5 -67t-123.5 -24q-70 0 -131 27l-33 -59l-52 32l32 58q-62 44 -97 115.5t-35 161.5q0 75 25 138t67.5 106t100.5 67t123 24q74 0 137 -30l26 47l54 -30zM128 325q0 -136 91 -209l247 447
q-47 22 -100 22q-62 0 -115.5 -29.5t-88 -89.5t-34.5 -141zM366 66q63 0 116.5 28.5t88 89t34.5 141.5q0 132 -87 205l-246 -445q45 -19 94 -19z" />
    <glyph glyph-name="Ugrave" unicode="&#xd9;" horiz-adv-x="688" 
d="M294 840h102v-97h-102v97zM530 650h77v-401q0 -131 -70.5 -195t-191.5 -64q-122 0 -193.5 64t-71.5 195v401h78v-401q0 -54 14.5 -91t42 -56.5t59 -27.5t71.5 -8q32 0 57.5 4.5t50 17t41 32.5t26.5 53t10 76v401z" />
    <glyph glyph-name="Uacute" unicode="&#xda;" horiz-adv-x="688" 
d="M396 840v-97h-102v97h102zM530 650h77v-401q0 -131 -70.5 -195t-191.5 -64q-122 0 -193.5 64t-71.5 195v401h78v-401q0 -54 14.5 -91t42 -56.5t59 -27.5t71.5 -8q32 0 57.5 4.5t50 17t41 32.5t26.5 53t10 76v401z" />
    <glyph glyph-name="Ucircumflex" unicode="&#xdb;" horiz-adv-x="688" 
d="M396 840v-97h-102v97h102zM530 650h77v-401q0 -131 -70.5 -195t-191.5 -64q-122 0 -193.5 64t-71.5 195v401h78v-401q0 -54 14.5 -91t42 -56.5t59 -27.5t71.5 -8q32 0 57.5 4.5t50 17t41 32.5t26.5 53t10 76v401z" />
    <glyph glyph-name="Udieresis" unicode="&#xdc;" horiz-adv-x="688" 
d="M530 650h77v-401q0 -131 -70.5 -195t-191.5 -64q-122 0 -193.5 64t-71.5 195v401h78v-401q0 -54 14.5 -91t42 -56.5t59 -27.5t71.5 -8q32 0 57.5 4.5t50 17t41 32.5t26.5 53t10 76v401zM307 650v-97h-102v97h102zM483 650v-97h-102v97h102z" />
    <glyph glyph-name="Yacute" unicode="&#xdd;" horiz-adv-x="584" 
d="M343 840v-97h-102v97h102zM471 650h88l-228 -427v-223h-78v223l-228 427h88l181 -344z" />
    <glyph glyph-name="Thorn" unicode="&#xde;" horiz-adv-x="600" 
d="M342 535q92 0 152.5 -56.5t60.5 -153t-60.5 -153.5t-152.5 -57h-186v-115h-78v650h78v-115h186zM341 191q61 0 98.5 37t37.5 97q0 62 -37.5 98t-98.5 36h-185v-268h185z" />
    <glyph glyph-name="germandbls" unicode="&#xdf;" horiz-adv-x="512" 
d="M319 204q78 -4 125.5 -46.5t47.5 -125.5q0 -81 -58 -136.5t-161 -55.5v74q47 0 78.5 14t47 40t15.5 64q0 55 -33 87t-99 32h-38v73l107 202h-198v-426h-78v530q0 87 45.5 128.5t123.5 41.5h43v-79h-43q-27 1 -46.5 -6.5t-32 -28.5t-12.5 -55v-31h238v1l49 -1v-72z" />
    <glyph glyph-name="agrave" unicode="&#xe0;" horiz-adv-x="561" 
d="M220 700h102v-97h-102v97zM420 500h78v-500h-72q-6 67 -6 99v54q-16 -71 -56.5 -117t-111.5 -46q-89 0 -152 74t-63 185q0 112 65 186.5t160 74.5q129 0 158 -142v132zM271 66q73 0 111 51.5t38 131.5q0 85 -38 134.5t-111 49.5q-49 0 -84.5 -23.5t-53.5 -65t-18 -95.5
q0 -80 44 -131.5t112 -51.5z" />
    <glyph glyph-name="aacute" unicode="&#xe1;" horiz-adv-x="561" 
d="M322 700v-97h-102v97h102zM420 500h78v-500h-72q-6 67 -6 99v54q-16 -71 -56.5 -117t-111.5 -46q-89 0 -152 74t-63 185q0 112 65 186.5t160 74.5q129 0 158 -142v132zM271 66q73 0 111 51.5t38 131.5q0 85 -38 134.5t-111 49.5q-49 0 -84.5 -23.5t-53.5 -65t-18 -95.5
q0 -80 44 -131.5t112 -51.5z" />
    <glyph glyph-name="acircumflex" unicode="&#xe2;" horiz-adv-x="561" 
d="M322 700v-97h-102v97h102zM420 500h78v-500h-72q-6 67 -6 99v54q-16 -71 -56.5 -117t-111.5 -46q-58 0 -107 33t-78.5 92.5t-29.5 133.5q0 112 65 186.5t160 74.5q129 0 158 -142v132zM271 66q73 0 111 51.5t38 131.5q0 85 -38 134.5t-111 49.5t-114.5 -51t-41.5 -133
q0 -80 44 -131.5t112 -51.5z" />
    <glyph glyph-name="atilde" unicode="&#xe3;" horiz-adv-x="561" 
d="M322 700v-97h-102v97h102zM420 500h78v-500h-72q-6 67 -6 99v54q-16 -71 -56.5 -117t-111.5 -46q-89 0 -152 74t-63 185q0 112 65 186.5t160 74.5q129 0 158 -142v132zM271 66q73 0 111 51.5t38 131.5q0 85 -38 134.5t-111 49.5q-49 0 -84.5 -23.5t-53.5 -65t-18 -95.5
q0 -80 44 -131.5t112 -51.5z" />
    <glyph glyph-name="adieresis" unicode="&#xe4;" horiz-adv-x="561" 
d="M234 699v-97h-102v97h102zM410 699v-97h-102v97h102zM420 500h78v-500h-72q-6 67 -6 99v54q-16 -71 -56.5 -117t-111.5 -46q-89 0 -152 74t-63 185q0 112 65 186.5t160 74.5q129 0 158 -142v132zM271 66q73 0 111 51.5t38 131.5q0 85 -38 134.5t-111 49.5
q-49 0 -84.5 -23.5t-53.5 -65t-18 -95.5q0 -80 44 -131.5t112 -51.5z" />
    <glyph glyph-name="aring" unicode="&#xe5;" horiz-adv-x="561" 
d="M322 700v-97h-102v97h102zM420 500h78v-500h-72q-6 67 -6 99v54q-16 -71 -56.5 -117t-111.5 -46q-89 0 -152 74t-63 185q0 112 65 186.5t160 74.5q129 0 158 -142v132zM271 66q73 0 111 51.5t38 131.5q0 85 -38 134.5t-111 49.5q-49 0 -84.5 -23.5t-53.5 -65t-18 -95.5
q0 -80 44 -131.5t112 -51.5z" />
    <glyph glyph-name="ae" unicode="&#xe6;" horiz-adv-x="960" 
d="M707 508q108 0 165.5 -73t49.5 -208h-376q7 -72 54 -117.5t112 -45.5q50 0 85.5 26t48.5 68h74q-8 -48 -35.5 -86.5t-72 -61t-100.5 -22.5q-70 0 -127 35t-87 96v-119h-72q-6 67 -6 99v54q-16 -71 -56.5 -117t-111.5 -46q-89 0 -152 74t-63 185q0 112 65 186.5t160 74.5
q129 0 158 -142v132h78v-123q30 61 85 96t124 35zM271 66q73 0 111 51.5t38 131.5q0 85 -38 134.5t-111 49.5q-49 0 -84.5 -23.5t-53.5 -65t-18 -95.5q0 -80 44 -131.5t112 -51.5zM551 302h292q-4 41 -23 70.5t-49.5 44.5t-68.5 15q-55 0 -95.5 -35.5t-55.5 -94.5z" />
    <glyph glyph-name="ccedilla" unicode="&#xe7;" horiz-adv-x="540" 
d="M504 188q-12 -91 -75.5 -144.5t-149.5 -53.5q-99 0 -170.5 71.5t-71.5 187.5t71.5 188.5t170.5 72.5q85 0 148.5 -53.5t75.5 -143.5h-71q-17 56 -60 88.5t-93 32.5q-65 0 -114.5 -50.5t-49.5 -134.5t49 -133.5t115 -49.5q57 0 97 31.5t57 90.5h71zM329 -113v-97h-102v97
h102z" />
    <glyph glyph-name="egrave" unicode="&#xe8;" horiz-adv-x="529" 
d="M225 700h102v-97h-102v97zM415 160h74q-13 -74 -69 -122t-139 -48q-68 0 -124 33t-88 92.5t-32 133.5q0 112 68 186.5t171 74.5q108 0 165.5 -73t49.5 -208h-376q7 -72 53.5 -117.5t112.5 -45.5q49 0 85 26t49 68zM271 434q-55 0 -95.5 -35.5t-55.5 -94.5h292
q-5 62 -43.5 96t-97.5 34z" />
    <glyph glyph-name="eacute" unicode="&#xe9;" horiz-adv-x="529" 
d="M327 700v-97h-102v97h102zM415 160h74q-13 -74 -69 -122t-139 -48q-68 0 -124 33t-88 92.5t-32 133.5q0 112 68 186.5t171 74.5q108 0 165.5 -73t49.5 -208h-376q7 -72 53.5 -117.5t112.5 -45.5q49 0 85 26t49 68zM271 434q-37 0 -68 -16t-52 -45.5t-31 -68.5h292
q-5 62 -43.5 96t-97.5 34z" />
    <glyph glyph-name="ecircumflex" unicode="&#xea;" horiz-adv-x="529" 
d="M327 700v-97h-102v97h102zM415 160h74q-13 -74 -69 -122t-139 -48q-104 0 -174 73.5t-70 185.5t68 186.5t171 74.5q108 0 165.5 -73t49.5 -208h-376q7 -72 53.5 -117.5t112.5 -45.5q49 0 85 26t49 68zM271 434q-55 0 -95.5 -35.5t-55.5 -94.5h292q-5 62 -43.5 96
t-97.5 34z" />
    <glyph glyph-name="edieresis" unicode="&#xeb;" horiz-adv-x="529" 
d="M239 699v-97h-102v97h102zM415 699v-97h-102v97h102zM415 160h74q-13 -74 -69 -122t-139 -48q-68 0 -124 33t-88 92.5t-32 133.5q0 112 68 186.5t171 74.5q108 0 165.5 -73t49.5 -208h-376q7 -72 53.5 -117.5t112.5 -45.5q49 0 85 26t49 68zM271 434q-55 0 -95.5 -35.5
t-55.5 -94.5h292q-5 62 -43.5 96t-97.5 34z" />
    <glyph glyph-name="igrave" unicode="&#xec;" horiz-adv-x="198" 
d="M48 700h102v-97h-102v97zM60 500h78v-500h-78v500z" />
    <glyph glyph-name="iacute" unicode="&#xed;" horiz-adv-x="198" 
d="M150 700v-97h-102v97h102zM60 500h78v-500h-78v500z" />
    <glyph glyph-name="icircumflex" unicode="&#xee;" horiz-adv-x="198" 
d="M150 700v-97h-102v97h102zM60 500h78v-500h-78v500z" />
    <glyph glyph-name="idieresis" unicode="&#xef;" horiz-adv-x="198" 
d="M84 699v-97h-102v97h102zM216 699v-97h-102v97h102zM60 500h78v-500h-78v500z" />
    <glyph glyph-name="eth" unicode="&#xf0;" horiz-adv-x="543" 
d="M331 608q167 -134 167 -356q0 -47 -14 -92.5t-40.5 -84t-71.5 -62t-101 -23.5q-105 0 -169.5 72.5t-64.5 186.5q0 113 61 187t154 74q85 0 129 -59q-69 120 -264 192l29 67q74 -28 132 -65l69 65l43 -48zM271 66q73 0 111 51.5t38 131.5q0 56 -16 97t-50 64.5t-83 23.5
t-84.5 -24t-53.5 -65.5t-18 -95.5q0 -81 43 -132t113 -51z" />
    <glyph glyph-name="ntilde" unicode="&#xf1;" 
d="M348 700v-97h-102v97h102zM311 510q79 0 124.5 -46.5t45.5 -128.5v-335h-78v315q0 116 -107 116q-36 0 -68 -17t-54.5 -47.5t-32.5 -69.5v-297h-78v500h78v-143q17 70 63 111.5t107 41.5z" />
    <glyph glyph-name="ograve" unicode="&#xf2;" horiz-adv-x="556" 
d="M228 700h102v-97h-102v97zM279 -10q-99 0 -170.5 71.5t-71.5 187.5t71.5 188.5t170.5 72.5q98 0 169 -72.5t71 -188.5t-70.5 -187.5t-169.5 -71.5zM279 66q65 0 113.5 49.5t48.5 133.5q0 83 -48.5 134t-113.5 51q-31 0 -60 -12.5t-52.5 -35.5t-37.5 -58.5t-14 -78.5
q0 -84 49 -133.5t115 -49.5z" />
    <glyph glyph-name="oacute" unicode="&#xf3;" horiz-adv-x="556" 
d="M330 700v-97h-102v97h102zM279 -10q-99 0 -170.5 71.5t-71.5 187.5t71.5 188.5t170.5 72.5q98 0 169 -72.5t71 -188.5t-70.5 -187.5t-169.5 -71.5zM279 66q65 0 113.5 49.5t48.5 133.5q0 83 -48.5 134t-113.5 51t-114.5 -50.5t-49.5 -134.5t49 -133.5t115 -49.5z" />
    <glyph glyph-name="ocircumflex" unicode="&#xf4;" horiz-adv-x="556" 
d="M330 700v-97h-102v97h102zM279 -10q-99 0 -170.5 71.5t-71.5 187.5t71.5 188.5t170.5 72.5q98 0 169 -72.5t71 -188.5t-70.5 -187.5t-169.5 -71.5zM279 66q65 0 113.5 49.5t48.5 133.5q0 83 -48.5 134t-113.5 51q-31 0 -60 -12.5t-52.5 -35.5t-37.5 -58.5t-14 -78.5
q0 -84 49 -133.5t115 -49.5z" />
    <glyph glyph-name="otilde" unicode="&#xf5;" horiz-adv-x="556" 
d="M330 700v-97h-102v97h102zM279 -10q-99 0 -170.5 71.5t-71.5 187.5t71.5 188.5t170.5 72.5q98 0 169 -72.5t71 -188.5t-70.5 -187.5t-169.5 -71.5zM279 66q65 0 113.5 49.5t48.5 133.5q0 83 -48.5 134t-113.5 51t-114.5 -50.5t-49.5 -134.5t49 -133.5t115 -49.5z" />
    <glyph glyph-name="odieresis" unicode="&#xf6;" horiz-adv-x="556" 
d="M242 699v-97h-102v97h102zM418 699v-97h-102v97h102zM279 -10q-99 0 -170.5 71.5t-71.5 187.5t71.5 188.5t170.5 72.5q98 0 169 -72.5t71 -188.5t-70.5 -187.5t-169.5 -71.5zM279 66q65 0 113.5 49.5t48.5 133.5q0 83 -48.5 134t-113.5 51t-114.5 -50.5t-49.5 -134.5
t49 -133.5t115 -49.5z" />
    <glyph glyph-name="divide" unicode="&#xf7;" horiz-adv-x="478" 
d="M270 454v-97h-102v97h102zM50 307h378v-73h-378v73zM270 184v-97h-102v97h102z" />
    <glyph glyph-name="oslash" unicode="&#xf8;" horiz-adv-x="556" 
d="M433 452q86 -75 86 -203q0 -116 -70.5 -187.5t-169.5 -71.5q-56 0 -106 24l-22 -38l-52 32l23 40q-85 75 -85 201q0 116 71.5 188.5t170.5 72.5q54 0 102 -24l23 38l54 -30zM115 249q0 -81 48 -132l179 303q-30 14 -63 14q-31 0 -60 -12.5t-52.5 -35.5t-37.5 -58.5
t-14 -78.5zM279 66q65 0 113.5 49.5t48.5 133.5q0 82 -49 135l-179 -303q32 -15 66 -15z" />
    <glyph glyph-name="ugrave" unicode="&#xf9;" 
d="M228 700h102v-97h-102v97zM403 500h78v-500h-78v166q-4 -23 -10.5 -43.5t-20 -46t-30.5 -43.5t-45 -30.5t-62 -12.5q-31 0 -59.5 8.5t-54.5 27.5t-42 55t-16 86v333h78v-313q0 -118 109 -118q37 0 66 14.5t46 38.5t26.5 44t14.5 41v293z" />
    <glyph glyph-name="uacute" unicode="&#xfa;" 
d="M330 700v-97h-102v97h102zM403 500h78v-500h-78v166q-4 -23 -10.5 -43.5t-20 -46t-30.5 -43.5t-45 -30.5t-62 -12.5q-31 0 -59.5 8.5t-54.5 27.5t-42 55t-16 86v333h78v-313q0 -118 109 -118q37 0 66 14.5t46 38.5t26.5 44t14.5 41v293z" />
    <glyph glyph-name="ucircumflex" unicode="&#xfb;" 
d="M330 700v-97h-102v97h102zM403 500h78v-500h-78v166q-3 -18 -8.5 -35.5t-14 -38.5t-21.5 -38.5t-30 -32t-41 -23t-53 -8.5q-31 0 -59.5 8.5t-54.5 27.5t-42 55t-16 86v333h78v-313q0 -118 109 -118q30 0 55 10.5t41 25t28.5 34.5t18.5 36t10 32v293z" />
    <glyph glyph-name="udieresis" unicode="&#xfc;" 
d="M242 699v-97h-102v97h102zM418 699v-97h-102v97h102zM403 500h78v-500h-78v166q-4 -23 -10.5 -43.5t-20 -46t-30.5 -43.5t-45 -30.5t-62 -12.5q-31 0 -59.5 8.5t-54.5 27.5t-42 55t-16 86v333h78v-313q0 -118 109 -118q37 0 66 14.5t46 38.5t26.5 44t14.5 41v293z" />
    <glyph glyph-name="yacute" unicode="&#xfd;" horiz-adv-x="500" 
d="M298 700v-97h-102v97h102zM397 500h83l-277 -700h-82l90 207l-191 493h83l147 -396z" />
    <glyph glyph-name="thorn" unicode="&#xfe;" horiz-adv-x="560" 
d="M308 510q90 0 152.5 -75t62.5 -186t-63.5 -185t-151.5 -74q-71 0 -111 45.5t-56 115.5v-351h-78v899h78v-330q15 67 54.5 104t112.5 37zM289 66q69 0 112.5 51.5t43.5 131.5q0 54 -18 95.5t-53.5 65.5t-84.5 24q-62 0 -102.5 -46t-45.5 -122v-35q3 -47 19.5 -83.5
t49.5 -59t79 -22.5z" />
    <glyph glyph-name="ydieresis" unicode="&#xff;" horiz-adv-x="500" 
d="M210 699v-97h-102v97h102zM386 699v-97h-102v97h102zM397 500h83l-277 -700h-82l90 207l-191 493h83l147 -396z" />
    <glyph glyph-name="Amacron" unicode="&#x100;" horiz-adv-x="613" 
d="M358 840v-97h-102v97h102zM509 0l-62 171h-283l-62 -171h-82l245 650h81l247 -650h-84zM192 246h227l-113 310z" />
    <glyph glyph-name="amacron" unicode="&#x101;" horiz-adv-x="561" 
d="M322 700v-97h-102v97h102zM420 500h78v-500h-72q-6 67 -6 99v54q-16 -71 -56.5 -117t-111.5 -46q-89 0 -152 74t-63 185q0 112 65 186.5t160 74.5q129 0 158 -142v132zM271 66q73 0 111 51.5t38 131.5q0 85 -38 134.5t-111 49.5q-49 0 -84.5 -23.5t-53.5 -65t-18 -95.5
q0 -80 44 -131.5t112 -51.5z" />
    <glyph glyph-name="Abreve" unicode="&#x102;" horiz-adv-x="613" 
d="M358 840v-97h-102v97h102zM509 0l-62 171h-283l-62 -171h-82l245 650h81l247 -650h-84zM192 246h227l-113 310z" />
    <glyph glyph-name="abreve" unicode="&#x103;" horiz-adv-x="561" 
d="M322 700v-97h-102v97h102zM420 500h78v-500h-72q-6 67 -6 99v54q-16 -71 -56.5 -117t-111.5 -46q-89 0 -152 74t-63 185q0 112 65 186.5t160 74.5q129 0 158 -142v132zM271 66q73 0 111 51.5t38 131.5q0 85 -38 134.5t-111 49.5q-49 0 -84.5 -23.5t-53.5 -65t-18 -95.5
q0 -80 44 -131.5t112 -51.5z" />
    <glyph glyph-name="Aogonek" unicode="&#x104;" horiz-adv-x="613" 
d="M509 0l-62 171h-283l-62 -171h-82l245 650h81l247 -650h-84zM192 246h227l-113 310zM611 -93v-97h-102v97h102z" />
    <glyph glyph-name="aogonek" unicode="&#x105;" horiz-adv-x="561" 
d="M420 500h78v-500h-72q-6 67 -6 99v54q-16 -71 -56.5 -117t-111.5 -46q-89 0 -152 74t-63 185q0 112 65 186.5t160 74.5q129 0 158 -142v132zM271 66q73 0 111 51.5t38 131.5q0 85 -38 134.5t-111 49.5q-49 0 -84.5 -23.5t-53.5 -65t-18 -95.5q0 -80 44 -131.5t112 -51.5z
M509 -103v-97h-102v97h102z" />
    <glyph glyph-name="Cacute" unicode="&#x106;" horiz-adv-x="682" 
d="M406 840v-97h-102v97h102zM632 217q-15 -105 -90 -166t-182 -61q-134 0 -222 92.5t-88 242.5t88 242.5t222 92.5q108 0 182.5 -61.5t89.5 -166.5h-72q-20 73 -74.5 114t-125.5 41q-37 0 -71 -11t-63.5 -33t-51 -53t-34 -73.5t-12.5 -91.5q0 -121 68 -191t164 -70
q71 0 125 40t75 113h72z" />
    <glyph glyph-name="cacute" unicode="&#x107;" horiz-adv-x="540" 
d="M324 700v-97h-102v97h102zM504 188q-12 -91 -75.5 -144.5t-149.5 -53.5q-99 0 -170.5 71.5t-71.5 187.5t71.5 188.5t170.5 72.5q85 0 148.5 -53.5t75.5 -143.5h-71q-17 56 -60 88.5t-93 32.5q-65 0 -114.5 -50.5t-49.5 -134.5t49 -133.5t115 -49.5q22 0 42.5 5t37.5 15
t31.5 25t25 34t17.5 43h71z" />
    <glyph glyph-name="Cdotaccent" unicode="&#x10a;" horiz-adv-x="682" 
d="M406 840v-97h-102v97h102zM632 217q-15 -105 -90 -166t-182 -61q-134 0 -222 92.5t-88 242.5t88 242.5t222 92.5q108 0 182.5 -61.5t89.5 -166.5h-72q-20 73 -74.5 114t-125.5 41q-37 0 -71 -11t-63.5 -33t-51 -53t-34 -73.5t-12.5 -91.5q0 -121 68 -191t164 -70
q71 0 125 40t75 113h72z" />
    <glyph glyph-name="cdotaccent" unicode="&#x10b;" horiz-adv-x="540" 
d="M324 700v-97h-102v97h102zM504 188q-12 -91 -75.5 -144.5t-149.5 -53.5q-99 0 -170.5 71.5t-71.5 187.5t71.5 188.5t170.5 72.5q85 0 148.5 -53.5t75.5 -143.5h-71q-17 56 -60 88.5t-93 32.5q-65 0 -114.5 -50.5t-49.5 -134.5t49 -133.5t115 -49.5q22 0 42.5 5t37.5 15
t31.5 25t25 34t17.5 43h71z" />
    <glyph glyph-name="Ccaron" unicode="&#x10c;" horiz-adv-x="682" 
d="M406 840v-97h-102v97h102zM632 217q-15 -105 -90 -166t-182 -61q-134 0 -222 92.5t-88 242.5t88 242.5t222 92.5q108 0 182.5 -61.5t89.5 -166.5h-72q-20 73 -74.5 114t-125.5 41q-37 0 -71 -11t-63.5 -33t-51 -53t-34 -73.5t-12.5 -91.5q0 -121 68 -191t164 -70
q71 0 125 40t75 113h72z" />
    <glyph glyph-name="ccaron" unicode="&#x10d;" horiz-adv-x="540" 
d="M324 700v-97h-102v97h102zM504 188q-12 -91 -75.5 -144.5t-149.5 -53.5q-99 0 -170.5 71.5t-71.5 187.5t71.5 188.5t170.5 72.5q85 0 148.5 -53.5t75.5 -143.5h-71q-17 56 -60 88.5t-93 32.5q-65 0 -114.5 -50.5t-49.5 -134.5t49 -133.5t115 -49.5q22 0 42.5 5t37.5 15
t31.5 25t25 34t17.5 43h71z" />
    <glyph glyph-name="Dcaron" unicode="&#x10e;" horiz-adv-x="679" 
d="M373 871v-97h-102v97h102zM285 650q75 0 134.5 -17t98.5 -46t64.5 -71t36 -88t10.5 -100q0 -67 -19 -124.5t-59 -104t-108 -73t-158 -26.5h-205v650h205zM285 75q61 0 108.5 15t77 38.5t48.5 57.5t26.5 68.5t7.5 73.5q0 33 -5.5 61.5t-17.5 57t-32.5 51t-49.5 40.5
t-70.5 27.5t-92.5 9.5h-127v-500h127z" />
    <glyph glyph-name="dcaron" unicode="&#x10f;" horiz-adv-x="578" 
d="M420 700h78v-700h-72q-6 67 -6 99v54q-16 -71 -56.5 -117t-111.5 -46q-91 0 -153 73.5t-62 185.5q0 113 61 187t154 74q74 0 113.5 -37.5t54.5 -105.5v333zM310 700v-97h-102v97h102zM271 66q73 0 111 51.5t38 131.5q0 85 -38 135t-111 50t-114.5 -51t-41.5 -134
q0 -80 44 -131.5t112 -51.5z" />
    <glyph glyph-name="Dcroat" unicode="&#x110;" horiz-adv-x="679" 
d="M285 650q94 0 162.5 -25.5t107 -71t56.5 -101.5t18 -124q0 -67 -19 -124.5t-59 -104t-108 -73t-158 -26.5h-205v295h-79v60h79v295h205zM285 75q61 0 108.5 15t77 38.5t48.5 57.5t26.5 68.5t7.5 73.5q0 33 -5.5 61.5t-17.5 57t-32.5 51t-49.5 40.5t-70.5 27.5t-92.5 9.5
h-127v-220h140v-60h-140v-220h127z" />
    <glyph glyph-name="dcroat" unicode="&#x111;" horiz-adv-x="578" 
d="M562 651v-60h-64v-591h-72q-6 67 -6 99v54q-16 -71 -56.5 -117t-111.5 -46q-91 0 -153 73.5t-62 185.5q0 113 61 187t154 74q74 0 113.5 -37.5t54.5 -105.5v224h-156v60h156v49h78v-49h64zM271 66q73 0 111 51.5t38 131.5q0 85 -38 135t-111 50t-114.5 -51t-41.5 -134
q0 -80 44 -131.5t112 -51.5z" />
    <glyph glyph-name="Emacron" unicode="&#x112;" horiz-adv-x="594" 
d="M359 840v-97h-102v97h102zM158 74h376v-74h-454v650h453v-73h-375v-216h307v-75h-307v-212z" />
    <glyph glyph-name="emacron" unicode="&#x113;" horiz-adv-x="529" 
d="M327 700v-97h-102v97h102zM415 160h74q-13 -74 -69 -122t-139 -48q-68 0 -124 33t-88 92.5t-32 133.5q0 112 68 186.5t171 74.5q108 0 165.5 -73t49.5 -208h-376q7 -72 53.5 -117.5t112.5 -45.5q49 0 85 26t49 68zM271 434q-37 0 -68 -16t-52 -45.5t-31 -68.5h292
q-5 62 -43.5 96t-97.5 34z" />
    <glyph glyph-name="Edotaccent" unicode="&#x116;" horiz-adv-x="594" 
d="M359 840v-97h-102v97h102zM158 74h376v-74h-454v650h453v-73h-375v-216h307v-75h-307v-212z" />
    <glyph glyph-name="edotaccent" unicode="&#x117;" horiz-adv-x="529" 
d="M327 700v-97h-102v97h102zM415 160h74q-13 -74 -69 -122t-139 -48q-68 0 -124 33t-88 92.5t-32 133.5q0 112 68 186.5t171 74.5q108 0 165.5 -73t49.5 -208h-376q7 -72 53.5 -117.5t112.5 -45.5q49 0 85 26t49 68zM271 434q-37 0 -68 -16t-52 -45.5t-31 -68.5h292
q-5 62 -43.5 96t-97.5 34z" />
    <glyph glyph-name="Eogonek" unicode="&#x118;" horiz-adv-x="594" 
d="M158 74h376v-74h-454v650h453v-73h-375v-216h307v-75h-307v-212zM536 -103v-97h-102v97h102z" />
    <glyph glyph-name="eogonek" unicode="&#x119;" horiz-adv-x="529" 
d="M415 160h74q-13 -74 -69 -122t-139 -48q-68 0 -124 33t-88 92.5t-32 133.5q0 112 68 186.5t171 74.5q108 0 165.5 -73t49.5 -208h-376q7 -72 53.5 -117.5t112.5 -45.5q49 0 85 26t49 68zM271 434q-37 0 -68 -16t-52 -45.5t-31 -68.5h292q-5 62 -43.5 96t-97.5 34z
M489 -103v-97h-102v97h102z" />
    <glyph glyph-name="Ecaron" unicode="&#x11a;" horiz-adv-x="594" 
d="M359 840v-97h-102v97h102zM158 74h376v-74h-454v650h453v-73h-375v-216h307v-75h-307v-212z" />
    <glyph glyph-name="ecaron" unicode="&#x11b;" horiz-adv-x="529" 
d="M327 700v-97h-102v97h102zM415 160h74q-13 -74 -69 -122t-139 -48q-68 0 -124 33t-88 92.5t-32 133.5q0 112 68 186.5t171 74.5q108 0 165.5 -73t49.5 -208h-376q7 -72 53.5 -117.5t112.5 -45.5q49 0 85 26t49 68zM271 434q-37 0 -68 -16t-52 -45.5t-31 -68.5h292
q-5 62 -43.5 96t-97.5 34z" />
    <glyph glyph-name="Gbreve" unicode="&#x11e;" horiz-adv-x="713" 
d="M412 840v-97h-102v97h102zM654 301v-70l-1 -231h-76q0 66 8 191q-46 -201 -233 -201q-133 0 -217.5 94t-84.5 241q0 97 39 173.5t110 119t161 42.5q110 0 183 -62.5t83 -165.5h-66q-20 71 -73.5 112t-126.5 41q-102 0 -167 -73t-65 -187t64 -186.5t166 -72.5q74 0 122 42
t62 121l-144 -2v74h256z" />
    <glyph glyph-name="gbreve" unicode="&#x11f;" horiz-adv-x="531" 
d="M293 700v-97h-102v97h102zM503 501v-87q-60 0 -136 39q77 -56 77 -160q0 -97 -59 -155.5t-143 -58.5q-60 -3 -86.5 -12t-26.5 -33q0 -34 46 -34h101q41 0 73.5 -8t59.5 -25.5t41.5 -49.5t14.5 -75v-42h-78v22q0 52 -27 77t-83 25h-97q-129 0 -129 85q0 45 34.5 65
t82.5 19q-58 22 -94.5 74t-36.5 126q0 97 60 157t145 60q31 0 62 -10zM242 154q51 0 87.5 37t36.5 102q0 43 -17.5 75.5t-46 48.5t-60.5 16q-52 0 -89.5 -38t-37.5 -102.5t37 -101.5t90 -37z" />
    <glyph glyph-name="Gdotaccent" unicode="&#x120;" horiz-adv-x="713" 
d="M412 840v-97h-102v97h102zM654 301v-70l-1 -231h-76q0 66 8 191q-46 -201 -233 -201q-133 0 -217.5 94t-84.5 241q0 97 39 173.5t110 119t161 42.5q110 0 183 -62.5t83 -165.5h-66q-20 71 -73.5 112t-126.5 41q-102 0 -167 -73t-65 -187t64 -186.5t166 -72.5q74 0 122 42
t62 121l-144 -2v74h256z" />
    <glyph glyph-name="gdotaccent" unicode="&#x121;" horiz-adv-x="531" 
d="M293 700v-97h-102v97h102zM503 501v-87q-60 0 -136 39q77 -56 77 -160q0 -97 -59 -155.5t-143 -58.5q-60 -3 -86.5 -12t-26.5 -33q0 -34 46 -34h101q41 0 73.5 -8t59.5 -25.5t41.5 -49.5t14.5 -75v-42h-78v22q0 52 -27 77t-83 25h-97q-129 0 -129 85q0 45 34.5 65
t82.5 19q-58 22 -94.5 74t-36.5 126q0 97 60 157t145 60q31 0 62 -10zM242 154q51 0 87.5 37t36.5 102q0 43 -17.5 75.5t-46 48.5t-60.5 16q-52 0 -89.5 -38t-37.5 -102.5t37 -101.5t90 -37z" />
    <glyph glyph-name="uni0122" unicode="&#x122;" horiz-adv-x="713" 
d="M654 301v-70l-1 -231h-76q0 66 8 191q-46 -201 -233 -201q-133 0 -217.5 94t-84.5 241q0 97 39 173.5t110 119t161 42.5q110 0 183 -62.5t83 -165.5h-66q-20 71 -73.5 112t-126.5 41q-102 0 -167 -73t-65 -187t64 -186.5t166 -72.5q74 0 122 42t62 121l-144 -2v74h256z
M310 -200v97h102v-97h-102z" />
    <glyph glyph-name="uni0123" unicode="&#x123;" horiz-adv-x="531" 
d="M293 710v-97h-102v97h102zM503 501v-87q-60 0 -136 39q77 -56 77 -160q0 -97 -59 -155.5t-143 -58.5q-60 -3 -86.5 -12t-26.5 -33q0 -34 46 -34h101q41 0 73.5 -8t59.5 -25.5t41.5 -49.5t14.5 -75v-42h-78v22q0 52 -27 77t-83 25h-97q-129 0 -129 85q0 45 34.5 65
t82.5 19q-58 22 -94.5 74t-36.5 126q0 97 60 157t145 60q31 0 62 -10zM242 154q51 0 87.5 37t36.5 102q0 43 -17.5 75.5t-46 48.5t-60.5 16q-52 0 -89.5 -38t-37.5 -102.5t37 -101.5t90 -37z" />
    <glyph glyph-name="Hbar" unicode="&#x126;" horiz-adv-x="713" 
d="M673 507v-75h-40v-432h-78v288h-397v-288h-78v432h-40v75h40v143h78v-143h397v143h78v-143h40zM555 361v71h-397v-71h397z" />
    <glyph glyph-name="hbar" unicode="&#x127;" horiz-adv-x="556" 
d="M323 510q79 0 124.5 -47t45.5 -128v-335h-78v316q0 115 -107 115q-55 0 -97.5 -37t-57.5 -97v-297h-78v591h-75v60h75v49h78v-49h145v-60h-145v-234q17 70 63 111.5t107 41.5z" />
    <glyph glyph-name="Imacron" unicode="&#x12a;" horiz-adv-x="278" 
d="M190 840v-97h-102v97h102zM100 650h78v-650h-78v650z" />
    <glyph glyph-name="imacron" unicode="&#x12b;" horiz-adv-x="198" 
d="M150 700v-97h-102v97h102zM60 500h78v-500h-78v500z" />
    <glyph glyph-name="Iogonek" unicode="&#x12e;" horiz-adv-x="278" 
d="M100 650h78v-650h-78v650zM189 -103v-97h-102v97h102z" />
    <glyph glyph-name="iogonek" unicode="&#x12f;" horiz-adv-x="222" 
d="M162 700v-97h-102v97h102zM72 500h78v-500h-78v500zM210 -103v-97h-102v97h102z" />
    <glyph glyph-name="Idotaccent" unicode="&#x130;" horiz-adv-x="278" 
d="M190 840v-97h-102v97h102zM100 650h78v-650h-78v650z" />
    <glyph glyph-name="dotlessi" unicode="&#x131;" horiz-adv-x="198" 
d="M60 500h78v-500h-78v500z" />
    <glyph glyph-name="IJ" unicode="&#x132;" horiz-adv-x="609" 
d="M178 650v-388h-78v388h78zM451 650h78v-432q0 -99 -59 -163.5t-153 -64.5q-86 0 -148.5 54t-66.5 143h71q6 -38 28.5 -66t52.5 -41t63 -13q61 0 97.5 42t36.5 109v432z" />
    <glyph glyph-name="ij" unicode="&#x133;" horiz-adv-x="444" 
d="M162 700v-97h-102v97h102zM384 700v-97h-102v97h102zM72 500h78v-500h-78v500zM295 500h78v-700h-78v700z" />
    <glyph glyph-name="uni0136" unicode="&#x136;" horiz-adv-x="624" 
d="M259 343l345 -343h-103l-343 340v-340h-78v650h78v-310l300 310h104zM254 -200v97h102v-97h-102z" />
    <glyph glyph-name="uni0137" unicode="&#x137;" horiz-adv-x="511" 
d="M75 0v700h78v-700h-78zM261 278l240 -278h-100l-246 279l217 221h112zM214 -200v97h102v-97h-102z" />
    <glyph glyph-name="Lacute" unicode="&#x139;" horiz-adv-x="565" 
d="M379 840v-97h-102v97h102zM158 73h357v-73h-362h-73v650h78v-577z" />
    <glyph glyph-name="lacute" unicode="&#x13a;" horiz-adv-x="228" 
d="M168 890v-97h-102v97h102zM75 700h78v-700h-78v700z" />
    <glyph glyph-name="uni013B" unicode="&#x13b;" horiz-adv-x="565" 
d="M158 73h357v-73h-362h-73v650h78v-577zM277 -200v97h102v-97h-102z" />
    <glyph glyph-name="uni013C" unicode="&#x13c;" horiz-adv-x="228" 
d="M75 700h78v-700h-78v700zM166 -103v-97h-102v97h102z" />
    <glyph glyph-name="Lcaron" unicode="&#x13d;" horiz-adv-x="565" 
d="M379 840v-97h-102v97h102zM158 73h357v-73h-362h-73v650h78v-577z" />
    <glyph glyph-name="lcaron" unicode="&#x13e;" horiz-adv-x="330" 
d="M330 701v-98h-102v98h102zM75 700h78v-700h-78v700z" />
    <glyph glyph-name="Ldot" unicode="&#x13f;" horiz-adv-x="565" 
d="M158 73h357v-73h-362h-73v650h78v-577zM400 391v-97h-102v97h102z" />
    <glyph glyph-name="ldot" unicode="&#x140;" horiz-adv-x="360" 
d="M75 700h78v-700h-78v700zM285 401v-98h-102v98h102z" />
    <glyph glyph-name="Lslash" unicode="&#x141;" horiz-adv-x="565" 
d="M158 73h357v-73h-362h-73v228l-80 -54l-35 52l115 80v344h78v-291l215 147l37 -52l-252 -172v-209z" />
    <glyph glyph-name="lslash" unicode="&#x142;" horiz-adv-x="248" 
d="M263 406l-100 -68v-338h-78v285l-65 -44l-35 53l100 68v338h78v-284l63 43z" />
    <glyph glyph-name="Nacute" unicode="&#x143;" horiz-adv-x="713" 
d="M414 840v-97h-102v97h102zM555 650h78v-650h-78l-397 525v-525h-78v650h78l397 -525v525z" />
    <glyph glyph-name="nacute" unicode="&#x144;" 
d="M348 700v-97h-102v97h102zM311 510q79 0 124.5 -46.5t45.5 -128.5v-335h-78v315q0 116 -107 116q-36 0 -68 -17t-54.5 -47.5t-32.5 -69.5v-297h-78v500h78v-143q17 70 63 111.5t107 41.5z" />
    <glyph glyph-name="uni0145" unicode="&#x145;" horiz-adv-x="713" 
d="M555 650h78v-650h-78l-397 525v-525h-78v650h78l397 -525v525zM312 -200v97h102v-97h-102z" />
    <glyph glyph-name="uni0146" unicode="&#x146;" 
d="M311 510q79 0 124.5 -46.5t45.5 -128.5v-335h-78v315q0 116 -107 116q-55 0 -97.5 -37t-57.5 -97v-297h-78v500h78v-143q17 70 63 111.5t107 41.5zM221 -200v97h102v-97h-102z" />
    <glyph glyph-name="Ncaron" unicode="&#x147;" horiz-adv-x="713" 
d="M414 840v-97h-102v97h102zM555 650h78v-650h-78l-397 525v-525h-78v650h78l397 -525v525z" />
    <glyph glyph-name="ncaron" unicode="&#x148;" 
d="M348 700v-97h-102v97h102zM311 510q79 0 124.5 -46.5t45.5 -128.5v-335h-78v315q0 116 -107 116q-36 0 -68 -17t-54.5 -47.5t-32.5 -69.5v-297h-78v500h78v-143q17 70 63 111.5t107 41.5z" />
    <glyph glyph-name="Eng" unicode="&#x14a;" horiz-adv-x="713" 
d="M555 650h78v-670q0 -91 -58.5 -140.5t-139.5 -49.5v79q25 0 44.5 5t37.5 18.5t28 40.5t10 67l-397 525v-525h-78v650h78l397 -525v525z" />
    <glyph glyph-name="eng" unicode="&#x14b;" 
d="M311 510q79 0 124.5 -47t45.5 -128v-354q0 -85 -55 -138t-142 -53v79q119 0 119 131v315q0 116 -107 116q-55 0 -97.5 -37t-57.5 -97v-297h-78v500h78v-143q17 70 63 111.5t107 41.5z" />
    <glyph glyph-name="Omacron" unicode="&#x14c;" horiz-adv-x="733" 
d="M417 840v-97h-102v97h102zM366.5 -10q-65.5 0 -123.5 24t-100.5 67t-67.5 106t-25 138t25 138t67.5 106t100.5 67t123.5 24t123 -24t100.5 -67t68 -106t25 -138t-25 -138t-68 -106t-100.5 -67t-123 -24zM366.5 66q62.5 0 116 28.5t88 89t34.5 141.5t-34.5 141t-88 89.5
t-116 29.5t-116 -29.5t-88 -89.5t-34.5 -141t34.5 -141.5t88 -89t116 -28.5z" />
    <glyph glyph-name="omacron" unicode="&#x14d;" horiz-adv-x="556" 
d="M330 700v-97h-102v97h102zM279 -10q-99 0 -170.5 71.5t-71.5 187.5t71.5 188.5t170.5 72.5q98 0 169 -72.5t71 -188.5t-70.5 -187.5t-169.5 -71.5zM279 66q65 0 113.5 49.5t48.5 133.5q0 83 -48.5 134t-113.5 51t-114.5 -50.5t-49.5 -134.5t49 -133.5t115 -49.5z" />
    <glyph glyph-name="Ohungarumlaut" unicode="&#x150;" horiz-adv-x="733" 
d="M319 840v-97h-102v97h102zM495 840v-97h-102v97h102zM366.5 -10q-65.5 0 -123.5 24t-100.5 67t-67.5 106t-25 138t25 138t67.5 106t100.5 67t123 24q52 0 100 -15t87.5 -44.5t68.5 -69.5t45 -93t16 -113q0 -75 -25 -138t-68 -106t-100.5 -67t-123 -24zM366.5 66
q62.5 0 116 28.5t88 89t34.5 141.5t-34.5 141t-88 89.5t-116 29.5t-116 -29.5t-88 -89.5t-34.5 -141t34.5 -141.5t88 -89t116 -28.5z" />
    <glyph glyph-name="ohungarumlaut" unicode="&#x151;" horiz-adv-x="556" 
d="M232 699v-97h-102v97h102zM408 699v-97h-102v97h102zM279 -10q-99 0 -170.5 71.5t-71.5 187.5t71.5 188.5t170.5 72.5q98 0 169 -72.5t71 -188.5t-70.5 -187.5t-169.5 -71.5zM279 66q65 0 113.5 49.5t48.5 133.5q0 83 -48.5 134t-113.5 51t-114.5 -50.5t-49.5 -134.5
t49 -133.5t115 -49.5z" />
    <glyph glyph-name="OE" unicode="&#x152;" horiz-adv-x="954" 
d="M894 76v-76h-447q-39 -10 -81 -10q-65 0 -123 24t-100.5 67t-67.5 106t-25 138t25 138t67.5 106t100.5 67t123 24q42 0 81 -10h446v-75h-309q86 -83 97 -213h143v-77h-143q-12 -128 -97 -209h310zM128 325q0 -81 34.5 -141.5t88 -89t116 -28.5t116 28.5t88 89t34.5 141.5
t-34.5 141t-88 89.5t-116 29.5t-116 -29.5t-88 -89.5t-34.5 -141z" />
    <glyph glyph-name="oe" unicode="&#x153;" horiz-adv-x="963" 
d="M710 510q108 0 165.5 -73t49.5 -208h-376q7 -72 53.5 -117.5t112.5 -45.5q49 0 85 26t49 68h74q-9 -48 -36 -86.5t-72 -61t-100 -22.5q-49 0 -92 17.5t-75.5 49t-52.5 74.5q-29 -66 -87.5 -103.5t-128.5 -37.5q-99 0 -170.5 71.5t-71.5 187.5t71.5 188.5t170.5 72.5
q46 0 87.5 -16.5t75 -49t53.5 -76.5q29 65 86 103.5t129 38.5zM279 66q65 0 113.5 49.5t48.5 133.5q0 83 -48.5 134t-113.5 51q-31 0 -60 -12.5t-52.5 -35.5t-37.5 -58.5t-14 -78.5q0 -84 49 -133.5t115 -49.5zM554 304h291q-4 62 -43 96t-97 34q-55 0 -95.5 -35.5
t-55.5 -94.5z" />
    <glyph glyph-name="Racute" unicode="&#x154;" horiz-adv-x="635" 
d="M366 840v-97h-102v97h102zM422 300q72 -5 107.5 -34.5t35.5 -103.5v-162h-77l-1 163q0 103 -144 103h-185v-266h-78v650h281q68 0 115.5 -20.5t73 -62t25.5 -101.5q0 -73 -41 -113.5t-112 -52.5zM158 575v-233h203v-39v39q40 0 70.5 15.5t47.5 43.5t18 65q0 52 -37 80.5
t-99 28.5h-203z" />
    <glyph glyph-name="racute" unicode="&#x155;" horiz-adv-x="315" 
d="M233 700v-97h-102v97h102zM141 364q4 16 9.5 30.5t14.5 32t22 31.5t29 26t37.5 19t46.5 7v-80q-38 0 -68 -15t-48 -39.5t-27.5 -45t-15.5 -41.5v-289h-78v500h78v-136z" />
    <glyph glyph-name="uni0156" unicode="&#x156;" horiz-adv-x="635" 
d="M422 300q72 -5 107.5 -34.5t35.5 -103.5v-162h-77l-1 163q0 103 -144 103h-185v-266h-78v650h281q68 0 115.5 -20.5t73 -62t25.5 -101.5q0 -73 -41 -113.5t-112 -52.5zM158 575v-233h203v-39v39q40 0 70.5 15.5t47.5 43.5t18 65q0 52 -37 80.5t-99 28.5h-203zM265 -199
v97h102v-97h-102z" />
    <glyph glyph-name="uni0157" unicode="&#x157;" horiz-adv-x="315" 
d="M141 364q4 16 9.5 30.5t14.5 32t22 31.5t29 26t37.5 19t46.5 7v-80q-38 0 -68 -15t-48 -39.5t-27.5 -45t-15.5 -41.5v-289h-78v500h78v-136zM51 -200v97h102v-97h-102z" />
    <glyph glyph-name="Rcaron" unicode="&#x158;" horiz-adv-x="635" 
d="M366 840v-97h-102v97h102zM422 300q72 -5 107.5 -34.5t35.5 -103.5v-162h-77l-1 163q0 103 -144 103h-185v-266h-78v650h281q68 0 115.5 -20.5t73 -62t25.5 -101.5q0 -73 -41 -113.5t-112 -52.5zM158 575v-233h203v-39v39q40 0 70.5 15.5t47.5 43.5t18 65q0 52 -37 80.5
t-99 28.5h-203z" />
    <glyph glyph-name="rcaron" unicode="&#x159;" horiz-adv-x="315" 
d="M233 700v-97h-102v97h102zM141 364q4 16 9.5 30.5t14.5 32t22 31.5t29 26t37.5 19t46.5 7v-80q-38 0 -68 -15t-48 -39.5t-27.5 -45t-15.5 -41.5v-289h-78v500h78v-136z" />
    <glyph glyph-name="Sacute" unicode="&#x15a;" horiz-adv-x="520" 
d="M299 840v-97h-102v97h102zM42 210h69q4 -63 53 -104.5t115 -42.5q55 -1 89 29.5t34 77.5q0 13 -3.5 24.5t-7 19.5t-14 17t-16.5 13.5t-22 12t-22 10t-26.5 10t-26 9.5t-17.5 7q-27 10 -41 15.5t-38.5 17t-38 20.5t-31.5 24.5t-27 31t-16 36.5t-7 45q0 76 54.5 126.5
t146.5 50.5q94 0 147 -56.5t51 -150.5h-69q-2 67 -39 99.5t-94 32.5q-23 0 -44 -5.5t-38 -16.5t-27 -30.5t-10 -45.5q0 -18 6.5 -33t14 -24.5t26 -20t30 -15.5t40 -16t41.5 -16q7 -4 30.5 -13t34 -13.5t31.5 -15t32 -19t26.5 -23t23 -29.5t13 -35t5.5 -43q0 -81 -50 -131
t-143 -50q-57 0 -103 18t-73.5 45t-45 58.5t-22.5 57.5t-1 41z" />
    <glyph glyph-name="sacute" unicode="&#x15b;" horiz-adv-x="432" 
d="M269 700v-97h-102v97h102zM40 161h72q10 -41 41.5 -68t80.5 -27q38 -1 59 17t21 46q0 10 -2 18t-4.5 13.5t-9.5 11.5l-10.5 9t-14.5 8t-15.5 7t-19 7.5t-19 7t-13.5 5.5q-21 8 -32 12t-30.5 13t-30.5 16.5t-25 19.5t-21 24t-12.5 28.5t-5.5 35.5q0 31 11.5 57.5t32.5 46
t51.5 30.5t65.5 11q74 0 119 -44t46 -116h-67q-15 82 -101 82q-35 0 -57.5 -17.5t-22.5 -45.5q0 -14 5 -24t18.5 -18.5t22 -13t31.5 -13t31 -11.5q5 -2 14 -6q29 -12 43.5 -18.5t37 -20.5t33.5 -27.5t20 -36t9 -50.5q0 -63 -42.5 -101.5t-109.5 -38.5q-46 0 -83 14
t-58.5 34.5t-35.5 45t-19 44.5t-4 33z" />
    <glyph glyph-name="Scedilla" unicode="&#x15e;" horiz-adv-x="520" 
d="M42 210h69q4 -63 53 -104.5t115 -42.5q55 -1 89 29.5t34 77.5q0 13 -3.5 24.5t-7 19.5t-14 17t-16.5 13.5t-22 12t-22 10t-26.5 10t-26 9.5t-17.5 7q-27 10 -41 15.5t-38.5 17t-38 20.5t-31.5 24.5t-27 31t-16 36.5t-7 45q0 76 54.5 126.5t146.5 50.5q94 0 147 -56.5
t51 -150.5h-69q-2 67 -39 99.5t-94 32.5q-23 0 -44 -5.5t-38 -16.5t-27 -30.5t-10 -45.5q0 -18 6.5 -33t14 -24.5t26 -20t30 -15.5t40 -16t41.5 -16q7 -4 30.5 -13t34 -13.5t31.5 -15t32 -19t26.5 -23t23 -29.5t13 -35t5.5 -43q0 -81 -50 -131t-143 -50q-57 0 -103 18
t-73.5 45t-45 58.5t-22.5 57.5t-1 41zM308 -102v-97h-102v97h102z" />
    <glyph glyph-name="scedilla" unicode="&#x15f;" horiz-adv-x="432" 
d="M40 161h72q10 -41 41.5 -68t80.5 -27q38 -1 59 17t21 46q0 10 -2 18t-4.5 13.5t-9.5 11.5l-10.5 9t-14.5 8t-15.5 7t-19 7.5t-19 7t-13.5 5.5q-21 8 -32 12t-30.5 13t-30.5 16.5t-25 19.5t-21 24t-12.5 28.5t-5.5 35.5q0 31 11.5 57.5t32.5 46t51.5 30.5t65.5 11
q74 0 119 -44t46 -116h-67q-15 82 -101 82q-35 0 -57.5 -17.5t-22.5 -45.5q0 -14 5 -24t18.5 -18.5t22 -13t31.5 -13t31 -11.5q5 -2 14 -6q29 -12 43.5 -18.5t37 -20.5t33.5 -27.5t20 -36t9 -50.5q0 -63 -42.5 -101.5t-109.5 -38.5q-46 0 -83 14t-58.5 34.5t-35.5 45
t-19 44.5t-4 33zM286 -113v-97h-102v97h102z" />
    <glyph glyph-name="Scaron" unicode="&#x160;" horiz-adv-x="520" 
d="M299 840v-97h-102v97h102zM42 210h69q4 -63 53 -104.5t115 -42.5q55 -1 89 29.5t34 77.5q0 13 -3.5 24.5t-7 19.5t-14 17t-16.5 13.5t-22 12t-22 10t-26.5 10t-26 9.5t-17.5 7q-27 10 -41 15.5t-38.5 17t-38 20.5t-31.5 24.5t-27 31t-16 36.5t-7 45q0 76 54.5 126.5
t146.5 50.5q94 0 147 -56.5t51 -150.5h-69q-2 67 -39 99.5t-94 32.5q-23 0 -44 -5.5t-38 -16.5t-27 -30.5t-10 -45.5q0 -18 6.5 -33t14 -24.5t26 -20t30 -15.5t40 -16t41.5 -16q7 -4 30.5 -13t34 -13.5t31.5 -15t32 -19t26.5 -23t23 -29.5t13 -35t5.5 -43q0 -81 -50 -131
t-143 -50q-57 0 -103 18t-73.5 45t-45 58.5t-22.5 57.5t-1 41z" />
    <glyph glyph-name="scaron" unicode="&#x161;" horiz-adv-x="432" 
d="M40 161h72q10 -41 41.5 -68t80.5 -27q38 -1 59 17t21 46q0 10 -2 18t-4.5 13.5t-9.5 11.5l-10.5 9t-14.5 8t-15.5 7t-19 7.5t-19 7t-13.5 5.5q-21 8 -32 12t-30.5 13t-30.5 16.5t-25 19.5t-21 24t-12.5 28.5t-5.5 35.5q0 31 11.5 57.5t32.5 46t51.5 30.5t65.5 11
q74 0 119 -44t46 -116h-67q-15 82 -101 82q-35 0 -57.5 -17.5t-22.5 -45.5q0 -14 5 -24t18.5 -18.5t22 -13t31.5 -13t31 -11.5q5 -2 14 -6q29 -12 43.5 -18.5t37 -20.5t33.5 -27.5t20 -36t9 -50.5q0 -63 -42.5 -101.5t-109.5 -38.5q-46 0 -83 14t-58.5 34.5t-35.5 45
t-19 44.5t-4 33zM276 -200h-102v97h102v-97z" />
    <glyph glyph-name="uni0162" unicode="&#x162;" horiz-adv-x="543" 
d="M528 650v-73h-218v-577h-77v577h-218v73h513zM221 -200v97h102v-97h-102z" />
    <glyph glyph-name="uni0163" unicode="&#x163;" horiz-adv-x="340" 
d="M209 500h106v-74h-106v-426h-78v426h-106v74h106v130h78v-130zM119 -200v97h102v-97h-102z" />
    <glyph glyph-name="Tcaron" unicode="&#x164;" horiz-adv-x="543" 
d="M323 840v-97h-102v97h102zM528 650v-73h-218v-577h-77v577h-218v73h513z" />
    <glyph glyph-name="tcaron" unicode="&#x165;" horiz-adv-x="340" 
d="M221 829v-97h-102v97h102zM315 500v-74h-106v-426h-78v426h-106v74h106v130h78v-130h106z" />
    <glyph glyph-name="Tbar" unicode="&#x166;" horiz-adv-x="543" 
d="M323 840v-97h-102v97h102zM528 650v-73h-218v-577h-77v577h-218v73h513z" />
    <glyph glyph-name="tbar" unicode="&#x167;" horiz-adv-x="340" 
d="M221 829v-97h-102v97h102zM315 500v-74h-106v-426h-78v426h-106v74h106v130h78v-130h106z" />
    <glyph glyph-name="Umacron" unicode="&#x16a;" horiz-adv-x="688" 
d="M396 840v-97h-102v97h102zM530 650h77v-401q0 -131 -70.5 -195t-191.5 -64q-122 0 -193.5 64t-71.5 195v401h78v-401q0 -54 14.5 -91t42 -56.5t59 -27.5t71.5 -8q32 0 57.5 4.5t50 17t41 32.5t26.5 53t10 76v401z" />
    <glyph glyph-name="umacron" unicode="&#x16b;" 
d="M330 700v-97h-102v97h102zM403 500h78v-500h-78v166q-4 -23 -10.5 -43.5t-20 -46t-30.5 -43.5t-45 -30.5t-62 -12.5q-31 0 -59.5 8.5t-54.5 27.5t-42 55t-16 86v333h78v-313q0 -118 109 -118q37 0 66 14.5t46 38.5t26.5 44t14.5 41v293z" />
    <glyph glyph-name="Uring" unicode="&#x16e;" horiz-adv-x="688" 
d="M396 840v-97h-102v97h102zM530 650h77v-401q0 -131 -70.5 -195t-191.5 -64q-122 0 -193.5 64t-71.5 195v401h78v-401q0 -54 14.5 -91t42 -56.5t59 -27.5t71.5 -8q32 0 57.5 4.5t50 17t41 32.5t26.5 53t10 76v401z" />
    <glyph glyph-name="uring" unicode="&#x16f;" 
d="M330 700v-97h-102v97h102zM403 500h78v-500h-78v166q-4 -23 -10.5 -43.5t-20 -46t-30.5 -43.5t-45 -30.5t-62 -12.5q-31 0 -59.5 8.5t-54.5 27.5t-42 55t-16 86v333h78v-313q0 -118 109 -118q37 0 66 14.5t46 38.5t26.5 44t14.5 41v293z" />
    <glyph glyph-name="Uhungarumlaut" unicode="&#x170;" horiz-adv-x="688" 
d="M530 650h77v-401q0 -131 -70.5 -195t-191.5 -64q-122 0 -193.5 64t-71.5 195v401h78v-401q0 -54 14.5 -91t42 -56.5t59 -27.5t71.5 -8q32 0 57.5 4.5t50 17t41 32.5t26.5 53t10 76v401zM307 650v-97h-102v97h102zM483 650v-97h-102v97h102z" />
    <glyph glyph-name="uhungarumlaut" unicode="&#x171;" 
d="M232 699v-97h-102v97h102zM408 699v-97h-102v97h102zM403 500h78v-500h-78v166q-4 -23 -10.5 -43.5t-20 -46t-30.5 -43.5t-45 -30.5t-62 -12.5q-31 0 -59.5 8.5t-54.5 27.5t-42 55t-16 86v333h78v-313q0 -118 109 -118q37 0 66 14.5t46 38.5t26.5 44t14.5 41v293z" />
    <glyph glyph-name="Uogonek" unicode="&#x172;" horiz-adv-x="688" 
d="M530 650h77v-401q0 -131 -70.5 -195t-191.5 -64q-122 0 -193.5 64t-71.5 195v401h78v-401q0 -54 14.5 -91t42 -56.5t59 -27.5t71.5 -8q32 0 57.5 4.5t50 17t41 32.5t26.5 53t10 76v401zM614 -103v-97h-102v97h102z" />
    <glyph glyph-name="uogonek" unicode="&#x173;" 
d="M403 500h78v-500h-78v166q-4 -23 -10.5 -43.5t-20 -46t-30.5 -43.5t-45 -30.5t-62 -12.5q-31 0 -59.5 8.5t-54.5 27.5t-42 55t-16 86v333h78v-313q0 -118 109 -118q37 0 66 14.5t46 38.5t26.5 44t14.5 41v293zM493 -103v-97h-102v97h102z" />
    <glyph glyph-name="Wcircumflex" unicode="&#x174;" horiz-adv-x="1025" 
d="M566 840v-97h-102v97h102zM1005 650l-229 -648v-2h-83l1 2l-180 550l-180 -550v-2h-83l1 2l-232 648h84l188 -530l180 530h83l181 -530l188 530h81z" />
    <glyph glyph-name="wcircumflex" unicode="&#x175;" horiz-adv-x="762" 
d="M433 700v-97h-102v97h102zM657 500h85l-171 -500h-73l-117 406l-117 -406h-73l-171 500h85l124 -395l105 395h95l103 -395z" />
    <glyph glyph-name="Ycircumflex" unicode="&#x176;" horiz-adv-x="584" 
d="M343 840v-97h-102v97h102zM471 650h88l-228 -427v-223h-78v223l-228 427h88l181 -344z" />
    <glyph glyph-name="ycircumflex" unicode="&#x177;" horiz-adv-x="500" 
d="M298 700v-97h-102v97h102zM397 500h83l-277 -700h-82l90 207l-191 493h83l147 -396z" />
    <glyph glyph-name="Ydieresis" unicode="&#x178;" horiz-adv-x="584" 
d="M255 840v-97h-102v97h102zM431 840v-97h-102v97h102zM471 650h88l-228 -427v-223h-78v223l-228 427h88l181 -344z" />
    <glyph glyph-name="Zacute" unicode="&#x179;" horiz-adv-x="633" 
d="M367 840v-97h-102v97h102zM578 650v-73l-422 -503h422v-74h-523v74l424 503h-424v73h523z" />
    <glyph glyph-name="zacute" unicode="&#x17a;" horiz-adv-x="493" 
d="M296 700v-97h-102v97h102zM153 74h285v-74h-383v74l286 352h-286v74h380v-74z" />
    <glyph glyph-name="Zdotaccent" unicode="&#x17b;" horiz-adv-x="633" 
d="M367 840v-97h-102v97h102zM578 650v-73l-422 -503h422v-74h-523v74l424 503h-424v73h523z" />
    <glyph glyph-name="zdotaccent" unicode="&#x17c;" horiz-adv-x="493" 
d="M296 700v-97h-102v97h102zM153 74h285v-74h-383v74l286 352h-286v74h380v-74z" />
    <glyph glyph-name="Zcaron" unicode="&#x17d;" horiz-adv-x="633" 
d="M367 840v-97h-102v97h102zM578 650v-73l-422 -503h422v-74h-523v74l424 503h-424v73h523z" />
    <glyph glyph-name="zcaron" unicode="&#x17e;" horiz-adv-x="493" 
d="M296 700v-97h-102v97h102zM153 74h285v-74h-383v74l286 352h-286v74h380v-74z" />
    <glyph glyph-name="florin" unicode="&#x192;" horiz-adv-x="737" 
d="M523 660q75 0 124 -50.5t49 -124.5h-78q0 45 -26 73.5t-69 28.5q-116 0 -116 -203v-22h135v-60h-135v-56q0 -69 -13.5 -119.5t-39 -80t-58 -43t-72.5 -13.5q-76 0 -130 51t-54 125h78q0 -45 30.5 -73.5t75.5 -28.5q105 0 105 182v56h-115v60h115v22q0 76 15.5 131t43 86
t61 45t74.5 14z" />
    <glyph glyph-name="uni0218" unicode="&#x218;" horiz-adv-x="520" 
d="M42 210h69q4 -63 53 -104.5t115 -42.5q55 -1 89 29.5t34 77.5q0 13 -3.5 24.5t-7 19.5t-14 17t-16.5 13.5t-22 12t-22 10t-26.5 10t-26 9.5t-17.5 7q-27 10 -41 15.5t-38.5 17t-38 20.5t-31.5 24.5t-27 31t-16 36.5t-7 45q0 76 54.5 126.5t146.5 50.5q94 0 147 -56.5
t51 -150.5h-69q-2 67 -39 99.5t-94 32.5q-23 0 -44 -5.5t-38 -16.5t-27 -30.5t-10 -45.5q0 -18 6.5 -33t14 -24.5t26 -20t30 -15.5t40 -16t41.5 -16q7 -4 30.5 -13t34 -13.5t31.5 -15t32 -19t26.5 -23t23 -29.5t13 -35t5.5 -43q0 -81 -50 -131t-143 -50q-57 0 -103 18
t-73.5 45t-45 58.5t-22.5 57.5t-1 41zM308 -102v-97h-102v97h102z" />
    <glyph glyph-name="uni0219" unicode="&#x219;" horiz-adv-x="432" 
d="M40 161h72q10 -41 41.5 -68t80.5 -27q38 -1 59 17t21 46q0 10 -2 18t-4.5 13.5t-9.5 11.5l-10.5 9t-14.5 8t-15.5 7t-19 7.5t-19 7t-13.5 5.5q-21 8 -32 12t-30.5 13t-30.5 16.5t-25 19.5t-21 24t-12.5 28.5t-5.5 35.5q0 31 11.5 57.5t32.5 46t51.5 30.5t65.5 11
q74 0 119 -44t46 -116h-67q-15 82 -101 82q-35 0 -57.5 -17.5t-22.5 -45.5q0 -14 5 -24t18.5 -18.5t22 -13t31.5 -13t31 -11.5q5 -2 14 -6q29 -12 43.5 -18.5t37 -20.5t33.5 -27.5t20 -36t9 -50.5q0 -63 -42.5 -101.5t-109.5 -38.5q-46 0 -83 14t-58.5 34.5t-35.5 45
t-19 44.5t-4 33zM286 -113v-97h-102v97h102z" />
    <glyph glyph-name="uni021A" unicode="&#x21a;" horiz-adv-x="543" 
d="M528 650v-73h-218v-577h-77v577h-218v73h513zM221 -200v97h102v-97h-102z" />
    <glyph glyph-name="uni021B" unicode="&#x21b;" horiz-adv-x="340" 
d="M209 500h106v-74h-106v-426h-78v426h-106v74h106v130h78v-130zM119 -200v97h102v-97h-102z" />
    <glyph glyph-name="circumflex" unicode="&#x2c6;" horiz-adv-x="304" 
d="M192 700v-97h-102v97h102z" />
    <glyph glyph-name="caron" unicode="&#x2c7;" horiz-adv-x="596" 
d="M192 657h-102v97h102v-97z" />
    <glyph glyph-name="breve" unicode="&#x2d8;" horiz-adv-x="596" 
d="M203 721v-97h-102v97h102z" />
    <glyph glyph-name="dotaccent" unicode="&#x2d9;" horiz-adv-x="304" 
d="M203 700v-97h-102v97h102z" />
    <glyph glyph-name="ring" unicode="&#x2da;" horiz-adv-x="596" 
d="M298 541q-52 0 -88.5 37t-36.5 89t36.5 88.5t88.5 36.5t88.5 -36.5t36.5 -88.5t-36.5 -89t-88.5 -37zM298 611q22 0 38 16.5t16 39.5t-16 39t-38 16t-38 -16t-16 -39t16 -39.5t38 -16.5z" />
    <glyph glyph-name="ogonek" unicode="&#x2db;" horiz-adv-x="304" 
d="M203 -103v-97h-102v97h102z" />
    <glyph glyph-name="tilde" unicode="&#x2dc;" horiz-adv-x="596" 
d="M203 700v-97h-102v97h102z" />
    <glyph glyph-name="hungarumlaut" unicode="&#x2dd;" horiz-adv-x="533" 
d="M212 699v-97h-102v97h102zM388 699v-97h-102v97h102z" />
    <glyph glyph-name="gravecomb" unicode="&#x300;" horiz-adv-x="0" 
d="M-203 700h102v-97h-102v97z" />
    <glyph glyph-name="acutecomb" unicode="&#x301;" horiz-adv-x="0" 
d="M-101 700v-97h-102v97h102z" />
    <glyph glyph-name="uni0302" unicode="&#x302;" horiz-adv-x="0" 
d="M-101 700v-97h-102v97h102z" />
    <glyph glyph-name="tildecomb" unicode="&#x303;" horiz-adv-x="0" 
d="M-101 700v-97h-102v97h102z" />
    <glyph glyph-name="uni0304" unicode="&#x304;" horiz-adv-x="0" 
d="M-101 700v-97h-102v97h102z" />
    <glyph glyph-name="uni0306" unicode="&#x306;" horiz-adv-x="0" 
d="M-101 700v-97h-102v97h102z" />
    <glyph glyph-name="uni0307" unicode="&#x307;" horiz-adv-x="0" 
d="M-101 700v-97h-102v97h102z" />
    <glyph glyph-name="uni0308" unicode="&#x308;" horiz-adv-x="0" 
d="M-277 699v-97h-102v97h102zM-101 699v-97h-102v97h102z" />
    <glyph glyph-name="uni030A" unicode="&#x30a;" horiz-adv-x="0" 
d="M-101 700v-97h-102v97h102z" />
    <glyph glyph-name="uni030B" unicode="&#x30b;" horiz-adv-x="0" 
d="M-287 699v-97h-102v97h102zM-111 699v-97h-102v97h102z" />
    <glyph glyph-name="uni030C" unicode="&#x30c;" horiz-adv-x="0" 
d="M-101 700v-97h-102v97h102z" />
    <glyph glyph-name="uni0312" unicode="&#x312;" horiz-adv-x="0" 
d="M-101 700v-97h-102v97h102z" />
    <glyph glyph-name="uni0326" unicode="&#x326;" horiz-adv-x="0" 
d="M-90 -103v-97h-102v97h102z" />
    <glyph glyph-name="uni0327" unicode="&#x327;" horiz-adv-x="0" 
d="M-101 -103v-97h-102v97h102z" />
    <glyph glyph-name="uni0328" unicode="&#x328;" horiz-adv-x="0" 
d="M-101 -103v-97h-102v97h102z" />
    <glyph glyph-name="uni0335" unicode="&#x335;" horiz-adv-x="0" 
d="M-399 424h298v-60h-298v60z" />
    <glyph glyph-name="uni0336" unicode="&#x336;" horiz-adv-x="0" 
d="M-501 424h400v-60h-400v60z" />
    <glyph glyph-name="uni0337" unicode="&#x337;" horiz-adv-x="0" 
d="M-138 564l37 -53l-410 -280l-35 53z" />
    <glyph glyph-name="uni0338" unicode="&#x338;" horiz-adv-x="0" 
d="M-155 699l54 -30l-381 -689l-52 32z" />
    <glyph glyph-name="uni0394" unicode="&#x394;" horiz-adv-x="590" 
d="M295 700l255 -700h-510zM295 485l-141 -406h282z" />
    <glyph glyph-name="uni03A9" unicode="&#x3a9;" horiz-adv-x="623" 
d="M428 102l1 -30l154 7v-79h-223v129q30 15 56 34.5t52 48t41.5 67.5t15.5 84q0 46 -15.5 86t-42.5 69t-67.5 46t-88.5 17q-96 0 -154.5 -62t-58.5 -156q0 -46 15.5 -86t42 -68t53.5 -47.5t58 -32.5l-69 -27q-74 31 -126 98t-52 163q0 78 35 145.5t102.5 109.5t153.5 42
t153.5 -42t103 -109.5t35.5 -145.5q0 -95 -53 -165t-122 -96zM198 72v30l69 27v-129h-227v79z" />
    <glyph glyph-name="uni03BC" unicode="&#x3bc;" horiz-adv-x="615" 
d="M481 168q0 -62 21.5 -81t77.5 -19v-78q-89 0 -132.5 46t-44.5 131q-4 -23 -10.5 -44t-20 -46.5t-31 -43.5t-45.5 -30.5t-62 -12.5q-61 0 -93 48v-238h-78v700h78v-313q0 -118 109 -118q37 0 66 14.5t46 38.5t26.5 44t14.5 42v292h78v-332z" />
    <glyph glyph-name="pi" unicode="&#x3c0;" horiz-adv-x="614" 
d="M564 426h-100v-258q0 -32 5.5 -52t18.5 -30t30 -13.5t44 -3.5v-79q-89 0 -132.5 46.5t-43.5 131.5v258h-159v-426h-78v426h-99v74h514v-74z" />
    <glyph glyph-name="Wgrave" unicode="&#x1e80;" horiz-adv-x="1025" 
d="M464 840h102v-97h-102v97zM1005 650l-229 -648v-2h-83l1 2l-180 550l-180 -550v-2h-83l1 2l-232 648h84l188 -530l180 530h83l181 -530l188 530h81z" />
    <glyph glyph-name="wgrave" unicode="&#x1e81;" horiz-adv-x="762" 
d="M331 700h102v-97h-102v97zM657 500h85l-171 -500h-73l-117 406l-117 -406h-73l-171 500h85l124 -395l105 395h95l103 -395z" />
    <glyph glyph-name="Wacute" unicode="&#x1e82;" horiz-adv-x="1025" 
d="M566 840v-97h-102v97h102zM1005 650l-229 -648v-2h-83l1 2l-180 550l-180 -550v-2h-83l1 2l-232 648h84l188 -530l180 530h83l181 -530l188 530h81z" />
    <glyph glyph-name="wacute" unicode="&#x1e83;" horiz-adv-x="762" 
d="M433 700v-97h-102v97h102zM657 500h85l-171 -500h-73l-117 406l-117 -406h-73l-171 500h85l124 -395l105 395h95l103 -395z" />
    <glyph glyph-name="Wdieresis" unicode="&#x1e84;" horiz-adv-x="1025" 
d="M1005 650l-229 -648v-2h-83l1 2l-180 550l-180 -550v-2h-83l1 2l-232 648h84l188 -530l180 530h83l181 -530l188 530h81zM317 649v-97h-102v97h102zM790 649v-97h-102v97h102z" />
    <glyph glyph-name="wdieresis" unicode="&#x1e85;" horiz-adv-x="762" 
d="M345 699v-97h-102v97h102zM520 699v-97h-102v97h102zM657 500h85l-171 -500h-73l-117 406l-117 -406h-73l-171 500h85l124 -395l105 395h95l103 -395z" />
    <glyph glyph-name="Ygrave" unicode="&#x1ef2;" horiz-adv-x="584" 
d="M241 840h102v-97h-102v97zM471 650h88l-228 -427v-223h-78v223l-228 427h88l181 -344z" />
    <glyph glyph-name="ygrave" unicode="&#x1ef3;" horiz-adv-x="500" 
d="M196 700h102v-97h-102v97zM397 500h83l-277 -700h-82l90 207l-191 493h83l147 -396z" />
    <glyph glyph-name="endash" unicode="&#x2013;" horiz-adv-x="558" 
d="M80 309h398v-77h-398v77z" />
    <glyph glyph-name="emdash" unicode="&#x2014;" horiz-adv-x="798" 
d="M60 310h678v-77h-678v77z" />
    <glyph glyph-name="quoteleft" unicode="&#x2018;" horiz-adv-x="196" 
d="M132 663l11 -21q-4 -3 -10.5 -8.5t-18 -25t-12.5 -40.5l49 -11v-96h-106v66q0 107 87 136z" />
    <glyph glyph-name="quoteright" unicode="&#x2019;" horiz-adv-x="196" 
d="M64 447l-11 21q2 1 4.5 3t9.5 9.5t12.5 15.5t10 20.5t4.5 26.5l-49 11v96h106v-67q0 -107 -87 -136z" />
    <glyph glyph-name="quotesinglbase" unicode="&#x201a;" horiz-adv-x="196" 
d="M64 -106l-11 21q2 1 4.5 3t9.5 9.5t12.5 15.5t10 20.5t4.5 25.5l-49 11v97h106v-67q0 -107 -87 -136z" />
    <glyph glyph-name="quotedblleft" unicode="&#x201c;" horiz-adv-x="344" 
d="M132 663l11 -21q-4 -3 -10.5 -8.5t-18 -25t-12.5 -40.5l49 -11v-96h-106v66q0 107 87 136zM280 663l11 -21q-4 -3 -10.5 -8.5t-18 -25t-12.5 -40.5l49 -11v-96h-106v66q0 107 87 136z" />
    <glyph glyph-name="quotedblright" unicode="&#x201d;" horiz-adv-x="344" 
d="M64 447l-11 21q1 1 2.5 2t5.5 5l8 8t8.5 10.5t8 13.5t6 16.5t2.5 19.5l-49 11v96h106v-67q0 -106 -87 -136zM212 447l-11 21q2 2 4.5 4t9.5 9t12.5 15t10 21t4.5 26l-49 11v96h106v-67q0 -106 -87 -136z" />
    <glyph glyph-name="quotedblbase" unicode="&#x201e;" horiz-adv-x="196" 
d="M64 -106l-11 21q2 1 4.5 3t9.5 9.5t12.5 15.5t10 20.5t4.5 25.5l-49 11v97h106v-67q0 -107 -87 -136z" />
    <glyph glyph-name="dagger" unicode="&#x2020;" horiz-adv-x="589" 
d="M486 500v-74h-152v-626h-78v626h-153v74h153v200h78v-200h152z" />
    <glyph glyph-name="daggerdbl" unicode="&#x2021;" horiz-adv-x="591" 
d="M487 426h-153v-345h153v-74h-153v-207h-78v207h-152v74h152v345h-152v74h152v200h78v-200h153v-74z" />
    <glyph glyph-name="bullet" unicode="&#x2022;" horiz-adv-x="446" 
d="M100 384h245v-245h-245v245z" />
    <glyph glyph-name="ellipsis" unicode="&#x2026;" horiz-adv-x="563" 
d="M167 97v-97h-102v97h102zM334 97v-97h-103v97h103zM498 97v-97h-102v97h102z" />
    <glyph glyph-name="perthousand" unicode="&#x2030;" horiz-adv-x="808" 
d="M504 686l54 -30l-382 -690l-52 32zM160.5 336q-61.5 0 -101 46t-39.5 116q0 72 39.5 117t101.5 45q40 0 72.5 -20.5t50.5 -57.5t18 -84q0 -70 -40 -116t-101.5 -46zM161 410q19 0 34.5 11t24.5 31t9 46q0 40 -19.5 64.5t-48.5 24.5t-49 -24.5t-20 -64t20 -64t49 -24.5z
M647.5 221q-61.5 0 -101.5 45.5t-40 116.5t40 116.5t101.5 45.5t101 -45.5t39.5 -116.5t-39.5 -116.5t-101 -45.5zM647 294q30 0 49.5 24.5t19.5 64t-19.5 64t-49 24.5t-49 -24.5t-19.5 -63.5q0 -26 9 -46.5t24.5 -31.5t34.5 -11zM465.5 -106q-61.5 0 -101.5 45.5t-40 116.5
t39.5 116.5t101.5 45.5t101.5 -45.5t39.5 -116.5t-39.5 -116.5t-101 -45.5zM465 -33q19 0 34.5 11t25 31.5t9.5 46.5t-9.5 46.5t-25 31t-34.5 10.5q-29 0 -48.5 -24.5t-19.5 -63.5q0 -26 9 -46.5t24.5 -31.5t34.5 -11z" />
    <glyph glyph-name="guilsinglleft" unicode="&#x2039;" horiz-adv-x="392" 
d="M312 442l-148 -163l148 -163l-55 -54l-197 217l197 217z" />
    <glyph glyph-name="guilsinglright" unicode="&#x203a;" horiz-adv-x="392" 
d="M134 496l198 -217l-198 -217l-54 54l148 163l-148 163z" />
    <glyph glyph-name="fraction" unicode="&#x2044;" horiz-adv-x="84" 
d="M210 700l54 -30l-382 -690l-52 32z" />
    <glyph glyph-name="Euro" unicode="&#x20ac;" horiz-adv-x="755" 
d="M542 402l-52 -60h-470l60 60h50q22 118 105.5 188t198.5 70q73 0 132 -29t96 -82l-52 -60q-28 46 -74.5 71t-101.5 25q-79 0 -141.5 -48.5t-82.5 -134.5h332zM634 217h72q-16 -105 -90.5 -166t-181.5 -61q-111 0 -192.5 65t-107.5 177h-114l60 60h356l-52 -60h-170
q24 -79 84 -122.5t136 -43.5q71 0 125 39t75 112z" />
    <glyph glyph-name="trademark" unicode="&#x2122;" horiz-adv-x="840" 
d="M169 400v176h-89v74h255v-74h-88v-176h-78zM682 650h78v-250h-76l-1 132l-61 -132h-78l-60 130l-1 -130h-77v250h79l98 -179zM90 263v72h670v-72h-670z" />
    <glyph glyph-name="uni2150" unicode="&#x2150;" horiz-adv-x="731" 
d="M551 700l54 -30l-382 -690l-52 32zM255 260h-230v64h84v261h-78v65h152v-326h72v-64zM494 389h217v-55l-130 -334h-62l125 328h-150v61z" />
    <glyph glyph-name="uni2151" unicode="&#x2151;" horiz-adv-x="746" 
d="M551 700l54 -30l-382 -690l-52 32zM255 260h-230v64h84v261h-78v65h152v-326h72v-64zM594 397q36 0 65.5 -18t45.5 -48t16 -64q0 -30 -14 -70q-6 -17 -29 -66t-42 -90l-20 -41h-74l72 135q-13 -10 -32 -10q-52 0 -86 39.5t-34 97.5q0 59 37.5 97t94.5 38zM590 188
q20 0 35 9t23.5 25.5t8.5 37.5q0 30 -18.5 50.5t-48.5 20.5q-19 0 -33.5 -9.5t-22 -25.5t-7.5 -36q0 -32 17.5 -52t45.5 -20z" />
    <glyph glyph-name="uni2152" unicode="&#x2152;" horiz-adv-x="1082" 
d="M550 700l54 -30l-382 -690l-52 32zM255 260h-230v64h84v261h-78v65h152v-326h72v-64zM900 393q47 0 81 -27t50.5 -72t16.5 -102q0 -89 -39 -145.5t-109.5 -56.5t-109.5 56.5t-39 145.5q0 57 16.5 102t51 72t81.5 27zM656 389v-325h73v-64h-230v64h84v261h-78v64h151z
M900 68q38 0 59.5 33.5t21.5 90t-21.5 90t-59.5 33.5q-26 0 -44.5 -15.5t-28 -43t-9.5 -64.5q0 -28 5.5 -51t15.5 -39t25.5 -25t35.5 -9z" />
    <glyph glyph-name="uni2153" unicode="&#x2153;" horiz-adv-x="733" 
d="M551 700l54 -30l-382 -690l-52 32zM255 260h-230v64h84v261h-78v65h152v-326h72v-64zM593 205q49 -5 76 -29t27 -66q0 -33 -14.5 -60.5t-41 -43.5t-59.5 -16q-56 0 -90 36t-29 84h60q0 -24 15 -39.5t44 -15.5q50 0 50 57q0 28 -18 44t-52 16h-22v62h22q65 0 65 53
q0 9 -4 18t-10.5 15t-15.5 9.5t-20 3.5q-21 0 -35 -13.5t-14 -32.5h-59q-4 29 9.5 54.5t39.5 40.5t60 15q49 0 81 -30.5t32 -70.5q0 -80 -97 -91z" />
    <glyph glyph-name="uni2154" unicode="&#x2154;" horiz-adv-x="747" 
d="M565 700l54 -30l-382 -690l-52 32zM275 325v-65h-235v65q4 4 12 13q30 31 45 47.5t38 43.5t34 43.5t19.5 36t8.5 33.5q0 52 -48 52q-23 0 -35 -13.5t-12 -28.5h-61q-4 45 28.5 75.5t83.5 30.5q52 0 81.5 -29.5t29.5 -76.5q0 -25 -8.5 -50t-28.5 -52t-33.5 -42.5
t-40.5 -44.5l-35 -38h157zM607 205q49 -5 76 -29t27 -66q0 -33 -14 -60.5t-40.5 -43.5t-60.5 -16q-55 0 -89.5 36t-29.5 84h60q0 -24 15 -39.5t44 -15.5q50 0 50 57q0 28 -18 44t-52 16h-21v62h21q65 0 65 53q0 9 -4 18t-10.5 15t-15.5 9.5t-19 3.5q-21 0 -35 -13.5
t-14 -32.5h-60q-5 45 26.5 77.5t82.5 32.5q49 0 81 -30.5t32 -70.5q0 -80 -97 -91z" />
    <glyph glyph-name="uni2155" unicode="&#x2155;" horiz-adv-x="791" 
d="M551 700l54 -30l-382 -690l-52 32zM255 260h-230v64h84v261h-78v65h152v-326h72v-64zM628 260q52 0 85 -37.5t33 -96.5q0 -60 -36 -98t-91 -38q-57 0 -94 35t-40 93h65q1 -14 6 -25t14 -18.5t21.5 -12t26.5 -4.5q29 0 46.5 18.5t17.5 49.5t-16.5 49.5t-43.5 18.5
q-48 0 -65 -41l-62 14l14 223h203v-63h-143l-8 -103q23 36 67 36z" />
    <glyph glyph-name="uni2156" unicode="&#x2156;" horiz-adv-x="805" 
d="M565 700l54 -30l-382 -690l-52 32zM275 325v-65h-235v65q4 4 12 13q30 31 45 47.5t38 43.5t34 43.5t19.5 36t8.5 33.5q0 52 -48 52q-23 0 -35 -13.5t-12 -28.5h-61q-4 45 28.5 75.5t83.5 30.5q52 0 81.5 -29.5t29.5 -76.5q0 -25 -8.5 -50t-28.5 -52t-33.5 -42.5
t-40.5 -44.5l-35 -38h157zM642 260q52 0 85 -37.5t33 -96.5q0 -60 -36 -98t-91 -38q-37 0 -66.5 15.5t-47.5 44.5t-20 68h65q2 -27 20.5 -43.5t48.5 -16.5q28 0 45.5 18.5t17.5 49.5q0 16 -4.5 28.5t-12 21.5t-19 13.5t-24.5 4.5q-47 0 -65 -41l-62 14l14 223h203v-63h-143
l-7 -103q22 36 66 36z" />
    <glyph glyph-name="uni2157" unicode="&#x2157;" horiz-adv-x="757" 
d="M517 700l54 -30l-382 -690l-52 32zM271 371q0 -52 -32 -86.5t-83 -34.5q-55 0 -89 36t-29 84h59q0 -24 15.5 -39.5t43.5 -15.5q51 0 51 57q0 28 -18.5 44t-52.5 16h-21v62h21q65 0 65 53q0 20 -14 33t-35 13t-35 -13.5t-14 -32.5h-60q-5 45 26.5 77.5t82.5 32.5
q49 0 81.5 -30.5t32.5 -70.5q0 -79 -97 -90q49 -6 75.5 -30t26.5 -65zM594 260q52 0 85 -37.5t33 -96.5q0 -60 -35.5 -98t-91.5 -38t-93 35t-41 93h65q2 -27 21 -43.5t48 -16.5q28 0 45.5 18.5t17.5 49.5q0 16 -4 28.5t-12 21.5t-19 13.5t-25 4.5q-47 0 -65 -41l-61 14
l14 223h203v-63h-143l-8 -103q22 36 66 36z" />
    <glyph glyph-name="uni2158" unicode="&#x2158;" horiz-adv-x="809" 
d="M569 700l54 -30l-382 -690l-52 32zM198 260v76h-153v60l155 254h66v-250h39v-64h-39v-76h-68zM198 401v139l-78 -139h78zM646 260q52 0 85 -37.5t33 -96.5q0 -60 -36 -98t-91 -38q-56 0 -93 35t-41 93h65q1 -18 10 -31.5t24 -21t35 -7.5q28 0 45.5 18.5t17.5 49.5
t-16.5 49.5t-43.5 18.5q-47 0 -65 -41l-61 14l14 223h202v-63h-143l-7 -103q22 36 66 36z" />
    <glyph glyph-name="uni2159" unicode="&#x2159;" horiz-adv-x="716" 
d="M551 700l54 -30l-382 -690l-52 32zM255 260h-230v64h84v261h-78v65h152v-326h72v-64zM558 262q53 0 87 -39.5t34 -97.5q0 -39 -17 -70t-46 -48t-64 -17q-58 0 -95.5 38.5t-37.5 91.5q0 30 15 70q3 8 9.5 23t14.5 33t17.5 38t18 38.5t15.5 33.5t11 24l5 9h74l-73 -137
q14 10 32 10zM552 56q28 0 45 20t17 51q0 21 -7.5 37t-22.5 25.5t-34 9.5t-34.5 -9t-24 -25.5t-8.5 -37.5q0 -30 19.5 -50.5t49.5 -20.5z" />
    <glyph glyph-name="uni215A" unicode="&#x215a;" horiz-adv-x="742" 
d="M576 700l54 -30l-382 -690l-52 32zM321 386q0 -59 -36 -97.5t-91 -38.5q-56 0 -93 35t-41 93h65q2 -18 10.5 -31.5t24 -20.5t34.5 -7q28 0 45.5 18.5t17.5 48.5q0 16 -4 28.5t-12 21.5t-19 14t-25 5q-47 0 -65 -42l-61 14l14 223h202v-63h-143l-7 -103q22 37 66 37
q52 0 85 -37.5t33 -97.5zM584 262q52 0 86.5 -39.5t34.5 -97.5q0 -39 -17 -70t-46 -48t-64 -17q-58 0 -95.5 38.5t-37.5 91.5q0 30 15 70q3 11 14 35t23.5 51.5t24.5 53l20 42.5l8 17h74l-72 -137q13 10 32 10zM578 56q19 0 33 9.5t21.5 25.5t7.5 36q0 32 -17.5 52t-46.5 20
q-15 0 -27.5 -5.5t-21 -15t-13.5 -22.5t-5 -29q0 -30 19 -50.5t50 -20.5z" />
    <glyph glyph-name="oneeighth" unicode="&#x215b;" horiz-adv-x="759" 
d="M551 700l54 -30l-382 -690l-52 32zM255 260h-230v64h84v261h-78v65h152v-326h72v-64zM657 203q27 -11 42 -35.5t15 -57.5q0 -53 -35 -86.5t-87.5 -33.5t-87 33.5t-34.5 86.5q0 33 14.5 57.5t42.5 35.5q-49 20 -49 82q0 23 8.5 44t23.5 35.5t36 23t45 8.5q33 0 59 -14.5
t40.5 -40t14.5 -56.5q0 -61 -48 -82zM591.5 331q-21.5 0 -35 -14t-13.5 -35q0 -11 3.5 -20t10.5 -15.5t15.5 -10t18.5 -3.5q22 0 36 13.5t14 35.5q0 21 -14 35t-35.5 14zM591.5 52q24.5 0 41 16.5t16.5 41.5t-16 41.5t-42 16.5q-24 0 -40 -16.5t-16 -41.5t16 -41.5
t40.5 -16.5z" />
    <glyph glyph-name="threeeighths" unicode="&#x215c;" horiz-adv-x="726" 
d="M517 700l54 -30l-382 -690l-52 32zM271 371q0 -52 -32 -86.5t-83 -34.5q-55 0 -89 36t-29 84h59q0 -24 15.5 -39.5t43.5 -15.5q51 0 51 57q0 28 -18.5 44t-52.5 16h-21v62h21q65 0 65 53q0 20 -14 33t-35 13t-35 -13.5t-14 -32.5h-60q-5 45 26.5 77.5t82.5 32.5
q49 0 81.5 -30.5t32.5 -70.5q0 -79 -97 -90q49 -6 75.5 -30t26.5 -65zM624 203q27 -11 42 -35.5t15 -57.5q0 -35 -16 -62.5t-44 -42.5t-63 -15q-53 0 -87.5 33.5t-34.5 86.5q0 33 15 57.5t42 35.5q-49 20 -49 82q0 23 9 44t24 35.5t36 23t45 8.5q33 0 59 -14.5t40.5 -40
t14.5 -56.5q0 -61 -48 -82zM558 331q-21 0 -35 -14t-14 -35q0 -14 7 -25.5t18 -17.5t24 -6q21 0 35.5 13.5t14.5 35.5q0 21 -14.5 35t-35.5 14zM558.5 52q24.5 0 41 16.5t16.5 41.5q0 16 -7.5 29.5t-20.5 21t-30 7.5q-25 0 -41 -16.5t-16 -41.5t16.5 -41.5t41 -16.5z" />
    <glyph glyph-name="fiveeighths" unicode="&#x215d;" horiz-adv-x="785" 
d="M576 700l54 -30l-382 -690l-52 32zM321 386q0 -59 -36 -97.5t-91 -38.5q-56 0 -93 35t-41 93h65q2 -18 10.5 -31.5t24 -20.5t34.5 -7q28 0 45.5 18.5t17.5 48.5q0 16 -4 28.5t-12 21.5t-19 14t-25 5q-47 0 -65 -42l-61 14l14 223h202v-63h-143l-7 -103q22 37 66 37
q52 0 85 -37.5t33 -97.5zM683 203q27 -11 42 -35.5t15 -57.5q0 -35 -16 -62.5t-44 -42.5t-63 -15q-53 0 -87.5 33.5t-34.5 86.5q0 16 4 30.5t11 26.5t17.5 21.5t24.5 14.5q-49 20 -49 82q0 48 32.5 79.5t81.5 31.5q50 0 82 -31.5t32 -79.5q0 -61 -48 -82zM617 331
q-21 0 -35 -14t-14 -35q0 -14 7 -25.5t18 -17.5t24 -6q21 0 35.5 13.5t14.5 35.5q0 21 -14.5 35t-35.5 14zM617.5 52q24.5 0 41 16.5t16.5 41.5q0 12 -4.5 23t-12 18.5t-18 12t-23.5 4.5q-25 0 -41 -16.5t-16 -41.5t16.5 -41.5t41 -16.5z" />
    <glyph glyph-name="seveneighths" unicode="&#x215e;" horiz-adv-x="645" 
d="M436 700l54 -30l-382 -690l-52 32zM107 260h-62l124 328h-149v62h216v-56zM543 203q27 -11 42 -35.5t15 -57.5q0 -53 -35 -86.5t-88 -33.5t-87.5 33.5t-34.5 86.5q0 33 15 57.5t42 35.5q-49 20 -49 82q0 48 32.5 79.5t81.5 31.5q33 0 59 -14.5t40.5 -40t14.5 -56.5
q0 -61 -48 -82zM477 331q-14 0 -25 -6.5t-17.5 -17.5t-6.5 -25t7 -25.5t18 -17.5t24 -6q22 0 36 13.5t14 35.5q0 21 -14.5 35t-35.5 14zM477.5 52q24.5 0 41 16.5t16.5 41.5t-16.5 41.5t-41.5 16.5q-24 0 -40.5 -16.5t-16.5 -41.5t16.5 -41.5t41 -16.5z" />
    <glyph glyph-name="uni2189" unicode="&#x2189;" horiz-adv-x="763" 
d="M581 700l54 -30l-382 -690l-52 32zM334 452q0 -88 -39 -145t-109.5 -57t-109.5 57t-39 145t39 145t109 57q47 0 81.5 -27t51 -72t16.5 -103zM185 328q39 0 60.5 33.5t21.5 90t-21.5 90.5t-60 34t-60 -34t-21.5 -90q0 -37 9.5 -65t28 -43.5t43.5 -15.5zM624 205
q49 -5 75.5 -29t26.5 -66q0 -33 -14 -60.5t-40.5 -43.5t-60.5 -16q-55 0 -89 36t-30 84h60q0 -24 15.5 -39.5t43.5 -15.5q50 0 50 57q0 28 -18 44t-52 16h-21v62h21q65 0 65 53q0 9 -4 18t-10.5 15t-15.5 9.5t-19 3.5q-21 0 -35 -13.5t-14 -32.5h-60q-5 45 26.5 77.5
t82.5 32.5q49 0 81.5 -30.5t32.5 -70.5q0 -80 -97 -91z" />
    <glyph glyph-name="arrowleft" unicode="&#x2190;" horiz-adv-x="842" 
d="M802 242h-605l115 -126l-55 -54l-197 217l197 217l55 -54l-115 -126h605v-74z" />
    <glyph glyph-name="arrowup" unicode="&#x2191;" horiz-adv-x="675" 
d="M555 515l-55 -55l-125 115l-1 -68v-537h-74v537v68l-126 -115l-54 55l217 197z" />
    <glyph glyph-name="arrowright" unicode="&#x2192;" horiz-adv-x="842" 
d="M584 496l198 -217l-198 -217l-54 54l114 126h-604v74h604l-114 126z" />
    <glyph glyph-name="arrowdown" unicode="&#x2193;" horiz-adv-x="675" 
d="M500 218l55 -54l-218 -198l-217 198l54 54l126 -114v67v537h74v-537l1 -67z" />
    <glyph glyph-name="arrowboth" unicode="&#x2194;" horiz-adv-x="1011" 
d="M753 496l198 -217l-198 -217l-54 54l114 126h-616l115 -126l-55 -54l-197 217l197 217l55 -54l-115 -126h616l-114 126z" />
    <glyph glyph-name="arrowupdn" unicode="&#x2195;" horiz-adv-x="675" 
d="M375 11l125 114l55 -54l-218 -198l-217 198l54 54l126 -114v68v481v67l-126 -114l-54 54l217 198l218 -198l-55 -54l-125 114l-1 -67v-481z" />
    <glyph glyph-name="uni2196" unicode="&#x2196;" horiz-adv-x="765" 
d="M665 138l-53 -52l-427 427l-8 -170h-77l14 293l294 14l-1 -77l-169 -8z" />
    <glyph glyph-name="uni2197" unicode="&#x2197;" horiz-adv-x="765" 
d="M665 342h-77l-8 170l-428 -427l-52 52l427 428l-170 8v77l294 -14z" />
    <glyph glyph-name="uni2198" unicode="&#x2198;" horiz-adv-x="765" 
d="M588 307h77l-14 -293l-294 -14v77l170 8l-427 427l52 53l428 -427z" />
    <glyph glyph-name="uni2199" unicode="&#x2199;" horiz-adv-x="765" 
d="M238 85l169 -8l1 -77l-294 14l-14 293h77l8 -170l427 428l53 -53z" />
    <glyph glyph-name="partialdiff" unicode="&#x2202;" horiz-adv-x="548" 
d="M146 710q352 -136 352 -458q0 -47 -14 -92.5t-40.5 -84t-71.5 -62t-101 -23.5q-105 0 -169.5 72.5t-64.5 186.5q0 113 61 187t154 74q85 0 129 -59q-69 120 -264 192zM271 66q73 0 111 51.5t38 131.5q0 56 -16 97t-50 64.5t-83 23.5t-84.5 -24t-53.5 -65.5t-18 -95.5
q0 -81 43 -132t113 -51z" />
    <glyph glyph-name="emptyset" unicode="&#x2205;" horiz-adv-x="668" 
d="M501 521q49 -39 78 -96t29 -123q0 -114 -80.5 -195t-193.5 -81q-56 0 -107 22l-67 -116l-60 35l67 116q-50 39 -78.5 96.5t-28.5 122.5q0 114 80.5 195.5t193.5 81.5q55 0 106 -22l67 116l61 -35zM130 302q0 -46 19.5 -87t53.5 -70l202 350q-34 13 -71 13
q-55 0 -102 -27.5t-74.5 -75t-27.5 -103.5zM334 97q84 0 144 60t60 145q0 47 -19.5 88t-53.5 70l-202 -350q34 -13 71 -13z" />
    <glyph glyph-name="product" unicode="&#x220f;" horiz-adv-x="704" 
d="M659 650v-75h-129v-575h-78v575h-200v-575h-78v575h-129v75h614z" />
    <glyph glyph-name="summation" unicode="&#x2211;" horiz-adv-x="591" 
d="M499 650v-73h-322l200 -260l-198 -243h320v-74h-415v72l202 246l-202 255v77h415z" />
    <glyph glyph-name="minus" unicode="&#x2212;" horiz-adv-x="438" 
d="M50 307h338v-74h-338v74z" />
    <glyph glyph-name="radical" unicode="&#x221a;" horiz-adv-x="623" 
d="M614 650v-73h-149l-185 -577h-73l-187 500h85l136 -391l165 541h82h126z" />
    <glyph glyph-name="infinity" unicode="&#x221e;" horiz-adv-x="860" 
d="M621 510q80 0 134.5 -62t54.5 -148q0 -88 -54.5 -149.5t-134.5 -61.5q-62 0 -106.5 37t-85.5 103q-40 -66 -84.5 -102.5t-105.5 -36.5q-80 0 -134.5 61.5t-54.5 148.5t54.5 148.5t134.5 61.5q62 0 106 -37t85 -103q40 66 84.5 103t106.5 37zM622 160q33 0 60.5 18.5
t42.5 51t15 70.5q0 57 -34 98t-84 41q-24 0 -45 -10t-40.5 -32.5t-33 -43t-32.5 -53.5q19 -34 32.5 -54.5t33 -42.5t40.5 -32.5t45 -10.5zM238 161q24 0 45 10t40 32t32.5 42.5t32.5 54.5q-19 33 -32.5 53.5t-32.5 42.5t-40 32t-45 10q-50 0 -84 -40t-34 -98t34 -98.5
t84 -40.5z" />
    <glyph glyph-name="integral" unicode="&#x222b;" horiz-adv-x="387" 
d="M324 760h43v-79h-45q-41 2 -65.5 -19t-24.5 -71v-531q0 -86 -45.5 -128t-124.5 -42h-42v79h44q42 -2 66 19t24 71v531q0 86 45.5 128t124.5 42z" />
    <glyph glyph-name="approxequal" unicode="&#x2248;" horiz-adv-x="495" 
d="M379 427h65q5 -36 -6 -65.5t-34.5 -45.5t-56.5 -16q-27 0 -54 11.5t-45 25t-40 25t-40 11.5q-25 0 -38.5 -16t-13.5 -36h-64q-6 37 5 65.5t37 45t64 16.5q27 0 54 -11.5t45 -25t40 -25t40 -11.5q42 0 42 52zM378 251h66q7 -56 -20 -91.5t-77 -35.5q-27 0 -54 11.5t-45 25
t-40 25t-40 11.5q-25 0 -38.5 -16t-13.5 -36h-64q-8 56 20.5 91.5t85.5 35.5q27 0 54 -11.5t45 -25t40 -25t40 -11.5q41 0 41 52z" />
    <glyph glyph-name="notequal" unicode="&#x2260;" horiz-adv-x="465" 
d="M415 330h-135l-28 -105h163v-74h-183l-34 -129l-64 18l30 111h-114v74h134l28 105h-162v74h182l36 134l63 -18l-31 -116h115v-74z" />
    <glyph glyph-name="lessequal" unicode="&#x2264;" horiz-adv-x="597" 
d="M469 116l-340 135h-1v91h1l320 186l40 -67l-270 -157l277 -115zM147 -10v75h339v-75h-339z" />
    <glyph glyph-name="greaterequal" unicode="&#x2265;" horiz-adv-x="539" 
d="M468 342v-91l-341 -136l-27 74l277 115l-270 157l40 67zM110 -10v75h340v-75h-340z" />
    <glyph glyph-name="lozenge" unicode="&#x25ca;" horiz-adv-x="545" 
d="M272 680l223 -343l-222 -343l-223 343zM272 543l-140 -206l141 -206l140 206z" />
    <glyph glyph-name="uniF8FF" unicode="&#xf8ff;" horiz-adv-x="860" 
d="M430 660q174 0 287 -92t113 -243t-113 -243t-287 -92t-287 92t-113 243t113 243t287 92zM408 604q-89 -13 -134 -122q54 -9 134 -10v132zM452 604v-132q79 1 134 10q-45 109 -134 122zM235 489q32 71 86 107q-94 -22 -153 -80q28 -17 67 -27zM539 596q53 -36 85 -106
q39 11 66 27q-58 57 -151 79zM768 345q-5 85 -54 147q-31 -24 -75 -39q17 -52 20 -108h109zM145 490q-48 -62 -53 -145h109q3 56 20 107q-45 15 -76 38zM453 345h162q-3 52 -16 98q-61 -13 -146 -15v-83zM408 428q-87 1 -148 14q-12 -46 -15 -97h163v83zM92 305
q5 -81 50 -141q31 25 78 40q-16 50 -19 101h-109zM408 305h-163q3 -46 15 -91q61 13 148 15v76zM452 229q87 -2 148 -15q12 44 14 91h-162v-76zM717 162q46 61 51 143h-109q-3 -52 -20 -102q47 -15 78 -41zM407 185q-80 -1 -134 -10q21 -53 55 -87t79 -42v139zM452 46
q46 7 80 41.5t55 86.5q-55 9 -135 11v-139zM164 138q61 -62 160 -85q-56 38 -90 114q-41 -11 -70 -29zM536 53q98 23 159 84q-28 18 -70 29q-34 -75 -89 -113z" />
    <glyph glyph-name="i.loclTRK" horiz-adv-x="198" 
d="M150 700v-97h-102v97h102zM60 500h78v-500h-78v500z" />
    <glyph glyph-name="T_h" horiz-adv-x="1008" 
d="M772 510q32 0 60.5 -8.5t54.5 -27.5t42 -55.5t16 -86.5v-332h-78v313q0 118 -109 118q-22 0 -41 -5.5t-33.5 -14t-26.5 -20.5t-20 -24t-15 -26.5t-10.5 -25.5t-6.5 -22v-293h-78v577h-217v-577h-77v577h-218v73h590v-290q5 26 15 48.5t28.5 47.5t50.5 39.5t73 14.5z" />
    <glyph glyph-name="t_i" horiz-adv-x="579" 
d="M416 700h102v-97h-102v97zM506 500v-500h-78v426h-232v-426h-78v426h-93v74h93v130h78v-130h310z" />
    <glyph glyph-name="t_y" horiz-adv-x="817" 
d="M714 500h83l-277 -700h-82l90 207l-162 419h-170v-426h-78v426h-93v74h93v130h78v-130h224l147 -396z" />
    <glyph glyph-name="zero.lf" horiz-adv-x="583" 
d="M296 660q57 0 104 -26t78 -71t48 -106t17 -132q0 -95 -28.5 -170.5t-85.5 -120t-132.5 -44.5t-132.5 44.5t-85.5 120t-28.5 170.5t28.5 170.5t85.5 120t132 44.5zM296.5 69q76.5 0 122.5 70.5t46 186t-46 185.5t-122.5 70t-122.5 -70t-46 -185.5t46 -186t122.5 -70.5z
" />
    <glyph glyph-name="one.lf" horiz-adv-x="319" 
d="M30 650h194v-650h-78v576h-116v74z" />
    <glyph glyph-name="two.lf" horiz-adv-x="492" 
d="M130 74h283v-74h-373v74q9 11 28 34q173 214 211.5 271t38.5 106q0 44 -28.5 73t-71.5 29q-45 0 -77 -29t-32 -73h-67q-8 72 45.5 123.5t130.5 51.5q53 0 94 -23.5t62 -63t21 -89.5q0 -16 -3 -33t-10.5 -35t-15 -34t-21 -36t-23 -34t-27 -36t-27 -34t-29 -35t-27.5 -33z
" />
    <glyph glyph-name="three.lf" horiz-adv-x="448" 
d="M264 342q147 -21 147 -164q0 -79 -53 -133.5t-137 -54.5q-80 0 -135.5 55.5t-47.5 131.5h68q0 -32 15 -58t42 -41t58 -15q51 0 81.5 32t30.5 86q0 35 -15 62.5t-43 42.5t-65 15h-56v73h56q54 0 84 30t30 81q0 29 -14 52.5t-37.5 36.5t-53.5 13q-44 0 -74 -29t-30 -73h-68
q-5 48 17.5 88.5t64 63.5t90.5 23q81 0 131.5 -50.5t50.5 -125.5q0 -70 -35.5 -102.5t-101.5 -39.5z" />
    <glyph glyph-name="four.lf" horiz-adv-x="530" 
d="M485 220v-75h-91v-145h-78v145h-271v75l271 430h78v-430h91zM131 220h185v297z" />
    <glyph glyph-name="five.lf" 
d="M288 420q54 0 98.5 -26t71 -76t26.5 -114q0 -96 -61 -155t-146 -59q-88 0 -149.5 53.5t-67.5 142.5h78q4 -37 23.5 -64.5t49.5 -41t66 -13.5q53 0 91 37t38 100t-36.5 101t-87.5 38q-94 0 -130 -84l-73 15l20 376h324v-74h-250l-14 -246q17 46 51.5 68t77.5 22z" />
    <glyph glyph-name="six.lf" horiz-adv-x="492" 
d="M250 420q82 0 138.5 -60t54.5 -156.5t-63 -155t-150 -58.5q-88 0 -147.5 58.5t-57.5 154.5q1 49 23 108l157 339h83l-136 -280q44 50 98 50zM365 204q1 64 -36 101.5t-92 37.5q-59 0 -96 -40t-38 -100q-1 -63 36 -100t92 -37q56 0 94.5 37t39.5 101z" />
    <glyph glyph-name="seven.lf" horiz-adv-x="403" 
d="M332 650h51v-73l-222 -577h-75l218 577h-284v73h312v0z" />
    <glyph glyph-name="eight.lf" horiz-adv-x="467" 
d="M316 342q52 -19 83 -61t31 -103q0 -79 -54.5 -133.5t-142 -54.5t-142 54.5t-54.5 133.5q0 61 31 103t83 61q-100 34 -100 142q0 75 51 125.5t131 50.5q54 0 96 -23.5t64 -63.5t22 -89q0 -108 -99 -142zM233.5 587q-43.5 0 -74 -29t-30.5 -74q0 -44 30.5 -74.5t74 -30.5
t74 30.5t30.5 74.5q0 45 -30.5 74t-74 29zM233 63q51 0 85 33t34 81q0 52 -34 85.5t-84.5 33.5t-84.5 -33.5t-34 -85.5q0 -32 15.5 -58t42.5 -41t60 -15z" />
    <glyph glyph-name="nine.lf" horiz-adv-x="492" 
d="M249 660q88 0 147.5 -58.5t58.5 -154.5q-1 -49 -24 -108l-156 -339h-83l136 280q-44 -50 -98 -50q-79 0 -137 60.5t-56 156.5t63 154.5t149 58.5zM243 307q59 0 96 40t38 100q1 42 -16.5 74t-46.5 47.5t-65 15.5q-56 0 -94.5 -37t-39.5 -101q-1 -43 16.5 -75t46.5 -48
t65 -16z" />
    <glyph glyph-name="zero.osf" horiz-adv-x="556" 
d="M279 -10q-99 0 -170.5 71.5t-71.5 187.5t71.5 188.5t170.5 72.5q98 0 169 -72.5t71 -188.5t-70.5 -187.5t-169.5 -71.5zM279 66q65 0 113.5 49.5t48.5 133.5q0 83 -48.5 134t-113.5 51q-31 0 -60 -12.5t-52.5 -35.5t-37.5 -58.5t-14 -78.5q0 -84 49 -133.5t115 -49.5z
" />
    <glyph glyph-name="one.osf" horiz-adv-x="319" 
d="M25 500h194v-500h-78v427h-116v73z" />
    <glyph glyph-name="two.osf" horiz-adv-x="482" 
d="M179 74h253v-74h-364v74q40 32 91.5 68t77.5 55t52.5 43t36.5 47t10 52q0 28 -12.5 50t-36 35t-53.5 13q-44 0 -75 -29t-31 -73h-68q-5 48 18 88.5t65 64t91 23.5q84 0 132 -48.5t48 -118.5q0 -55 -32.5 -98.5t-99.5 -94.5z" />
    <glyph glyph-name="three.osf" horiz-adv-x="448" 
d="M264 192q147 -21 147 -165q0 -79 -53 -133t-137 -54q-80 0 -135.5 55.5t-47.5 131.5h68q0 -49 33.5 -81.5t81.5 -32.5q51 0 81.5 32t30.5 86q0 35 -15 62t-43 42.5t-65 15.5h-56v73h56q54 0 84 30t30 80q0 30 -14 53t-37.5 36t-53.5 13q-28 0 -52 -12.5t-38 -36
t-14 -53.5h-68q-7 73 44.5 124.5t127.5 51.5q54 0 96 -23.5t64 -63.5t22 -90q0 -36 -9.5 -62t-28.5 -42t-43 -25t-56 -12z" />
    <glyph glyph-name="four.osf" horiz-adv-x="530" 
d="M485 74v-74h-91v-145h-78v145h-271v74l271 431h78v-431h91zM131 74h185v297z" />
    <glyph glyph-name="five.osf" 
d="M288 270q87 0 141 -59t54 -157q0 -97 -59.5 -155.5t-146.5 -58.5q-88 0 -149.5 53.5t-67.5 142.5h78q6 -56 44.5 -87.5t94.5 -31.5q54 0 91.5 36.5t37.5 100.5q0 65 -34.5 102t-89.5 37q-94 0 -130 -84l-73 15l20 376h324v-74h-250l-14 -246q17 46 51.5 68t77.5 22z" />
    <glyph glyph-name="six.osf" horiz-adv-x="480" 
d="M250 420q82 0 138.5 -60t54.5 -156.5t-63 -155t-150 -58.5q-88 0 -147.5 58.5t-57.5 154.5q1 49 23 108l157 339h83l-136 -280q44 50 98 50zM365 204q1 64 -36 101.5t-92 37.5q-59 0 -96 -40t-38 -100q-1 -63 36 -100t92 -37q56 0 94.5 37t39.5 101z" />
    <glyph glyph-name="seven.osf" horiz-adv-x="402" 
d="M332 500h50v-73l-221 -577h-76l218 577h-283v73h311h1z" />
    <glyph glyph-name="eight.osf" horiz-adv-x="483" 
d="M324 342q52 -19 83 -61t31 -103q0 -79 -54.5 -133.5t-142 -54.5t-142 54.5t-54.5 133.5q0 61 31 103t83 61q-100 34 -100 142q0 75 51 125.5t132 50.5q53 0 95 -23.5t64.5 -63.5t22.5 -89q0 -108 -100 -142zM242 587q-29 0 -52.5 -13t-38 -36.5t-14.5 -53.5
q0 -44 30.5 -74.5t74 -30.5t74 30.5t30.5 74.5q0 45 -30.5 74t-73.5 29zM242 63q50 0 84 33t34 81q0 52 -34 85.5t-84 33.5q-34 0 -61 -15t-42.5 -42t-15.5 -62q0 -32 15.5 -58t42.5 -41t61 -15z" />
    <glyph glyph-name="nine.osf" horiz-adv-x="480" 
d="M249 510q88 0 147.5 -58.5t58.5 -154.5q-1 -49 -24 -108l-156 -339h-83l136 280q-44 -49 -98 -49q-79 0 -137 60t-56 156t63 154.5t149 58.5zM243 157q59 0 96 40t38 100q1 63 -36 100t-92.5 37t-94 -37t-39.5 -101t36 -101.5t92 -37.5z" />
    <glyph glyph-name="zero.tf" 
d="M272 660q57 0 101 -25.5t71 -71.5t41 -106t14 -132t-14 -132t-41 -106t-71 -71.5t-101 -25.5q-76 0 -128 45t-75.5 119t-23.5 171t23.5 171t75.5 119t128 45zM272 69q75 0 112 68.5t37 188t-37 187.5t-112 68q-50 0 -84 -32.5t-49.5 -89t-15.5 -134.5q0 -119 37 -187.5
t112 -68.5z" />
    <glyph glyph-name="one.tf" 
d="M323 74h143v-74h-384v74h163v502h-154v74h232v-576z" />
    <glyph glyph-name="two.tf" 
d="M175 74h283v-74h-373v74q10 12 28 34q173 214 211.5 271t38.5 106q0 29 -13 52.5t-36 36.5t-51 13q-44 0 -76 -29t-32 -73h-68q-7 72 46.5 123.5t129.5 51.5q81 0 129.5 -50t48.5 -126q0 -20 -5 -41.5t-18.5 -47.5t-22 -42t-33 -48t-32 -42.5t-38 -47t-34.5 -41.5z" />
    <glyph glyph-name="three.tf" 
d="M312 342q147 -21 147 -164q0 -79 -53 -133.5t-137 -54.5q-80 0 -135.5 55.5t-47.5 131.5h68q0 -32 15 -58t42 -41t58 -15q51 0 81.5 32t30.5 86q0 35 -15 62.5t-43 42.5t-65 15h-56v73h56q54 0 84 30t30 81q0 29 -14 52.5t-37.5 36.5t-53.5 13q-44 0 -74 -29t-30 -73h-68
q-7 72 44.5 123.5t127.5 51.5q81 0 131.5 -50.5t50.5 -125.5q0 -70 -35.5 -102.5t-101.5 -39.5z" />
    <glyph glyph-name="four.tf" 
d="M492 220v-75h-91v-145h-78v145h-271v75l271 430h78v-430h91zM138 220h185v297z" />
    <glyph glyph-name="five.tf" 
d="M293 420q38 0 72.5 -15.5t60.5 -43t41.5 -68.5t15.5 -89q0 -96 -60 -155t-141 -59q-85 0 -145.5 53.5t-66.5 142.5h78q6 -56 42.5 -87.5t91.5 -31.5q49 0 86 37t37 100t-35.5 101t-82.5 38q-89 0 -125 -84l-73 15l20 376h313v-74h-239l-14 -245q11 30 30.5 50.5
t42.5 29.5t51 9z" />
    <glyph glyph-name="six.tf" 
d="M276 420q82 0 138.5 -60t54.5 -156.5t-63 -155t-149.5 -58.5t-148 58.5t-58.5 154.5q1 49 24 108l157 339h82l-136 -280q44 50 99 50zM391 204q1 64 -36 101.5t-92 37.5q-60 0 -97 -40t-38 -100q-1 -63 36 -100t93 -37t94.5 37t39.5 101z" />
    <glyph glyph-name="seven.tf" 
d="M402 650h51v-73l-221 -577h-76l218 577h-284v73h312v0z" />
    <glyph glyph-name="eight.tf" 
d="M362 342q52 -19 83 -61t31 -103q0 -79 -54.5 -133.5t-142 -54.5t-142 54.5t-54.5 133.5q0 61 31 103t83 61q-100 34 -100 142q0 75 50.5 125.5t131.5 50.5t131.5 -50.5t50.5 -125.5q0 -108 -99 -142zM279.5 587q-43.5 0 -74 -29t-30.5 -74q0 -44 30.5 -74.5t73.5 -30.5
t73.5 30.5t30.5 74.5q0 45 -30 74t-73.5 29zM279.5 63q50.5 0 84.5 33t34 81q0 52 -34 85.5t-85 33.5t-84.5 -33.5t-33.5 -85.5q0 -48 34 -81t84.5 -33z" />
    <glyph glyph-name="nine.tf" 
d="M275.5 660q88.5 0 148 -58.5t57.5 -154.5q-1 -49 -23 -108l-157 -339h-83l137 280q-45 -49 -99 -49q-80 0 -137.5 60t-56.5 156q2 96 63.5 154.5t150 58.5zM269 307q59 0 96 40t38 100q1 64 -36 100.5t-92.5 36.5t-94.5 -37t-40 -101t36 -101.5t93 -37.5z" />
    <glyph glyph-name="zero.tosf" 
d="M273 -10q-64 0 -116.5 30.5t-84 90.5t-31.5 138t31.5 138t84 91.5t116.5 31.5q97 0 163.5 -72t66.5 -189t-66.5 -188t-163.5 -71zM273 67q63 0 107.5 49t44.5 133t-44.5 134t-107.5 50q-64 0 -109 -49.5t-45 -134.5t44.5 -133.5t109.5 -48.5z" />
    <glyph glyph-name="one.tosf" 
d="M323 74h133v-74h-354v74h143v352h-154v74h232v-426z" />
    <glyph glyph-name="two.tosf" 
d="M205 74h253v-74h-364v74q36 28 78.5 58.5t67.5 47.5t51.5 38.5t40 38t22.5 37.5t9 45q0 42 -29 70t-74 28q-44 0 -75 -29t-31 -73h-68q-7 72 45.5 124t128.5 52q84 0 132 -48.5t48 -118.5q0 -55 -32 -98.5t-100 -94.5z" />
    <glyph glyph-name="three.tosf" 
d="M312 192q146 -21 146 -165q0 -51 -23 -93.5t-67 -68t-99 -25.5q-80 0 -135.5 55.5t-48.5 131.5h68q0 -32 15.5 -58.5t42 -41t58.5 -14.5q51 0 81.5 32t30.5 86q0 35 -15 62t-43.5 42.5t-65.5 15.5h-56v73h56q55 0 84.5 30t29.5 80q0 30 -13.5 53t-37.5 36t-53 13
t-52.5 -12.5t-37.5 -36t-14 -53.5h-68q-8 73 43.5 124.5t128.5 51.5q54 0 95.5 -23.5t64 -63.5t22.5 -90q0 -36 -10 -62t-28.5 -42t-42.5 -25t-56 -12z" />
    <glyph glyph-name="four.tosf" 
d="M485 74v-74h-91v-145h-78v145h-271v74l271 431h78v-431h91zM131 74h185v297z" />
    <glyph glyph-name="five.tosf" 
d="M291 270q80 0 134.5 -59.5t54.5 -156.5q0 -96 -59 -155t-141 -59q-88 0 -148 53.5t-66 143.5h78q6 -57 43 -88.5t93 -31.5q50 0 86 37t36 100t-34.5 101t-82.5 38q-94 0 -130 -84l-73 15l20 376h320v-73h-246l-14 -247q17 46 51.5 68t77.5 22z" />
    <glyph glyph-name="six.tosf" 
d="M288 420q82 0 138.5 -60t54.5 -156.5t-63 -155t-149.5 -58.5t-148 58.5t-58.5 154.5q1 49 24 108l157 339h83l-137 -280q45 50 99 50zM403 204q1 64 -36 101.5t-92 37.5q-59 0 -96.5 -40t-38.5 -100q-1 -63 36 -100t93 -37t94.5 37t39.5 101z" />
    <glyph glyph-name="seven.tosf" 
d="M396 500h51v-73l-222 -577h-76l219 577h-284v73h312v0z" />
    <glyph glyph-name="eight.tosf" 
d="M363 342q52 -19 83 -61t31 -103q0 -79 -54.5 -133.5t-142 -54.5t-142 54.5t-54.5 133.5q0 61 31 103t83 61q-100 34 -100 142q0 75 50.5 125.5t131.5 50.5q54 0 95.5 -23.5t64 -63.5t22.5 -89q0 -108 -99 -142zM280.5 587q-43.5 0 -74 -29t-30.5 -74q0 -44 30.5 -74.5
t73.5 -30.5t73.5 30.5t30.5 74.5q0 45 -30 74t-73.5 29zM280.5 63q50.5 0 84.5 33t34 81q0 52 -34 85.5t-85 33.5t-84.5 -33.5t-33.5 -85.5q0 -48 34 -81t84.5 -33z" />
    <glyph glyph-name="nine.tosf" 
d="M275 510q89 0 148.5 -58.5t57.5 -153.5q-1 -50 -23 -109l-157 -339h-83l137 281q-45 -50 -99 -50q-80 0 -137.5 60t-56.5 156q2 64 31.5 113.5t77 74.5t104.5 25zM269 157q59 0 96 40t38 100q1 64 -36 100.5t-92.5 36.5t-94.5 -37t-40 -101t36 -101.5t93 -37.5z" />
    <glyph glyph-name="zero.dnom" horiz-adv-x="371" 
d="M185.5 393q70.5 0 109.5 -56.5t39 -145t-39 -145t-109.5 -56.5t-109.5 56.5t-39 145t39 145t109.5 56.5zM185 68q39 0 60.5 33.5t21.5 90t-21.5 90t-60 33.5t-60 -33.5t-21.5 -89.5q0 -28 5.5 -51t15.5 -39t25.5 -25t34.5 -9z" />
    <glyph glyph-name="one.dnom" horiz-adv-x="290" 
d="M183 64h72v-64h-230v64h84v261h-78v64h152v-325z" />
    <glyph glyph-name="two.dnom" horiz-adv-x="315" 
d="M40 0v64q4 5 12 13q30 32 45 48.5t38 43.5t34 43.5t19.5 36t8.5 33.5q0 51 -48 51q-23 0 -35 -13t-12 -28h-61q-4 45 28.5 75.5t83.5 30.5q52 0 81.5 -29.5t29.5 -76.5q0 -26 -8.5 -50.5t-28.5 -51.5t-33.5 -43t-40.5 -44l-35 -39h157v-64h-235z" />
    <glyph glyph-name="three.dnom" horiz-adv-x="308" 
d="M169 205q32 -3 54.5 -15t35 -32t12.5 -48q0 -51 -32 -85.5t-83 -34.5q-55 0 -89 36t-29 84h59q0 -12 4 -22t11 -17.5t18.5 -11.5t25.5 -4q51 0 51 57q0 28 -18.5 44t-52.5 16h-21v62h21q65 0 65 53q0 19 -14 32.5t-35 13.5t-35 -13.5t-14 -32.5h-60q-5 45 26.5 77.5
t82.5 32.5q33 0 59.5 -14.5t40.5 -37.5t14 -49q0 -80 -97 -91z" />
    <glyph glyph-name="four.dnom" horiz-adv-x="350" 
d="M305 140v-64h-39v-76h-68v76h-153v59l155 254h66v-249h39zM198 279l-78 -139h78v139z" />
    <glyph glyph-name="five.dnom" horiz-adv-x="366" 
d="M203 260q52 0 85 -37.5t33 -96.5q0 -60 -36 -98t-91 -38q-56 0 -93 35t-41 93h65q2 -27 21 -43.5t48 -16.5q28 0 45.5 18.5t17.5 49.5t-16.5 49.5t-43.5 18.5q-47 0 -65 -41l-61 14l14 223h202v-63h-143l-7 -103q22 36 66 36z" />
    <glyph glyph-name="six.dnom" horiz-adv-x="322" 
d="M164 262q52 0 86.5 -39.5t34.5 -97.5q0 -59 -37 -97t-91 -38q-57 0 -94.5 38.5t-37.5 91.5q0 30 14 70q7 17 29.5 66.5t41.5 91.5l20 41h74l-72 -137q13 10 32 10zM158 56q28 0 45 20t17 51.5t-17.5 51.5t-46.5 20t-48 -20.5t-19 -51.5q0 -30 19 -50.5t50 -20.5z" />
    <glyph glyph-name="seven.dnom" horiz-adv-x="256" 
d="M20 389h216v-55l-129 -334h-62l124 328h-149v61z" />
    <glyph glyph-name="eight.dnom" horiz-adv-x="335" 
d="M233 203q27 -11 42 -35.5t15 -57.5q0 -53 -35 -86.5t-88 -33.5t-87.5 33.5t-34.5 86.5q0 33 15 57.5t42 35.5q-49 20 -49 82q0 48 32.5 79.5t81.5 31.5q24 0 45.5 -8.5t36.5 -23t23.5 -35.5t8.5 -44q0 -61 -48 -82zM167 331q-14 0 -25 -6.5t-17.5 -17.5t-6.5 -25
t6.5 -25.5t17.5 -17.5t25 -6q21 0 35.5 13.5t14.5 35.5q0 14 -7 25t-18 17.5t-25 6.5zM167 52q25 0 41.5 16.5t16.5 41.5t-16.5 41.5t-41.5 16.5t-41 -16.5t-16 -41.5t16 -41.5t41 -16.5z" />
    <glyph glyph-name="nine.dnom" horiz-adv-x="322" 
d="M169 397q55 0 91.5 -38.5t36.5 -91.5q0 -30 -15 -70q-6 -17 -28.5 -66t-42.5 -90l-19 -41h-75l73 135q-14 -10 -32 -10q-52 0 -86.5 39.5t-34.5 97.5q0 59 37.5 97t94.5 38zM166 188q29 0 48 20.5t19 51.5q0 30 -19 50.5t-48 20.5q-20 0 -34.5 -9.5t-22 -25.5t-7.5 -36
q0 -13 3 -24t8.5 -19.5t13 -15t17.5 -10t22 -3.5z" />
    <glyph glyph-name="zero.numr" horiz-adv-x="371" 
d="M185 654q47 0 81.5 -27t51 -72t16.5 -103q0 -88 -39 -145t-109.5 -57t-109.5 57t-39 145t39 145t109 57zM185 328q39 0 60.5 33.5t21.5 90t-21.5 90.5t-60 34t-60 -34t-21.5 -90q0 -28 5.5 -50.5t15.5 -39t25.5 -25.5t34.5 -9z" />
    <glyph glyph-name="one.numr" horiz-adv-x="290" 
d="M183 324h72v-64h-230v64h84v261h-78v65h152v-326z" />
    <glyph glyph-name="two.numr" horiz-adv-x="315" 
d="M40 260v65q4 4 12 13q30 31 45 47.5t38 43.5t34 43.5t19.5 36t8.5 33.5q0 52 -48 52q-23 0 -35 -13.5t-12 -28.5h-61q-4 45 28.5 75.5t83.5 30.5q52 0 81.5 -29.5t29.5 -76.5q0 -25 -8.5 -50t-28.5 -52t-33.5 -42.5t-40.5 -44.5l-35 -38h157v-65h-235z" />
    <glyph glyph-name="three.numr" horiz-adv-x="308" 
d="M169 466q32 -4 54.5 -15.5t35 -32t12.5 -47.5q0 -52 -32 -86.5t-83 -34.5q-55 0 -89 36t-29 84h59q0 -9 2.5 -17.5t7.5 -15t11.5 -11.5t16.5 -8t21 -3q51 0 51 57q0 28 -18.5 44t-52.5 16h-21v62h21q65 0 65 53q0 20 -14 33t-35 13t-35 -13.5t-14 -32.5h-60
q-5 45 26.5 77.5t82.5 32.5q49 0 81.5 -30.5t32.5 -70.5q0 -79 -97 -90z" />
    <glyph glyph-name="four.numr" horiz-adv-x="350" 
d="M305 400v-64h-39v-76h-68v76h-153v60l155 254h66v-250h39zM198 540l-78 -139h78v139z" />
    <glyph glyph-name="five.numr" horiz-adv-x="366" 
d="M203 521q52 0 85 -37.5t33 -97.5q0 -59 -36 -97.5t-91 -38.5q-56 0 -93 35t-41 93h65q2 -27 21 -43t48 -16q28 0 45.5 18.5t17.5 48.5q0 32 -16.5 50.5t-43.5 18.5q-47 0 -65 -42l-61 14l14 223h202v-63h-143l-7 -103q22 37 66 37z" />
    <glyph glyph-name="six.numr" horiz-adv-x="322" 
d="M164 522q52 0 86.5 -39.5t34.5 -97.5q0 -59 -37 -97t-91 -38q-57 0 -94.5 38.5t-37.5 91.5q0 31 14 71q7 16 29.5 65.5t41.5 91.5l20 41h74l-72 -137q13 10 32 10zM158 317q28 0 45 19.5t17 51t-17.5 52t-46.5 20.5t-48 -20.5t-19 -51.5t19 -51t50 -20z" />
    <glyph glyph-name="seven.numr" horiz-adv-x="256" 
d="M20 650h216v-56l-129 -334h-62l124 328h-149v62z" />
    <glyph glyph-name="eight.numr" horiz-adv-x="335" 
d="M233 464q27 -12 42 -36.5t15 -57.5q0 -52 -35 -86t-88 -34q-35 0 -62.5 15t-43.5 42.5t-16 62.5q0 33 15 58t42 36q-49 20 -49 81q0 48 32.5 79.5t81.5 31.5q50 0 82 -31.5t32 -79.5q0 -61 -48 -81zM167 591q-21 0 -35 -13.5t-14 -34.5q0 -23 14 -36.5t35 -13.5
q14 0 25 6t18 17.5t7 26.5q0 13 -7 24.5t-18 17.5t-25 6zM167 313q16 0 29 7t21 20.5t8 29.5q0 12 -4.5 23t-12 19t-18.5 12t-23 4q-25 0 -41 -16.5t-16 -41.5t16 -41t41 -16z" />
    <glyph glyph-name="nine.numr" horiz-adv-x="322" 
d="M169 657q55 0 91.5 -38.5t36.5 -91.5q0 -30 -15 -70q-3 -8 -9.5 -23t-14.5 -32.5t-17 -37.5t-18 -38t-16 -33t-11 -24l-4 -9h-75l73 136q-14 -11 -32 -11q-52 0 -86.5 39.5t-34.5 97.5q0 60 37.5 97.5t94.5 37.5zM166 448q29 0 48 20.5t19 51.5q0 30 -19 50.5t-48 20.5
q-30 0 -47 -20t-17 -51q0 -12 3 -23t8.5 -20t13 -15.5t17.5 -10t22 -3.5z" />
    <glyph glyph-name="exclamdown.case" horiz-adv-x="222" 
d="M162 554h-102v97h102v-97zM73 1v449h76v-449h-76z" />
    <glyph glyph-name="questiondown.case" horiz-adv-x="457" 
d="M301 651v-97h-102v97h102zM333 166h79q-1 -74 -54.5 -125t-129.5 -51q-54 0 -96 23.5t-64.5 63.5t-22.5 89q0 77 43 124.5t114 57.5v102h78v-173l-43 -1q-49 0 -81.5 -32t-32.5 -78q0 -45 29 -73.5t76 -28.5q44 0 75 29t30 73z" />
    <glyph glyph-name="parenleft.case" horiz-adv-x="304" 
d="M254 -47l-66 -45q-6 6 -15 18t-33 52.5t-42 85.5t-33 116.5t-15 145.5q0 54 7.5 106.5t19.5 93t27 76.5t29.5 61.5t27 44.5t19.5 28l8 9l66 -46q-5 -5 -13.5 -15.5t-30 -46.5t-38 -76t-30 -104t-13.5 -131q0 -38 4.5 -75.5t11.5 -68t16.5 -59.5t19.5 -51.5t20.5 -42
t20 -33t16.5 -23.5t12 -15z" />
    <glyph glyph-name="parenright.case" horiz-adv-x="304" 
d="M50 -47q2 3 6.5 8.5t17.5 24t25 39t26.5 54t25 69t17.5 82.5t7 96q0 67 -13 130.5t-31.5 105.5t-36.5 74.5t-31 47.5l-13 15l66 46q5 -6 14.5 -18t33.5 -53t42 -86t33 -116.5t15 -145.5t-14.5 -144.5t-34.5 -118t-40.5 -84.5t-34.5 -54l-14 -17z" />
    <glyph glyph-name="exclam_question" horiz-adv-x="607" 
d="M542 434q-17 -75 -69.5 -112t-124.5 -31l-22 -101l-77 17l39 171l42 -9q32 -7 61 1.5t49 30t26 50.5q10 43 -11 77.5t-62 43.5q-48 11 -85 -9.5t-47 -64.5l-76 17q17 72 80.5 109.5t137.5 21.5q79 -18 117.5 -78.5t21.5 -133.5zM45 628l74 17l100 -438l-74 -16zM280 97
v-97h-102v97h102z" />
    <glyph glyph-name="ampersand.case" horiz-adv-x="686" 
d="M671 375v-75h-148v-446h-68v146h-375v650h296v-73h-218v-202h513zM455 74v226h-297v-226h297z" />
    <glyph glyph-name="ampersand.ss01" horiz-adv-x="572" 
d="M542 0h-84l-33 50q-66 -60 -162 -60q-98 0 -155.5 57t-57.5 139q0 73 46.5 123.5t117.5 62.5l-134 204v74h364v-74h-274l261 -404q22 50 27 116h68q-7 -104 -54 -180zM273 63q68 0 114 45l-133 202q-60 -4 -93 -37.5t-33 -85.5q0 -58 41 -91t104 -33z" />
    <glyph glyph-name="caroncomb.alt" horiz-adv-x="0" 
d="M-90 700v-97h-102v97h102z" />
    </font>
</defs>
</svg>
